<svg id="svg" version="1.1" viewBox="0 0 300 300" width="300" height="300" xmlns="http://www.w3.org/2000/svg"><svg xmlns="http://www.w3.org/2000/svg"><defs><clipPath id="clip-1"><rect x="0" y="0" transform="scale(0.14648,0.14648)" width="2048" height="2048" fill="none"/></clipPath><linearGradient x1="149.76123" y1="299.44482" x2="150.05127" y2="0.2946" gradientUnits="userSpaceOnUse" id="color-1"><stop offset="0" stop-color="#ff6b1b"/><stop offset="1" stop-color="#ffd80f"/></linearGradient><linearGradient x1="251.15039" y1="320.55908" x2="229.45898" y2="271.04736" gradientUnits="userSpaceOnUse" id="color-2"><stop offset="0" stop-color="#fe4e1a"/><stop offset="1" stop-color="#ff721b"/></linearGradient><linearGradient x1="151.00342" y1="242.91357" x2="146.38989" y2="39.49863" gradientUnits="userSpaceOnUse" id="color-3"><stop offset="0" stop-color="#441507"/><stop offset="1" stop-color="#7f3e13"/></linearGradient><linearGradient x1="114.50156" y1="102.43535" x2="115.27046" y2="107.66938" gradientUnits="userSpaceOnUse" id="color-4"><stop offset="0" stop-color="#f5b8a8"/><stop offset="1" stop-color="#ffe3d2"/></linearGradient></defs><g clip-path="url(#clip-1)" fill="none" fill-rule="nonzero" stroke="none" stroke-width="1" stroke-linecap="butt" stroke-linejoin="miter" stroke-miterlimit="10" stroke-dasharray="" stroke-dashoffset="0" font-family="none" font-weight="none" font-size="none" text-anchor="none" style="mix-blend-mode: normal"><path d="M0,0h300v180.23291v119.76709h-98.19434c-0.35156,-0.27686 -0.40723,-0.34131 -0.88184,-0.36914c-4.15869,-0.24902 -8.41846,-0.14941 -12.58154,-0.14941l-23.13574,0.00732l-28.12559,-0.00732l-8.77383,0.00586c-0.9728,0 -3.58784,0.05859 -4.42822,-0.05273c-0.10825,-0.10254 -0.53364,-0.47461 -0.66519,-0.46729c-2.00581,0.12305 -3.35156,0.62549 -5.42549,0.52148l-15.82544,0.01318c-2.42666,-0.00146 -6.52251,-0.1333 -8.78584,0.07324l0.07632,0.15234c1.20132,0.3252 2.68154,-0.31787 3.41382,0.27246h-96.66709v-83.75684z" fill="url(#color-1)"/><path d="M165.20654,299.48877c0.2124,-0.35303 0.06738,-0.22266 0.50244,-0.36328c1.30664,-0.39697 2.24121,0.34277 3.22412,-0.56982c0.31055,-0.28711 5.88281,0.32373 6.03369,0.30322c3.19482,-0.40723 6.12598,-1.08545 9.30029,-1.33154c2.01123,-0.15674 4.04297,0.14209 6.06738,-0.16699c2.06689,-0.35742 3.2168,-0.96387 5.49316,-1.04297c2.14453,-0.07324 5.84033,1.83545 7.60693,0.9873c0.85107,-0.40869 2.21191,-0.78516 2.96924,-1.125c2.45068,-1.09717 4.94092,-1.67578 7.34766,-2.61914c3.52295,-1.38281 7.91895,-3.91553 11.67334,-4.52051c0.94189,-0.15234 0.94922,0.06006 2.20313,-0.31201c2.77295,-0.7749 5.64404,-1.35205 8.46533,-1.98193c1.74902,-0.39111 4.0957,-0.83789 5.67334,-1.73877c1.83398,-1.04883 3.56104,-2.90039 5.59424,-3.62549c2.43896,-0.87012 5.30713,-0.81299 7.59375,-2.02881c0.47021,-0.26074 1.88965,-1.15723 2.2793,-1.24805c0.75,-0.2124 2.23535,-0.39111 2.90625,-0.76904c1.61865,-1.05615 3.87158,-1.54248 5.49023,-2.4873c3.05127,-1.77832 6.09229,-3.50244 9.2168,-5.15625c1.31396,-0.69434 2.99854,-1.5498 4.22607,-2.34375c4.3623,-2.82422 8.81543,-5.44775 13.24365,-8.15918c1.28467,-0.78662 2.90625,-1.41504 4.25537,-2.10498c0.78955,-0.39111 1.73584,-0.64893 2.51074,-1.11914c0.4292,-0.26074 0.44531,-0.87598 0.45996,-1.4165c0.05566,-2.12988 0.0249,-4.31396 0.02051,-6.44824l-0.00586,-12.09814l0.00146,-38.07568c-0.00439,-4.5542 -0.08203,-9.13037 0.12891,-13.67871c0.05273,-1.14404 0.03955,-2.95605 0.31201,-4.01514v119.76709h-98.19434c-0.35156,-0.27686 -0.40723,-0.34131 -0.88184,-0.36914c-4.15869,-0.24902 -8.41846,-0.14941 -12.58154,-0.14941z" fill="url(#color-2)"/><path d="M0,216.24316c0.38731,1.27002 0.0681,9.47314 0.13887,11.38477c0.17167,4.63477 -0.10519,9.79102 0.05941,14.48584c0.0545,1.89404 0.15067,3.76904 0.2376,5.66455c0.14349,0.89063 -0.31107,8.04785 0.29057,8.18701c7.60176,1.76367 12.65521,8.85352 19.43303,12.37939c4.18579,2.10059 8.45347,3.54639 12.36475,6.23291c0.96826,0.6665 2.15376,1.19531 3.18472,1.91602c0.71455,0.49951 2.14541,0.60059 3.13608,1.3374c0.65977,0.49072 2.86392,0.9082 3.70063,1.39746c4.37095,2.17969 8.74175,3.67969 13.53779,4.604c0.97983,0.18896 3.12671,2.06982 4.33081,2.23242c4.44214,0.59619 8.69062,0.90381 13.01821,2.17676c2.8522,0.83789 4.96436,2.72314 7.77993,3.57422c2.66177,0.77783 5.82349,0.04248 8.45625,0.33984c1.4937,0.16846 3.77036,1.42969 5.54077,1.79736c4.82622,1.00635 9.77871,1.66699 14.59863,2.57813c1.64429,0.31055 2.65166,1.81934 5.05972,1.93213l0.13989,0.38086c0.95156,0.23584 2.36909,0.02783 2.78057,0.64453l-15.82544,0.01318c-2.42666,-0.00146 -6.52251,-0.1333 -8.78584,0.07324l0.07632,0.15234c1.20132,0.3252 2.68154,-0.31787 3.41382,0.27246h-96.66709z" fill="#fe5e1a"/><path d="M99.53555,39.51475c0.16157,5.48057 4.37344,9.5354 10.04268,9.24419c2.76182,-0.16245 5.40293,-1.00679 7.99526,-1.92246c3.75469,-1.32612 7.39995,-2.72139 11.22407,-3.86514c17.54575,-5.2478 37.43437,-4.02305 52.99541,6.18149c3.18311,2.08726 6.17725,4.90166 8.62939,7.80161c0.10254,-3.41221 0.11719,-5.22451 -0.85107,-8.56187c2.28369,3.43418 4.94092,8.72476 9.83203,7.03521c1.74023,-0.99067 1.98193,-2.17529 2.09033,-3.99829l-0.19189,-0.66431c0.50098,-0.88462 0.47607,-1.11562 0.62109,-2.10483l0.4043,-0.44282c0.69434,-0.76729 0.74561,-0.83379 1.61426,-1.37666c2.21631,3.05713 3.27686,5.27227 2.61768,9.09712c-0.75146,4.34736 -3.02783,6.07808 -6.79248,7.7751c12.67676,10.21289 17.90186,32.75361 11.90771,47.66045c1.32715,1.6689 2.5752,3.20493 3.40576,5.19946c4.96875,11.92969 -3.50244,25.72017 -16.99951,24.01582l-0.21094,-0.02769c-3.646,6.21475 -6.9082,10.37051 -12.67822,14.84414c-2.0332,1.57617 -4.31543,2.93701 -6.34277,4.47363c9.49512,3.09961 19.31104,13.58203 23.63965,22.45752c1.18652,2.43018 3.41162,7.52783 3.97852,10.08984c2.91943,0.80859 5.45361,2.29688 7.68896,4.33447c0.68262,-1.4707 1.90576,-3.24902 3.49805,-3.67676c2.62939,-0.70605 9.59619,-0.83203 12.02197,0.26514c2.31445,1.04736 3.95947,4.875 4.99365,6.98877c0.81738,-2.38477 2.10938,-5.87842 4.6084,-7.00195c2.81982,-1.26709 6.54346,-0.52734 9.56104,-0.68262c4.1792,-0.21387 7.42383,4.1792 6.27979,8.13428c-0.76904,2.66016 -2.14014,5.12256 -3.37939,7.59668l-4.62451,9.19922c-0.87744,1.7373 -2.67187,4.87354 -3.01318,6.81592c-0.82031,4.771 1.87939,14.07861 -4.00342,16.2876c-2.45654,0.92139 -9.10547,0.94043 -11.57812,-0.02344c-3.37646,-1.31689 -3.94043,-5.25 -3.84668,-8.43311c0.19775,-6.6709 0.39111,-9.60059 -3.47168,-15.35889c0.4541,12.86865 -7.04297,24.44531 -20.73486,24.89209c-7.1499,0.23145 -13.78857,-2.00684 -18.17871,-7.95264c-5.81396,8.28076 -13.25098,7.46338 -22.38281,7.48096c-6.08789,0.01172 -10.604,0.55371 -11.99561,-6.90674c-7.41357,7.78418 -15.90059,6.80859 -25.81465,6.59619c-0.97383,-0.15088 -1.95879,-0.81299 -2.81074,-1.24072c0.00264,0.00146 -2.22422,1.16162 -2.46152,1.21143c-2.12915,0.44824 -4.30708,0.31055 -6.46772,0.33252c-1.25229,0.01172 -2.67041,-0.00293 -3.87861,-0.3501c-0.93398,-0.26221 -1.78462,-0.76025 -2.46987,-1.44727c-1.16162,-1.14551 -1.77744,-2.49316 -2.40615,-3.9624c-0.17476,1.14697 -0.35742,1.86182 -0.98862,2.88135c-2.00859,3.24316 -5.67114,2.91943 -8.95737,2.90039c-3.29443,-0.01904 -6.23701,0.1582 -8.36338,-2.87109c-0.54434,-0.77051 -0.96489,-1.62012 -1.24614,-2.51953c-6.53657,7.70361 -21.54756,7.50586 -28.86709,1.05469c-10.25054,-9.03662 -10.44316,-28.50293 -1.7439,-38.63818c7.51729,-8.67334 23.44058,-9.46582 31.45605,-1.00635c1.02261,-4.67432 4.22578,-5.49316 8.51484,-5.34668c1.14536,0.03955 2.19858,0.01465 3.35127,0.18604c1.14126,-3.29883 2.43179,-6.90088 4.00957,-10.03125c4.38062,-8.69385 12.15439,-16.95557 20.94126,-21.2417c0.77051,-0.36914 1.54907,-0.72217 2.33525,-1.05615c-7.60137,-3.67676 -15.83804,-11.85059 -19.84819,-19.21758c-4.56519,0.04717 -7.55596,-0.23481 -11.45977,-2.90288c-8.59907,-5.8771 -9.33135,-18.98613 -2.08843,-26.35664l0.11016,-0.1103c-1.63667,-4.27104 -2.49097,-8.80181 -2.52173,-13.37563c-3.66094,-1.9979 -9.06914,-5.76665 -10.11138,-9.94131c-0.20845,-0.83467 -0.33472,-1.67476 -0.45981,-2.53096c9.15044,4.10537 10.12822,-4.3043 15.01772,-9.41543c3.11514,-3.25664 8.51558,-8.94595 12.32739,-11.15977c-4.11328,-2.10337 -7.09834,-4.0144 -8.579,-8.59673c-1.21948,-3.88447 -0.82983,-8.0959 1.08149,-11.69077c1.09102,-2.08433 2.37993,-3.38115 4.02495,-5.02368z" fill="url(#color-3)"/><path d="M201.49365,51.42949c0.30762,0.96431 0.27393,3.06123 -0.03516,4.04561c-0.30615,0.97134 -1.52051,3.31523 -2.87402,2.58003c0.12891,-0.80552 1.35059,-1.56797 1.38867,-2.34229c-0.31641,-0.28813 -0.13623,-0.19014 -0.56982,-0.28506c1.74023,-0.99067 1.98193,-2.17529 2.09033,-3.99829z" fill="#8e4b14"/><path d="M143.00845,106.2561c0.74619,-0.0627 3.95933,0.08584 4.95542,0.08599c3.70752,0.02344 7.40625,-0.34277 11.03613,-1.09263c7.38574,-1.57383 15.646,-5.23257 21.68408,-9.7582c1.63477,-1.22476 3.30322,-2.498 4.41504,-4.22476c0.48779,1.15605 0.78809,1.86797 1.12061,3.06592c2.00537,5.45127 4.08398,9.95244 6.77051,15.13682c1.74023,3.36079 4.55859,8.25557 5.32031,11.93921c0.49951,2.41143 -2.58984,11.21528 -3.74561,13.55771c-3.36182,7.15444 -6.88477,10.99687 -12.85107,15.91567c-5.0127,4.14697 -11.24121,7.01514 -17.50928,8.70703c-13.96143,3.68701 -28.81714,1.67578 -41.29541,-5.59277c-8.99663,-5.18848 -16.33755,-14.01753 -19.04268,-24.11675c-1.94077,-7.08428 -1.92686,-11.96133 0.37368,-18.96357c0.53071,-2.51221 1.36436,-5.16753 2.10776,-7.62656c7.64487,-0.05391 15.179,-1.25171 22.77861,-1.91895c0.4771,-0.04189 0.56045,0.22192 0.84844,0.55283c0.82119,1.09292 2.08286,1.73525 3.33677,2.23477c3.13916,1.07563 6.3936,1.77993 9.69668,2.09824z" fill="#fefefe"/><path d="M103.8665,129.87935c0.62417,0.63662 1.14624,0.86953 1.5457,1.6894c1.53545,3.1519 2.90537,6.36431 5.01211,9.20229c10.15591,13.99556 29.0376,19.25874 45.62988,17.66646c5.51953,-0.53027 10.34766,-1.64355 15.54639,-3.54053c3.18896,-1.16455 5.77881,-2.6748 8.85352,-4.00195c0.26367,-0.11279 0.82471,0.05127 1.25977,-0.01318c-5.0127,4.14697 -11.24121,7.01514 -17.50928,8.70703c-13.96143,3.68701 -28.81714,1.67578 -41.29541,-5.59277c-8.99663,-5.18848 -16.33755,-14.01753 -19.04268,-24.11675z" fill="#f7c3b2"/><path d="M143.00845,106.2561c0.74619,-0.0627 3.95933,0.08584 4.95542,0.08599c3.70752,0.02344 7.40625,-0.34277 11.03613,-1.09263c7.38574,-1.57383 15.646,-5.23257 21.68408,-9.7582c1.63477,-1.22476 3.30322,-2.498 4.41504,-4.22476c0.48779,1.15605 0.78809,1.86797 1.12061,3.06592c-1.46191,0.93384 -2.67334,2.22627 -4.04736,3.28359c-8.67187,6.67456 -19.65527,10.17012 -30.58008,10.05762c-1.83691,-0.01904 -3.66797,0.10591 -5.47178,-0.20933c-1.68076,-0.27817 -1.50688,-0.78076 -2.87446,-1.10259c-0.19438,-0.0457 -0.08467,0.01318 -0.2376,-0.10562z" fill="#f7c3b2"/><path d="M106.34795,103.28921c7.64487,-0.05391 15.179,-1.25171 22.77861,-1.91895c0.4771,-0.04189 0.56045,0.22192 0.84844,0.55283c0.82119,1.09292 2.08286,1.73525 3.33677,2.23477c-1.37168,-0.01523 -1.9812,-0.02021 -3.32769,-0.42671c-4.78081,-0.45454 -9.82236,0.56777 -14.56011,1.12573c-3.06958,0.36152 -5.99136,0.17871 -8.77954,1.66626c-0.48662,1.37739 -0.73594,2.63467 -1.83647,3.63237c-0.21797,0.19761 -0.40752,0.51064 -0.56777,0.76025c0.53071,-2.51221 1.36436,-5.16753 2.10776,-7.62656z" fill="url(#color-4)"/><path d="M129.975,101.9231c0.82119,1.09292 2.08286,1.73525 3.33677,2.23477c-1.37168,-0.01523 -1.9812,-0.02021 -3.32769,-0.42671c-1.02334,-0.78208 -1.53911,-0.74399 -2.8251,-0.97998l-0.10078,-0.15498c0.59795,-0.42422 1.76587,-0.39814 2.71729,-0.62432z" fill="#f7c3b2"/><path d="M170.99268,114.15352c8.47852,-0.08086 9.87158,14.66807 0.85547,16.94897c-8.83154,0.44941 -10.20557,-15.75044 -0.85547,-16.94897z" fill="#511d09"/><path d="M168.36768,117.33867c2.97656,0.04189 3.62842,3.20728 0.87598,5.0436c-3.10254,0.21914 -3.89502,-3.7002 -0.87598,-5.0436z" fill="#fefefe"/><path d="M127.65029,114.29297c1.31294,-0.10884 2.15405,-0.17725 3.40166,0.35391c5.66309,2.41113 5.80342,12.28828 0.77886,15.43828c-0.64893,0.40679 -1.15972,0.60996 -1.86138,0.86074c-1.20557,0.29531 -2.37539,0.13491 -3.49102,-0.35259c-5.46255,-2.3877 -5.85483,-12.03413 -1.05454,-15.25254c0.73931,-0.4957 1.40713,-0.75029 2.22642,-1.0478z" fill="#511d09"/><path d="M125.95884,117.35317c0.30762,0.02051 0.61201,0.07515 0.90762,0.16304c1.02744,0.30586 1.4855,1.14229 1.97461,2.00083c-0.12407,0.36665 -0.25562,0.73066 -0.39448,1.09204c-0.42568,1.08413 -0.80244,1.31074 -1.81274,1.7606c-3.13755,-0.04424 -3.8061,-3.58008 -0.675,-5.0165z" fill="#fefefe"/><path d="M136.0374,144.00483c0.64263,0.14385 1.35615,0.77373 1.82725,1.23193c5.96719,5.80327 15.39023,6.76567 22.3248,2.10454c1.55127,-1.04312 2.85059,-2.51045 4.57471,-3.3731c1.90283,1.34619 1.64063,2.02778 0.20361,3.59429c-1.68018,1.56152 -3.24316,2.7876 -5.30273,3.84375c-4.81348,2.42139 -10.38281,2.8667 -15.52046,1.24072c-2.22773,-0.71631 -4.17759,-1.67871 -6.05889,-3.07324c-1.43408,-1.06201 -5.89424,-4.45195 -2.04829,-5.5689z" fill="#511d09"/><path d="M128.21704,106.25537c1.67285,-0.0145 3.29707,0.34321 4.68398,1.28218c0.54097,0.37573 1.8876,1.28013 2.00215,1.95498c0.4355,2.56758 -2.12886,1.81934 -3.23862,1.47056c-1.90444,-0.59839 -2.98403,-0.71104 -4.78462,-0.35962l-0.12158,0.03442l-0.20186,0.06021c-1.09146,0.3145 -2.09033,0.75469 -3.10825,1.26753c-2.51865,1.26431 -3.75894,-0.47666 -1.88394,-2.61826c1.86562,-2.13076 3.92227,-2.85293 6.65273,-3.09199z" fill="#511d09"/><path d="M170.64844,106.38457c3.19336,-0.30366 5.89746,0.50083 8.0376,3.00806c0.60938,0.7144 1.4707,2.51821 0.13623,2.96807c-1.02246,0.34424 -2.71729,-0.73433 -3.68408,-1.1981c-5.39355,-2.00039 -6.88037,0.87744 -9.30615,0.12876c-0.22705,-0.21343 -0.27246,-0.2584 -0.36035,-0.56997c-0.71777,-2.56245 3.49805,-3.93765 5.17676,-4.33682z" fill="#511d09"/><path d="M147.57422,133.84102c0.55225,0.64893 -0.18604,2.02354 0.5874,2.87739c1.08105,1.19165 4.40039,0.28535 5.25439,1.1603c-0.16699,0.72466 -0.68408,0.98394 -1.30811,1.44302c-2.77148,0.81929 -4.96436,0.36519 -5.81968,-2.63584c0.33237,-1.26167 0.43491,-1.81099 1.28599,-2.84487z" fill="#511d09"/><path d="M198.46436,197.08301c10.0957,-0.83643 16.29785,6.45557 17.15479,15.97559c0.97852,10.87793 -2.64697,21.92139 -14.98096,22.90869c-1.31836,0.03662 -2.7041,0.01025 -4.01953,-0.13037c-15.13037,-1.62158 -17.08447,-24.00439 -8.95166,-33.68262c2.91797,-3.47168 6.36768,-4.7168 10.79736,-5.07129z" fill="#fefefe"/><path d="M198.33838,204.36914c4.08252,-0.35596 7.06934,1.94824 8.07861,5.8623c1.50146,5.83008 1.65674,16.33594 -5.59277,18.4292c-5.74658,0.89063 -8.59277,-4.09131 -8.96631,-9.06299c-0.4248,-5.64551 -0.19043,-13.4165 6.48047,-15.22852z" fill="#511d09"/><path d="M199.52637,209.87695c2.19727,1.30078 2.19287,6.03809 2.06689,8.25c-0.12012,2.08154 -0.46582,3.57861 -2.05371,5.00098c-2.29395,-1.3623 -2.25146,-4.23193 -2.23535,-6.62549c0.01758,-2.66895 0.22266,-4.67285 2.22217,-6.62549z" fill="#fd8d0f"/><path d="M124.25889,197.52246c6.72993,-0.20068 14.92954,-0.6167 19.76147,4.95117c5.35269,6.16992 5.46108,16.5293 2.45845,23.7876c-0.91567,2.21191 -2.45273,3.95947 -4.22197,5.51514c-4.46616,3.4248 -8.70278,3.52881 -14.10337,3.49951c-2.22876,0.00293 -4.45737,-0.04834 -6.68379,-0.15234c-0.01729,-5.16797 0.22734,-10.26562 0.39346,-15.42334l0.60527,-22.08838z" fill="#fefefe"/><path d="M129.21064,204.17578c2.62134,0.20654 5.25234,0.24316 7.40273,1.91895c2.06455,1.6084 3.09595,4.43848 3.36621,6.96826c0.47065,4.40332 0.24199,9.05859 -2.52305,12.67236c-0.17021,0.18896 -0.34849,0.37061 -0.53438,0.54492c-2.23535,2.05518 -4.77026,2.02441 -7.57998,1.94531c-0.23232,-2.87988 -0.14678,-6.75732 -0.15601,-9.70898c-0.04043,-4.77979 -0.03223,-9.56104 0.02446,-14.34082z" fill="#511d09"/><path d="M160.67432,197.68066c3.61523,-0.0542 7.25977,-0.09814 10.81348,0.75586c5.30859,1.27588 7.83838,6.40137 6.39258,11.50195c-0.80566,2.8374 -2.75537,4.18652 -5.23096,5.52686c0.68555,0.40869 1.44287,0.73389 2.1123,1.15723c6.11426,3.86572 5.4624,12.29443 0.35889,16.49854c-4.14844,2.73193 -8.90332,2.354 -13.70215,2.31738c-2.58545,-0.01025 -5.1709,-0.04248 -7.75488,-0.09668c-0.00732,-12.51855 0.1377,-25.03418 0.43506,-37.54834z" fill="#fefefe"/><path d="M162.18457,218.99854c2.08594,0.08057 5.71582,-0.06885 7.23047,1.40039c2.13574,2.07715 1.87646,5.06836 0.01465,7.15137c-1.8501,1.5835 -4.91016,1.35645 -7.27588,1.37402c-0.04395,-3.30908 -0.03369,-6.61816 0.03076,-9.92578z" fill="#511d09"/><path d="M162.22998,204.05127c4.21582,-0.01025 8.83301,-0.18311 7.54395,5.75244c-0.16992,0.7793 -0.62842,1.26563 -1.16895,1.81201c-1.82373,1.26855 -4.27148,1.06348 -6.43506,1.06201c-0.0791,-2.73486 -0.00293,-5.90039 0.06006,-8.62646z" fill="#511d09"/><path d="M131.95562,179.4082c-0.43169,-2.28662 -0.81577,-12.09229 -0.28755,-14.12109c0.34937,0.11865 0.31113,0.25049 0.55078,0.68701c0.7897,1.24072 1.80806,2.93115 2.71304,4.06494c2.71274,3.39844 6.82266,5.4624 10.98032,6.45996c5.27432,1.26563 11.71084,0.15088 16.27236,-2.73926c2.42139,-1.53223 4.11914,-3.45264 5.61035,-5.85937c0.30176,-0.48926 1.16895,-1.83545 1.51318,-2.19141c0.11279,0.12305 0.09961,0.05859 0.09521,0.17432c0.22705,4.18066 0.33984,12.43506 -0.38379,16.42822c-0.0835,3.87598 -0.41309,5.97217 -1.11914,9.75293c-1.15137,-0.02051 -4.68164,-0.00732 -5.66748,-0.14795c-5.80957,0.11133 -13.06641,-0.84521 -13.61279,7.05908c-2.57153,-2.6792 -5.74688,-5.16211 -9.40459,-6.15088c-1.05645,-0.0542 -4.54819,-0.79541 -5.95195,-1.00342c-0.43169,-4.53223 -1.37007,-7.56006 -1.30796,-12.41309z" fill="#fed902"/><path d="M132.21885,165.97412c0.7897,1.24072 1.80806,2.93115 2.71304,4.06494c2.71274,3.39844 6.82266,5.4624 10.98032,6.45996c5.27432,1.26563 11.71084,0.15088 16.27236,-2.73926c2.42139,-1.53223 4.11914,-3.45264 5.61035,-5.85937c0.30176,-0.48926 1.16895,-1.83545 1.51318,-2.19141c0.11279,0.12305 0.09961,0.05859 0.09521,0.17432c-0.59326,3.69727 -1.81348,6.15234 -4.82812,8.50195c-8.53271,6.64453 -23.18071,7.54395 -30.43887,-1.51318c-1.70303,-2.12402 -2.23242,-4.23486 -1.91748,-6.89795z" fill="#fef89b"/><path d="M131.95562,179.4082c0.31743,0.90381 0.67661,1.49707 0.96738,2.27637c1.06978,2.8667 1.95542,5.22803 3.62563,7.82959c0.77637,1.2085 2.14409,2.18701 2.66689,3.31055c-1.05645,-0.0542 -4.54819,-0.79541 -5.95195,-1.00342c-0.43169,-4.53223 -1.37007,-7.56006 -1.30796,-12.41309z" fill="#fd8d0f"/><path d="M162.23291,191.9165c0.51563,-0.6709 1.32568,-1.39746 1.92041,-2.10937c1.31689,-1.57471 4.23633,-5.5415 4.86621,-7.49561c-0.0835,3.87598 -0.41309,5.97217 -1.11914,9.75293c-1.15137,-0.02051 -4.68164,-0.00732 -5.66748,-0.14795z" fill="#fd8d0f"/><path d="M107.7457,197.65576c2.85278,-0.01172 5.70542,0.02344 8.55703,0.10547c-0.15249,12.50098 -0.7377,25.18945 -0.74795,37.63037l-7.97065,-0.00879l0.08057,-16.21436l-11.52231,-0.02783l-0.02666,14.68506l-0.01875,1.56445l-8.45947,0.02344c-0.16802,-9.40137 0.24375,-18.93311 0.20435,-28.34912c-0.01289,-3.07178 0.03911,-6.29004 0.19248,-9.3501c2.57827,-0.08789 5.68359,0.0249 8.29951,0.05127l-0.09771,14.49023l11.42227,0.02344z" fill="#fefefe"/><path d="M66.37427,197.08301c8.44482,-0.54785 14.83374,3.57275 16.16558,12.19189c-2.51396,-0.00146 -5.02764,0.03955 -7.54028,0.11865c-2.7542,-6.71777 -10.82534,-7.23486 -13.96069,-0.66797c-1.76016,4.02539 -2.18276,10.43115 -0.5666,14.55908c3.12964,7.99219 11.22627,7.06787 14.41538,-0.33838l1.54058,0.04248l6.04277,0.07471c-1.21494,7.26855 -5.83799,11.97803 -13.26445,12.83057c-13.80527,1.5835 -19.69351,-10.20264 -18.21313,-22.43701c1.11914,-9.24902 5.68242,-15.54346 15.38086,-16.37402z" fill="#fefefe"/><path d="M110.24282,54.64878l0.16157,-0.02373c3.83276,-0.59751 10.62158,-3.07969 14.44336,-4.45107c11.87446,-4.26094 23.38125,-5.90288 35.85879,-3.43711c3.4248,0.6769 9.33545,2.54883 12.33252,4.53955c1.97314,1.31074 3.23291,4.71738 4.11621,6.89297c-2.46826,-0.92241 -5.87695,-1.80337 -8.41699,-2.43574c-9.50244,-2.36558 -19.11035,-3.03428 -28.82021,-1.62349c-1.92803,0.28022 -4.92437,0.73345 -6.77988,1.3043l-0.11279,0.14707c-2.16724,0.78896 -5.25337,1.20293 -7.56987,1.99907c-2.55674,0.87891 -5.22012,1.70801 -7.81875,2.44438c-0.89414,0.25327 -2.56157,0.10913 -3.50669,0.0772c-1.74946,-0.22588 -3.70356,-1.71021 -5.18774,-2.27095c0.0624,0.32241 0.06694,0.31099 0.02754,0.63516c-0.55591,0.11367 -0.92651,-0.51387 -1.87207,-0.71353c-0.77651,0.32007 -3.33765,1.11431 -3.75762,1.43335c-3.07705,-1.4978 -4.12456,-4.04106 -4.53589,-7.23003c-0.08364,-0.64849 -0.2395,-1.36348 0.16362,-1.90283c2.80635,2.10718 5.13647,3.96211 8.79141,4.31895c0.84419,0.08247 1.66567,0.07646 2.4835,0.29648z" fill="#a86f24"/><path d="M133.13818,55.41445l-0.11279,0.14707c-2.16724,0.78896 -5.25337,1.20293 -7.56987,1.99907c-2.55674,0.87891 -5.22012,1.70801 -7.81875,2.44438c-0.89414,0.25327 -2.56157,0.10913 -3.50669,0.0772c-1.74946,-0.22588 -3.70356,-1.71021 -5.18774,-2.27095c0.0624,0.32241 0.06694,0.31099 0.02754,0.63516c-0.55591,0.11367 -0.92651,-0.51387 -1.87207,-0.71353c-0.77651,0.32007 -3.33765,1.11431 -3.75762,1.43335c-3.07705,-1.4978 -4.12456,-4.04106 -4.53589,-7.23003c-0.08364,-0.64849 -0.2395,-1.36348 0.16362,-1.90283c2.80635,2.10718 5.13647,3.96211 8.79141,4.31895c0.84419,0.08247 1.66567,0.07646 2.4835,0.29648c-0.99185,0.61523 -1.79004,1.1209 -2.72769,1.80996c6.94878,4.46118 8.61313,4.21406 16.36406,1.32246c1.0396,-0.38789 8.54209,-2.42036 9.25898,-2.36675z" fill="#8e4b14"/><path d="M241.58057,198.19043c2.84033,0.03369 5.68066,0.09082 8.521,0.17285c-2.12402,5.2207 -5.55176,11.68799 -8.11963,16.81201c-0.49658,1.07666 -2.90332,5.54443 -3.0542,6.21533c-0.8042,3.58447 -0.45557,10.20996 -0.44824,13.9834c-2.73926,0.03076 -5.47852,0.03076 -8.21777,-0.00146c-0.02197,-2.68799 -0.02051,-5.37451 0.00439,-8.06104c0.00293,-0.94922 0.0542,-3.96973 -0.14502,-4.7417c-0.7207,-2.81104 -2.85791,-6.47607 -4.12207,-9.16992c-2.36279,-5.02881 -4.91602,-9.99463 -7.20703,-15.03809l3.21387,-0.10107c1.81348,-0.01465 3.62842,0.00439 5.44189,0.05713c1.53076,3.29736 3.03223,6.60938 4.50439,9.93457c0.77637,1.72852 1.74316,4.08398 2.65723,5.67041c1.41504,-3.25928 2.85059,-6.5083 4.30664,-9.74854c0.8584,-1.89551 1.92334,-4.07373 2.66455,-5.98389z" fill="#fefefe"/><path d="M171.28271,191.1958c2.40381,-8.44629 2.75244,-19.24365 1.72852,-27.93604c4.30811,1.17334 8.04492,3.10693 11.68066,5.66309c0.83203,0.52002 0.64014,1.75928 0.646,2.69824c0.60498,8.19434 -0.30615,15.35596 -2.33203,23.2251c-0.62109,2.41406 0.54346,2.70996 -1.06934,5.47412c-0.89355,-2.51514 -2.14893,-3.60937 -4.19824,-5.26172c-2.5166,-1.56885 -4.02832,-1.89404 -6.87451,-2.59717z" fill="#fed902"/><path d="M185.33789,171.62109c0.60498,8.19434 -0.30615,15.35596 -2.33203,23.2251c-0.62109,2.41406 0.54346,2.70996 -1.06934,5.47412c-0.89355,-2.51514 -2.14893,-3.60937 -4.19824,-5.26172c2.48877,-2.2251 4.19092,-6.6958 4.75049,-9.95654c0.06006,-0.35596 -0.01611,-1.29639 -0.02344,-1.71094c0.91846,-2.18115 1.20557,-3.95947 1.77979,-6.2373c0.82471,-1.51904 1.0459,-3.84521 1.09277,-5.53271z" fill="#db6416"/><path d="M171.28271,191.1958c2.38477,1.61426 4.19385,0.06885 6.14063,-1.49707c2.13574,-1.71826 3.75879,-3.89941 5.04199,-6.30762c0.00732,0.41455 0.0835,1.35498 0.02344,1.71094c-0.55957,3.26074 -2.26172,7.73145 -4.75049,9.95654c-2.5166,-1.56885 -4.02832,-1.89404 -6.87451,-2.59717z" fill="#fd8d0f"/><path d="M184.69189,168.92285c0.83203,0.52002 0.64014,1.75928 0.646,2.69824c-0.04687,1.6875 -0.26807,4.01367 -1.09277,5.53271c0.14355,-1.80762 0.10693,-6.93604 0.44678,-8.23096z" fill="#fd8d0f"/><path d="M115.71152,169.22754c4.81772,-2.7876 6.76904,-4.22754 12.35742,-6.07324l-0.19805,1.9541c-0.07354,1.11182 -0.16084,2.21631 -0.24419,3.32666c-0.5978,7.95996 0.69404,15.71338 2.49141,23.43018c-1.64722,-0.13184 -3.24082,0.01025 -4.68164,-0.09229c-0.79922,0.05273 -2.05562,0.08936 -2.80591,0.18457c-1.2085,0.14795 -2.46416,0.82764 -3.48765,1.46338l-1.4792,-1.021c-1.64443,-5.146 -2.04668,-10.60547 -1.91865,-15.96826l-0.02842,-0.82031c-0.09448,-2.146 -0.04087,-4.23926 -0.00513,-6.38379z" fill="#fed902"/><path d="M115.71152,169.22754c4.81772,-2.7876 6.76904,-4.22754 12.35742,-6.07324l-0.19805,1.9541c-0.59443,0.24316 -0.43535,0.19629 -0.91128,0.5376c-2.71816,1.94971 -6.18999,3.0498 -8.63862,5.33936c-1.22344,1.14258 -1.49487,3.51563 -2.60435,4.62598c-0.09448,-2.146 -0.04087,-4.23926 -0.00513,-6.38379z" fill="#fef89b"/><path d="M115.74507,176.43164c0.49746,2.39063 2.48042,8.69531 3.56265,10.93506c0.58081,1.58496 1.34282,4.48682 3.32285,4.59082c-1.2085,0.14795 -2.46416,0.82764 -3.48765,1.46338l-1.4792,-1.021c-1.64443,-5.146 -2.04668,-10.60547 -1.91865,-15.96826z" fill="#db6416"/><path d="M119.30771,187.3667c1.48125,1.51025 2.63071,2.94287 4.24644,4.32861c0.55269,0.01465 1.35322,0.01318 1.88232,0.07764c-0.79922,0.05273 -2.05562,0.08936 -2.80591,0.18457c-1.98003,-0.104 -2.74204,-3.00586 -3.32285,-4.59082z" fill="#feb108"/><path d="M188.84326,172.66846c3.50244,3.51855 6.69434,7.57471 8.87402,12.0542c1.04736,1.44287 2.17822,4.89404 2.95313,6.60645c-2.62939,0.03955 -5.20898,0.26953 -7.75635,0.96533c-1.41504,0.38672 -2.79639,1.26709 -4.27881,1.41211c-0.76904,0.07471 -2.3833,-0.61084 -2.22656,-1.58203c0.36182,-2.23389 1.20557,-4.34619 1.66113,-6.5874c0.49365,-4.27148 0.75146,-8.56787 0.77344,-12.86865z" fill="#fefefe"/><path d="M197.71729,184.72266c1.04736,1.44287 2.17822,4.89404 2.95313,6.60645c-2.62939,0.03955 -5.20898,0.26953 -7.75635,0.96533c-1.41504,0.38672 -2.79639,1.26709 -4.27881,1.41211c-0.76904,0.07471 -2.3833,-0.61084 -2.22656,-1.58203c0.36182,-2.23389 1.20557,-4.34619 1.66113,-6.5874c-0.01465,1.06201 0.26514,2.05518 0.49219,3.09668c2.83594,0.12891 8.19141,-0.76904 9.15527,-3.91113z" fill="#d2be6a"/><path d="M101.25923,191.66748l-0.25547,-0.17871c-0.48618,-0.92871 0.68862,-3.19189 1.11284,-4.14404c2.41113,-5.41553 5.70117,-10.26416 9.93721,-14.40527c-0.11748,3.23438 0.55635,10.06348 1.08223,13.24951c0.38525,1.87793 0.78047,3.84814 1.22153,5.70703c-2.61211,-0.01904 -6.77651,-0.29883 -9.08496,0.97412c-0.7645,-0.30176 -1.97871,-0.13037 -3.26646,-0.61963c-0.29736,-0.39697 -0.29312,-0.36328 -0.74692,-0.58301z" fill="#fefefe"/><path d="M113.13604,186.18896c0.38525,1.87793 0.78047,3.84814 1.22153,5.70703c-2.61211,-0.01904 -6.77651,-0.29883 -9.08496,0.97412c-0.7645,-0.30176 -1.97871,-0.13037 -3.26646,-0.61963c-0.29736,-0.39697 -0.29312,-0.36328 -0.74692,-0.58301c1.27207,-0.15527 3.29209,-1.42676 4.66201,-1.89111c2.39531,-0.81445 4.84863,-1.09424 7.02964,-2.38916c0.23979,-0.38379 0.16099,-0.6709 0.18516,-1.19824z" fill="#d2be6a"/><path d="M185.46826,81.86704l0.04102,0.11836c-0.19922,0.99873 -5.26318,4.55596 -6.21973,5.46621c-0.30176,0.28682 -0.12012,1.04707 -0.07031,1.53208c-0.31348,0.21914 -0.34131,0.2001 -0.52148,0.52793l0.17578,0.15088c1.53662,-1.07739 3.09521,-2.67524 4.62451,-3.82017c1.41211,-1.05718 2.58984,-2.59292 3.86279,-3.86675l0.18604,0.00249c-0.06445,0.09316 -0.12891,0.18633 -0.19336,0.27935c-9.0293,9.88491 -20.896,16.24775 -34.1001,18.17153c-1.94531,0.14634 -3.60352,0.45439 -5.65576,0.45205c-3.68628,-0.00439 -7.27866,-0.69404 -10.90239,-1.2895c0.93984,-0.16978 4.81011,-1.37256 5.2916,-1.3415c14.62104,0.93999 33.19673,-5.83975 43.4814,-16.38296z" fill="#8e4b14"/><path d="M137.32646,165.6958c9.35713,1.73584 17.39033,2.00244 26.77412,-0.12891c-1.00049,1.22021 -1.70508,2.04785 -2.83008,3.14648c-1.44141,1.25098 -3.09668,2.22949 -4.88818,2.88867c-5.03174,1.84424 -11.46226,1.05469 -15.71206,-2.24561c-1.04092,-0.80859 -2.89307,-2.41699 -3.3438,-3.66064z" fill="#fefefe"/><path d="M208.93213,116.67114c0.91406,1.62012 1.54102,2.80327 1.95557,4.64033c1.29785,5.76284 -2.2207,12.02285 -8.02148,13.52212c-0.76904,0.19863 -1.59814,0.3189 -2.3833,0.45615c0.8833,-2.50415 1.80322,-5.51997 2.31299,-8.1085c0.68115,-3.46641 1.78271,-3.66328 3.71191,-5.99604l0.02344,-0.15176c0.30029,-0.36138 0.33398,-0.34248 0.43066,-0.79116c0.60938,-1.04487 1.51318,-2.49375 1.97021,-3.57114z" fill="#fefefe"/><path d="M206.50781,121.18521l0.02344,-0.15176c0.30029,-0.36138 0.33398,-0.34248 0.43066,-0.79116c0.99902,0.90044 1.38574,2.44028 2.22217,3.7207c-0.87891,-0.85386 -1.91162,-2.06133 -2.67627,-2.77778z" fill="#784138"/><path d="M91.00444,116.57139c0.52031,0.50669 1.74097,2.64917 2.18188,3.40181c-0.5748,0.56924 -1.48477,1.70405 -1.42075,2.54854l0.2001,0.06387c0.61201,-0.29956 1.10713,-0.99331 1.57163,-1.53311c2.7104,3.34468 3.65347,4.90547 4.49106,9.1856c0.22646,1.15708 0.94277,3.03765 1.34575,4.19824c0.13857,0.32329 0.14634,0.30176 0.13594,0.64937c-0.44458,0.12393 -1.72705,-0.17812 -2.20415,-0.30366c-5.63042,-1.48213 -8.96909,-7.30063 -8.15376,-12.93838c0.30806,-2.13076 0.90059,-3.40239 1.85229,-5.27227z" fill="#fefefe"/><path d="M68.07583,209.60742c1.23545,0.60791 1.98296,2.63818 3.07998,3.78955c2.2147,2.32324 7.70347,1.40332 11.11743,1.36523c-0.08643,0.82617 -0.07046,1.96875 -0.08057,2.82129c-2.46284,-0.05566 -5.46182,-0.16699 -7.88613,-0.01758c-4.38706,0.53467 -5.20825,6.44092 -7.12134,5.62207c-2.7252,-1.16748 -2.2437,-8.40967 -1.50439,-10.70361c0.42788,-1.32861 1.00107,-2.17529 2.39502,-2.87695z" fill="#fd8d0f"/><path d="M132.04072,93.6835c0.46948,-0.0835 1.31323,-0.1147 1.79165,-0.08247c-1.09512,0.31567 -5.43149,0.5187 -6.90718,0.62578l0.04351,0.15996c0.42876,0.36768 0.18164,0.26689 0.7834,0.26821c0.46172,0.33237 0.34204,0.44106 0.51943,1.18008c0.66914,0.32739 4.7688,-0.88755 6.27715,-0.70356c-1.22637,0.13462 -2.47266,0.50771 -3.70312,0.62109c-10.40376,0.95801 -20.70132,2.95986 -31.13613,1.61045c-0.49453,-0.09038 -0.98804,-0.18618 -1.48052,-0.28755c-1.44961,-0.29517 -7.72354,-1.91235 -8.42314,-2.971c0.2644,-0.21328 0.45161,-0.32842 0.85122,-0.29224c2.53872,0.23042 4.82065,0.88682 7.43203,1.0623c2.46094,0.16538 4.63359,0.15293 7.07036,0.15688c5.88223,-0.01904 11.76211,-0.23965 17.6291,-0.66138c3.17285,-0.21094 5.98447,-0.52939 9.25225,-0.68657z" fill="#8e4b14"/><path d="M97.63184,118.28745c-1.46089,-2.66572 -2.8998,-5.39927 -3.71499,-8.34844c-0.35815,-1.2958 -1.96084,-7.97109 -1.49312,-8.80796c0.98892,-0.08027 1.68867,-0.08555 2.29292,0.78691c0.81489,0.17271 6.17197,0.90659 6.30952,0.97881c0.16304,0.77344 -0.43022,2.33467 -0.69507,3.11294c-0.98247,2.88604 -1.33418,6.09434 -2.12622,8.97026c-0.30454,0.99243 -0.44473,2.27124 -0.57305,3.30747z" fill="#511d09"/><path d="M97.63184,118.28745c-1.46089,-2.66572 -2.8998,-5.39927 -3.71499,-8.34844c-0.35815,-1.2958 -1.96084,-7.97109 -1.49312,-8.80796c0.98892,-0.08027 1.68867,-0.08555 2.29292,0.78691c0.09082,2.1249 2.37466,11.39546 3.48823,13.06201c-0.30454,0.99243 -0.44473,2.27124 -0.57305,3.30747z" fill="#8e4b14"/><path d="M107.67905,66.5124c0.05933,0.06343 0.64761,0.82559 0.72144,0.92476c-2.41948,2.3168 -5.59717,4.89331 -7.85889,7.2769c-1.72222,1.85083 -3.42363,3.721 -5.10381,5.60991c-0.45806,0.52148 -1.45649,1.89316 -1.85713,2.22524c-0.04907,-0.3208 0.11572,-0.40151 0.36533,-0.76553l0.24565,-0.27671c-0.0457,-0.34292 -0.00615,-0.17798 -0.24565,-0.49438l-0.29824,-0.01553c-0.19937,0.15571 -0.30645,0.24595 -0.49526,0.42217l-0.16567,0.15688c0.13623,-1.09014 5.65811,-6.86455 6.77109,-7.9894c2.3436,-2.36807 5.2002,-5.13149 7.92114,-7.07432z" fill="#8e4b14"/><path d="M102.00615,192.25049c1.28774,0.48926 2.50195,0.31787 3.26646,0.61963c-0.64204,0.72217 -1.65337,1.23779 -2.15376,2.29541c-0.40063,0.84814 -0.09609,2.00537 -0.72598,2.57227l-0.24536,-0.18457c-0.62358,-1.47803 -0.2915,-3.67969 -0.14136,-5.30273z" fill="#8e4b14"/><path d="M130.76733,266.53711c9.55444,-0.67676 103.02026,-0.14209 105.3479,5.88428c-0.02637,0.32373 -0.08203,0.52588 -0.31348,0.76758c-3.08057,3.23145 -28.3623,5.39063 -33.68994,5.78906c-3.18311,0.2373 -6.37793,0.32813 -9.56396,0.53906c-2.99854,0.19775 -5.99854,0.50244 -8.99854,0.64307c-4.63184,0.21533 -9.31787,0.25781 -13.95703,0.37061c-20.62207,0.64893 -41.26494,0.28857 -61.85244,-1.07812c-2.3751,-0.15088 -4.77627,-0.19336 -7.14287,-0.36328c-7.4499,-0.55811 -14.87988,-1.35791 -22.27793,-2.39795c-3.90762,-0.58887 -7.7606,-1.14258 -11.43823,-2.61035c-0.91069,-0.36475 -1.77715,-0.4585 -2.00977,-1.53223c0.06636,-0.20801 0.12656,-0.39844 0.28169,-0.5625c4.06772,-4.27441 56.70483,-5.19873 65.6146,-5.44922z" fill="#db6416"/><path d="M197.91064,41.5897c2.31738,1.52681 4.22168,3.11953 6.03076,5.25117c-0.86865,0.54287 -0.91992,0.60938 -1.61426,1.37666l-0.4043,0.44282c-0.14502,0.98921 -0.12012,1.22021 -0.62109,2.10483c-0.16553,-0.59722 -0.73535,-1.67871 -1.02393,-2.24517c-1.46045,-2.86421 -2.14307,-3.71001 -2.36719,-6.93032z" fill="#a86f24"/><path d="M117.78823,299.48877c2.07393,0.104 3.41968,-0.39844 5.42549,-0.52148c0.13154,-0.00732 0.55693,0.36475 0.66519,0.46729c0.84038,0.11133 3.45542,0.05273 4.42822,0.05273l8.77383,-0.00586l28.12559,0.00732l23.13574,-0.00732c4.16309,0 8.42285,-0.09961 12.58154,0.14941c0.47461,0.02783 0.53027,0.09229 0.88184,0.36914h-105.13857c-0.73228,-0.59033 -2.2125,0.05273 -3.41382,-0.27246l-0.07632,-0.15234c2.26333,-0.20654 6.35918,-0.07471 8.78584,-0.07324z" fill="#db6416"/></g></svg></svg>