<svg viewBox="0 0 300 300" width="300" height="300" xmlns="http://www.w3.org/2000/svg"><svg xmlns="http://www.w3.org/2000/svg"><defs><linearGradient x1="151.879" y1="-2.252" x2="147.986" y2="211.094" gradientUnits="userSpaceOnUse" id="b"><stop offset="0" stop-color="#100043"/><stop offset="1" stop-color="#000973"/></linearGradient><linearGradient x1="146.435" y1="7.36" x2="149.993" y2="214.094" gradientUnits="userSpaceOnUse" id="c"><stop offset="0" stop-color="#6d046f"/><stop offset="1" stop-color="#071cb2"/></linearGradient><linearGradient x1="259.002" y1="209.446" x2="251.971" y2="301.034" gradientUnits="userSpaceOnUse" id="d"><stop offset="0" stop-color="#03ffe8"/><stop offset="1" stop-color="#01ccff"/></linearGradient><linearGradient x1="29.406" y1="211.274" x2="28.594" y2="235.043" gradientUnits="userSpaceOnUse" id="e"><stop offset="0" stop-color="#04ffe5"/><stop offset="1" stop-color="#06effc"/></linearGradient><linearGradient x1="22.945" y1="301.522" x2="29.705" y2="257.076" gradientUnits="userSpaceOnUse" id="f"><stop offset="0" stop-color="#02b9ff"/><stop offset="1" stop-color="#03eafd"/></linearGradient><linearGradient x1="159.209" y1="195.781" x2="155.31" y2="214.957" gradientUnits="userSpaceOnUse" id="g"><stop offset="0" stop-color="#00c5f6"/><stop offset="1" stop-color="#006ffa"/></linearGradient><linearGradient x1="69.975" y1="245.673" x2="99.465" y2="236.404" gradientUnits="userSpaceOnUse" id="h"><stop offset="0" stop-color="#00d3f7"/><stop offset="1" stop-color="#0bfffc"/></linearGradient><linearGradient x1="120.401" y1="165.142" x2="111.657" y2="172.488" gradientUnits="userSpaceOnUse" id="i"><stop offset="0" stop-color="#1316f2"/><stop offset="1" stop-color="#007bff"/></linearGradient><linearGradient x1="78.629" y1="300.353" x2="112.233" y2="237.574" gradientUnits="userSpaceOnUse" id="j"><stop offset="0" stop-color="#0d00a0"/><stop offset="1" stop-color="#1223ef"/></linearGradient><linearGradient x1="85.704" y1="292.119" x2="69.249" y2="250.613" gradientUnits="userSpaceOnUse" id="k"><stop offset="0" stop-color="#004bfa"/><stop offset="1" stop-color="#027dff"/></linearGradient><linearGradient x1="128.23" y1="259.037" x2="130.983" y2="264.967" gradientUnits="userSpaceOnUse" id="l"><stop offset="0" stop-color="#004bfd"/><stop offset="1" stop-color="#007dfd"/></linearGradient><linearGradient x1="123.272" y1="275.498" x2="136.128" y2="276.262" gradientUnits="userSpaceOnUse" id="m"><stop offset="0" stop-color="#0046f5"/><stop offset="1" stop-color="#008dfa"/></linearGradient><linearGradient x1="227.829" y1="244.206" x2="230.631" y2="240.139" gradientUnits="userSpaceOnUse" id="n"><stop offset="0" stop-color="#0df5f3"/><stop offset="1" stop-color="#00e2f9"/></linearGradient><clipPath id="a"><path fill="none" d="M0 0h299.991v299.991H0z"/></clipPath></defs><g clip-path="url(#a)" fill="none" stroke-miterlimit="10" font-family="none" font-weight="none" font-size="none" text-anchor="none" style="mix-blend-mode:normal"><path d="M0 0h300v300H0v-92.9z" fill="#060459"/><path d="M0 0h300v207.472c-.589.354-.454.925-.479 1.573-.735.198-15.89-.558-17.269-.857-4.115-.89-8.177-.8-12.32-1.19-1.693-.158-3.396-.49-5.09-.69-1.264-.147-3.066-.163-4.229-.67-.233-.101-.438-.334-.616-.509-.279-.27-.526-.505-.846-.725-1.634-.174-1.526.246-2.915.894-.202.094-.394.138-.649.283-1.872-.636-5.049-1.102-7.035-1.673-.699-.201-2.376-.353-2.931-.652-2.335-1.261-3.635-.59-6.002-.913-.704-.316-1.318-.835-2.029-1.214-2.304-1.23-4.815-1.415-7.205-2.34-.229-.087-1.69-.027-2.013-.02l.025-.187c.44-.538.869-.922.926-1.53l.023.243-.076-.263c-.226-.02-.908.19-1.172.26-.53-.21-.312-.842-1.027-1.441-.256.082-.237.098-.426.287-.004-.332.037-.186-.098-.445l-.227.265c-.484-.001-.445-.419-.623-.476-.764-.25-1.383-.271-2.078-.735.045-.431-.028-.22.411-.59-.139-1.372-.466-1.744-.802-3.017-.062-.233.202-.81.254-1.044.437-1.978 1.38-1.814 2.55-3.175.219-.255.588-1.81.922-2.157.708-.768 2.047-1.648 2.518-2.565 1.014-1.968 1.554-2.187 3.397-3.238a12.6 12.6 0 0 0 3.965-3.498c1.735-2.36 2.83-7.283 4.249-10.007.481-.925 1.385-1.678 1.918-2.464a99 99 0 0 0 2.476-3.822c.731-1.206 2.57-4.17 2.97-5.442.527-1.663.559-2.46 1.33-4.3 1.076-2.566 2.13-5.5 3.137-8.113.208-.541.434-3.363.607-4.209a33 33 0 0 1 .537-2.32c.163-.585.192-2.074.314-2.73.19-1.022.105-2.938.312-3.876.526-2.384 1.81-6.581 2.072-8.818.167-1.436-.307-6.812-.939-8.215-.56-1.245-.74-1.583-.397-3.131.267-1.205-.027-1.627-.061-2.715a30.5 30.5 0 0 0-1.9-9.772c-.69-1.874-2.546-3.926-2.489-5.782.025-.799.091-3.213-.09-3.937-1.171-4.708-2.587-10.374-4.6-14.744-.59-1.187-1.483-2.174-2.208-3.27-.328-.625-.589-1.254-.889-1.9-.477-1.03-1.002-1.96-1.579-2.942-.09-.043-.026-.857-.028-.86-2.149-2.827-4.056-5.834-6.019-8.807-.675-1.023-1.172-2.368-1.862-3.389-.754-1.114-1.72-2.153-2.573-3.194-.561-.853-3.394-2.344-3.806-3.047-1.663-2.841-3.454-5.187-5.914-7.405-1.262-1.14-2.957-1.49-4.21-2.669-2.261-1.985-4.488-4.83-7.02-6.433-2.434-1.542-5.64-2.816-8.152-4.299-.86-.507-1.443-1.2-2.256-1.713-.673-.426-1.738-.63-2.341-1.186-.084-.094-.303-.433-.416-.479-5.588-2.23-11.11-4.64-16.831-6.534-1.017-.337-2.335-.291-3.344-.723-.438-.187-.386-.099-.849.016-.533-.497-3.572-1.063-4.466-1.332l-3.939-1.17c-.523-.16-.981-.46-1.522-.6-2.897-.745-5.764-1.007-8.724-1.263-1.278-.11-2.542-.333-3.82-.42-4.155-.285-8.765-.274-12.89.319-2.381.342-4.663.965-7.018 1.397-1.493.274-3.061.347-4.532.702-1.043.252-2.913 1.186-3.713 1.286-2.565.32-7.853 1.663-10.375 2.544-2.317.81-4.58 1.836-6.88 2.706-1.577.597-3.34 1.036-4.832 1.808-1.565.809-3.019 2.418-4.509 3.42-1.491 1.005-3.47 1.478-5.144 2.1-1.246.463-5.22 3.024-6.188 3.95-1.257 1.204-2.46 2.747-3.818 3.808-1.991 1.555-4.316 2.753-6.325 4.26-.987.74-1.709 1.84-2.689 2.595-.777.6-1.656.98-2.366 1.69-1.082 1.08-1.609 2.795-2.579 4.01-.933 1.167-2.078 2.218-3.073 3.343-.47.533-.863 1.222-1.358 1.708-.818.804-2.107 1.451-2.591 2.533-1.557 3.48-3.61 6.582-5.35 9.937-.835 1.61-1.503 3.32-2.29 4.956-2.062 4.288-7.288 14.316-7.615 18.683-.142 1.905.74 3.524.934 5.373-.443.768-.829.867-1.271 1.435-3.286 4.213-4.039 11.056-3.034 16.21.366 1.875.085 1.581-.377 3.248-1.147 4.127-1.087 8.845-.352 13.045-.021.827.817 2.678.782 3.368-.283 5.615.34 10.23 2.253 15.556 1.325 3.69 2.12 8.01 3.767 11.668.307.683.457 2.196.706 2.98.324 2.25 1.388 3.52 2.826 5.235 1.374 1.635 2.725 3.602 3.975 5.336.053.073.055 1.692.055 1.928.638 1.13 1.815 1.99 2.08 3.262.105.498.287 1.44.577 1.805 1.797 2.259 3.017 5.127 6.2 5.57 1.96.273 2.93 1.785 3.931 3.29.326.49.171.625.027 1.243.246.634.156 3.022-.152 3.598-2.835 1.768-2.02 1.98-3.119 4.621-.279.513-4.079 3.195-4.307 3.234-2.661.477-2.484.833-4.479 2.334l-.239-.051c-.118-.54.138-.81-.042-1.426l-.206-.02c-.078.391-.108.466-.255.84-.795.487-1.125 1.026-1.822 1.581-.676.54-2.13 1.029-2.975.75-.358-.118-.61-.051-.872.213-1.51 1.523-2.044-.841-3.556-.554-1.102.158-1.234 1.128-1.944 1.888-.083.088-.384.435-.5.447-1.428.16-3.352.04-4.743.146-1.401 1.106-.998.176-2.203.27-1.188.092-3.403 1.198-4.472 1.327-2.108.252-4.319.318-6.435.634-1.18.113-4.08 1.004-4.716 1.033l-7.397.31c-.552.027-.912-.27-1.457-.213-2.151.224-5.326 1.221-7.292 1.435-1.385.15-5.861.454-6.839.005.031-.415.097-.708-.062-1.087l-.372.03z" fill="url(#b)"/><path d="M269.673 156.814c.838.125 1.248.29 1.431 1.15-.117.6-.275.705-.685 1.194-.426-.016-.605-.066-1.02-.152-.864-.72-.215-1.392.274-2.192" fill="#03e9f7"/><path d="M69.994 10.394a.944.944 0 1 1 .794 1.714.944.944 0 0 1-.794-1.714" fill="#06fdf3"/><path d="M57.641 170.584c0-.236-.002-1.855-.055-1.928-1.25-1.734-2.601-3.701-3.975-5.336-1.439-1.714-2.502-2.984-2.826-5.236-.25-.783-.4-2.296-.707-2.979-1.646-3.658-2.44-7.978-3.766-11.668-1.913-5.325-2.536-9.94-2.253-15.556.035-.69-.803-2.541-.782-3.368-.735-4.2-.795-8.918.351-13.045.463-1.667.744-1.373.378-3.248-1.005-5.154-.252-11.997 3.034-16.21.442-.568.828-.667 1.271-1.435-.195-1.85-1.076-3.468-.934-5.373.327-4.366 5.553-14.395 7.615-18.683.787-1.636 1.455-3.347 2.29-4.956 1.74-3.355 3.793-6.456 5.35-9.937.484-1.082 1.773-1.73 2.59-2.533.496-.486.888-1.175 1.359-1.708.995-1.125 2.14-2.176 3.073-3.344.97-1.214 1.497-2.928 2.579-4.01.71-.709 1.589-1.09 2.366-1.689.98-.754 1.702-1.855 2.689-2.595 2.009-1.507 4.334-2.705 6.325-4.26 1.358-1.06 2.56-2.604 3.818-3.807.968-.927 4.942-3.488 6.188-3.951 1.674-.622 3.652-1.095 5.144-2.1 1.49-1.002 2.943-2.611 4.509-3.42 1.492-.771 3.255-1.211 4.832-1.808 2.3-.87 4.563-1.896 6.88-2.706 2.522-.88 7.81-2.223 10.375-2.544.8-.1 2.67-1.034 3.713-1.286 1.47-.355 3.038-.428 4.532-.702 2.355-.432 4.637-1.055 7.019-1.397 4.124-.593 8.734-.604 12.888-.32 1.28.088 2.543.31 3.82.421 2.961.256 5.828.518 8.725 1.263.54.14 1 .44 1.522.6l3.94 1.17c.893.269 3.932.835 4.465 1.332.463-.115.41-.203.849-.016 1.009.432 2.327.386 3.344.723 5.72 1.894 11.242 4.304 16.83 6.535.114.045.333.384.417.478.603.556 1.668.76 2.34 1.186.814.514 1.397 1.206 2.257 1.713 2.512 1.483 5.718 2.757 8.153 4.299 2.531 1.603 4.758 4.448 7.02 6.433 1.252 1.18 2.947 1.528 4.21 2.669 2.459 2.218 4.25 4.564 5.913 7.405.412.703 3.245 2.194 3.806 3.047.854 1.041 1.819 2.08 2.573 3.194.69 1.021 1.187 2.366 1.862 3.389 1.963 2.973 3.87 5.98 6.02 8.808 0 .002-.062.816.027.859.577.981 1.102 1.912 1.58 2.942.3.646.56 1.275.888 1.9.725 1.096 1.617 2.083 2.208 3.27 2.012 4.37 3.429 10.036 4.6 14.744.181.724.115 3.138.09 3.937-.057 1.856 1.799 3.908 2.489 5.782a30.5 30.5 0 0 1 1.9 9.772c.034 1.088.328 1.51.061 2.715-.344 1.548-.164 1.886.397 3.131.632 1.403 1.106 6.78.94 8.215-.263 2.237-1.548 6.434-2.073 8.818-.207.938-.122 2.854-.312 3.876-.122.657-.151 2.145-.314 2.73a33 33 0 0 0-.538 2.32c-.172.846-.398 3.668-.606 4.209-1.006 2.614-2.061 5.547-3.136 8.112-.772 1.842-.804 2.638-1.33 4.301-.402 1.272-2.24 4.236-2.971 5.442a99 99 0 0 1-2.476 3.822c-.533.786-1.437 1.54-1.919 2.464-1.417 2.724-2.513 7.648-4.248 10.007a12.6 12.6 0 0 1-3.965 3.498c-1.843 1.05-2.383 1.27-3.397 3.238-.472.917-1.81 1.797-2.518 2.565-.334.347-.703 1.903-.923 2.157-1.169 1.361-2.112 1.197-2.549 3.175-.052.234-.316.811-.254 1.044.336 1.273.663 1.645.802 3.016-.44.37-.366.16-.411.59.695.465 1.314.487 2.078.736.177.057.14.475.623.476l.227-.265c.135.26.094.113.098.445.189-.189.17-.205.426-.287.715.6.497 1.23 1.027 1.441.264-.07.946-.28 1.172-.26l.076.263-.023-.243c-.057.608-.485.992-.926 1.53l-.025.187c.324-.007 1.784-.067 2.013.02 2.39.925 4.901 1.11 7.205 2.34.71.38 1.325.898 2.03 1.214 2.366.323 3.666-.348 6 .913.556.299 2.233.451 2.932.652 1.986.571 5.163 1.037 7.035 1.673.255-.145.447-.19.65-.283 1.388-.648 1.28-1.068 2.914-.894.32.22.567.454.846.725.178.175.383.408.616.509 1.163.507 2.965.523 4.23.67 1.693.2 3.396.532 5.088.69 4.144.39 8.206.3 12.32 1.19 1.38.299 16.535 1.055 17.27.857.025-.648-.11-1.219.479-1.573v4.8l-52.345-.17-15.914-.019c-2.823-.003-6.32-.105-9.075.053-.527-.318-3.288-4.988-3.729-5.716-.649-.762-1.551-2.33-2.164-3.215-1.68-2.432-3.502-5.432-5.417-7.642-1.308-.828-5.885-2.4-7.504-3.053-3.882-1.566-10.362-4.75-14.301-5.364.85-.954 1.787-1.572 2.702-2.448.53-.876 5.58-5.999 6.51-6.768 2.603-2.969 5.514-5.597 8.255-8.436.999-1.033 1.983-2.067 3.082-2.993 1.548-1.82 2.963-3.244 3.03-5.707l-.006-.282c.078-3.208-.256-9.032.187-12.046 1.14-1.626 2.8-3.81 4.4-4.977.44-.425.92-.98 1.337-1.435 2.375-2.594 5.044-4.966 7.398-7.57a31 31 0 0 0 .014-2.485c-.096-1.532.033-5.14-.001-6.969.022-4.142-.043-8.452.126-12.571q.042-2.696.03-5.39c-.024-1.515-.053-2.754-.193-4.273-.79-1.014-1.819-2.43-2.846-3.16-2.499-.164-4.71-.005-7.033-.148-.065-1.088-.044-2.462-.057-3.572 1.508-.176 7.868.033 8.52-.355q.013-3.543-.018-7.086c-.019-8.712-.304-18.348-.038-26.976a87 87 0 0 1-6.334-.14l-.026-14.887q-4.161.057-8.322-.066c-.15-1.824-.064-5.105-.076-7.038q-4.087.012-8.175-.043c-1.51-.014-3.824.03-5.26-.162a191 191 0 0 1-.137-5.639c-5.018-.112-9.898.033-14.97-.156-.253-1.85-.157-6.218-.157-8.27l-70.915-.017c-.127 2.766.06 5.58-.097 8.375-1.093.115-3.018.108-4.164.136a520 520 0 0 1-9.079.148c-.09 1.76-.073 3.724-.09 5.502-2.623.15-5.58.135-8.2.075-.073 2.328.014 4.831-.012 7.198-2.144.224-6.807.087-9.12.075.015 3.007.118 6.504-.029 9.47-1.818.089-3.538.043-5.356.01a365 365 0 0 0 0 11.137c1.876-.034 3.314-.124 5.208-.009.218 2.746.185 5.937.19 8.719l-.01 12.578c-.083 1.986-.038 3.826.004 5.814.015 1.911.203 9.2-.287 10.443-1.049.497-4.09.28-5.41.274-1.071 1.018-1.552 1.44-2.734 2.29-1.742 1.631-3.06 2.694-3.178 5.234-.113 2.424.308 5.91.031 8.217.005 1.269-.039 2.984.086 4.213.173 1.06.182 4.84.078 6.004q-.01 3.702.142 7.4c1.08 1.785 3.14 3.348 4.506 5.187 1.305 1.503 2.695 3.593 4.038 4.936.315.27 1.378 1.191 1.68 1.285 2.933.918 7.82.331 11 .463-.068 2.49-.257 5.199-.023 7.657.062.652 1.883 2.026 2.419 2.885 1.593 1.74 4.431 3.89 6.351 5.728 1.147.995 6.372 6.627 7.07 7.781q.038 1.923.014 3.845c-.06 1.079-.11 2.174-.184 3.25-1.51.52-2.454.849-3.888 1.53-.83.394-4.323 2.282-4.983 2.435-4.432 1.813-9.422 3.84-13.743 5.93-1.934 1.26-3.822 1.67-5.786 2.717-3.116 1.66-7.44 2.86-9.932 5.385-1.606 1.627-2.856 3.769-4.205 5.6-.456.653-1.927 3.326-2.319 3.653-.22.469-1.507 3.303-1.704 3.5-1.063-.151-4.337-.07-5.589-.066l-11.178.01L0 212.065V207.1l.372-.031c.16.38.093.672.062 1.087.978.45 5.454.145 6.84-.005 1.965-.213 5.14-1.211 7.29-1.435.546-.057.906.24 1.458.212l7.397-.309c.635-.03 3.537-.92 4.716-1.033 2.116-.316 4.327-.382 6.435-.634 1.07-.129 3.284-1.235 4.472-1.327 1.205-.094.802.836 2.203-.27 1.391-.106 3.315.014 4.742-.146.117-.012.418-.359.5-.447.711-.76.843-1.73 1.945-1.888 1.512-.287 2.045 2.077 3.556.554.262-.264.514-.331.872-.213.845.279 2.299-.21 2.975-.75.697-.555 1.027-1.094 1.822-1.58.147-.375.177-.45.255-.841l.206.02c.18.616-.076.885.042 1.426l.239.051c1.995-1.501 1.818-1.857 4.48-2.333.227-.04 4.027-2.722 4.306-3.235 1.1-2.64.284-2.853 3.12-4.621.307-.576.397-2.964.151-3.598.144-.618.3-.753-.027-1.244-1-1.504-1.972-3.016-3.932-3.288-3.182-.444-4.402-3.312-6.2-5.571-.29-.365-.471-1.307-.575-1.805-.266-1.273-1.443-2.133-2.08-3.262" fill="url(#c)"/><path d="M49.492 88.127c.761-2.398.928-4.582 1.741-6.857.652-1.822 1.583-3.824 2.372-5.612 3.572-8.094 7.85-16.1 13.188-23.178 1.706-2.262 4.304-4.764 6.193-6.946 1.531-1.77 3.166-3.652 4.857-5.259 2.271-2.155 4.919-3.968 7.31-5.95 3.8-3.152 7.764-6.465 12.17-8.731 7.466-3.84 14.865-7.41 22.982-9.676 2.176-.706 4.373-1.518 6.588-2.079 3.222-.814 6.666-1.065 9.923-1.528 15.705-2.232 31.205-.219 46.187 4.739 2.15.711 4.203 1.774 6.283 2.668 6.842 2.669 13.451 6.197 19.627 10.163 1.658 1.065 3.334 2.7 4.856 3.993 1.885 1.601 4.222 3.148 5.981 4.837 6.32 6.064 12.252 12.942 17.117 20.228 2.827 4.393 5.781 10.39 8.049 15.085.964 2 4.655 12.164 4.52 13.972-.63.745-17.368.4-19.207.513-.92.056-4.239.066-5.24-.034-.02-8.712-.305-18.348-.039-26.976a87 87 0 0 1-6.334-.14l-.026-14.887q-4.161.057-8.322-.066c-.15-1.824-.064-5.105-.076-7.038q-4.087.012-8.175-.043c-1.51-.014-3.824.03-5.26-.162a191 191 0 0 1-.137-5.639c-5.018-.112-9.898.033-14.97-.156-.253-1.85-.157-6.218-.157-8.27l-70.915-.017c-.127 2.766.06 5.58-.097 8.375-1.093.115-3.018.108-4.164.136a520 520 0 0 1-9.079.148c-.09 1.76-.073 3.724-.09 5.502-2.623.15-5.58.135-8.2.075-.073 2.328.014 4.831-.012 7.198-2.144.224-6.807.087-9.12.075.015 3.007.118 6.504-.029 9.47-1.818.089-3.538.043-5.356.01a365 365 0 0 0 0 11.137c1.876-.034 3.314-.124 5.208-.009.218 2.746.185 5.937.19 8.719l-.01 12.578c-1.106.227-6.676.035-8.187.007-7.163-.13-15.04.152-22.14-.375" fill="#fc0fca"/><path d="M98.522 166.525c1.147.995 6.372 6.627 7.07 7.781q.039 1.923.014 3.845l-.15.148c-10.043-.307-20.19-.028-30.243-.089-1.804-.012-3.611.092-5.41-.054-2.8-2.672-6.782-7.973-8.294-11.504 8.737.238 17.603-.06 26.354.066 3.364.047 7.367.166 10.659-.193" fill="#d413fa"/><path d="M71.392 107.316c-2.312-.302-5.152-.21-7.532-.208l-11.125-.008c-1.513-.006-4.836.11-6.179-.319-.429-.908.1-5.066.248-6.185.222-1.676.279-5.169 1.47-6.34 1.545-.52 13.746-.13 16.045-.1 2.172.029 13.806-.327 15.504.153.015 1.911.203 9.2-.287 10.443-1.049.497-4.09.28-5.41.274-1.071 1.018-1.552 1.44-2.734 2.29m5.703 41.191c.315.27 1.378 1.191 1.68 1.285 2.933.918 7.82.331 11 .463-.068 2.49-.257 5.199-.023 7.657.062.651 1.883 2.025 2.419 2.885-.342.04-2.24-.06-2.74-.07q-3.045-.067-6.09-.057c-8.076 0-17.408.195-25.368-.2-2.178-3.008-3.988-8.182-5.658-11.781q7.973-.077 15.945-.03c2.156.005 6.935.134 8.835-.152m147.911-52.946.234-1.004c.492-.236 24.043-.217 25.279.2.854 1.28 2.252 9.636 2.052 11.555-.029.288-.19.513-.369.735-.926.578-2.845.262-4.02.273q-5.57.096-11.138.07c-2.05 0-8.28.158-10.06-.07l-.37-.252c-.023-1.514-.052-2.753-.192-4.272-.79-1.014-1.819-2.43-2.846-3.16-2.499-.164-4.71-.005-7.033-.148-.065-1.088-.043-2.462-.057-3.572 1.508-.176 7.868.033 8.52-.355m-11.696 52.905c2.018.327 7.115.202 9.436.204l14.935-.01c2.795-.005 6.095-.078 8.852.057-1.42 3.348-2.379 5.868-3.978 9.186l-1.264 2.574c-5.628.197-12.025.042-17.683.074-2.563.015-8.14.147-10.483-.04.077-3.207-.257-9.031.186-12.045" fill="#fc0fca"/><path d="M210.1 166.501c8.97.6 18.722-.084 27.763.339-1.32 2.15-2.947 4.76-4.357 6.844-.96 1.42-2.266 2.724-3.369 4.366-2.872.164-30.004.333-31.374-.12 2.603-2.97 5.514-5.597 8.255-8.436.999-1.033 1.983-2.067 3.082-2.993" fill="#d413fa"/><path d="M226.46 131.999c.088-.448.055-.712.315-.984 1.418-.118 2.956-.058 4.39-.048 6.635.045 13.25.006 19.884.155-1.218 4.303-1.19 8.043-3.228 12.22-6.749.4-14.124.165-20.92.292-1.538.029-7.996.115-9.19-.145.44-.425.92-.98 1.337-1.435 2.375-2.594 5.044-4.966 7.398-7.57a31 31 0 0 0 .014-2.485" fill="#fc0fca"/><path d="M226.585 112.459c1.103-.202 6.14-.104 7.693-.097q5.397.03 10.79.123c1.915.023 5.934.029 7.738.318.215 2.19.029 9.967-.926 11.727-1.12.86-18.207.3-20.811.515-.566.047-4.034.046-4.61-.015.022-4.142-.042-8.452.126-12.571m-180.555-.045c1.54-.117 3.872-.058 5.484-.057l9.97.042c1.926.011 4.81.1 6.632-.226-.01 2.344-.125 6.409.13 8.594.004 1.269-.04 2.984.085 4.213-3.027.06-20.113.277-21.734-.682-.666-1.527-.636-10.027-.567-11.884" fill="#fe10d6"/><path d="M47.395 131.103c1.131-.06 2.28-.095 3.413-.07 5.859.127 11.748-.102 17.601-.049q-.01 3.702.142 7.4c1.08 1.785 3.14 3.348 4.506 5.187-7.327-.02-15.327.18-22.576-.094-.81-4.14-2.2-8.171-3.086-12.374" fill="#fc0fca"/><path d="M192.253 184.698c1.445-.29 8.848-.08 10.669-.06q10.518.104 21.037.025c-.994 1.211-10.966 10.03-12.603 10.9-1.308-.828-5.885-2.4-7.504-3.053-3.882-1.566-10.362-4.75-14.301-5.364.85-.954 1.787-1.572 2.702-2.448m-116.763.332c2.627.049 20.149-.192 21.06.336-4.43 1.813-9.42 3.84-13.742 5.93-2.164-1.802-5.601-4.298-7.317-6.266" fill="#d413fa"/><path d="m218.937 206.42.264-.05c1.073 1.896 2.965 3.892 5.055 4.657 2.57-.318 4.046-.6 6.602.148l.146.045c1.172-.934 8.21.18 10.232.19 3.932.02 7.947.049 11.886.105 2.342.058 5.002-.267 7.302.016 1.172.143 1.33-.082 2.378-.09l10.13.015c8.979.1 18.021.502 27.068.522v.294l-52.345-.17-15.914-.019c-2.823-.003-6.32-.105-9.075.053-.527-.318-3.288-4.988-3.729-5.716M0 211.737c2.088-.684 5.603-.17 7.435-.296 4.724-.328 42.787.614 44.304-.39l-.062-.106c-.488.05-.9.105-1.393.088.042-.14.036-.2.147-.245.875-.362 6.28-.265 6.954-.098l.054.185-.384.114-.066.139c.746.026 1.105.28 1.817.44.205-.172 1.222-2.355 1.497-2.86l.263-.057c-.22.469-1.507 3.303-1.704 3.5-1.063-.151-4.337-.07-5.589-.067l-11.178.01L0 212.066z" fill="#141ee6"/><path d="M242.555 157.903c.111.665-.473 1.721-.765 2.418-.275.211-1.005.752-1.314.815-.814.162-4.213.206-4.78-.183l.783-.15c-2.83-.237-5.85.19-8.615.173-4.273-.025-10.213-.532-14.345-.182l-.107.348c-.273-.163-.18-.047-.282-.348l-.005-.282c2.343.186 7.92.054 10.483.04 5.658-.033 12.055.122 17.683-.075z" fill="#1005b2"/><path d="M222.667 212.136c2.755-.158 6.251-.056 9.074-.053l15.914.02 52.345.169V300h-69.148c-.508-1.54-2.077-4.37-3.015-5.717q-7.916-.004-15.833-.1c-1.206-.016-5.91.213-6.55-.268-.07-.526-.124-.299.096-.72 1.563-.755 18.422-.206 21.256-.238.842-.009 1.543-.691 2.388-.618.181.171.488.516.763.516 1.271.004 2.544-.005 3.816-.002l9.929.032 20.906.104c3.929.02 8.62.166 12.47-.023-3.173-4.283-7.056-8.233-10.548-12.344-1.52-1.786-6.807-8.246-8.268-9.355l-10.169-.013c-1.435 0-4.632.079-5.92-.152-.266-.424-.194-.576-.223-1.128-.046-.77-.027-1.675-.016-2.455.063-4.754-.081-9.538.035-14.287l-.006-.35c-1.54-4.494 3.828-7.305-1.692-14.148l-.612-.586c-.929-.39-6.295-9.228-7.222-10.706l-.691-.936c-.705-.78-4.064-5.805-4.5-6.696l-.619-.918c-.386-.331-2.504-4.38-2.846-5.056-.315-.533-.764-1.171-1.115-1.7" fill="url(#d)"/><path d="m245.06 253.244 37.338.025c4.581 3.982 9.582 7.914 14.42 11.578 1.162.879 2.07 1.856 3.182 2.707v2.425l-40.333-.042c-3.018-2.625-5.899-6.643-8.774-9.516-.687-.687-1.47-1.885-2.116-2.667-1.245-1.504-2.666-2.867-3.717-4.51" fill="#170f7c"/><path d="M260.537 271.242c4.632.122 9.722-.004 14.386-.016l25.077.003v21.857a1485 1485 0 0 0-20.436-.116c-.923-1.164-2.054-2.273-3.047-3.398l-5.376-6.197c-3.51-3.984-7.052-8.206-10.604-12.133" fill="#060459"/><path d="M280.64 226.526c.304.226.326.289.481.635.48.304.72.19 1.225.307 1 .217 3.96 2.252 5.045 2.943q4.02 2.593 8.109 5.074c1.354.83 2.487 1.657 3.936 2.33.306-.12.196-.058.434-.3-.058-.543.023-.276-.397-.776l.527-.083v2.248c-8.883.34-17.86-.054-26.752.055-2.378.029-4.829.052-7.203-.04-.333-.694-.129-.511-.734-.861a3 3 0 0 1-1.42-.427c-.619-.378-2.446-1.993-3.158-2.559-3.183-2.53-6.38-5.097-9.666-7.497-.49-.179-.775-.584-1.064-.984 8.086.158 16.27-.14 24.368-.046 2.04.024 4.248.081 6.268-.019" fill="#170f7c"/><path d="m299.473 236.74.527-.084v2.248c-8.883.34-17.86-.054-26.752.055-2.378.029-4.829.052-7.203-.04-.333-.694-.129-.511-.734-.861 2.632-.13 6.023-.038 8.701-.037l15.929.018c1.975.005 7.882.165 9.495-.223.306-.12.196-.059.434-.302-.058-.542.023-.275-.397-.775m-18.833-10.213c.304.226.326.289.481.635.48.304.72.19 1.225.307-7.292.11-14.66-.066-21.948.012-1.865.02-7.925-.113-9.331.095-.49-.179-.775-.584-1.064-.984 8.086.158 16.27-.14 24.368-.046 2.04.024 4.248.081 6.268-.019" fill="#03e9f7"/><path d="m240.271 238.734 16.904.3c2.21.031 4.63-.062 6.806.02 3.006 2.575 6.557 5.135 9.697 7.59.857.67 1.516 1.517 2.343 2.174 1.226.979 2.79 1.626 3.873 2.775.175.187.427.414.62.608l-36.137-.031c-.705-.69-1.686-1.778-2.388-2.35l-.026 3.062c-1.54-4.494 3.828-7.305-1.692-14.148m25.774.185c2.374.092 4.825.069 7.203.04 8.891-.109 17.87.285 26.752-.055v13.336q-8.426.022-16.852-.045c-5.195-2.958-10.013-7.846-14.841-11.375a25 25 0 0 1-2.262-1.901" fill="#170f7c"/><path d="M230.265 294.312q12.71-.147 25.423-.111c7.53.03 15.288.186 22.798.076.65.78 4.56 5.136 4.841 5.723h-50.05c-1.127-2.272-2.106-3.09-3.012-5.688" fill="#060459"/><path d="M267.535 218.91c.52 1.052.764.548 1.837.733 1.734.774 4.558 2.895 6.38 3.95 1.512.877 3.63 1.92 4.887 2.933-2.02.1-4.229.043-6.268.02-8.098-.096-16.282.203-24.368.045-2.345-1.31-6.975-4.953-9.007-6.747-.653-.308-.765-.391-1.321-.857 7.509-.281 15.18.063 22.695-.005 1.61-.014 3.593.116 5.165-.073" fill="#170f7c"/><path d="M267.535 218.91c.52 1.052.764.548 1.837.733-2.158.211-5.66.104-7.933.097l-13.788-.024c-1.636.002-5.114-.069-6.655.128-.653-.308-.765-.391-1.321-.857 7.509-.281 15.18.063 22.695-.005 1.611-.014 3.593.116 5.165-.073" fill="#03e9f7"/><path d="M232.437 227.442c1.59-.185 4.248-.059 5.94-.038q5.376.079 10.755.085c2.62 2.021 5.272 4.167 7.89 6.199 1.513 1.173 3.996 3.448 5.491 4.26-1.914.19-4.668.117-6.652.113l-10.664-.033c-1.027-.001-4.73-.07-5.538.12-.929-.39-6.295-9.228-7.222-10.706m64.496-8.496c1.11.915 1.003.378 1.905.747l1.162.136v7.647l-9.886.003c-.954 0-4.162-.039-4.91.114-.706-.248-1.093-.39-1.499-.983-1.206-.277-3.872-2.042-5.103-2.644-2.313-1.13-4.303-2.823-6.597-4.031-.096-.037-1.026-.74-1.352-.932 6.085-.154 12.346.078 18.438-.007 2.398-.034 5.502.121 7.842-.05" fill="#170f7c"/><path d="M296.933 218.946c1.11.915 1.003.378 1.905.747-3.153.192-25.653-.254-26.833.242-.096-.037-1.026-.74-1.352-.932 6.085-.154 12.346.078 18.438-.007 2.398-.034 5.502.121 7.842-.05m3.067 7.557v.973l-9.886.003c-.954 0-4.162-.039-4.91.114-.706-.248-1.093-.39-1.499-.983q8.146-.13 16.295-.107" fill="#03e9f7"/><path d="m233.568 213.812 26.09.036c1.097.89 2.32 1.506 3.529 2.235a93 93 0 0 1 4.348 2.826c-1.572.19-3.554.059-5.165.073-7.515.068-15.186-.276-22.695.005-.791-.533-2.083-1.906-2.923-2.565-1.107-.869-2.185-1.614-3.184-2.61" fill="#141ee6"/><path d="M241.969 253.232c.423.05 1.088.108 1.383.44a198 198 0 0 1 6.56 7.797c2.297 2.878 5.006 5.617 7.27 8.481-4.852.003-10.444-.136-15.232.024-.046-.77-.027-1.675-.016-2.455.063-4.754-.081-9.538.035-14.287" fill="#170f7c"/><path d="M261.425 213.807c8.237.224 17.05-.266 25.148.053 1.814 1.254 2.896 1.438 4.877 2.288 1.67.716 3.958 1.806 5.483 2.798-2.34.171-5.444.016-7.842.05-6.092.085-12.353-.147-18.438.007-1.526-.37-7.671-4.19-9.228-5.196" fill="#141ee6"/><path d="m284.218 253.126 15.782-.048v12.46c-.857-.428-2.84-2.03-3.675-2.656a180 180 0 0 1-8.375-6.63c-1.372-1.16-2.17-2.137-3.732-3.126" fill="#170f7c"/><path d="M280.896 294.233c6.036.196 13.03.04 19.104.017V300h-14.336c-.264-.422-1.155-1.383-1.522-1.824z" fill="#060459"/><path d="M227.246 219.81c2.214-.173 9.022-.2 11.456-.06 1.266.804 2.775 2.042 3.993 2.98 1.524 1.173 3.87 2.604 5.15 3.877l-11.438-.026c-1.374-.008-3.399-.116-4.661-.075-.705-.78-4.064-5.805-4.5-6.696" fill="#141ee6"/><path d="M285.204 227.593c.748-.153 3.956-.114 4.91-.114l9.886-.003v9.18l-.527.083c-1.805-1.41-3.7-2.443-5.637-3.655-2.936-1.836-5.792-3.49-8.632-5.491" fill="#170f7c"/><path d="M223.781 213.836c2.27-.174 5.077-.108 7.393-.083 1.927 1.207 5.063 3.363 6.575 5.096-3.715.167-7.653-.094-11.122.043-.386-.331-2.504-4.38-2.846-5.056" fill="#0455fd"/><path d="M288.316 213.782c3.922-.011 7.708.087 11.684.024v5.295c-1.418-.354-4.35-2.143-5.946-2.817-1.627-.688-4.336-1.623-5.738-2.502" fill="#141ee6"/><path d="m0 212.065 42.095.03 11.178-.01c1.252-.005 4.526-.085 5.589.065-.235.585-.425 1.04-.593 1.656l-.183.496a18 18 0 0 1-.909 1.881c-.284.72-.72 1.942-1.122 2.549l-.323.929c-.326.852-2.45 6.53-2.88 6.993l-.358.85c-.521 1.338-3.814 10.338-4.039 10.583-.113.246-.295.603-.374.848a195 195 0 0 0-2.533 6.401c-.828 2.189-2.563 5.354-2.478 7.667-.022 1.531-.188 4.11.29 5.48-1.876 1.963-3.32 3.51-5.026 5.589-1.354 1.65-3.458 4.5-4.951 5.85q-11.397.037-22.793-.057c-3.399-.007-7.246.13-10.59.012v-56.194z" fill="#03e9f7"/><path d="M48.081 238.935a195 195 0 0 0-2.533 6.401c-.828 2.189-2.563 5.354-2.478 7.667-.022 1.531-.188 4.11.29 5.48-1.876 1.963-3.32 3.51-5.026 5.589-1.354 1.65-3.458 4.5-4.951 5.85q-11.397.037-22.793-.057c-3.399-.007-7.246.13-10.59.012v-7.835q4.112-3.192 8.118-6.515c.934-.761 1.774-1.697 2.736-2.335 2.336-.196 6.237-.087 8.65-.087h15.383c1.577.004 6.707.146 8.08-.106l-.075-.678c-.397-.25-6.173-.147-7.06-.151-7.782-.04-15.553.11-23.334-.119.955-1.158 2.428-2.17 3.668-3.047 4.129-2.928 8.05-7.024 12.08-9.925 1.618-.175 5.096-.07 6.874-.07q6.48.016 12.961-.074" fill="#170f7c"/><path d="m0 212.065 42.095.03 11.178-.01c1.252-.005 4.526-.085 5.589.065-.235.585-.425 1.04-.593 1.656l-.183.496c-2.218.564-5.122 4.24-6.485 4.427-3.595.494-8.147.026-11.83.166-3.75-.063-8.316.136-11.901-.09l-.047.615c-.45.19-.544.04-.835.219-1.544.102-1.855.348-3.115 1.437-1.313 1.133-9.075 4.598-9.493 5.47l-.329.454c.265.276.118.156.556.268-.531.011-.833-.037-1.318.136-2.446.242-10.365 6.132-13.289 7.33v-21.051z" fill="url(#e)"/><path d="m0 219.662 23.702.062c-1.708 1.005-3.41 2.024-5.115 3.035-2.095 1.24-4.557 2.18-6.414 3.706-3.863.145-8.283.034-12.173-.002z" fill="#170f7c"/><path d="M36.224 213.744q6.523-.045 13.046-.019c2.876.002 6.16-.079 8.999.08l-.183.497c-2.218.564-5.122 4.24-6.485 4.427-3.595.494-8.147.026-11.83.166-3.75-.063-8.316.136-11.901-.09 1.99-1.995 6.089-3.433 8.354-5.06" fill="#141ee6"/><path d="M0 227.452q4.953-.042 9.905.059c-2.864 1.958-6.688 3.895-9.905 5.98z" fill="#170f7c"/><path d="M0 213.683q5.054.029 10.106-.049c-1.71 1.093-4.025 1.956-5.908 2.848-1.012.48-3.262 1.723-4.198 2.048zm12.57.071a1342 1342 0 0 1 21.17-.013c-1.059.907-2.75 1.663-4.02 2.341-1.854.99-3.73 2.751-5.844 2.821l-21.6-.028c2.197-1.694 7.606-3.943 10.295-5.12" fill="#141ee6"/><path d="m14.38 226.545 17.706.018c2.983-.007 6.093.095 9.054-.03-.273.47-.435.899-.864 1.167-1.905 1.65-10.779 9.332-12.743 10.097-1.484.577-23.765.217-27.533.189v-3.252c2.924-1.198 10.843-7.088 13.29-7.33.484-.173.786-.125 1.317-.136-.438-.112-.291.008-.556-.268z" fill="#170f7c"/><path d="m14.38 226.545 17.706.018c2.983-.007 6.093.095 9.054-.03-.273.47-.435.899-.864 1.167-1.47-.708-23.374.174-26.987-.296.485-.173.787-.125 1.318-.136-.438-.112-.291.008-.556-.268z" fill="#03e9f7"/><path d="m0 238.93 15.719.099c3.228.009 6.928-.116 10.112.032-2.03 2.452-5.978 5.115-8.482 7.214-2.29 1.918-4.824 4.14-7.29 5.807-3.41.116-6.674.032-10.059.034zm26.988-19.291c7.712.243 16.215-.24 23.713.118-1.252 1.243-7.962 6.63-9.561 6.777-2.961.124-6.071.022-9.055.029l-17.705-.018c.418-.871 8.18-4.336 9.493-5.47 1.26-1.088 1.571-1.334 3.115-1.436m15.931 7.871c.975-.168.77-.127 1.19-.994 2.651.169 6.399-.094 8.743.138l-.358.85c-.521 1.338-3.814 10.338-4.039 10.583-5.967-.188-12.725-.041-18.752-.043 2.594-1.693 11.482-9.898 13.216-10.535" fill="#170f7c"/><path d="M42.919 227.51c.975-.168.77-.127 1.19-.994 2.651.169 6.399-.094 8.743.138l-.358.85a803 803 0 0 0-9.575.005" fill="#03e9f7"/><path d="M55.732 219.66c-.326.853-2.45 6.53-2.88 6.994-2.344-.232-6.092.03-8.742-.138 1.6-1.41 3.472-2.533 5.116-3.851 1.036-.83 2.107-1.983 3.149-2.92a69 69 0 0 0 3.357-.084" fill="#141ee6"/><path d="m0 253.11 8.969.01A139 139 0 0 0 0 260.493z" fill="#170f7c"/><path d="M57.177 216.183c-.284.72-.72 1.942-1.122 2.549-.5.054-1.458.315-1.984.44.87-1.443 1.746-2.111 3.106-2.989" fill="#0455fd"/><path d="m160.21 269.253 15.614.03c1.971-.002 6.848-.133 8.645.096 2.461 3.968 4.371 8.474 6.774 12.464.581.967 6.224.596 7.579.667l.004 17.49H91.412c.011-1.355-.025-3.192.053-4.507 5.148-1.95 10.334-3.996 15.54-5.757 2.892-.979 6.347-2.357 9.357-2.565 4.438-.306 8.997-.129 13.45-.182 1.994-.023 4.281.082 6.239-.18.897-.874 2.676-3.165 3.356-3.596 2.148-1.357 9.068-.902 11.787-.911 1.621-2.47 3.325-5.042 5.013-7.467 1.328-1.907 2.715-3.58 4.003-5.582" fill="#1005b2"/><path d="M0 271.135c10.627.012 21.65-.118 32.244.13-1.748 2.114-3.524 4.114-5.326 6.18-1.62 1.854-3.156 4.179-4.773 5.982-2.77 3.09-5.56 6.38-8.323 9.45-4.5-.04-9.335-.083-13.822.035z" fill="#060459"/><path d="M43.36 258.483c.231.36.703 1.046.881 1.398 1.27 1.04 2.725 1.93 4.007 2.92.067 2.109.099 5.135.379 7.21-.085.553-.018.777-.323 1.133-1.207.185-3.54.107-4.842.107l-8.623-.003c-1.206.81-2.43 2.419-3.405 3.52-2.961 3.347-5.658 6.919-8.455 10.399-1.835 2.285-5.211 5.402-6.76 7.71 6.503-.151 13.109.035 19.614-.006l9.897-.055c1.596 0 3.186-.008 4.78.027 1.116.025 1.106.378 1.587 1.306l-22.036.034c-4.618.022-10.2.19-14.768.03-.647.582-4.367 5.19-4.613 5.787H0v-7.088c4.487-.118 9.322-.075 13.822-.036 2.764-3.068 5.554-6.36 8.323-9.45 1.617-1.802 3.153-4.127 4.773-5.982 1.802-2.065 3.578-4.065 5.326-6.18-10.594-.247-21.617-.117-32.244-.129v-1.258c3.344.117 7.191-.02 10.59-.012q11.396.094 22.793.057c1.493-1.35 3.597-4.2 4.951-5.85 1.706-2.079 3.15-3.626 5.026-5.589" fill="url(#f)"/><path d="M44.241 259.88c1.27 1.04 2.725 1.932 4.007 2.92.067 2.11.099 5.136.379 7.21-1.143-.11-3.535-.06-4.744-.061l-8.297.006c2.443-2.71 5.939-7.745 8.655-10.074" fill="#170f7c"/><path d="M0 294.198a292 292 0 0 1 12.872.085c-1.462 1.84-3.109 3.832-4.48 5.717H0z" fill="#060459"/><path d="M58.063 230.09c.69-2.52 2.098-4.919 3.136-7.333.67-1.67 1.165-3.438 1.826-5.11.663-1.676 1.41-3.355 2.132-5.007.446-1.023.947-2.316 1.607-3.208 1.367-1.846 2.964-3.601 4.512-5.305.823-.906 1.6-1.974 2.513-2.799 1.127-.882 3.54-1.425 4.968-2.071l15.021-6.782c1.512-.69 10.789-5.315 11.629-4.988.281.641.321 2.254.377 3.04 1.167 2.334 2.035 3.018 3.238 4.908 4.077 5.11 7.645 10.096 13.396 13.491 1.647.973 3.215 2.136 4.896 3.098l1.134.427c1.6-.913 5.044-1.55 5.77-2.592l.277.103c.72-1.335.561-2.605.58-4.134 1.766 1.024 3.266 2.079 5.33 2.203l17.184-.09c2.307 0 6.293-.118 8.422.062.915-.025 1.83.003 2.746.02.753-.636 1.426-1.49 2.155-2.1 2.1-1.75 3.932-4.32 6.012-5.988l.023-.231c-.297-1.618-.742-10.007-.133-11.249.807-.483 2.001-.28 2.88-.158 1.159.162 1.727 1.002 2.745.26.971.209 2.414.95 3.406 1.304 1.375.492 2.726 1.247 4.101 1.774 1.177.453 2.423.768 3.61 1.196 5.1 2.434 10.6 4.023 15.693 6.417 1.642 1.053 2.803 3.07 3.585 4.825.512 1.146.516 1.918 1.345 2.98 1.685 2.159 3.113 4.623 4.685 6.876.448.643.263 2.387.893 2.959.012.008.186.222.195.233l.18.212.17.207c-.176-.465-.354-.666-.249-1.045.53.116.273.01.731.483-.11.515-.218.472.107.88.626.787 1.496 1.401 2.064 2.24.652.964.712 2.561 1.56 3.201.353.265.834.708 1.006 1.093l-.162.368c.395.778.825.769 1.35 1.933.65 1.442 2.762 5.652 3.008 6.99.452.705.905 1.64 1.3 2.4-.817.042-3.005.155-3.711.001-2.24-.487-3.594-.703-5.9-.676-.374-1.234-.612-3.138-.891-4.452-.525-2.474-2.136-3.573-3.783-5.292-1.365-1.426-2.727-3.03-4.327-4.134-1.77-.22-4.153-.207-6.047-.345-.235-1.91-.296-3.317-.684-5.245-1.19-.072-3.659-.172-4.755.13.247 1.708.528 3.57.679 5.287-1.042.019-2.117.054-3.154.015-2.586-.039-6.394-.176-8.873.079-1.884 1.49-3.934 4.84-5.998 6.092-2.193.23-7.324.116-9.706.101-5.243-.032-10.723.09-15.936-.047-2.476-1.598-4.125-4.415-6.597-5.905-3.44-.202-8.218-.05-11.732-.047-3.712.003-8.674-.112-12.297.144-1.324.801-4.965 4.704-6.234 5.953-.831.818-1.51 1.888-2.612 2.776l-1.891.006c-.998.801-4.213 4.583-5.264 5.76-2.474 2.806-5.35 5.15-7.376 8.321-.973 1.522-2.265 9.384-4.153 9.244-.29-.45-.018-7.03-.01-8.193q-.026-8.225.088-16.448c.024-1.3.272-8.169.023-8.816-.82-.353-3.906-.35-4.746-.109l-.005.407.099.443c-.015 6.896-.535 14.934-.842 21.923l-.355 7.946c-.061 1.326-.102 3.365-.303 4.625-4.486.264-12.738-7.086-20.442-7.157q-2.819.183-5.642.263-8.835 1.01-17.681 1.903c.896-4.101 1.982-6.02 3.572-9.8 1.479-3.512 2.887-7.314 4.532-10.746" fill="#141ee6"/><path d="m69.342 211.487.113.21c-.71 1.64-4.31 8.605-4.487 10.096 2.054.044 3.29-4.038 5.6-4.814 1.225.172.573 1.524 1.473 2.006.155.084-.435 1.744-.562 2.113l.084-.088c.55-.02.273-.059.836.266l.17.287-.28.518c.701.965 1.485 1.202 1.24 2.456-.522 2.662-.882 5.375-1.369 8.036-.349 1.906-.94 3.82-1.25 5.788-.269 1.696-2.411 4.292-3.735 5.368-.497.403-1.834 1.017-2.038 1.448 1.201.2 2.488-.368 3.904.009.551.038.908.065 1.457.04a71 71 0 0 1-.066 3.288c.842-.025 2.036-.093 2.85-.044q-2.819.183-5.642.263-8.835 1.01-17.681 1.903c.896-4.101 1.982-6.02 3.572-9.8 1.479-3.512 2.887-7.314 4.532-10.746-.045.689-.1.942-.34 1.59.18.706.749.64 1.385.577l.558.384c.74-.307.324-.794 1.165-1.393 1.394-2.954 2.434-6.484 3.851-9.582 1.617-3.536 2.649-6.73 4.66-10.18" fill="#1005b2"/><path d="M49.959 250.636c.896-4.101 1.982-6.02 3.572-9.8 1.479-3.512 2.887-7.314 4.532-10.746-.045.689-.1.942-.34 1.59.18.706.749.64 1.385.577l.558.384c.74-.307.324-.794 1.165-1.393-1.689 4.646-4.633 10.567-6.568 15.345 3.513-.28 7.105-.804 10.764-1.101.913-.186 3.002-.25 4.014-.306.55.038.908.065 1.457.04a71 71 0 0 1-.066 3.288c.842-.025 2.036-.093 2.85-.044q-2.819.183-5.642.263-8.835 1.012-17.681 1.903" fill="#028dfa"/><path d="M69.041 245.186c.55.038.908.065 1.457.04a71 71 0 0 1-.066 3.288c.842-.025 2.036-.093 2.85-.044q-2.819.183-5.642.263c1.1-.688 2.082-.137 2.425-.474-.426-.25-.74-.374-.99-.794-.166-.913.243-.971.11-1.644-.752-.697-2.79.13-4.158-.33.913-.185 3.002-.248 4.014-.305" fill="#0455fd"/><path d="M176.947 199.704c-.297-1.618-.742-10.007-.133-11.249.807-.483 2.001-.28 2.88-.158 1.159.162 1.727 1.002 2.745.26.971.209 2.414.95 3.406 1.304 1.375.493 2.726 1.247 4.101 1.774 1.177.453 2.423.768 3.61 1.196 5.1 2.434 10.6 4.023 15.693 6.417 1.642 1.053 2.803 3.07 3.585 4.825.512 1.146.516 1.918 1.345 2.98 1.685 2.159 3.113 4.623 4.685 6.876.448.643.263 2.387.893 2.959.012.008.186.222.195.233l.18.212.17.207c-.176-.465-.354-.665-.249-1.045.53.116.273.01.731.484-.11.514-.218.471.107.88.626.786 1.496 1.4 2.064 2.24.652.963.712 2.56 1.56 3.2.353.265.834.708 1.006 1.093l-.162.368c.395.778.825.769 1.35 1.933.65 1.442 2.762 5.652 3.008 6.99-.227-.29-.447-.541-.687-.818-.873.33-2.79.461-3.724.529-1.28-3.739-6.55-10.723-8.698-14.406-2.922-4.947-5.963-9.8-8.922-14.727-1.742-3.302-5.823-3.333-8.91-4.616-5.925-2.462-11.985-4.742-18.003-6.971-.508 1.245.843 6.215-.328 7.996-.562-.81-.672-1.041-1.538-1.576-.801-.022-1.005-.006-1.753.3z" fill="#06fdf3"/><path d="M176.947 199.704c-.297-1.618-.742-10.007-.133-11.249.807-.483 2.001-.28 2.88-.158 1.159.162 1.727 1.002 2.745.26.971.209 2.414.95 3.406 1.304 1.375.493 2.726 1.247 4.101 1.774 1.177.453 2.423.768 3.61 1.196 5.1 2.434 10.6 4.023 15.693 6.417 1.642 1.053 2.803 3.07 3.585 4.825.512 1.146.516 1.918 1.345 2.98 1.685 2.159 3.113 4.623 4.685 6.876.448.643.263 2.387.893 2.959.012.008.186.222.195.233l.18.212.17.207c-.176-.465-.354-.665-.249-1.045.53.116.273.01.731.484-.11.514-.218.471.107.88.626.786 1.496 1.4 2.064 2.24.652.963.712 2.56 1.56 3.2.353.265.834.708 1.006 1.093l-.162.368c.395.778.825.769 1.35 1.933.65 1.442 2.762 5.652 3.008 6.99-.227-.29-.447-.541-.687-.818-5.102-8.395-10.037-16.82-15.639-24.901-.923-1.431-3.409-6.875-4.712-7.487-7.431-3.507-15.374-6.047-22.897-9.337-3.238-1.416-5.205-1.925-8.688-2.596.241 3.873.02 3.143 3.68 4.13-.509 1.245.842 6.215-.329 7.996-.562-.81-.672-1.041-1.538-1.576-.801-.022-1.005-.006-1.753.3z" fill="#170f7c"/><path d="M177.094 188.544c.241 3.873.02 3.143 3.68 4.13-.509 1.245.842 6.215-.329 7.996-.562-.81-.672-1.041-1.538-1.576-.801-.022-1.005-.006-1.753.3-.109-2.034-.39-9.105-.06-10.85" fill="#03e9f7"/><path d="M109.022 195.435c4.077 5.11 7.645 10.096 13.396 13.491 1.647.973 3.215 2.136 4.896 3.098-1.788-.008-3.7-2.488-4.783-2.626-.616.61 1.154 1.983.965 2.613-.579 1.93-3.152 3.235-4.54 4.505-1.158 1.059-1.775 1.89-3.106 2.65-1.227-.1-4.056-4.251-5.418-4.874-1.305-.595-3.031-.108-4.502-1.062a2.38 2.38 0 0 1-1.046-1.6c-.204-1.232-.439-7.898.47-8.408 1.94-1.091 1.418-1.895 2.51-3.956.392-.737 1.757-.992 2.632-1.196-.144-.839-1.201-1.325-1.474-2.635" fill="#1005b2"/><path d="M58.063 230.09c.69-2.52 2.098-4.919 3.136-7.333.67-1.67 1.165-3.438 1.826-5.11.663-1.676 1.41-3.355 2.132-5.007.446-1.023.947-2.316 1.607-3.208 1.367-1.846 2.964-3.601 4.512-5.305.823-.906 1.6-1.974 2.513-2.799 1.127-.882 3.54-1.425 4.968-2.071l15.021-6.782c1.512-.69 10.789-5.315 11.629-4.988.281.641.321 2.254.377 3.04-3.538 1.523-7.061 3.487-10.602 4.962-3.114 1.298-6.145 2.73-9.195 4.092-3.267 1.456-7.154 2.214-10.232 4.34-1.204.751-5.876 6.299-6.413 7.566-2.011 3.448-3.043 6.643-4.66 10.179-1.417 3.098-2.457 6.628-3.851 9.582-.84.599-.425 1.086-1.165 1.393l-.558-.384c-.636.063-1.205.129-1.385-.577.24-.648.295-.901.34-1.59" fill="#06fdf3"/><path d="M178.907 199.094c.866.535.976.766 1.538 1.576-3.28 3.22-6.241 6.71-9.649 9.793-.56.505-1.1 1.09-1.722 1.512q-1.106-.002-2.21.004a1527 1527 0 0 0-19.388-.016c-2.97.004-6.564.157-9.458-.223-.618-.082-2.837-1.393-3.523-1.778.72-1.335.561-2.605.58-4.134 1.766 1.024 3.266 2.079 5.33 2.203l17.184-.09c2.307 0 6.293-.118 8.422.062.915-.024 1.83.003 2.746.02.753-.636 1.426-1.49 2.155-2.1 2.1-1.75 3.932-4.32 6.012-5.988l.023-.231.207-.31c.748-.306.952-.322 1.753-.3" fill="url(#g)"/><path d="m140.404 208.031 17.185-.09c2.307 0 6.293-.118 8.422.062-1.468.487-7.15-.045-8.972.203-.443.102-.733 1.533-1.142 1.608-3.057.564-6.776 1.393-9.744.097-.492-.216-1.33-1.612-1.371-1.615-1.699-.127-2.699.367-4.378-.265" fill="#0171f7"/><path d="M177.154 199.395c.748-.307.952-.323 1.753-.3-.612.453-1.254.601-1.983.84l.023-.231z" fill="#141ee6"/><path d="m95.125 220.69.099.443c-.015 6.896-.535 14.934-.842 21.923l-.355 7.946c-.061 1.326-.102 3.365-.303 4.625-4.486.264-12.738-7.086-20.442-7.157-.814-.049-2.008.019-2.85.044.055-1.118.062-2.168.066-3.289 1.766-.095 5.318-.297 6.932-.003 2.39.435 5.723 2.558 8.053 3.583 1.85.815 3.719 1.625 5.57 2.422q.595-14.856.93-29.72l-.051-.412a98 98 0 0 1 3.193-.405" fill="url(#h)"/><path d="m95.125 220.69.099.443c-1.172.067-2.084.139-3.241.375l-.051-.413a98 98 0 0 1 3.193-.405" fill="#0171f7"/><path d="m134.218 209.86.277.102c.686.385 2.905 1.696 3.523 1.778 2.894.38 6.488.227 9.458.223q9.694-.053 19.387.016c.172.444.195 1.01-.001 1.453-.569 1.279-2.382 2.187-3.634 2.593-1.517.492-24.203.554-26.513.193-1.635-.255-3.374-1.147-4.824-1.904-1.154-.604-2.269-1.307-3.443-1.863 1.6-.913 5.044-1.55 5.77-2.592" fill="#170f7c"/><path d="M197.366 212.155c1.035-.166 1.507-.175 2.56-.183.51 1.302.74 2.724.993 4.098.247 1.708.528 3.57.679 5.287-1.042.019-2.117.054-3.154.015-.457-1.824-1.046-7.278-1.078-9.217" fill="#06fdf3"/><path d="M86.573 213.763c.569-.663 1.248-.723 2.21-1.198 1.461 1.664 2.773 3.331 4.15 5.057.46.574 1.73 2.23 2.197 2.661l-.005.407a98 98 0 0 0-3.193.405c-1.826-1.884-3.808-5.1-5.359-7.332" fill="#02a3f6"/><path d="M83.738 209.745c.757-.154 1.442-.59 1.861-.762.688-.28 2.856 3.1 3.184 3.582-.962.475-1.641.535-2.21 1.198-.479-.404-2.468-3.4-2.835-4.018" fill="#0171f7"/><path d="M99.599 117.147c1.931-.05 4.12.022 6.071.047.266 5.529.035 12.11.082 17.74 1.15 1.486 3.094 2.918 4.476 4.395 2.482 2.651 5.817 7.065 8.642 9.301 2.695.164 6.95.063 9.744.082h25.094c.97-.649 2.317-2.13 3.187-2.976 2.354-2.288 4.595-4.691 6.87-7.055 1.302-1.353 2.827-2.578 4.187-3.924.284-1.933-.422-10.242 1.218-10.239.396.383.463.699.453 1.281-.051 3.236-.173 6.25.064 9.482.932 1.175 2.555 2.286 3.671 3.35 1.22 1.162 2.366 2.357 3.532 3.569.23.302.28.3.402.639.057 1.086.121 2.127.1 3.217l-3.244.001q-4.916.03-9.834-.006c-.01 1.778-.052 3.65-.024 5.421l11.214-.007c1.473 0 4.385.097 5.716-.076.205-.323.183-.509.224-.894-.08-.454-.003-1.141.028-1.62 1.735-.277 5.719-.192 7.587-.195q7.575-.028 15.148.138c1.202 0 2.438-.015 3.637.007-.015 1.23.007 2.757-.097 3.96l-.012 7.917c-1.163 1.554-3.881 3.985-5.35 5.578l-16.14 17.243-32.612-.018c-5.68.015-14.667.29-20.096-.22-3.242-.127-6.465-.125-9.673-.254-.708-.51-1.137-.929-1.72-1.573-3.2-3.585-6.983-6.652-10.13-10.28-3.846-4.435-8.525-8.227-12.398-12.578l-.015-6.776c-.125-.76-.078-2.928-.075-3.768l.031-7.19z" fill="#0455fd"/><path d="M99.599 117.147c1.931-.05 4.12.022 6.071.047.266 5.529.035 12.11.082 17.74 1.15 1.486 3.094 2.918 4.476 4.395 2.482 2.651 5.817 7.065 8.642 9.301 2.695.164 6.95.063 9.744.082h25.094c-.513.456-1.67 1.522-2.292 1.587-3.128.327-7.079.161-10.237.165q-11.513.113-23.024.015c-1.925-1.107-3.324-2.622-4.781-4.28-.023 3.493.121 9.174-.17 12.527 2.358 2.651 4.82 4.806 7.215 7.337 4.087 4.325 7.641 8.596 12.148 12.545.522.399.997.648 1.192 1.243l-.225.514c.074 1.024.035 1.897.003 2.92-3.242-.127-6.465-.125-9.673-.254-.708-.51-1.137-.929-1.72-1.573-3.2-3.585-6.983-6.652-10.13-10.28-3.846-4.435-8.525-8.227-12.398-12.578l-.015-6.776c-.125-.759-.078-2.928-.075-3.768l.031-7.19z" fill="#1005b2"/><path d="M99.6 151.824c.068-.917.09-1.61.086-2.53.155 1.022.076 3.4.064 4.551l.175.084c2.377 1.109 2.192-.621 2.225-2.382.059 1.611.066 3.426.157 5.007 1.98 2.842 5.831 5.58 8.127 8.077 3.463 3.765 6.836 7.608 10.474 11.218.836.829 1.975 2.232 2.846 2.891 1.071-.016 1.73-.011 2.771.093 1.565.156 5.26 1.161 6.666.807a28 28 0 0 1-.624-1.032c.522.399.997.648 1.192 1.243l-.225.514c.074 1.024.035 1.897.003 2.92-3.242-.127-6.465-.125-9.673-.254-.708-.51-1.137-.929-1.72-1.573-3.2-3.585-6.983-6.652-10.13-10.28-3.846-4.435-8.525-8.227-12.398-12.578z" fill="url(#i)"/><path d="M204.398 149.073c.96.03 2.318-.053 3.3-.088a164 164 0 0 0 .05 3.8l-.013 7.917c-1.163 1.554-3.881 3.985-5.35 5.578l-16.14 17.243-32.612-.018c-5.68.015-14.667.29-20.096-.22.032-1.023.07-1.896-.003-2.92 1.287.173 4.297.108 5.67.107l10.468-.006 35.414-.005a36 36 0 0 1 1.793-2.084c4.91-5.28 9.995-10.4 14.886-15.703.836-.908 1.675-1.654 2.425-2.641.078-3.681.015-7.276.208-10.96" fill="#06fdf3"/><path d="M181.472 148.875c1.735-.277 5.719-.192 7.587-.195q7.575-.028 15.148.138l-.09 1.731c-5.553-.228-11.467-.014-17.04.008-1.191.006-4.767-.156-5.633-.062-.08-.454-.003-1.141.028-1.62m-13.52-14.118c.284-1.933-.422-10.242 1.218-10.239.396.383.463.699.453 1.281-.051 3.236-.173 6.25.065 9.482.931 1.175 2.554 2.286 3.67 3.35 1.22 1.162 2.366 2.357 3.532 3.569-1.38-.299-2.326-.72-3.33-1.719-1.88-1.873-4.196-3.47-5.608-5.724" fill="#141ee6"/><path d="M174.396 141.96c1.035.355 1.838.606 2.896.879.057 1.086.121 2.128.1 3.217l-3.244.001c-.009-1.266.15-2.813.248-4.096" fill="#06fdf3"/><path d="M144.65 157.148c12.582-.057 25.906-.216 38.44.028l-.067 5.574c-3.877.104-8.091.038-11.99.048l-26.334.084c-.1-1.739-.047-3.958-.05-5.734m11.725 10.345c2.878-.098 5.96-.053 8.853-.056 2.34 0 5.11-.061 7.41.083-.017.91.152 4.565-.237 5.042-5.168.153-11.037.112-16.208.07-.002-.715-.11-4.748.182-5.139" fill="#060459"/><path d="M113.134 105.344c1.555-.189 4.321-.14 5.955-.145l10.249-.024c10.276-.021 21.107-.156 31.352.046.487.264.724.466 1.162.81.703.685.923.885 1.474 1.71q.064 2.52.077 5.044c2.984.273 8.237.044 11.425.002-.091-2.387-.727-5.72 1.343-7.277 2.442-.296 5.388-.248 7.882-.26l9.255-.06c8.348-.018 17.407-.184 25.7.016.637.516.831.669 1.338 1.303.186 1.6.126 3.648.126 5.29l-.006 8.54c0 2.258.13 10.543-.175 12.286-2.617 2.432-5.264 4.97-7.675 7.606-.633.692-2.354 2.96-3.03 3.252-1.212.523-22.716.334-25.309.272q-.225-.006-.45-.024c-.38-.357-.828-.751-1.15-1.148q.064-1.23.112-2.463c-.705-.81-1.36-1.52-2.175-2.223-2.009-1.733-3.71-3.637-5.751-5.34q-.048-7.25-.018-14.5c-3.657.017-8.089.158-11.672.013-.008 4.36.09 9.528-.164 13.854-.846 1.423-5.11 5.342-6.423 6.647-1.398 1.39-3.623 3.93-5.04 5.128a110 110 0 0 1-4.37.059c-8.383-.097-16.862.19-25.235.063-3.3-3.388-7.147-7.018-10.142-10.672-.258-.315-.306-.825-.27-1.225-.132-6.049.14-12.19.025-18.25-.04-2.145-.025-4.426.1-6.561.494-.84.763-1.12 1.48-1.77" fill="#fe10d6"/><path d="M113.134 105.344c1.555-.189 4.321-.14 5.955-.145l10.249-.024c10.276-.021 21.107-.156 31.352.046.487.264.724.466 1.162.81-4.041-.357-9.946-.154-14.175-.21a615 615 0 0 0-19.168.067c-4.933.051-10.988.064-15.897.377-.612.862-.131 17.477-.65 20.449l-.061-1.834c-.037 1.351-.071 6.083-.372 7.044-.132-6.049.14-12.19.025-18.25-.04-2.145-.025-4.426.1-6.561.494-.84.763-1.12 1.48-1.77" fill="#fc0fca"/><path d="M126.055 110.08c10.937-.072 22.102.141 32.973-.008.085 4.732-.065 9.545.057 14.288.047 1.838.09 4.206-.243 5.989-1.883 2.227-6.793 6.94-9.094 9.338l-.476.103c-1.32.074-2.663.038-3.99.037-6.562-.005-13.126.09-19.687.042-2.19-.015-2.879-1.24-4.393-2.543-1.93-1.661-3.435-3.59-5.464-5.11-.198-1.583-.053-5.537-.042-7.348l.095-14.767c3.366.082 6.887.006 10.264-.02" fill="#170f7c"/><path d="M121.94 121.46c6.57-.3 15.164-.063 21.821-.059l6.712-.007c1.102-.003 3.339-.066 4.324.11l.24.362c.116.76.043 1.569-.395 2.218-1.995.128-4.636.037-6.69.038l-11.157.044c-4.6.016-9.944.105-14.583-.139-.982-.051-.636-1.885-.273-2.568m11.969-6.25 13.162-.014c1.587-.003 6.55-.146 7.804.206.993 1.032.222 2.134-1.002 2.215-.9.06-1.881.002-2.795.003l-6.738.018c-6.58.016-14.508.137-21.194-.143-.598-.025-.788-1.225-.599-1.808.743-.67 9.783-.466 11.362-.477m-10.566 12.711c6.663-.249 13.586.077 20.273-.058 2.607-.052 5.683-.069 8.264.123l.058.88c.038.712.105.991-.348 1.5-4.605.178-9.794-.062-14.424.02-1.926.033-12.754.215-13.759-.329-.63-.686-.614-1.413-.064-2.136m3.642 6.473c1.786-.074 19.37-.267 20.2.167.463.756.395 1.427-.423 1.808-2.153.11-19.41.364-20.2-.337-.3-.686-.322-1.312.423-1.638" fill="#fe10d6"/><path d="M190.677 110.227q12.527-.123 25.052.043c.025 6.699.21 13.886.004 20.54-1.722 2.837-6.073 6.246-7.938 8.637-1.065.092-2.257.104-3.338.136q-8.498.028-16.995-.044c-3.117-2.64-5.722-4.845-8.599-7.788-.12-6.93-.01-14.49.12-21.416z" fill="#170f7c"/><path d="M182.249 121.502c9.766-.05 20.248-.26 29.983.017.043.958.285 2.28-.593 2.823l-17.86-.01c-3.636-.007-7.312-.007-10.946-.094-.603-.015-.863-.025-1.2-.398-.192-.928-.38-1.993.616-2.338m4.388-5.995c3.314-.1 23.581-.451 25.707.175.507.572.262 1.34-.229 1.832-.586.178-3.936.116-4.766.116l-17.854.047c-2.184.002-5.243.05-7.459-.151-.327-.03-.43-.331-.55-.575-.042-2.05 3.57-1.428 5.151-1.444m-2.071 12.426c7.805-.427 16.236.247 24.102-.022.667-.023 1.28-.057 1.714.46.186.718.003 1.18-.31 1.816-2.444.145-24.832.15-25.453-.144-.54-.63-.545-1.463-.053-2.11m3.583 6.589 11.834.07c1.215.006 5.265-.095 6.268.147.667.612.302 1.136-.28 1.627-5.312.243-11.966.171-17.293.008-.366-.513-.838-1.038-.797-1.65z" fill="#fe10d6"/><path d="M106.184 257.934c1.74-10.953 1.837-9.054 8.858-17.44 1.044.613.617.744 1.308 1.32.463.385.986-.128 1.56.657 1.038-.924 1.532-1.287 2.793-1.762-.603.864-3.226 4.427-3.327 5.035 3.318.427 7 .076 10.365.15 2.839.064 5.812-.143 8.644.052.356.505.795 1.075 1.053 1.627 1.134 1.87 1.955 2.077 3.038 3.462.045 1.245-.054 3.032.032 4.14l-.162.303c-.85.234-4.032.124-5.089.143-3.906.07-7.97-.097-11.862.108-.016 1.63-.066 3.383-.024 5.004 5.23.043 10.535-.184 15.818-.126.489-.011.95-.087 1.362.135.2.985.09 6.068.084 7.327l-2.238.053c-.765.095-1.49.082-2.258.09-4.308.046-8.63-.067-12.936-.004-.014.783-.237 4.982.234 5.37 3.41.176 10.093-.052 12.983.373.06.933.326 2.896-.233 3.631-1.127 1.261-2.46 3.18-3.901 4.049-6.424.171-12.91-.1-19.337.083-.358.01-.862.18-1.161.375-1.545.82-3.339 1.24-4.97 1.871a166 166 0 0 1-10.89 3.794c-8.113 2.51-15.932 6.124-24.017 8.672-1.541.486-6.942.297-8.832.288-2.993-3.792-7.113-7.588-9.9-11.17q.333-8.914.769-17.825c.166-3.822.254-7.778.495-11.578a37 37 0 0 0 2.95-.313c4.083-.725 17.07-2.567 20.45-.257q.269.18.527.375c1.81.885 4.39 2.003 5.92 3.169-2.154.792-3.797 1.374-6.08 1.724-3.127.66-5.35 1.51-8.649 2.005-.203 1.424-.62 4.634-.544 6.024a275 275 0 0 1 4.735-1.06c3.02-1.07 6.041-2.176 9.12-3.068 7.769-2.25 15.59-4.406 23.312-6.806" fill="url(#j)"/><path d="M57.393 255.828c.144 2.475-.245 5.143-.37 7.64q-.262 6.447-.447 12.895c-.09 2.646-.324 5.986-.17 8.567 1.222 1.514 2.945 2.846 4.316 4.283 1.082 1.134 2.12 2.66 3.21 3.699 2.64-.119 5.675-.046 8.211-.257.665-.055 4.016-1.409 4.936-1.755a468 468 0 0 1 6.813-2.456c2.78-.996 5.785-1.843 8.623-2.786 5.603-1.864 11.749-4.29 17.341-5.993.893.955 1.223 1.317 1.932 2.424-1.545.82-3.339 1.24-4.97 1.871a166 166 0 0 1-10.89 3.794c-8.113 2.51-15.932 6.124-24.017 8.672-1.541.486-6.942.297-8.832.288-2.993-3.792-7.113-7.588-9.9-11.169q.333-8.915.769-17.826c.166-3.822.254-7.778.495-11.578a37 37 0 0 0 2.95-.313" fill="url(#k)"/><path d="M106.184 257.934c1.74-10.953 1.837-9.054 8.858-17.44 1.044.613.617.744 1.308 1.32.463.385.986-.128 1.56.657-2.33 2.493-5.051 5.47-7.382 7.87-.315 1.244-.992 5.016-1.164 6.348-.49 1.36-.393 3.114-1.314 4.12-2.098.926-4.545 1.454-6.776 2.009-5.36 1.337-10.44 3.142-15.663 4.853-3.902 1.279-7.867 2.181-11.794 3.598l-.202-.217c-.071-.844.075-2.344.137-3.245 3.02-1.07 6.041-2.175 9.12-3.067 7.769-2.25 15.59-4.407 23.312-6.806" fill="#03e9f7"/><path d="M117.376 245.744c3.318.427 7 .076 10.365.15 2.839.064 5.812-.143 8.644.052.356.505.795 1.075 1.053 1.627-.444.409-1.03 1.518-1.34 2.092-2.247-.165-6.72-.063-9.014-.028-3.068-.11-6.645-.026-9.75-.022z" fill="#02a3f6"/><path d="M123.371 260.733c5.23.043 10.535-.184 15.818-.126.489-.011.95-.087 1.362.135.2.985.09 6.068.084 7.327l-2.238.053-.135-.073c-.217-.381-.231-4.1-.257-4.784-.866.167-4.238.14-5.34.13-3.039-.03-6.333.09-9.346-.059z" fill="url(#l)"/><path d="M139.19 260.607c.488-.011.949-.087 1.36.135.202.985.091 6.068.085 7.327l-2.238.053-.135-.073c-.217-.381-.231-4.1-.257-4.784-.397-.08-.999-.085-1.424-.104-.648-.399-.678-1.127-.41-1.786.66-.734 1.864-.562 3.018-.768" fill="#02a3f6"/><path d="M123.437 273.577c3.41.177 10.093-.051 12.983.374.06.933.326 2.896-.233 3.631-2.696.236-6.74.158-9.597.211-.805-.97-3.248-3.182-3.41-3.505.041-.54-.056-.317.257-.71" fill="url(#m)"/><path d="M117.91 242.471c1.038-.924 1.532-1.287 2.793-1.762-.603.864-3.226 4.427-3.327 5.035l-.042 3.871c3.105-.004 6.682-.088 9.75.022 2.294-.035 6.767-.137 9.014.028.612.883.754 1.194 1.194 2.18-.477-.286-.56-.739-.915-1.122-.99-1.068-9.286-.736-11.132-.777-2.612.19-4.19.677-7.064.397-1.511-.148-3.655-1.185-4.92-.778-.155.05-2.41 2.486-2.613 2.75-.754.974-.426 3.262-1.284 4.374.172-1.332.85-5.104 1.164-6.349 2.331-2.4 5.052-5.376 7.382-7.869" fill="#0455fd"/><path d="M127.084 249.637c2.294-.035 6.767-.137 9.014.028.612.883.754 1.194 1.194 2.18-.477-.286-.56-.739-.915-1.122-.99-1.068-9.286-.736-11.132-.777-2.145-.143-4.591.012-6.852-.09 2.206-.207 6.752.181 8.69-.219" fill="#141ee6"/><path d="M137.438 247.573c1.134 1.87 1.955 2.077 3.038 3.462.045 1.245-.054 3.032.032 4.14-.807-.13-1.575.283-2.346-.46-.067-1.4-.266-1.608-.87-2.87-.44-.986-.582-1.297-1.194-2.18.31-.574.896-1.683 1.34-2.092" fill="#06fdf3"/><path d="M69.017 268.868a275 275 0 0 1 4.735-1.06c-.062.9-.208 2.4-.137 3.244l.202.217c-1.345.446-3.691.88-5.303 1.359.043-.961.076-2.914.503-3.76" fill="#141ee6"/><path d="M78.37 255.946c1.81.885 4.39 2.003 5.92 3.169-2.154.792-3.797 1.374-6.08 1.724-.007-.851-.095-4.23.16-4.893M110.941 66.98q2.84.039 5.68-.024a199 199 0 0 0-.008 6.136c1.825-.115 3.46-.124 5.287-.13.004 1.988-.006 3.973.074 5.96 4.26.2 9.537-.03 13.89-.03 4.923.002 9.818.047 14.737.059a202 202 0 0 0 .02 7.48c4.018.183 8.792.09 12.84.081l19.773-.027c3.623-.008 8.65-.162 12.145.086 1.997-.003 4.054.018 6.044-.025l.078-7.29 6.526-.036c.06 4.231.29 10.114.102 14.242.024 1.11.22 5.385-.098 6.086-.181.052-.256.092-.44.098-2.104.25-8.166-.032-10.701-.003l-31.785.14c-1.432.187-6.496.065-8.222.067l-16.484.03h-21.554c-6.48.06-12.717.344-19.264.108-.036-.965.007-2.033.026-3.007 2.09-.069 4.24-.197 6.334-.296.22-6.65.104-13.29.183-19.944l4.796-.14a957 957 0 0 1 .021-9.62" fill="#0455fd"/><path d="M110.941 66.98q2.84.039 5.68-.024a199 199 0 0 0-.008 6.136c1.825-.115 3.46-.124 5.287-.13.004 1.988-.006 3.973.074 5.96 4.26.2 9.537-.03 13.89-.03 4.923.002 9.818.047 14.737.059a202 202 0 0 0 .02 7.48c4.018.183 8.792.09 12.84.081l19.773-.027c3.623-.008 8.65-.162 12.145.086a190 190 0 0 1-.196 5.703l-32.086.01c-5.099.004-10.689.164-15.722.022l-.03-2.362q-2.267-.046-4.532-.014v-5.833c-7.998-.212-17.46-.22-25.483.012-.383 4.158-.172 11.25-.209 15.675l28.355-.018c6.403-.001 13.268-.145 19.63.016-1.433.188-6.497.066-8.223.068l-16.484.03h-21.554c-6.48.06-12.717.344-19.264.108-.036-.965.007-2.033.026-3.007 2.09-.069 4.24-.197 6.334-.296.22-6.65.104-13.29.183-19.944l4.796-.14a957 957 0 0 1 .021-9.62" fill="#170f7c"/><path d="M204.78 92.142c.201-.985.37-3.578.666-4.11.048.912.15 4.522.79 4.9.667-.185 1.464-1.408 1.076-2.072-.388-.668.117-1.33.478-1.982-.015.882-.132 2.407.241 3.147.028.425.047 1.028.098 1.437.024 1.11.22 5.385-.098 6.086-.181.052-.256.092-.44.098l-2.993-.052c-.02-2.44.079-5.011.183-7.452" fill="#03e9f7"/><path d="M205.954 89.361c.028.616.034.868.16 1.464l.186.116c.605-.786.337-2.049.205-3.087q-.022-.168-.047-.336c.501-.632.623-.79 1.455-.947.118 1.072.181 4.362.118 5.454-.373-.74-.256-2.265-.241-3.147-.36.653-.866 1.314-.478 1.982.388.664-.409 1.887-1.077 2.072-.64-.378-.74-3.988-.79-4.9-.295.532-.464 3.125-.664 4.11-.066-1.889-.022-3.367.186-5.237 1.028.707.898 1.302.987 2.456" fill="#02a3f6"/><path d="M204.967 86.905c.069-.975.025-1.337.59-2.116l.193.084c.292.872.42 3.615.204 4.488-.09-1.154.041-1.749-.987-2.456" fill="#028dfa"/><path d="m117.38 30.336 38.156-.16 12.148-.043c2.573-.022 5.85-.143 8.37.047.186 2.776.082 6.118.063 8.95 5.147-.045 11.071-.144 16.198.004.204 1.803.161 3.877.105 5.696 3.38-.013 8.434-.107 11.716.195.221 2.297.166 4.577.132 6.882 2.638-.078 5.602.017 8.263.1.186 4.454.049 9.65.062 14.161 1.897.133 5.253.357 6.972.898.123 7.793.145 16.68.002 24.471-.898.04-1.915.185-2.732-.063-.384-.424-.236-.171-.31-.86-.896-2.374-.3-5.666-.513-8.153-.09-1.033-1.4-3.385-1.393-4.733.001-.349-.602-.904-.575-1.684-.313.878.19 2.687-.2 3.454-.958-1.092.21-3.765-.804-5.75-1.977-3.873-5.765-1.611-5.308-6.693.014-.153-.514-1.436-.634-1.681l-.108 1.254c-.364-.564-.19-2.651-.355-3.507.173-.205.3-.352.491-.54.198.6.498 2.566.646 3.326.088-2.315-.396-4.131-1.528-6.148-.523-.979-1.618-3.015-2.915-3.028-3.15-.03-2.528-1.726-3.574-4.201-.845-1.998-2.369-1.887-4.156-2.621l-.189-.08-.315.162c-1.364-.14-3.057.224-4.7-.303-1.685-.541-1.216-1.821-1.874-2.84-1.55-2.599-5.937-2.792-8.467-2.641-3.32.197-5.97 1.148-7.358-2.68-.136-.376-.06-.547-.038-.946-.066-.987-.599-1.237-.96-2.067-1.392-3.184-4.373-2.59-7.21-2.966-.465-.063-.944-.015-1.37-.267-2.66.405-5.38-.374-8.123.222-1.025.223-4.05-.363-4.925-.021l.261.32c-.403.141-.851.052-1.29.014l-.074-.24.204-.152c-1.587.045-3.542.327-4.974.047-1.41-.276-3.106-.046-4.554-.071a95 95 0 0 0-7.497.146l.21-.05-.239.021c-2.37.197-7.607-.906-9.51.84-.534 1.04.6 1.323-.656 2.77-.088-.272-.056-.138.021-.47l-.136-.005c-.284 1.675-.187 2.618-1.237 4.069-.203.056-.106.066-.29-.023l-.255.396-.152-.231-.443.136c-.012-.314-.054-.168.143-.434-.782.054-3.072.83-3.627.475-1.102-.703-8.13-.377-9.772-.166l.13.036c-1.4.236-3.47 1.036-3.484-1.18-.003-.476-.027-1.67.177-2.034 1.667-.204 4.17-.144 5.902-.142q4.148-.035 8.293.111c0-3.03-.008-6.311.16-9.329" fill="#06fdf3"/><path d="m189.401 47.07.29.285c3.742.174 7.852.201 11.587.028q-.051 3.406.01 6.811l8.14.03.002 14.244c2.43.49 4.69.684 7.147.953a895 895 0 0 0-.025 14.438c.002 1.92.09 4.89-.026 6.756-.897-2.375-.302-5.667-.514-8.154-.09-1.033-1.4-3.385-1.393-4.733.001-.349-.602-.904-.575-1.684-.313.878.19 2.687-.2 3.454-.958-1.092.21-3.765-.804-5.75-1.977-3.873-5.765-1.611-5.308-6.693.014-.152-.514-1.436-.634-1.681l-.108 1.254c-.364-.564-.19-2.65-.355-3.507.173-.205.3-.352.491-.54.198.6.498 2.566.646 3.326.088-2.315-.396-4.131-1.528-6.148-.523-.979-1.619-3.015-2.915-3.027-3.15-.03-2.528-1.727-3.574-4.202-.845-1.998-2.369-1.887-4.156-2.621l-.189-.08-.181-.146.033-.148c.532.074.93.207 1.38-.04-.28-.864-7.31.02-7.24-2.425m-69.44-6.573c.486-1.458.358-3.025.957-4.453.928-2.208 4.631-2.008 6.69-2.037 11.605-.163 23.236-.115 34.84-.093 1.643.003 8.557.91 9.497.574l-.064-.13c-.547-.274-.775-.465-1.386-.421.501-.287 2.2-.458 2.549-.102-.097-.1.49 3.458.54 3.717q.038 2.055.003 4.111a46 46 0 0 0 2.735.13c-.217.125-1.485.245-1.777.246-1.015.001-1.425-.795-1.888-1.458-.066-.987-.599-1.237-.96-2.067-1.392-3.184-4.373-2.59-7.21-2.966-.465-.063-.944-.015-1.37-.267-2.66.405-5.38-.374-8.123.222-1.025.223-4.05-.363-4.925-.021l.261.32c-.403.141-.851.052-1.29.014l-.074-.24.204-.152c-1.587.045-3.542.327-4.974.047-1.41-.276-3.106-.045-4.554-.071a95 95 0 0 0-7.497.147l.21-.05-.239.02c-2.37.197-7.607-.906-9.51.84-.534 1.04.6 1.323-.656 2.77-.088-.272-.056-.138.021-.47l-.136-.005c-.284 1.675-.187 2.618-1.237 4.069-.203.056-.106.066-.29-.023l-.255.396-.152-.231-.443.136c-.012-.314-.054-.168.143-.434-.782.054-3.072.83-3.627.475-1.102-.703-8.13-.377-9.772-.166l.13.036c-1.4.236-3.47 1.036-3.484-1.18-.003-.476-.027-1.67.177-2.034.029.824-.013 1.647-.043 2.471 1.622.22 16.354.259 16.939-.145l.046-.069z" fill="#1005b2"/><path d="M119.968 41.953c1.19-1.331.498-5.17 2.814-6.522.494-.289 1.973-.483 2.56-.503 6.67-.233 13.369-.106 20.037-.123 4.574-.012 9.13-.15 13.709-.014 1.992.059 4.263-.127 6.187.302-.884.108-1.278-.05-2.157.188-2.66.405-5.38-.374-8.123.222-1.025.223-4.05-.363-4.925-.021l.261.32c-.403.141-.851.052-1.29.014l-.074-.24.204-.152c-1.587.045-3.542.327-4.974.047-1.41-.276-3.106-.045-4.554-.071a95 95 0 0 0-7.497.147l.21-.05-.239.02c-2.37.197-7.607-.906-9.51.84-.534 1.04.6 1.323-.656 2.77-.088-.272-.056-.138.021-.47l-.136-.005c-.284 1.675-.187 2.618-1.237 4.069-.203.056-.106.066-.29-.023l-.255.396-.152-.231-.443.136c-.012-.314-.054-.168.143-.434-.782.054-3.072.83-3.627.476-1.102-.704-8.13-.378-9.772-.167l.13.036c-1.4.236-3.47 1.036-3.484-1.18-.003-.476-.027-1.67.177-2.034.029.824-.013 1.647-.043 2.471 1.622.22 16.354.259 16.939-.145zm75.442 7.877-.315.161c-1.364-.14-3.057.224-4.7-.303-1.685-.541-1.216-1.821-1.874-2.84-1.55-2.599-5.937-2.792-8.467-2.642-3.32.198-5.97 1.149-7.358-2.68-.136-.375-.06-.546-.038-.945.463.663.873 1.459 1.888 1.458.292 0 1.56-.12 1.777-.246 4.382-.101 8.751.015 13.125-.02-.009 1.35.06 4.065-.047 5.297-.068 2.444 6.961 1.56 7.241 2.426-.45.246-.848.113-1.38.04l-.033.147z" fill="#170f7c"/><path d="M119.953 33.154c1.75-.07 3.88 0 5.68-.004l12.199-.027 35.896-.025-.143 4.454c-.05-.259-.637-3.816-.54-3.717-.349-.356-2.048-.185-2.549.102.61-.044.84.147 1.386.422l.064.129c-.94.337-7.854-.571-9.496-.574-11.605-.022-23.236-.07-34.841.093-2.059.028-5.762-.17-6.69 2.037-.6 1.428-.47 2.995-.957 4.453q.027-3.671-.009-7.343M225.74 240.627c2.69-.12 5.385.012 8.05.393.878.147 1.632.273 2.5.486.227 4.261.128 9.224.142 13.523l.158 19.743c-3.445 1.93-8.174 9.975-11.738 12.465l-.17.053c-1.164.174-4.635.096-6 .093l-11.899-.054c-.073-1.393-.025-3.306-.025-4.74q4.21-.099 8.42-.144c1.805-2.034 5.634-6.158 7.636-7.8l-.013-1.957c1.61-.186 3.022-.053 4.787-.32 2.101-1.576 1.855-2.11 1.868-4.665-2.59-.167-5.927-.076-8.575-.076-.038-1.838-.097-3.61-.002-5.448l-.023-.85c.006-.48-.056-.848.205-1.161 1.768-.195 5.107-.144 6.995-.168.334-.14.903-.395.956-.803.11-.853.393-2.867.047-3.633-1.08-.435-6.942-.327-8.63-.365-.095-1.944-.102-3.934-.131-5.884-.035-1.097-.024-2.222-.024-3.32l6.024-.203c.017-.914.05-1.436-.48-2.174-.159-.895-.094-2.058-.078-2.991" fill="#141ee6"/><path d="M233.79 241.02c.878.147 1.632.273 2.5.486.227 4.261.128 9.224.142 13.523l.158 19.743c-3.445 1.93-8.174 9.975-11.738 12.465.026-1.172.07-2.33.004-3.501.452-1.694 6.04-8.008 7.626-9.192.028-2.555.207-29.537-.249-30.78l.091-.118c.37-.438.942-1.403 1.17-1.928q.157-.347.295-.698" fill="#03e9f7"/><path d="M225.74 240.627c2.69-.12 5.385.012 8.05.393q-.14.351-.295.698c-.229.525-.8 1.49-1.17 1.928l-.092.117c-1.636.078-4.631-.11-6.414-.145-.16-.895-.095-2.058-.08-2.991" fill="url(#n)"/><path d="M232.324 243.646c.006-.864.19-1.38.804-2.005l.367.077c-.229.525-.8 1.49-1.17 1.928" fill="#02a3f6"/><path d="M226.298 245.792c1.122.007 2.158-.053 3.038.769-.384.103-1.485-.536-1.56-.532-2.644.167-5.197.542-7.884.512 1.34.256 4.002.67 5.022 1.593.1.276.203.785.404.82 1.279.222 3.3.052 4.607.07-.31-.421-.648-.76-.693-1.257.36.1.477.375.688.744q.16.284.311.567c-2.095.347-7.566.234-9.933.237-.035-1.097-.024-2.222-.024-3.32z" fill="#028dfa"/><path d="M220.856 261.33c.006-.48-.056-.849.205-1.162 1.768-.195 5.106-.144 6.995-.168v.15c-1.092.17-2.836.186-3.957.222.341.074.508.082.798.295.677.5 3.554.339 3.789 1.205-.21.177-.626.435-.904.42-1.434-.07-5.612.325-6.778-.073l-.125-.04z" fill="#0455fd"/><path d="M220.856 261.33c.81-.148 5.955.112 6.634.356l.11.191c-.299.342-.454.337-1.062.345-1.832.022-3.702-.002-5.534-.003l-.125-.04z" fill="#028dfa"/><path d="M223.273 283.564c.507.012.766.176 1.583.172.066 1.172.022 2.329-.004 3.5l-.17.054-1.008-.059c.35-.655.306-2.719.091-3.413z" fill="#0455fd"/><path d="m223.273 283.564.492.254c.215.694.26 2.758-.09 3.413l-.443-.082c-.365-.787-.06-2.688.041-3.585" fill="#028dfa"/><path d="M128.659 188.45c2.736-.105 5.87-.034 8.652-.037l15.72-.012c1.942-.002 12.079-.111 13.289.205 1.134.154 2.87.07 4.059.048.14 2.618.095 5.467.1 8.104-1.962 2.06-3.632 3.44-5.81 5.28l-5.014.09c-4.675.2-13.519.167-18.172-.104-2.183-.127-10.83-4.368-12.88-5.643-.037-2.584.034-5.336.056-7.932" fill="#1005b2"/><path d="M166.32 188.606c1.134.154 2.87.07 4.059.048.14 2.618.095 5.467.1 8.104-1.962 2.06-3.632 3.44-5.81 5.28l-5.014.09c.403-.565 1.722-1.513 2.285-2.092 1.44-1.478 2.729-2.768 4.307-4.106q.01-3.662.073-7.324" fill="#02a3f6"/><path d="M192.454 226.499c5.627.033 11.796.172 17.38-.024 1.036.908 2.236 2.811 3.162 3.96.777.963 1.677 1.989 2.405 2.951.092 1.288.161 7.228-.325 8.249-.416.397-1.207.556-1.547.14-.979-1.2-.59-4.708-.569-6.213-1.035-1.962-2.509-3.652-4.18-5.098-4.732-.129-10.242-.022-15.02.004-1.647 1.392-5.094 5.378-6.481 7.012-3.324.27-8.366.13-11.805.132l-20.981-.006c-2.246-2.025-4.404-4.529-6.45-6.764l-18.398.044c-.03 1.491-.013 9.94-.427 10.594-1.02.471-2.093.253-3.23.158-.24-2.187.067-8.428.136-10.98.755-1.132 2.75-3.05 3.763-4.01l12.186.072c4.101.022 6.29-.958 8.7 2.489.887 1.268 2.882 2.692 3.857 4.063 1.185.354 10.918.204 12.717.186 6.117-.061 12.521.111 18.609-.07 1.21-1.437 5.149-6.008 6.498-6.89" fill="#fc0fca"/><path d="M154.63 233.272c1.185.354 10.918.204 12.717.186 6.117-.062 12.521.111 18.61-.07-.783.577-4.558.521-5.813.615l2.046.082c-2.218.312-4.764.274-7.01.325-4.426.103-8.783-.017-13.203-.167-1.963-.066-4.168.148-6.104-.135-.59-.086-.93-.337-1.243-.836" fill="#fe10d6"/><path d="M77.772 110.902c3.355-.155 6.874-.086 10.23-.001l.041 2.415q.015 1.76 0 3.52c-2.594.105-5.312.067-7.916.068l-.024 9.783q.059 2.22.034 4.439c1.563-.03 3.227-.034 4.78-.129-.03-2.225-.153-5.5.049-7.62a64 64 0 0 1 4.81-.104c.021 1.814-.142 13.047.127 13.739 1.245-.008 2.287.045 3.532.123q.117 2.775.134 5.55c-.025.398-.034.779-.098 1.172-.88.354-10.585.253-12.106.155-2.028-2.399-5.602-6.337-7.978-8.431.28-6.821.104-13.813.207-20.667 1.477-1.576 2.518-2.63 4.178-4.012" fill="#0455fd"/><path d="M77.772 110.902c3.355-.155 6.874-.086 10.23-.001l.041 2.415c-2.794.119-5.55-.01-8.31.067-1.524.905-2.503 1.429-3.527 2.938-.197 5.015-.243 13.319-.016 18.282.627 1.017 5.5 5.614 6.562 6.293q1.867.01 3.734.054c2.038.496 3.902-.087 5.939 1.417.89.657 1.016.14 1.046 1.49-.88.354-10.585.253-12.106.155-2.028-2.399-5.602-6.337-7.978-8.431.28-6.821.104-13.813.207-20.667 1.477-1.576 2.518-2.63 4.178-4.012" fill="#06fdf3"/><path d="M84.966 123.377a64 64 0 0 1 4.81-.104c.021 1.814-.142 13.047.127 13.739-.854.24-3.922.222-4.924.04-1.073-1.03-4.178-4.086-4.933-5.172a36 36 0 0 1 .057-5.193q.059 2.22.034 4.439c1.563-.03 3.227-.034 4.78-.129-.03-2.225-.153-5.5.049-7.62" fill="#1005b2"/><path d="M86.486 140.95c1.496-.006 5.41-.093 6.737.171.344.39.303.99.346 1.564-.025.398-.034.779-.098 1.172-.03-1.35-.156-.833-1.046-1.49-2.037-1.504-3.901-.921-5.94-1.417" fill="#03e9f7"/><path d="M213.54 270.977c.106-1.532-.029-10.416.433-11.005 1.202-.353 2.597.117 2.566 1.586-.075 3.388-.026 6.763.04 10.151.046 2.426-2.76 4.01-4.39 5.495-5.357-.01-11.343.111-16.609-.05-.677-.994-1.368-1.964-1.923-3.03-1.285-2.892-3.088-5.565-4.379-8.463a12.6 12.6 0 0 0-1.248-2.197q-15.677.085-31.353-.02c-.774.982-1.329 2.088-2.01 3.117-2.294 3.457-4.037 7.248-6.466 10.59-1.267.074-5.855.163-6.863-.244-.432-.676-.146-2.521-.069-3.391 1.304-.116 3.793-.063 5.218-.08 2.042-3.13 6.465-11.695 8.778-13.394 3.606-.18 8.043-.053 11.75-.101 5.602-.14 16.401-.09 21.954.163 1.551.07 7.012 11.05 8.266 13.328 4.184.043 9.793.1 13.93-.113a276 276 0 0 1 2.376-2.342" fill="#fe10d6"/><path d="M111.419 179.783c1.758 1.743 2.926 2.773 4.22 4.865.04 1.304.008 2.79-.218 4.072.926 1.078 1.72 1.946 2.503 3.14 1.329 1.586 2.586 3.213 3.937 4.811 3.674 4.342 8.19 6.654 13.215 9.157-.02 1.53.14 2.8-.581 4.134l-.277-.103c-1.255-.86-3.884-2.147-5.414-3.042-6.208-3.633-9.207-7.28-13.632-12.85-1.366-1.755-2.71-3.517-3.857-5.424-.104-2.468-.014-6.299.104-8.76" fill="#141ee6"/><path d="M111.419 179.783c1.758 1.743 2.926 2.773 4.22 4.865.04 1.304.008 2.79-.218 4.072.926 1.078 1.72 1.946 2.503 3.14-.086 1.051 1.76 2.13 1.83 2.913-.64.895-1.064 1.44-1.623 2.395-.724-.926-1.986-2.732-2.959-3.2-1.366-1.756-2.71-3.518-3.857-5.425-.104-2.468-.014-6.299.104-8.76" fill="#0455fd"/><path d="M140.133 238.223q3.303-.048 6.606-.038c.126 2.156.065 4.802.065 6.996 2.247-.012 4.456-.03 6.701.044.201 1.721-.022 5.508-.168 7.273-1.217.14-5.637.064-6.179.404l-.075.48c-.024 1.763.027 3.603-.222 5.342-.145 1.016-1.307.928-2.028.628-.443-.557-.296-11.52-.37-13.216-1.054-.03-1.565-.058-2.604-.227-1.525-1.566-3.287-5.928-1.726-7.686M95.404 105.977c1.568-.056 8.905-.4 9.74.269.286.834.236 2.923.122 3.887-.046.393-.387.487-.67.6-2.711.009-7.45.249-9.955.05-.011-1.072-.213-3.572.129-4.57.061-.18.361-.176.634-.236m97.282 137.807c.845-.06 1.488.019 2.28.362a4.18 4.18 0 0 1 2.262 2.418c.855 2.363-.797 4.551-3.03 5.249-5.038-.173-7.502-6.156-1.512-8.03m5.768-8.639c1.392-.082 4.329-.044 5.597.343.89.27.715 5.757.179 6.68-1.102.175-4.47.275-5.506-.07-.69-.73-.791-6.215-.27-6.953m11.238 8.909c4.541-.36 5.051 7.414.273 7.694-3.525-.802-5.382-4.194-2.085-6.712.56-.427 1.177-.693 1.812-.982m-9.099 8.518c3.2-.293 5.108 1.12 3.955 4.726-.374 1.169-1.497 1.82-2.599 2.273-2.105-.096-3.508-1.89-4.28-3.691.467-2.105.92-2.596 2.924-3.308" fill="#fc0fca"/><path d="M177.656 247.891c1.92-.114 4.37-.067 6.296-.019.16 1.172.454 3.006-.353 3.923-1.406.03-4.919.502-6.009-.428-.716-.61-.663-2.755.066-3.476m-14.07.028c.665-.02 1.821-.025 2.451-.073 2.804-.22 4.326.234 3.413 3.378-.104.356-.504.435-.833.57-3.059-.014-7.095 1.16-5.86-3.354.101-.369.547-.435.83-.521" fill="#fe10d6"/><path d="M118.46 237.308c1.058-.031 2.03-.252 2.736.408.36.88.337 2.378-.493 2.993-1.261.475-1.755.838-2.793 1.762-.574-.785-1.097-.272-1.56-.658-.691-.575-.264-.706-1.308-1.32 1.22-1.39 1.927-2.098 3.419-3.185" fill="#02a3f6"/><path d="M85.836 51.45c.591-.018 1.586-.109 2.032.268.397 1.104.278 2.7.154 3.866-.042.398-.125.356-.418.532-.672.017-1.721.12-2.242-.286-.338-.965-.17-2.838-.015-3.864.05-.324.24-.365.489-.515" fill="#06fdf3"/></g></svg></svg>