<svg id="svg" version="1.1" viewBox="0 0 300 300" width="300" height="300" xmlns="http://www.w3.org/2000/svg"><defs><clipPath id="clip-1"><rect x="0" y="0" transform="scale(0.14648,0.14648)" width="2048" height="2048" fill="none"/></clipPath></defs><rect width="300" height="300" fill="black"/><g clip-path="url(#clip-1)" fill="none" fill-rule="nonzero" stroke="none" stroke-width="1" stroke-linecap="butt" stroke-linejoin="miter" stroke-miterlimit="10" stroke-dasharray="" stroke-dashoffset="0" font-family="none" font-weight="none" font-size="none" text-anchor="none" style="mix-blend-mode: normal"><path d="M66.74546,122.62295l15.65654,-0.01582c-0.11865,3.67251 -0.04673,7.61689 -0.04702,11.31196l-0.00073,19.82505l-0.00117,15.54932c-0.00161,3.00439 -0.08848,6.41455 0.06797,9.37793l-13.13525,0.00146c-2.03687,-2.08594 -6.20625,-7.42383 -8.19565,-9.82617l-16.52124,-19.97754c0.04072,9.83057 -0.17388,19.99951 0.03926,29.79346c-4.99834,0.14648 -10.64399,0.01611 -15.69419,0.01611c0.14312,-1.98926 0.07207,-4.57471 0.07236,-6.61523l-0.00029,-11.19727l0.02285,-38.24414l13.11357,0.01641c1.16895,1.50044 2.44805,3.0104 3.67412,4.46748c7.04795,8.37568 13.89492,16.95176 20.96499,25.30518z" fill="#0056ea"/><path d="M198.32959,121.64575c0.73389,-0.11162 3.02637,-0.11982 3.82471,-0.09536c6.01758,0.18457 10.27588,1.15283 15.48047,4.0043c-1.84131,3.84653 -3.92139,7.62466 -5.71289,11.4605c-0.66357,-0.37559 -1.31396,-0.81372 -1.99951,-1.12837c-6.71338,-3.07778 -16.51172,-2.57446 -20.53564,4.50732c-1.32275,2.32705 -1.59961,4.1625 -2.07568,6.74795c5.80371,-4.87925 14.3584,-5.30405 21.2168,-2.53447c9.36328,3.78105 13.24805,14.35869 9.29736,23.51982c-3.47314,7.21582 -10.19238,10.95264 -18.02344,11.5459c-16.20996,1.22754 -27.33252,-7.83252 -28.37402,-24.18018c-1.16162,-18.23672 7.63184,-32.61152 26.90186,-33.84741zM197.51953,168.42041c9.43799,-1.50439 8.34375,-15.00586 -2.47266,-13.99072c-4.29785,0.71191 -7.16016,3.70166 -6.44971,8.24707c0.26221,1.73291 1.20996,3.28857 2.63086,4.31396c1.94824,1.40918 3.98438,1.54541 6.2915,1.42969z" fill="#d93131"/><path d="M247.88965,122.63145l16.34473,0.00791c-2.59717,4.12632 -6.3252,9.20024 -9.16406,13.26006l-13.60107,19.46338c3.6123,-0.14062 7.59375,0.03516 11.3042,-0.05273c0.00293,-2.98096 0.09229,-6.50098 -0.06592,-9.4396l15.1333,-0.00439c-0.02637,3.15249 -0.0249,6.30483 0.00293,9.45718c2.7583,0.00293 5.53564,0.07324 8.29102,-0.02637l0.00146,12.66211l-3.74854,-0.0293l-4.56299,0.01318c-0.00439,3.47168 -0.08936,7.31836 0.07471,10.75928l-15.65771,-0.00586c0.0498,-3.55518 0.00732,-7.2085 0.00586,-10.77246c-9.69727,0.15674 -19.85889,0.00586 -29.58984,0.00879l0.0293,-10.32275c1.59814,-2.37891 3.62695,-5.05957 5.32031,-7.41064l10.2085,-14.20063l6.25488,-8.71729c0.89063,-1.24116 2.4917,-3.61611 3.41895,-4.64985z" fill="#d93131"/><path d="M145.94487,134.53901c5.0644,0.04863 9.45601,1.17173 13.13423,4.8353c5.91064,5.88604 4.97314,14.77852 4.97021,22.4543l0.00732,16.83691l-15.32959,0.01758c0.09375,-4.66846 -0.01758,-9.38525 0.0249,-14.05664c0.0293,-3.19629 0.03223,-6.45264 -0.06299,-9.6416c-0.05859,-1.99512 -0.86719,-4.76074 -2.44116,-6.05566c-2.27417,-1.87793 -6.12642,-1.7915 -8.69048,-0.52148c-1.29507,0.6416 -2.01812,1.5 -2.90508,2.58252c-2.07715,4.10742 -1.57266,8.43604 -1.57061,12.92871l-0.00557,14.74951l-15.32051,0.01611c0.15,-5.00977 0.04087,-10.50439 0.04116,-15.54346l-0.01274,-27.89604c4.81436,0.0769 9.79277,0.02183 14.61636,-0.00044c-0.03237,1.59697 -0.05156,3.19424 -0.05771,4.79165c0.14751,-0.16201 0.29604,-0.323 0.44561,-0.48311c3.39141,-3.61289 8.36001,-4.86782 13.15664,-5.01416z" fill="#00c063"/><path d="M92.83213,135.27891c4.54497,0.07485 10.67827,0.15454 15.15161,-0.04409l0.01582,43.46147c-5.0146,-0.09668 -10.22578,-0.02051 -15.25459,-0.01465l-0.00806,-30.8877l-0.00791,-8.17485c-0.00059,-1.0103 -0.06416,-3.50142 0.10312,-4.34019z" fill="#fedf5a"/><path d="M98.60142,114.45146c12.79321,-1.78271 15.18984,13.51084 3.93223,15.88066c-4.83164,0.69683 -10.32187,-1.05937 -11.32559,-6.48135c-0.40298,-2.13794 0.08848,-4.34766 1.35967,-6.11323c1.52329,-2.07466 3.61831,-2.88618 6.03369,-3.28608z" fill="#fedf5a"/></g></svg>