<svg id="svg" version="1.1" viewBox="0 0 300 300" width="300" height="300" xmlns="http://www.w3.org/2000/svg"><svg xmlns="http://www.w3.org/2000/svg"><defs><clipPath id="clip-1"><rect x="0" y="0" transform="scale(0.14648,0.14648)" width="2048" height="2048" fill="none"/></clipPath><linearGradient x1="187.79297" y1="17.51807" x2="186.54346" y2="218.23535" gradientUnits="userSpaceOnUse" id="color-1"><stop offset="0" stop-color="#0a191e"/><stop offset="1" stop-color="#364d64"/></linearGradient><linearGradient x1="284.65576" y1="52.84805" x2="211.59521" y2="112.81963" gradientUnits="userSpaceOnUse" id="color-2"><stop offset="0" stop-color="#414437"/><stop offset="1" stop-color="#595857"/></linearGradient><linearGradient x1="155.48584" y1="138.61772" x2="167.17529" y2="173.26758" gradientUnits="userSpaceOnUse" id="color-3"><stop offset="0" stop-color="#43423f"/><stop offset="1" stop-color="#606962"/></linearGradient><linearGradient x1="68.5793" y1="247.41943" x2="122.08389" y2="213.61523" gradientUnits="userSpaceOnUse" id="color-4"><stop offset="0" stop-color="#13140a"/><stop offset="1" stop-color="#404051"/></linearGradient><linearGradient x1="61.38384" y1="219.98584" x2="46.85537" y2="156.25342" gradientUnits="userSpaceOnUse" id="color-5"><stop offset="0" stop-color="#313229"/><stop offset="1" stop-color="#5a5a55"/></linearGradient><linearGradient x1="78.95156" y1="115.49473" x2="77.58516" y2="156.56982" gradientUnits="userSpaceOnUse" id="color-6"><stop offset="0" stop-color="#272321"/><stop offset="1" stop-color="#57645b"/></linearGradient><linearGradient x1="91.02803" y1="48.23057" x2="45.91992" y2="124.18096" gradientUnits="userSpaceOnUse" id="color-7"><stop offset="0" stop-color="#172832"/><stop offset="1" stop-color="#364c68"/></linearGradient><linearGradient x1="230.20605" y1="285.39697" x2="209.45947" y2="186.87158" gradientUnits="userSpaceOnUse" id="color-8"><stop offset="0" stop-color="#06151a"/><stop offset="1" stop-color="#344c63"/></linearGradient></defs><g clip-path="url(#clip-1)" fill="none" fill-rule="nonzero" stroke="none" stroke-width="1" stroke-linecap="butt" stroke-linejoin="miter" stroke-miterlimit="10" stroke-dasharray="" stroke-dashoffset="0" font-family="none" font-weight="none" font-size="none" text-anchor="none" style="mix-blend-mode: normal"><path d="M0,0h300v300h-300z" fill="#000000"/><path d="M248.42139,8.95507c0.30029,-0.36778 0.32813,-0.54551 0.6958,-0.6411c0.18311,1.66371 0.04834,6.30693 0.04834,8.18515l0.00879,16.7644l-0.01758,54.20786l0.00293,47.83535l0.00586,13.77627c0.00293,1.62158 0.09521,5.86523 -0.09961,7.33301c-0.42627,0.10547 -0.33691,0.00146 -0.55371,0.22559c-1.01221,1.0415 -2.35547,2.04932 -3.49658,2.98682c-1.85889,1.53955 -3.71045,3.08936 -5.55322,4.64795l-24.60498,20.46973l-6.67822,5.57813c-1.52783,1.27002 -3.50244,2.81396 -4.83252,4.23193c2.10059,1.16455 4.24951,3.42627 6.09814,5.0127c0.33105,0.28418 0.68848,0.84814 0.95947,1.0957c0.01025,1.66113 0.56689,2.52246 0.56689,4.0708l-0.0249,2.0918c-1.11328,1.31982 -5.98096,5.07422 -7.63184,6.44531l-15.95068,13.35205c-1.19092,0.9917 -4.51025,3.45117 -5.36719,4.41943c0.04395,0.31348 0.00879,0.24023 0.06885,0.32373c-0.61377,0.20068 -2.2793,2.30273 -2.90039,2.96045c-5.05518,-4.0708 -10.21436,-8.57812 -15.23877,-12.75c-0.68408,-0.46436 -1.81934,-1.52197 -2.48437,-2.09619c-1.36084,-1.16016 -2.73047,-2.30859 -4.11182,-3.44531l-27.33179,-22.75049c-2.5106,-2.10059 -5.2626,-4.29932 -7.6689,-6.52295c-0.26279,-0.24316 -0.14795,-0.24609 -0.56162,-0.53613l0.45205,-0.2417c0.75454,-0.44385 4.47437,-3.67822 5.43823,-4.48975l11.94873,-10.00488l43.82681,-36.50654c1.49414,-1.25215 12.38965,-10.01016 12.69141,-10.60913c-0.25635,-0.48018 -0.15234,-4.50161 -0.15088,-5.23711l0.01611,-12.127l0.01611,-43.27236c-0.00293,-1.5 -0.15967,-11.15244 0.19043,-11.63628c0.95508,-0.55664 3.17871,-2.49946 4.14844,-3.31128l7.08398,-5.89263l28.5791,-23.80811l7.31543,-6.05196c1.16016,-0.97421 3.01758,-2.66474 4.16016,-3.44266z" fill="url(#color-1)"/><path d="M167.33643,218.80811c1.8208,-0.9624 4.56738,-3.48926 6.23584,-4.89697l10.62305,-8.96484l42.77637,-35.56348l11.24707,-9.36475c1.95117,-1.64209 5.07568,-4.44873 7.12354,-5.77148c1.27002,0.6416 2.66309,1.96729 3.72363,2.16943c-0.42627,0.10547 -0.33691,0.00146 -0.55371,0.22559c-1.01221,1.0415 -2.35547,2.04932 -3.49658,2.98682c-1.85889,1.53955 -3.71045,3.08936 -5.55322,4.64795l-24.60498,20.46973l-6.67822,5.57813c-1.52783,1.27002 -3.50244,2.81396 -4.83252,4.23193c2.10059,1.16455 4.24951,3.42627 6.09814,5.0127c0.33105,0.28418 0.68848,0.84814 0.95947,1.0957c0.01025,1.66113 0.56689,2.52246 0.56689,4.0708l-0.0249,2.0918c-1.11328,1.31982 -5.98096,5.07422 -7.63184,6.44531l-15.95068,13.35205c-1.19092,0.9917 -4.51025,3.45117 -5.36719,4.41943c0.04395,0.31348 0.00879,0.24023 0.06885,0.32373c-0.61377,0.20068 -2.2793,2.30273 -2.90039,2.96045c-5.05518,-4.0708 -10.21436,-8.57812 -15.23877,-12.75l-0.15088,-0.42041c-0.31055,-0.23145 -0.31494,-0.20801 -0.49512,-0.54346c0.22998,-0.4043 3.50098,-1.01953 3.93311,-1.7168c0.04102,-0.03076 0.08203,-0.06006 0.12305,-0.08936z" fill="#181c16"/><path d="M248.42139,8.95507c0.30029,-0.36778 0.32813,-0.54551 0.6958,-0.6411c0.18311,1.66371 0.04834,6.30693 0.04834,8.18515l0.00879,16.7644l-0.01758,54.20786l0.00293,47.83535l0.00586,13.77627c0.00293,1.62158 0.09521,5.86523 -0.09961,7.33301c-1.06055,-0.20215 -2.45361,-1.52783 -3.72363,-2.16943l-0.22559,-0.06445c-0.35449,-0.44531 -0.21826,-14.03467 -0.21826,-15.59663l0.02344,-29.44321l-0.03955,-77.27988c0.15967,-4.70801 -0.21973,-9.51226 0.14355,-14.22026c0.19189,-2.50737 3.52881,-6.70052 3.39551,-8.68707z" fill="url(#color-2)"/><path d="M196.125,124.37505c0.81738,0.15088 2.55176,0.72144 3.2666,1.12661c0.44238,0.74766 0.89502,0.19951 1.03564,0.81738c-0.71924,1.07183 -2.69678,2.20078 -3.43213,3.00527c-0.97119,1.06245 -11.40527,9.22544 -11.35254,9.68115c0.46289,-0.30132 2.87549,-1.97051 3.06592,-2.00493c-4.15283,3.66064 -8.55029,7.10054 -12.78076,10.68062c-2.57373,2.17969 -5.38037,4.04297 -7.98486,6.23438l-18.64307,15.49805c-4.94473,4.11475 -9.7916,8.43311 -15.03779,12.17139c-1.09541,0.78076 -5.64272,5.11963 -6.81196,4.93652c-0.62974,-0.09814 -4.90034,-0.4043 -5.23022,-0.53613c0.75454,-0.44385 4.47437,-3.67822 5.43823,-4.48975l11.94873,-10.00488l43.82681,-36.50654c1.49414,-1.25215 12.38965,-10.01016 12.69141,-10.60913z" fill="url(#color-3)"/><path d="M196.19678,52.10229c1.69629,0.46011 3.43799,0.81768 5.08008,1.39951c-0.01025,1.83867 -0.07178,4.06157 0.01758,5.86729c-0.11572,22.16924 0.22998,44.61328 -0.03809,66.74253l-1.86475,-0.60996c-0.71484,-0.40518 -2.44922,-0.97573 -3.2666,-1.12661c-0.25635,-0.48018 -0.15234,-4.50161 -0.15088,-5.23711l0.01611,-12.127l0.01611,-43.27236c-0.00293,-1.5 -0.15967,-11.15244 0.19043,-11.63628z" fill="#565257"/><path d="M248.42139,8.95507c0.1333,1.98655 -3.20361,6.17969 -3.39551,8.68707c-0.36328,4.70801 0.01611,9.51226 -0.14355,14.22026c-0.17432,-2.07246 -0.15674,-4.76587 -0.20654,-6.88286c-0.03955,-1.71108 -0.1582,-5.1813 0.06445,-6.8231l-0.19482,-0.21958c-0.87598,0.45029 -5.51953,4.45225 -6.69873,5.40396c-4.88672,3.91597 -9.73535,7.87896 -14.5459,11.88838c-5.89014,4.95425 -11.521,10.11694 -17.74951,14.68506c-1.2085,0.88564 -3.18311,2.43457 -4.09717,3.49644c-0.01465,1.07285 -0.00146,5.15273 -0.15967,5.9584c-0.08936,-1.80571 -0.02783,-4.02861 -0.01758,-5.86729c-1.64209,-0.58184 -3.38379,-0.9394 -5.08008,-1.39951c0.95508,-0.55664 3.17871,-2.49946 4.14844,-3.31128l7.08398,-5.89263l28.5791,-23.80811l7.31543,-6.05196c1.16016,-0.97421 3.01758,-2.66474 4.16016,-3.44266z" fill="#393a32"/><path d="M121.76777,186.22705c1.18652,0.14648 6.10005,0.59326 7.03857,0.55664c8.47646,6.67676 17.50796,14.47998 25.86064,21.46875l8.52979,7.12207c0.94043,0.7793 3.40283,2.69531 4.13965,3.43359c-0.04102,0.0293 -0.08203,0.05859 -0.12305,0.08936c-0.43213,0.69727 -3.70312,1.3125 -3.93311,1.7168c0.18018,0.33545 0.18457,0.31201 0.49512,0.54346l0.15088,0.42041c-0.68408,-0.46436 -1.81934,-1.52197 -2.48437,-2.09619c-1.36084,-1.16016 -2.73047,-2.30859 -4.11182,-3.44531l-27.33179,-22.75049c-2.5106,-2.10059 -5.2626,-4.29932 -7.6689,-6.52295c-0.26279,-0.24316 -0.14795,-0.24609 -0.56162,-0.53613z" fill="#11111b"/><path d="M122.0981,76.4855c0.9145,0.44971 16.04883,13.05044 16.62642,13.78462c1.54087,1.04502 3.31582,2.61284 4.77729,3.83115l7.07534,5.89043l23.39941,19.52153c0.48486,0.4084 5.55029,4.56094 5.60742,4.75679c-0.72656,0.87729 -5.93262,5.08301 -7.18945,6.1251l-14.77002,12.35391l-35.84634,29.83154c-2.19902,1.82959 -15.0022,12.88477 -16.37827,13.3916l-0.0605,0.16406c0.19614,1.18506 0.0999,6.01172 0.09873,7.4209l-0.02534,16.09863l-0.10415,57.02051c-1.0207,-1.33154 -8.96294,-7.75049 -10.65586,-9.1626l-30.69346,-25.4165l-8.71245,-7.24658c-0.37939,-0.31348 -2.8894,-2.20312 -2.95781,-2.2749c-0.13462,-2.19287 -0.02388,-5.52979 -0.02051,-7.79883l0.01714,-15.03955l-0.0334,-45.12744l1.32568,-1.22314c0.15278,-0.18457 2.30874,-1.94092 2.648,-2.22217l6.85371,-5.67832l24.27803,-20.24561c2.81016,-2.36689 8.35078,-6.71323 10.76704,-9.17959c-0.27539,-0.20186 -0.2896,-0.16597 -0.57715,-0.3186c-1.09131,-0.57935 -2.23403,-1.81567 -3.25649,-2.61328c-1.23765,-0.96548 -2.44233,-1.91045 -3.68716,-2.85396c-0.04043,0.07749 -0.10225,-6.28359 -0.16948,-6.49702c1.67505,-1.66699 6.08643,-5.1416 8.04067,-6.77271c5.10117,-4.19458 10.14316,-8.46079 15.12437,-12.79717c1.12368,-0.96694 2.31812,-1.96289 3.46729,-2.89966c0.43389,-0.35361 1.92876,-1.81362 2.14556,-1.89536l0.32856,0.09141c0.58975,-0.51372 1.61851,-2.12886 2.55718,-3.01919z" fill="#243749"/><path d="M122.0981,76.4855c0.9145,0.44971 16.04883,13.05044 16.62642,13.78462c-1.09072,0.30923 -3.86147,0.95347 -4.67065,1.47085l-0.06094,0.37983l-0.13535,0.08906c-2.4167,1.61191 -5.32397,4.10098 -7.6311,5.97612l-15.55664,12.89897c-0.90967,0.74956 -5.64888,4.76235 -6.29282,5.07026c-0.91846,-0.31758 -5.08872,-0.18589 -6.25225,-0.09419c-0.27539,-0.20186 -0.2896,-0.16597 -0.57715,-0.3186c-1.09131,-0.57935 -2.23403,-1.81567 -3.25649,-2.61328c-1.23765,-0.96548 -2.44233,-1.91045 -3.68716,-2.85396c-0.04043,0.07749 -0.10225,-6.28359 -0.16948,-6.49702c1.67505,-1.66699 6.08643,-5.1416 8.04067,-6.77271c5.10117,-4.19458 10.14316,-8.46079 15.12437,-12.79717c1.12368,-0.96694 2.31812,-1.96289 3.46729,-2.89966c0.43389,-0.35361 1.92876,-1.81362 2.14556,-1.89536l0.32856,0.09141c0.58975,-0.51372 1.61851,-2.12886 2.55718,-3.01919z" fill="#181c16"/><path d="M56.66851,221.01563c12.99053,11.64111 27.25122,22.2876 40.57104,33.57275c0.69214,0.58594 2.07188,1.55127 2.55864,2.18994c0.3416,-0.08057 0.02051,-3.08643 0.07354,-3.6416c0.13491,-1.41357 -0.03413,-12.67969 0.23965,-13.07666c0.08555,1.05908 -0.01978,3.2168 0.32314,4.04443l0.11953,-0.00293c-0.12026,-6.88037 0.07778,-13.78564 -0.00234,-20.66895c-0.02373,-2.04053 -0.28301,-3.99756 -0.31655,-6.07031c-0.08145,-8.25293 -0.03926,-16.50732 0.12686,-24.75879c0.02959,-1.51611 -0.04849,-6.09668 0.37588,-7.26123c0.73228,-0.28857 3.5395,0.83057 4.22212,1.24805c0.36768,0.65771 0.36123,20.44922 0.45278,23.06543l-0.10415,57.02051c-1.0207,-1.33154 -8.96294,-7.75049 -10.65586,-9.1626l-30.69346,-25.4165l-8.71245,-7.24658c-0.37939,-0.31348 -2.8894,-2.20312 -2.95781,-2.2749c1.2334,-0.50391 3.16611,-1.50879 4.37944,-1.56006z" fill="url(#color-4)"/><path d="M172.72412,123.96533c1.27734,-0.28608 2.27051,0.29136 3.75146,0.3189c1.11475,0.0208 1.98486,0.02168 3.1084,-0.01421c-0.72656,0.87729 -5.93262,5.08301 -7.18945,6.1251l-14.77002,12.35391l-35.84634,29.83154c-2.19902,1.82959 -15.0022,12.88477 -16.37827,13.3916l-0.0605,0.16406c-0.97749,0.18896 -3.26528,-1.24512 -4.41768,-1.24512c-0.26953,0 -0.38599,-0.01318 -0.62344,-0.13477c0.08452,-0.73828 2.83345,-2.72168 3.53218,-3.29883l7.68472,-6.37793l30.81387,-25.27734c1.54717,-1.27441 2.85864,-2.77148 4.46147,-4.09189c3.52441,-2.90464 7.03711,-5.84473 10.54248,-8.77222l10.01807,-8.3918c1.59668,-1.34121 3.89502,-3.17739 5.37305,-4.58101z" fill="#181c16"/><path d="M53.57798,153.38672c-0.09199,0.22119 -0.35508,0.66064 -0.23774,0.84961c0.50698,0.81592 2.13896,1.63037 3.06519,1.62305c0.63589,-0.51562 1.27236,-1.04443 1.92891,-1.5293l0.27363,0.03076c-0.47168,0.59912 -1.36113,1.16455 -2.02412,1.5293c0.14941,2.38477 0.08628,5.08447 0.08906,7.50732l0.00645,12.31934c-0.08672,15.09961 -0.09038,30.19922 -0.01084,45.29883c-1.21333,0.05127 -3.14604,1.05615 -4.37944,1.56006c-0.13462,-2.19287 -0.02388,-5.52979 -0.02051,-7.79883l0.01714,-15.03955l-0.0334,-45.12744z" fill="url(#color-5)"/><path d="M98.12476,116.06104c1.16353,-0.0917 5.33379,-0.22339 6.25225,0.09419c-10.09482,8.57461 -20.2396,17.09033 -30.43374,25.54658c-3.53306,2.99399 -7.08955,5.9603 -10.66904,8.89878c-1.05059,0.85986 -3.62109,3.06738 -4.66626,3.76025l-0.27363,-0.03076c-0.65654,0.48486 -1.29302,1.01367 -1.92891,1.5293c-0.92622,0.00732 -2.5582,-0.80713 -3.06519,-1.62305c-0.11733,-0.18896 0.14575,-0.62842 0.23774,-0.84961c0.15278,-0.18457 2.30874,-1.94092 2.648,-2.22217l6.85371,-5.67832l24.27803,-20.24561c2.81016,-2.36689 8.35078,-6.71323 10.76704,-9.17959z" fill="url(#color-6)"/><path d="M134.05386,91.74097c0.80918,-0.51738 3.57993,-1.16162 4.67065,-1.47085c1.54087,1.04502 3.31582,2.61284 4.77729,3.83115l7.07534,5.89043l23.39941,19.52153c0.48486,0.4084 5.55029,4.56094 5.60742,4.75679c-1.12354,0.03589 -1.99365,0.03501 -3.1084,0.01421c-1.48096,-0.02754 -2.47412,-0.60498 -3.75146,-0.3189l-25.32861,-21.07544c-3.13125,-2.58633 -6.24712,-5.19199 -9.34673,-7.81685c-1.10757,-0.93428 -3.07412,-2.43091 -3.99492,-3.33208z" fill="#565257"/><path d="M52.19385,143.05928c0.17915,-3.63003 0.05947,-8.27183 0.0605,-11.9729l0.00513,-21.86104l0.04966,-63.85957c-0.00513,-2.94741 -0.20376,-26.38257 0.09214,-26.96499l0.50684,0.37427c0.90293,0.40122 4.37227,3.51152 5.37173,4.35015l10.28159,8.56348l40.34385,33.62622c3.86133,3.26265 7.77729,6.45967 11.67905,9.67368c0.54902,0.45234 1.09497,0.91699 1.51377,1.49692c-0.93867,0.89033 -1.96743,2.50547 -2.55718,3.01919l-0.32856,-0.09141c-0.2168,0.08174 -1.71167,1.54175 -2.14556,1.89536c-1.14917,0.93677 -2.3436,1.93271 -3.46729,2.89966c-4.9812,4.33638 -10.02319,8.60259 -15.12437,12.79717c-1.95425,1.6311 -6.36562,5.10571 -8.04067,6.77271c0.06724,0.21343 0.12905,6.57451 0.16948,6.49702c-1.19927,1.51099 -2.88706,2.70967 -4.38545,3.94497c-9.29736,7.66479 -18.49966,15.43784 -27.85254,23.0354c-1.45576,1.18242 -3.14326,2.29263 -4.45063,3.60938c-0.55986,0.05786 -0.27275,0.08643 -0.86558,-0.25898c-0.18823,0.76099 -0.57583,1.70303 -0.85591,2.45332z" fill="url(#color-7)"/><path d="M52.19385,143.05928c0.17915,-3.63003 0.05947,-8.27183 0.0605,-11.9729l0.00513,-21.86104l0.04966,-63.85957c-0.00513,-2.94741 -0.20376,-26.38257 0.09214,-26.96499l0.50684,0.37427c0.39023,2.51177 3.19922,6.6999 3.71294,9.25576c0.00674,0.0167 0.01362,0.0334 0.02036,0.0501c0.18281,10.35176 -0.6189,20.69839 -0.08042,31.03857c0.07822,1.50176 0.06284,3.11221 0.08159,4.62231c0.07939,9.0769 0.08101,18.15439 0.00454,27.23145l-0.01216,17.67524c0.00146,0.96445 -0.0356,6.31479 0.0772,6.86675l0.02051,9.75688c0.00366,1.81113 0.15044,4.92114 -0.22881,6.5833c-0.19189,0.84082 -1.23926,3.16553 -1.63096,4.10215c-0.62827,1.54131 -1.23604,3.09097 -1.82314,4.64839c-0.18823,0.76099 -0.57583,1.70303 -0.85591,2.45332z" fill="#51534d"/><path d="M52.90811,18.77505c0.90293,0.40122 4.37227,3.51152 5.37173,4.35015l10.28159,8.56348l40.34385,33.62622c3.86133,3.26265 7.77729,6.45967 11.67905,9.67368c0.54902,0.45234 1.09497,0.91699 1.51377,1.49692c-0.93867,0.89033 -1.96743,2.50547 -2.55718,3.01919l-0.32856,-0.09141c-0.29106,-0.42363 -3.58345,-3.03647 -4.13496,-3.49775l-10.49619,-8.71479l-34.47012,-28.75356c-2.8147,-2.36851 -5.64521,-4.71826 -8.49141,-7.04897c-0.94058,-0.77944 -3.8502,-3.54712 -4.82505,-3.61787l-0.15322,0.30059c-0.00674,-0.0167 -0.01362,-0.0334 -0.02036,-0.0501c-0.51372,-2.55586 -3.32271,-6.74399 -3.71294,-9.25576z" fill="#393a32"/><path d="M90.43447,103.77817c0.06724,0.21343 0.12905,6.57451 0.16948,6.49702c-1.19927,1.51099 -2.88706,2.70967 -4.38545,3.94497c-9.29736,7.66479 -18.49966,15.43784 -27.85254,23.0354c-1.45576,1.18242 -3.14326,2.29263 -4.45063,3.60938c-0.55986,0.05786 -0.27275,0.08643 -0.86558,-0.25898c0.58711,-1.55742 1.19487,-3.10708 1.82314,-4.64839c0.3917,-0.93662 1.43906,-3.26133 1.63096,-4.10215c0.37925,-1.66216 0.23247,-4.77217 0.22881,-6.5833l-0.02051,-9.75688c0.75938,1.76587 -0.30864,14.54019 0.34263,15.26309c1.12427,-0.14092 9.7396,-8.02544 11.61562,-9.35449c3.84097,-2.72109 7.88071,-6.17827 11.53623,-9.20625l6.60073,-5.49697c0.87935,-0.73389 2.54751,-2.20928 3.38745,-2.78188z" fill="#181c16"/><path d="M248.54297,168.87598l0.37061,-0.42041l0.17725,0.06738c0.17285,0.67969 0.06152,2.77295 0.06592,3.65186l0.01318,9.81885l0.00439,34.31689l-0.01025,10.33008c-0.00439,1.54248 -0.08643,3.98145 0.01025,5.46094c0.15234,7.24805 -0.05127,15.33838 -0.05273,22.65381c0.06445,12.646 0.03076,25.29346 -0.09814,37.94092c-0.58447,-0.98584 -0.76172,-1.73584 -1.09277,-2.83154c-0.11865,0.40137 -0.02051,0.54932 0.12012,0.94775l0.05127,0.14209l-0.19336,0.03809c-0.57422,-0.13477 -4.90576,-3.85107 -5.66309,-4.50586c-6.65918,-5.75977 -13.58789,-11.15479 -20.39648,-16.71973l-42.68408,-35.43896c0.62109,-0.65771 2.28662,-2.75977 2.90039,-2.96045c-0.06006,-0.0835 -0.0249,-0.01025 -0.06885,-0.32373c0.85693,-0.96826 4.17627,-3.42773 5.36719,-4.41943l15.95068,-13.35205c1.65088,-1.37109 6.51855,-5.12549 7.63184,-6.44531l0.0249,-2.0918c0,-1.54834 -0.55664,-2.40967 -0.56689,-4.0708c0.95068,-1.02393 3.36328,-2.90479 4.53223,-3.87451l8.55908,-7.10889c8.21777,-6.82617 16.71826,-14.21631 25.04736,-20.80518z" fill="url(#color-8)"/><path d="M182.06543,231.36768c1.61572,0.72217 3.60791,2.68652 5.0332,3.89648c1.76074,1.49414 3.5332,2.97803 5.31445,4.44873l37.42236,31.12207l9.78809,8.19434c1.01074,0.84375 3.94189,3.36475 4.88672,3.87891c0.6416,0.59912 3.32227,6.26221 3.42041,6.95654c-0.11865,0.40137 -0.02051,0.54932 0.12012,0.94775l0.05127,0.14209l-0.19336,0.03809c-0.57422,-0.13477 -4.90576,-3.85107 -5.66309,-4.50586c-6.65918,-5.75977 -13.58789,-11.15479 -20.39648,-16.71973l-42.68408,-35.43896c0.62109,-0.65771 2.28662,-2.75977 2.90039,-2.96045z" fill="#181c16"/><path d="M248.54297,168.87598l0.37061,-0.42041l0.17725,0.06738c0.17285,0.67969 0.06152,2.77295 0.06592,3.65186l0.01318,9.81885l0.00439,34.31689l-0.01025,10.33008c-0.00439,1.54248 -0.08643,3.98145 0.01025,5.46094l-0.06592,0.21533c-0.44092,1.46045 -0.36621,2.29248 -0.25781,3.82471c-0.06006,0.09668 -0.12158,0.19336 -0.18164,0.29004c-0.8042,0.22852 -2.59863,0.06006 -3.59326,0.06738c0.01904,-1.21436 0.01758,-2.43018 -0.00586,-3.64453c0.0835,-0.28271 0.104,-0.23877 0.07324,-0.47168c-0.60059,-4.57324 0.11572,-51.59912 -0.5083,-52.72998c-0.76758,0.05566 -0.91846,0.41895 -1.61719,0.59473c0.5874,-0.68115 1.33594,-1.05908 2.10645,-1.49854c0.79688,-3.13184 3.4834,-6.84375 3.41895,-9.87305z" fill="#393a32"/><path d="M248.54297,168.87598c0.06445,3.0293 -2.62207,6.74121 -3.41895,9.87305c-0.77051,0.43945 -1.51904,0.81738 -2.10645,1.49854c-0.40283,0.23291 -2.19434,1.81494 -2.71436,2.24854l-6.89062,5.73193c-7.26416,6.0542 -15.33838,12.47754 -22.38281,18.62842c0.00879,-0.64893 0.05713,-1.50293 -0.05859,-2.12109c0,-1.54834 -0.55664,-2.40967 -0.56689,-4.0708c0.95068,-1.02393 3.36328,-2.90479 4.53223,-3.87451l8.55908,-7.10889c8.21777,-6.82617 16.71826,-14.21631 25.04736,-20.80518z" fill="#51534d"/><path d="M249.17432,232.10156c0.15234,7.24805 -0.05127,15.33838 -0.05273,22.65381c0.06445,12.646 0.03076,25.29346 -0.09814,37.94092c-0.58447,-0.98584 -0.76172,-1.73584 -1.09277,-2.83154c-0.09814,-0.69434 -2.77881,-6.35742 -3.42041,-6.95654c0.5874,-1.39014 0.37207,-7.03125 0.37646,-8.96045l0.01025,-27.78223l-0.00586,-7.93213c-0.00146,-1.55859 -0.05859,-3.90088 0.17871,-5.37891c0.02344,1.21436 0.0249,2.43018 0.00586,3.64453c0.99463,-0.00732 2.78906,0.16113 3.59326,-0.06738c0.06006,-0.09668 0.12158,-0.19336 0.18164,-0.29004c-0.1084,-1.53223 -0.18311,-2.36426 0.25781,-3.82471z" fill="#181c16"/></g></svg></svg>