<svg id="svg" version="1.1" viewBox="0 0 300 300" width="300" height="300" xmlns="http://www.w3.org/2000/svg"><svg xmlns="http://www.w3.org/2000/svg"><defs><clipPath id="clip-1"><rect x="0" y="0" transform="scale(0.14648,0.14648)" width="2048" height="2048" fill="none"/></clipPath><linearGradient x1="54.71367" y1="185.02588" x2="51.70166" y2="107.53887" gradientUnits="userSpaceOnUse" id="color-1"><stop offset="0" stop-color="#112dff"/><stop offset="1" stop-color="#155eff"/></linearGradient><linearGradient x1="55.12441" y1="181.62744" x2="51.6854" y2="122.48438" gradientUnits="userSpaceOnUse" id="color-2"><stop offset="0" stop-color="#2d62ff"/><stop offset="1" stop-color="#37b5ff"/></linearGradient><linearGradient x1="41.15537" y1="123.27729" x2="43.7127" y2="108.29502" gradientUnits="userSpaceOnUse" id="color-3"><stop offset="0" stop-color="#97d9ff"/><stop offset="1" stop-color="#c4ffff"/></linearGradient><linearGradient x1="58.39351" y1="178.36377" x2="45.58696" y2="115.47114" gradientUnits="userSpaceOnUse" id="color-4"><stop offset="0" stop-color="#6aa8ff"/><stop offset="1" stop-color="#97f4ff"/></linearGradient><linearGradient x1="123.77505" y1="186.76904" x2="108.08716" y2="107.99048" gradientUnits="userSpaceOnUse" id="color-5"><stop offset="0" stop-color="#1331ff"/><stop offset="1" stop-color="#1864fe"/></linearGradient><linearGradient x1="116.46475" y1="184.92188" x2="115.25566" y2="131.25981" gradientUnits="userSpaceOnUse" id="color-6"><stop offset="0" stop-color="#3063ff"/><stop offset="1" stop-color="#38bbff"/></linearGradient><linearGradient x1="117.64893" y1="129.19424" x2="114.60132" y2="109.39321" gradientUnits="userSpaceOnUse" id="color-7"><stop offset="0" stop-color="#77d7ff"/><stop offset="1" stop-color="#9df0ff"/></linearGradient><linearGradient x1="106.34033" y1="157.53662" x2="117.59854" y2="146.14175" gradientUnits="userSpaceOnUse" id="color-8"><stop offset="0" stop-color="#76c2ff"/><stop offset="1" stop-color="#8ee7ff"/></linearGradient><linearGradient x1="101.41758" y1="182.74805" x2="102.67764" y2="179.15332" gradientUnits="userSpaceOnUse" id="color-9"><stop offset="0" stop-color="#527fff"/><stop offset="1" stop-color="#98d3ff"/></linearGradient><linearGradient x1="193.75635" y1="190.36523" x2="171.60938" y2="105.3457" gradientUnits="userSpaceOnUse" id="color-10"><stop offset="0" stop-color="#1329ff"/><stop offset="1" stop-color="#1660ff"/></linearGradient><linearGradient x1="185.99561" y1="187.21289" x2="177.0498" y2="126.73682" gradientUnits="userSpaceOnUse" id="color-11"><stop offset="0" stop-color="#2f56ff"/><stop offset="1" stop-color="#38bcff"/></linearGradient><linearGradient x1="188.09619" y1="138.50977" x2="187.68164" y2="111.15454" gradientUnits="userSpaceOnUse" id="color-12"><stop offset="0" stop-color="#7fdbff"/><stop offset="1" stop-color="#96f1ff"/></linearGradient><linearGradient x1="172.28174" y1="134.72373" x2="158.38477" y2="138.39507" gradientUnits="userSpaceOnUse" id="color-13"><stop offset="0" stop-color="#6fd1fe"/><stop offset="1" stop-color="#9debff"/></linearGradient><linearGradient x1="266.93408" y1="188.45068" x2="227.77588" y2="113.78276" gradientUnits="userSpaceOnUse" id="color-14"><stop offset="0" stop-color="#1125fe"/><stop offset="1" stop-color="#154fff"/></linearGradient><linearGradient x1="249.43799" y1="186.10107" x2="251.1958" y2="154.51465" gradientUnits="userSpaceOnUse" id="color-15"><stop offset="0" stop-color="#5981ff"/><stop offset="1" stop-color="#6dadff"/></linearGradient></defs><g clip-path="url(#clip-1)" fill="none" fill-rule="nonzero" stroke="none" stroke-width="1" stroke-linecap="butt" stroke-linejoin="miter" stroke-miterlimit="10" stroke-dasharray="" stroke-dashoffset="0" font-family="none" font-weight="none" font-size="none" text-anchor="none" style="mix-blend-mode: normal"><path d="M0,0h300v300h-300z" fill="#000000"/><path d="M29.69063,108.15132c0.47842,-0.01978 0.95713,-0.03237 1.43599,-0.03779l16.38501,-0.00659c10.76675,0.01025 20.71611,-0.69829 29.21294,7.59521c4.93535,4.9374 6.97573,10.64839 7.06919,17.45361c0.20552,14.9707 -11.41494,26.51807 -26.08813,27.5918c-1.86724,0.13623 -3.73828,0.10693 -5.63042,0.104l-13.34766,0.01025c-0.77988,4.85449 0.92842,17.97363 -0.91875,21.73682c-0.78735,1.63916 -2.22759,2.87256 -3.9687,3.39697c-2.02896,0.61377 -4.58936,0.40137 -6.46567,-0.57861c-1.20117,-0.51562 -3.22046,-2.7627 -3.4437,-4.15576c-0.74839,-4.66992 -0.46187,-10.36377 -0.46362,-15.06445l-0.00659,-24.22354l-0.00674,-17.1457c-0.00059,-3.10693 -0.02549,-6.19043 0.06372,-9.29692c0.11909,-4.14521 2.24443,-6.3731 6.17314,-7.3793z" fill="url(#color-1)"/><path d="M25.80293,137.55161c-0.05742,-0.86909 -0.03545,-1.76763 -0.03369,-2.6417c-0.04585,-5.79873 0.06812,-12.14077 0.0167,-17.87944c-0.06519,-7.304 3.88799,-6.48486 9.55649,-6.44502c1.61675,0.01143 3.42759,0.02505 5.07173,0.05771c6.53672,0.12935 13.12178,-0.09858 19.64766,0.29487c8.84795,0.77563 16.82695,5.31533 19.87939,14.04258c2.17646,6.10254 1.71738,13.65234 -1.06509,19.48286c-2.85674,5.98623 -8.15288,10.33975 -14.34229,12.54434c-2.27783,0.79688 -4.65571,1.27148 -7.06494,1.40918c-5.18804,0.3457 -10.99644,-0.03076 -16.22974,0.05273c-5.36235,0.08496 -5.06411,0.09961 -5.05459,5.36572l0.02095,9.48486c0.00762,2.46094 0.13433,4.89258 -0.28696,7.32422c-0.55269,3.19043 -4.19648,4.13965 -6.85371,3.01611c-1.2769,-0.55225 -2.2604,-1.61865 -2.70732,-2.93701c-0.85034,-2.44043 -0.67354,-38.3439 -0.55459,-43.17202z" fill="url(#color-2)"/><path d="M37.67109,119.83491c1.76807,-0.44634 4.10405,-0.21445 5.94097,-0.21108c1.71035,0.00308 3.47153,0.03867 5.18188,0.06006c5.27402,0.06577 10.71577,-0.85854 15.51416,1.92861c0.2439,0.1418 0.30645,0.19819 0.47344,0.42495c0.52002,0.52002 2.00317,1.43906 2.86641,2.20591c0.86147,1.10566 1.74727,2.25293 2.32544,3.54067c2.67524,5.95854 1.33037,14.95942 -4.03857,19.0563c-1.78447,1.38135 -3.84814,2.3584 -6.04819,2.86377c-3.89355,0.87451 -9.03589,0.44385 -13.07739,0.45996c-2.52935,0.00879 -5.40205,0.271 -7.89492,-0.104c-0.90967,-0.13623 -1.97607,-0.39697 -2.57446,-1.16016c-1.49268,-1.90137 -0.34028,-15.76655 -0.62109,-19.17642c0.10752,-2.37612 -0.54287,-7.89595 0.83232,-9.34526c0.30483,-0.21401 0.76582,-0.38687 1.12002,-0.54331z" fill="#124dfe"/><path d="M36.55107,120.37822l0.27905,0.49849c-0.85767,1.22578 -0.59312,4.58584 -0.5915,6.19819l0.00732,8.24517l-0.04819,7.42778c-0.01099,1.46528 -0.07075,2.88398 0.10093,4.36641c0.1979,1.70947 1.14126,2.2998 2.80928,2.40674c2.43105,0.15674 4.91616,0.01025 7.35337,0.0498c4.39937,-0.15234 9.17798,0.38965 13.48608,-0.55664c3.21504,-0.70605 6.80552,-3.08042 8.44673,-5.94932c2.80005,-4.89448 3.26279,-12.27363 -0.17271,-16.99746c-0.40723,-0.55986 -0.87993,-1.03228 -1.30415,-1.57002c-0.51343,-1.60371 -4.1855,-2.97187 -5.6083,-3.63735c1.1874,-0.04526 2.05298,0.75308 3.22368,1.10493l0.24888,0.07251c0.52002,0.52002 2.00317,1.43906 2.86641,2.20591c0.86147,1.10566 1.74727,2.25293 2.32544,3.54067c2.67524,5.95854 1.33037,14.95942 -4.03857,19.0563c-1.78447,1.38135 -3.84814,2.3584 -6.04819,2.86377c-3.89355,0.87451 -9.03589,0.44385 -13.07739,0.45996c-2.52935,0.00879 -5.40205,0.271 -7.89492,-0.104c-0.90967,-0.13623 -1.97607,-0.39697 -2.57446,-1.16016c-1.49268,-1.90137 -0.34028,-15.76655 -0.62109,-19.17642c0.10752,-2.37612 -0.54287,-7.89595 0.83232,-9.34526z" fill="#91e3fe"/><path d="M37.67109,119.83491c1.76807,-0.44634 4.10405,-0.21445 5.94097,-0.21108c1.71035,0.00308 3.47153,0.03867 5.18188,0.06006c5.27402,0.06577 10.71577,-0.85854 15.51416,1.92861c0.2439,0.1418 0.30645,0.19819 0.47344,0.42495l-0.24888,-0.07251c-1.1707,-0.35186 -2.03628,-1.1502 -3.22368,-1.10493c1.4228,0.66548 5.09487,2.03364 5.6083,3.63735c-5.20078,-4.33813 -8.58311,-4.12529 -14.92778,-4.11519l-9.07764,0.01187c-1.0856,-0.00454 -3.76772,0.04819 -4.7105,-0.10503z" fill="#3ebbfe"/><path d="M37.67109,119.83491l0.53027,0.4541c-0.56455,0.20684 -0.84507,0.3082 -1.37124,0.5877l-0.27905,-0.49849c0.30483,-0.21401 0.76582,-0.38687 1.12002,-0.54331z" fill="#84d0ff"/><path d="M39.42524,122.53374c5.05562,-0.27202 10.42588,0.03252 15.38877,-0.04292c7.77422,-0.11836 13.93682,4.35322 13.29199,12.58359c-0.31904,4.07256 -1.07373,6.46187 -4.09072,9.28521c-0.17476,0.13945 -0.35127,0.27642 -0.52969,0.41118c-1.52256,1.14565 -3.28608,1.81611 -5.14629,2.18379c-3.09463,0.6123 -16.37227,0.67969 -19.62568,0.22852c-0.18442,-2.4728 -0.32373,-23.77881 0.05786,-24.38174c0.11543,-0.18223 0.45659,-0.20991 0.65376,-0.26763z" fill="#000000"/><path d="M25.80293,137.55161c-0.05742,-0.86909 -0.03545,-1.76763 -0.03369,-2.6417c-0.04585,-5.79873 0.06812,-12.14077 0.0167,-17.87944c-0.06519,-7.304 3.88799,-6.48486 9.55649,-6.44502c1.61675,0.01143 3.42759,0.02505 5.07173,0.05771c6.53672,0.12935 13.12178,-0.09858 19.64766,0.29487c8.84795,0.77563 16.82695,5.31533 19.87939,14.04258c-0.31611,0.3186 -0.12964,0.24067 -0.57642,0.24346c-0.52441,-1.32744 -1.16719,-2.60493 -1.92041,-3.81724l-0.17183,0.55371l-0.20859,0.05112l-0.35669,-0.25811l-0.22236,0.14736c-0.05039,0.32271 0.01714,0.45015 -0.35171,0.63604c-1.83765,0.92637 -4.75356,2.08374 -6.81152,2.12417c-0.51753,0.01011 -0.92666,-0.64717 -1.67373,-0.41777c-0.86323,-0.76685 -2.34639,-1.68589 -2.86641,-2.20591c-0.16699,-0.22676 -0.22954,-0.28315 -0.47344,-0.42495c-4.79839,-2.78716 -10.24014,-1.86284 -15.51416,-1.92861c-1.71035,-0.02139 -3.47153,-0.05698 -5.18188,-0.06006c-1.83691,-0.00337 -4.1729,-0.23525 -5.94097,0.21108c-0.3542,0.15645 -0.81519,0.3293 -1.12002,0.54331c-1.3752,1.44932 -0.7248,6.96914 -0.83232,9.34526c-0.22866,-0.76729 -0.17168,-5.82539 -0.20522,-7.0894c-0.07954,0.09419 -0.04497,1.19912 -0.12759,1.65908c-0.2606,0.05845 -0.3252,0.07603 -0.56865,0.15469l-0.14663,0.50654c-0.5937,-0.00044 -0.99302,-1.14771 -2.42285,-1.23618c-1.6355,-0.10122 -3.98291,1.49326 -4.93506,1.41489c-0.271,-0.23379 -0.40488,-0.39902 -0.398,-0.80596c0.05127,-3.04365 0.29722,-6.46875 0.04189,-9.4938l-0.01436,-0.15469c-0.41294,2.3165 -0.20332,5.57695 -0.29663,7.97769c-0.29268,-1.01924 -0.17256,-2.04375 -0.15659,-3.09829l-0.09902,0.00674c-0.82266,2.14263 -0.24844,14.70337 -0.58711,17.98682z" fill="#41b2fe"/><path d="M25.80293,137.55161c-0.05742,-0.86909 -0.03545,-1.76763 -0.03369,-2.6417c-0.04585,-5.79873 0.06812,-12.14077 0.0167,-17.87944c-0.06519,-7.304 3.88799,-6.48486 9.55649,-6.44502c1.61675,0.01143 3.42759,0.02505 5.07173,0.05771c6.53672,0.12935 13.12178,-0.09858 19.64766,0.29487c-0.31846,0.3917 -0.16069,0.30015 -0.58257,0.48604c-4.42251,-0.44487 -9.42056,-0.16802 -13.90547,-0.23232c-4.99321,-0.07148 -10.07622,-0.07632 -15.0605,0.09507c-1.88203,0.09888 -3.47915,1.48916 -3.571,3.39185c-0.41294,2.3165 -0.20332,5.57695 -0.29663,7.97769c-0.29268,-1.01924 -0.17256,-2.04375 -0.15659,-3.09829l-0.09902,0.00674c-0.82266,2.14263 -0.24844,14.70337 -0.58711,17.98682z" fill="url(#color-3)"/><path d="M60.06182,110.93804c8.84795,0.77563 16.82695,5.31533 19.87939,14.04258c-0.31611,0.3186 -0.12964,0.24067 -0.57642,0.24346c-0.52441,-1.32744 -1.16719,-2.60493 -1.92041,-3.81724c-4.12148,-6.87144 -10.50439,-9.01289 -17.96514,-9.98276c0.42188,-0.18589 0.26411,-0.09434 0.58257,-0.48604z" fill="#91e3fe"/><path d="M25.80293,137.55161c0.33867,-3.28345 -0.23555,-15.84419 0.58711,-17.98682l0.09902,-0.00674c-0.01597,1.05454 -0.13608,2.07905 0.15659,3.09829l0.04277,38.75332l-0.01084,11.06104c-0.00469,2.18994 -0.14458,4.4707 0.12056,6.6416c0.14004,1.14697 0.51035,2.1958 1.33477,3.03223c0.8124,0.82324 1.9062,1.2583 3.05947,1.2627c1.17788,0.00439 2.61782,-0.41748 3.44473,-1.29492c2.20313,-2.33789 0.23364,-18.41748 1.29624,-22.82373c0.86587,-1.00635 1.10933,-1.25391 2.4583,-1.3418c9.4667,-0.60791 19.09277,1.58057 28.0689,-2.38184c12.54009,-5.53418 16.24731,-17.84355 12.90425,-30.34087c0.44678,-0.00278 0.2603,0.07515 0.57642,-0.24346c2.17646,6.10254 1.71738,13.65234 -1.06509,19.48286c-2.85674,5.98623 -8.15288,10.33975 -14.34229,12.54434c-2.27783,0.79688 -4.65571,1.27148 -7.06494,1.40918c-5.18804,0.3457 -10.99644,-0.03076 -16.22974,0.05273c-5.36235,0.08496 -5.06411,0.09961 -5.05459,5.36572l0.02095,9.48486c0.00762,2.46094 0.13433,4.89258 -0.28696,7.32422c-0.55269,3.19043 -4.19648,4.13965 -6.85371,3.01611c-1.2769,-0.55225 -2.2604,-1.61865 -2.70732,-2.93701c-0.85034,-2.44043 -0.67354,-38.3439 -0.55459,-43.17202z" fill="url(#color-4)"/><path d="M115.64517,106.85391l0.23906,-0.00513c2.23652,-0.04482 4.60942,0.12935 6.8209,0.40767c6.69814,0.84331 21.75161,6.31553 21.74692,14.61489c0.00601,1.85464 -0.7585,3.62842 -2.11099,4.89756c-0.99111,0.94365 -2.21484,1.60737 -3.54624,1.92363c-3.9356,0.95127 -6.85005,-1.14902 -10.01426,-3.11118c-5.71172,-3.54214 -15.18164,-6.16333 -20.64346,-0.65757c-1.46191,1.44829 -2.25908,3.43726 -2.20195,5.49419c0.1311,5.01709 5.83945,6.63267 9.67837,8.14893c7.67007,3.02974 16.77993,5.23682 23.02134,10.85449c8.4208,7.5791 7.50366,22.29053 -0.35654,29.91943c-6.45586,6.37939 -13.75078,8.47412 -22.59595,8.58838c-8.7687,0.11719 -18.26689,-2.95752 -25.08237,-8.84473c-5.24238,-4.52783 -3.28916,-12.86426 4.47217,-12.49951c1.39556,0.06445 4.1165,1.82666 5.45801,2.56055c5.04111,2.75391 10.44185,5.05225 16.29185,5.11963c3.51768,0.03955 7.27031,-0.70312 9.8502,-3.271c2.49697,-2.51367 3.32358,-6.20508 1.73364,-9.45703c-1.61763,-3.30908 -4.8854,-4.53369 -8.16738,-5.60889c-0.92153,-0.30176 -1.92261,-0.62695 -2.84854,-0.88037c-12.90059,-3.51562 -27.10181,-8.64932 -27.29546,-24.48984c-0.1834,-14.99224 11.46328,-23.3209 25.55068,-23.7041z" fill="url(#color-5)"/><path d="M92.53901,130.3251c-0.31479,-1.60781 0.30337,-4.93213 0.79717,-6.50728c1.57119,-4.98018 5.07817,-9.11982 9.73213,-11.48833c8.73018,-4.52036 21.50273,-3.5272 30.17666,0.68774c2.75874,1.34063 6.87583,3.81006 8.33394,6.63589c0.97236,1.54072 0.79438,3.76626 -0.43345,5.14863c-3.54888,3.99507 -8.20547,0.67603 -11.74658,-1.48096c-5.18071,-3.15557 -10.10991,-4.12354 -16.1231,-3.51152c-8.83975,1.66025 -13.43599,11.77236 -5.54136,17.76826c2.23301,1.69585 5.95591,2.38828 8.3165,3.73257c2.07363,0.65376 4.92275,1.75386 6.97339,2.55615c6.08232,2.37964 13.85874,5.09956 17.05811,11.23872c0.05244,0.10107 0.10298,0.20361 0.15146,0.30615c2.1583,3.2959 2.30142,8.88867 1.53677,12.646c-1.15605,5.68066 -5.10762,10.36816 -9.89238,13.46191c-3.99507,2.58252 -8.52554,3.72949 -13.2356,4.07666l-3.93296,0.00879c-3.27554,0.04248 -6.53848,-0.40869 -9.67925,-1.34033c-4.33433,-1.25098 -12.03691,-4.81787 -14.30566,-8.91064c-0.06431,-0.14648 -0.12656,-0.29443 -0.18677,-0.44238c-0.49131,-1.20117 -0.63398,-2.60156 -0.06123,-3.78809c2.15229,-4.45605 6.96606,-1.06348 9.73608,0.46582c1.13306,0.62549 2.28413,1.21729 3.45146,1.77539c2.04551,0.76758 3.86836,1.56738 6.00103,2.09912c5.67231,1.41504 10.6103,1.47803 16.0585,-0.75439c3.84067,-2.41699 5.78438,-5.0376 5.86011,-9.74854c0.10063,-7.54541 -6.43726,-10.10889 -12.57261,-11.86816c-11.78936,-3.37793 -26.68462,-7.86694 -26.47236,-22.76719z" fill="url(#color-6)"/><path d="M92.53901,130.3251c-0.31479,-1.60781 0.30337,-4.93213 0.79717,-6.50728c1.57119,-4.98018 5.07817,-9.11982 9.73213,-11.48833c8.73018,-4.52036 21.50273,-3.5272 30.17666,0.68774c2.75874,1.34063 6.87583,3.81006 8.33394,6.63589c0.97236,1.54072 0.79438,3.76626 -0.43345,5.14863c-3.54888,3.99507 -8.20547,0.67603 -11.74658,-1.48096c-5.18071,-3.15557 -10.10991,-4.12354 -16.1231,-3.51152l0.14678,-0.32827c-0.85796,-0.11909 -2.91255,0.48135 -3.72891,0.88345c-2.95518,1.45518 -5.97847,4.55112 -6.36826,7.93887c-0.1377,1.13833 -0.03779,2.31694 -0.3501,3.35259l-0.24053,-0.74326c-0.3873,0.79863 0.18516,0.68936 -0.45967,1.3248c-1.6834,0.55562 -2.83975,-0.1062 -4.79692,1.33169c-1.35527,0.99565 -1.71563,1.52563 -2.13604,3.11851c-0.22178,-0.0334 -0.11016,-0.04248 -0.33457,0.03208c-0.67134,-1.30342 -1.13013,-3.64043 -1.40947,-5.07729c-0.1314,-0.56323 -0.14971,-1.39937 -0.17388,-1.98604c-0.32476,1.17158 0.13491,2.70718 -0.53115,3.43242c-0.1084,-0.87495 -0.12085,-1.92656 -0.21401,-2.85659z" fill="#3ebbfe"/><path d="M92.53901,130.3251c-0.31479,-1.60781 0.30337,-4.93213 0.79717,-6.50728c1.57119,-4.98018 5.07817,-9.11982 9.73213,-11.48833c8.73018,-4.52036 21.50273,-3.5272 30.17666,0.68774c2.75874,1.34063 6.87583,3.81006 8.33394,6.63589c0.023,0.6561 0.15161,1.29053 0.27407,1.93389c-3.10576,-5.50503 -7.58188,-7.87031 -13.42324,-9.83965c-15.55957,-5.24561 -34.72485,0.94717 -34.83164,19.89507c-0.1314,-0.56323 -0.14971,-1.39937 -0.17388,-1.98604c-0.32476,1.17158 0.13491,2.70718 -0.53115,3.43242c-0.1084,-0.87495 -0.12085,-1.92656 -0.21401,-2.85659z" fill="url(#color-7)"/><path d="M92.53901,130.3251l0.14004,-0.09287c0.09316,0.93003 0.10562,1.98164 0.21401,2.85659c0.66606,-0.72524 0.2064,-2.26084 0.53115,-3.43242c0.02417,0.58667 0.04248,1.4228 0.17388,1.98604c0.27935,1.43687 0.73813,3.77388 1.40947,5.07729c2.24824,5.65986 8.06616,9.74517 13.42793,12.16406c6.06167,2.73633 13.39849,3.70605 19.10024,7.0957c6.89502,4.09863 5.72974,15.89795 -1.25215,19.16895c-0.41177,-0.03662 -1.00166,0.29736 -1.52563,0.44678l0.27012,-0.2417l0.046,-0.15088c0.34453,-0.17578 0.34995,-0.22412 0.6498,-0.49365c3.84067,-2.41699 5.78438,-5.0376 5.86011,-9.74854c0.10063,-7.54541 -6.43726,-10.10889 -12.57261,-11.86816c-11.78936,-3.37793 -26.68462,-7.86694 -26.47236,-22.76719z" fill="url(#color-8)"/><path d="M139.17305,154.96875l0.32915,-0.2959c0.44927,0.43359 0.4667,0.55078 0.73374,1.13525l-0.00205,-0.39697c2.1583,3.2959 2.30142,8.88867 1.53677,12.646c-1.15605,5.68066 -5.10762,10.36816 -9.89238,13.46191c-3.99507,2.58252 -8.52554,3.72949 -13.2356,4.07666l-0.1292,-0.30615c2.47925,-0.17285 7.40303,-1.49854 9.54624,-2.49756c5.42622,-2.52832 10.09263,-6.50977 12.13945,-12.27539c2.05854,-5.80078 1.56431,-10.05322 -1.02612,-15.54785z" fill="#62a0fe"/><path d="M102.97529,131.65591c0.3123,-1.03564 0.2124,-2.21426 0.3501,-3.35259c0.38979,-3.38774 3.41309,-6.48369 6.36826,-7.93887c0.81636,-0.4021 2.87095,-1.00254 3.72891,-0.88345l-0.14678,0.32827c-8.83975,1.66025 -13.43599,11.77236 -5.54136,17.76826c2.23301,1.69585 5.95591,2.38828 8.3165,3.73257c0.7251,1.10977 5.67085,1.57793 5.53359,2.81455c-3.50508,-1.0377 -7.57354,-2.73384 -11.00977,-4.10054c-2.40483,-0.9564 -5.21177,-2.72798 -6.45205,-5.10146c-0.48149,-0.92168 -0.70166,-2.1668 -1.0752,-3.09111z" fill="#84d0ff"/><path d="M104.62119,174.55225l0.17183,-0.04248c-0.44048,-0.35449 -1.66919,-0.59766 -2.14907,-1.08691c0.42217,-0.20361 0.47446,-0.10693 1.02041,-0.05859c2.04551,0.76758 3.86836,1.56738 6.00103,2.09912c5.67231,1.41504 10.6103,1.47803 16.0585,-0.75439c-0.29985,0.26953 -0.30527,0.31787 -0.6498,0.49365l-0.046,0.15088l-0.27012,0.2417c0.52397,-0.14941 1.11387,-0.4834 1.52563,-0.44678c-0.48999,0.74121 -3.33237,1.52344 -4.21699,1.75781c-4.49634,1.18799 -13.55815,0.12012 -17.44541,-2.354z" fill="#62a0fe"/><path d="M91.04985,174.82764c3.28843,5.72021 16.47861,9.92139 22.7187,10.3667c0.32827,0.17139 0.57861,0.32813 0.94116,0.41016c-3.27554,0.04248 -6.53848,-0.40869 -9.67925,-1.34033c-4.33433,-1.25098 -12.03691,-4.81787 -14.30566,-8.91064z" fill="url(#color-9)"/><path d="M116.05093,141.31011c2.07363,0.65376 4.92275,1.75386 6.97339,2.55615c6.08232,2.37964 13.85874,5.09956 17.05811,11.23872c0.05244,0.10107 0.10298,0.20361 0.15146,0.30615l0.00205,0.39697c-0.26704,-0.58447 -0.28447,-0.70166 -0.73374,-1.13525l-0.32915,0.2959c-3.68818,-6.18311 -11.06118,-8.53945 -17.58853,-10.84409c0.13726,-1.23662 -4.8085,-1.70479 -5.53359,-2.81455z" fill="#91e3fe"/><path d="M90.7248,175.35352c-0.06431,-0.14648 -0.12656,-0.29443 -0.18677,-0.44238c-0.49131,-1.20117 -0.63398,-2.60156 -0.06123,-3.78809c2.15229,-4.45605 6.96606,-1.06348 9.73608,0.46582c1.13306,0.62549 2.28413,1.21729 3.45146,1.77539c-0.54595,-0.04834 -0.59824,-0.14502 -1.02041,0.05859c0.47988,0.48926 1.70859,0.73242 2.14907,1.08691l-0.17183,0.04248c-4.33799,-0.91992 -10.90298,-8.87549 -13.80352,-2.72607c-0.35376,0.75 -0.00645,2.23535 0.23218,3.00146z" fill="#84d0ff"/><path d="M113.76855,185.19434c1.56973,0.03223 3.17856,0.0835 4.74492,0.09521l0.1292,0.30615l-3.93296,0.00879c-0.36255,-0.08203 -0.61289,-0.23877 -0.94116,-0.41016z" fill="#62a0fe"/><path d="M183.4541,135.19629c1.74756,-2.25923 3.73975,-5.46343 5.354,-7.89697c2.19727,-3.29341 4.43848,-6.55723 6.72217,-9.79043c1.71094,-2.44424 3.26807,-4.77393 5.35986,-6.96694c2.80225,-3.03618 8.03027,-2.9376 10.74316,0.20537c4.23047,4.89946 -0.18604,9.43579 -2.85059,13.57046c-3.30908,5.06338 -6.6709,10.09233 -10.08545,15.08599c-1.66553,2.45566 -3.87891,5.54282 -5.34961,8.02251c1.77393,2.92236 3.76904,5.70557 5.67627,8.55176c2.88867,4.30664 5.74658,8.63379 8.5752,12.98145c1.79297,2.74072 6.01758,8.26611 6.01025,11.39941c-0.00879,1.87061 -0.79687,3.65332 -2.17383,4.92041c-2.02588,1.89404 -4.0752,2.05371 -6.63721,1.92773c-2.15625,-0.68994 -3.27393,-1.54395 -4.54102,-3.41309c-5.75098,-8.48291 -11.10059,-17.32617 -16.88818,-25.77539c-1.66846,1.8208 -3.97705,5.69531 -5.47998,7.81494c-2.90039,4.09131 -5.74658,8.29834 -8.56055,12.44824c-1.26123,1.85889 -3.30908,5.23535 -4.73437,6.73096c-0.81299,0.86719 -1.82666,1.52051 -2.9502,1.90283c-1.94531,0.65332 -4.0708,0.49658 -5.89893,-0.43359c-2.896,-1.49268 -4.55859,-5.32617 -3.24609,-8.3833c1.33154,-3.10107 3.49951,-5.93848 5.41699,-8.71143l9.57715,-14.06543c1.33594,-1.95703 4.10889,-5.75391 5.10645,-7.66553l0.09521,-0.18604c-0.62256,-1.8041 -2.85498,-4.95659 -3.99902,-6.70708c-2.44629,-3.81226 -4.92773,-7.60239 -7.44287,-11.37012c-1.88525,-2.84355 -6.84521,-9.92563 -7.70801,-12.64263c-0.49219,-1.59595 -0.30762,-3.32373 0.50977,-4.78008c1.12061,-2.03789 2.729,-2.92148 4.85596,-3.54023c6.44824,-0.40107 8.71143,3.69858 12.00879,8.45552c2.56348,3.71411 5.08301,7.45811 7.55859,11.23125c1.32422,1.99307 3.30176,5.16035 4.79883,6.87891z" fill="url(#color-10)"/><path d="M165.62988,113.65151c1.61719,1.76323 3.19043,4.51582 4.37842,6.07148c1.83838,2.4082 11.33936,17.98154 13.1792,18.54639c1.65967,-0.121 3.15381,-2.94741 4.03271,-4.2334c1.05615,-1.54556 2.07568,-3.16377 3.11133,-4.72617c2.69678,-4.03828 5.46387,-8.02954 8.2998,-11.97173c1.23486,-1.72983 2.44043,-3.60015 3.89063,-5.12314c3.66211,-3.84727 10.69043,-0.28535 7.82373,5.10264c-1.19678,2.25 -2.63086,4.18066 -3.95654,6.31582c-1.00635,1.6645 -2.08008,3.28755 -3.2168,4.86533c-2.34082,3.46655 -4.70215,6.91787 -7.08691,10.35381c-1.51465,2.18687 -3.07178,4.43906 -4.50879,6.67866c-0.25781,0.48311 -0.87158,1.48931 -0.75879,2.03423c0.12891,0.62402 0.58594,1.50146 0.94775,2.04639c2.18115,3.28857 4.47363,6.52588 6.7002,9.78223c2.86523,4.24512 5.68652,8.51807 8.46094,12.82178c1.20117,1.83252 2.41992,3.62402 3.50244,5.55322c0.96533,1.72266 1.11035,3.47168 -0.06738,5.18555c-1.38721,2.02441 -4.33594,2.73193 -6.39551,1.33301c-1.01953,-0.78809 -1.83691,-2.01709 -2.52246,-3.06885c-5.16064,-7.91895 -10.40918,-15.77051 -15.48047,-23.74951c-1.05908,-1.66699 -2.46094,-3.73828 -4.27148,-1.4165c-1.15137,1.47656 -2.05518,3.0498 -3.13623,4.56885c-3.58887,5.05371 -7.10742,10.15723 -10.5542,15.30908c-1.70654,2.55615 -3.81592,6.41895 -6.01025,8.21924c-2.77441,1.88965 -6.96826,0.42041 -7.51904,-2.93262c-0.39258,-2.37891 1.43701,-5.16211 2.88574,-6.95361c2.60742,-3.22119 4.9248,-7.37842 7.50439,-10.54395c1.21289,-1.71533 2.38037,-3.62109 3.54639,-5.3833c1.91455,-2.89453 3.89648,-5.75391 5.71436,-8.7085c0.64893,-1.05615 1.00635,-2.25146 0.65039,-3.48633c-0.79102,-1.78608 -2.24121,-3.86426 -3.28564,-5.49741c-2.61182,-4.11533 -5.25,-8.21309 -7.91602,-12.29326c-2.4126,-3.67134 -5.37744,-7.598 -7.39746,-11.49639c-1.16162,-2.24312 -0.10986,-5.29585 2.59717,-5.9083c0.63428,0.25664 1.69482,-0.18706 2.95313,0.2105l-0.00732,0.18677l-0.13184,0.09697c1.68604,0.78076 2.16797,1.51069 3.12598,2.02104c0.27393,0.0627 0.64893,0.1645 0.91846,0.18999z" fill="url(#color-11)"/><path d="M169.40039,135.06987c-3.90527,-6.21284 -8.47998,-12.13813 -11.8667,-18.6564c-0.29736,-0.57114 -0.44531,-1.43892 -0.38232,-2.08052c0.09082,-0.87026 0.53467,-1.66538 1.22607,-2.1999c1.12646,-0.88403 1.89844,-0.8395 3.20801,-0.69258c1.68604,0.78076 2.16797,1.51069 3.12598,2.02104c1.73584,1.96816 3.31934,4.3166 4.74023,6.52705c2.42578,3.77329 5.08301,7.49795 7.41943,11.32046l-0.0791,0.26221c0.27686,0.47725 0.34424,0.5521 0.70605,0.97896l-0.05859,0.23613l-0.13477,-0.10591l-0.20361,-0.15366c-0.48486,-0.37808 -0.65625,-0.45117 -1.24658,-0.64468c-2.33203,0.3769 -3.16992,0.53335 -4.72705,2.20957c-0.36328,0.39082 -1.03271,0.02021 -1.72705,0.97822z" fill="#41b2fe"/><path d="M165.62988,113.65151c1.61719,1.76323 3.19043,4.51582 4.37842,6.07148c1.83838,2.4082 11.33936,17.98154 13.1792,18.54639c1.65967,-0.121 3.15381,-2.94741 4.03271,-4.2334c1.05615,-1.54556 2.07568,-3.16377 3.11133,-4.72617c2.69678,-4.03828 5.46387,-8.02954 8.2998,-11.97173c1.23486,-1.72983 2.44043,-3.60015 3.89063,-5.12314c3.66211,-3.84727 10.69043,-0.28535 7.82373,5.10264c-1.19678,2.25 -2.63086,4.18066 -3.95654,6.31582c-1.00635,1.6645 -2.08008,3.28755 -3.2168,4.86533c0,-0.32021 0.00439,-0.17476 -0.21533,-0.51519l-0.0249,-0.42246c0.25488,-1.2835 2.67773,-3.60776 3.09521,-4.89932l-0.18311,-0.07881c-0.62549,0.30044 -0.69727,0.5001 -1.125,1.08589l-0.22998,0.07163c-0.15381,-0.38364 -0.1084,-0.24111 -0.1084,-0.68159c-0.55225,0.03721 -2.40674,1.27852 -3.16553,1.57603c-2.42871,0.95288 -4.88086,1.52988 -7.00488,3.10693c-0.95654,0.70957 -0.46875,-0.42803 -1.82666,0.56455l-0.18164,0.19775c-1.2085,1.34121 -3.8335,5.02251 -4.77539,6.58008c-5.02295,8.31255 -6.73975,1.20732 -10.55566,-3.7752c-2.33643,-3.82251 -4.99365,-7.54717 -7.41943,-11.32046c-1.4209,-2.21045 -3.00439,-4.55889 -4.74023,-6.52705c0.27393,0.0627 0.64893,0.1645 0.91846,0.18999z" fill="#41b2fe"/><path d="M165.62988,113.65151c1.61719,1.76323 3.19043,4.51582 4.37842,6.07148c1.83838,2.4082 11.33936,17.98154 13.1792,18.54639c1.65967,-0.121 3.15381,-2.94741 4.03271,-4.2334c1.05615,-1.54556 2.07568,-3.16377 3.11133,-4.72617c2.69678,-4.03828 5.46387,-8.02954 8.2998,-11.97173c1.23486,-1.72983 2.44043,-3.60015 3.89063,-5.12314c3.66211,-3.84727 10.69043,-0.28535 7.82373,5.10264c-1.19678,2.25 -2.63086,4.18066 -3.95654,6.31582c-0.19629,0.00059 -0.29736,-0.05815 -0.49805,-0.1229c1.06641,-1.36509 1.83545,-2.85937 2.76416,-4.30386c1.49268,-2.32134 3.16846,-5.2708 0.15674,-7.28379c-0.93896,-0.62842 -2.09766,-0.83745 -3.19775,-0.57686c-0.72656,0.17959 -1.73877,0.75601 -2.18408,1.34634c-3.73389,4.94985 -7.67578,10.4165 -11.04639,15.61406l-0.18164,0.19775c-1.2085,1.34121 -3.8335,5.02251 -4.77539,6.58008c-5.02295,8.31255 -6.73975,1.20732 -10.55566,-3.7752c-2.33643,-3.82251 -4.99365,-7.54717 -7.41943,-11.32046c-1.4209,-2.21045 -3.00439,-4.55889 -4.74023,-6.52705c0.27393,0.0627 0.64893,0.1645 0.91846,0.18999z" fill="url(#color-12)"/><path d="M202.93213,127.56108c0.92285,-0.65229 1.97168,-3.07222 2.95898,-4.05059c0.20068,0.06475 0.30176,0.12349 0.49805,0.1229c-1.00635,1.6645 -2.08008,3.28755 -3.2168,4.86533c0,-0.32021 0.00439,-0.17476 -0.21533,-0.51519z" fill="#3ebbfe"/><path d="M202.95703,127.98354c0.21973,0.34043 0.21533,0.19497 0.21533,0.51519c-2.34082,3.46655 -4.70215,6.91787 -7.08691,10.35381c-1.51465,2.18687 -3.07178,4.43906 -4.50879,6.67866c-0.25781,0.48311 -0.87158,1.48931 -0.75879,2.03423c0.12891,0.62402 0.58594,1.50146 0.94775,2.04639c2.18115,3.28857 4.47363,6.52588 6.7002,9.78223c2.86523,4.24512 5.68652,8.51807 8.46094,12.82178c1.20117,1.83252 2.41992,3.62402 3.50244,5.55322c0.96533,1.72266 1.11035,3.47168 -0.06738,5.18555c-1.38721,2.02441 -4.33594,2.73193 -6.39551,1.33301c-1.01953,-0.78809 -1.83691,-2.01709 -2.52246,-3.06885c-5.16064,-7.91895 -10.40918,-15.77051 -15.48047,-23.74951c-1.05908,-1.66699 -2.46094,-3.73828 -4.27148,-1.4165c-1.15137,1.47656 -2.05518,3.0498 -3.13623,4.56885c-3.58887,5.05371 -7.10742,10.15723 -10.5542,15.30908c-1.70654,2.55615 -3.81592,6.41895 -6.01025,8.21924c-2.77441,1.88965 -6.96826,0.42041 -7.51904,-2.93262c-0.39258,-2.37891 1.43701,-5.16211 2.88574,-6.95361c2.60742,-3.22119 4.9248,-7.37842 7.50439,-10.54395l0.46143,0.41602c-1.74609,2.5752 -3.5083,5.14014 -5.28662,7.69482c-1.41064,2.02148 -3.52002,4.67139 -4.46777,6.89502c-1.57764,3.69873 2.51953,7.20996 5.91064,5.10938c1.30664,-0.80859 3.12598,-3.96973 4.08252,-5.35693c3.04395,-4.3916 6.04688,-8.8125 9.00879,-13.25977c2.15039,-3.271 4.28467,-6.61816 6.68848,-9.70166c0.73096,-0.9375 2.54004,-1.48389 3.44238,-0.62402c1.91309,1.8252 3.36328,4.52051 4.82373,6.75439l9.29883,13.99219c1.26709,1.93213 2.8623,4.43701 4.06201,6.45996c2.77002,4.66992 9.00439,1.63916 7.50439,-3.11865c-0.35156,-1.11182 -1.34326,-2.44043 -2.00098,-3.4834c-4.3374,-6.88623 -9.25928,-13.39893 -13.64502,-20.25732c-1.52051,-2.3877 -3.60205,-4.9292 -4.56445,-7.56738c0.79248,-3.64497 10.27441,-16.11548 12.77637,-19.68882z" fill="#41b2fe"/><path d="M164.8623,163.71973c1.21289,-1.71533 2.38037,-3.62109 3.54639,-5.3833c1.91455,-2.89453 3.89648,-5.75391 5.71436,-8.7085c0.64893,-1.05615 1.00635,-2.25146 0.65039,-3.48633c-0.79102,-1.78608 -2.24121,-3.86426 -3.28564,-5.49741c-2.61182,-4.11533 -5.25,-8.21309 -7.91602,-12.29326c-2.4126,-3.67134 -5.37744,-7.598 -7.39746,-11.49639c-1.16162,-2.24312 -0.10986,-5.29585 2.59717,-5.9083c0.63428,0.25664 1.69482,-0.18706 2.95313,0.2105l-0.00732,0.18677l-0.13184,0.09697c-1.30957,-0.14692 -2.08154,-0.19146 -3.20801,0.69258c-0.69141,0.53452 -1.13525,1.32964 -1.22607,2.1999c-0.06299,0.6416 0.08496,1.50937 0.38232,2.08052c3.38672,6.51826 7.96143,12.44355 11.8667,18.6564c1.61279,2.5771 7.19092,10.33652 6.08789,13.14595c-2.12256,5.40967 -7.47949,10.71094 -10.16455,15.91992z" fill="url(#color-13)"/><path d="M158.77148,110.94624c2.7583,-0.88506 5.09766,0.72422 6.8584,2.70527c-0.26953,-0.02549 -0.64453,-0.12729 -0.91846,-0.18999c-0.95801,-0.51035 -1.43994,-1.24028 -3.12598,-2.02104l0.13184,-0.09697l0.00732,-0.18677c-1.2583,-0.39756 -2.31885,0.04614 -2.95312,-0.2105z" fill="#91e3fe"/><path d="M245.40234,107.43135c7.71094,-1.05894 17.10645,1.97446 22.5835,7.54204c4.31543,4.34019 6.7002,10.23691 6.61377,16.35703c-0.22412,16.28188 -13.71826,22.39321 -25.60693,30.15835c-3.38525,2.21045 -11.30273,6.94922 -12.32373,11.54883c-0.19922,0.89209 3.17139,0.72217 3.8877,0.71484l20.02588,-0.03369c3.28125,-0.00293 6.71777,-0.12891 9.97998,0.14209c1.13086,0.15234 2.11523,0.65186 2.95166,1.39893c4.62012,3.90234 1.57031,10.92627 -3.7749,11.95166c-2.88281,0.55225 -7.01514,0.30322 -10.02979,0.30176l-17.49756,-0.00586l-6.14648,0.02197c-3.77344,0.00732 -7.5293,0.18457 -10.62451,-2.34521c-2.56641,-2.09912 -3.74268,-5.41699 -4.06348,-8.63379c-0.37939,-3.81299 0.81299,-7.68604 2.63525,-10.99658c5.6001,-10.17773 16.41797,-15.03369 25.75781,-21.01084c2.58545,-1.65439 5.39209,-3.38774 7.34326,-5.79258c1.69629,-2.09048 2.55615,-4.7603 2.25439,-7.4502c-0.29443,-2.63057 -1.74756,-4.97695 -3.81006,-6.60264c-1.86914,-1.47144 -4.16455,-2.24487 -6.51416,-2.46958c-10.78857,-1.03184 -14.09473,8.39341 -20.6499,9.03062c-1.8252,0.17739 -3.854,-0.33794 -5.26904,-1.52695c-1.31543,-1.10596 -2.20898,-2.76753 -2.31445,-4.49033c-0.18164,-2.93027 1.6582,-5.66865 3.4834,-7.78696c5.17822,-6.00864 13.28174,-9.45044 21.1084,-10.0229z" fill="url(#color-14)"/><path d="M224.18701,127.61851c-3.70898,-5.18628 4.82666,-12.00439 8.83447,-14.13721c7.43115,-3.92769 16.11182,-4.76265 24.15527,-2.32324c3.10107,1.0749 5.68652,2.25015 8.14453,4.47319c6.49658,5.87534 8.30713,15.23013 5.34668,23.34741c-1.24365,3.40913 -2.80078,5.4813 -5.24121,8.14438c-2.64258,2.73486 -7.5542,6.10693 -10.97021,8.06396c-5.68945,3.84375 -18.53613,10.72852 -20.39062,17.44775c-0.17871,0.64746 -0.05273,1.61279 0.37646,2.16211c0.51123,0.65332 1.28467,1.03857 2.11523,1.07666c2.82861,0.12891 5.8125,0.06885 8.64258,0.06445l16.77539,-0.02637c2.66895,-0.00293 5.41113,-0.12012 8.04492,0.17725c2.52246,0.28418 3.67822,2.44189 3.2959,4.79297c-0.91699,5.64258 -9.64014,4.64648 -13.81494,4.62744l-11.04053,-0.01318l-9.86279,0.03662c-3.90088,0.02197 -9.63135,0.53467 -12.3501,-2.74512c-3.96533,-5.56641 -2.83301,-12.17871 0.75,-17.60889c5.36133,-8.12842 13.66113,-12.35156 21.75293,-17.20605c5.47559,-3.28433 12.62402,-7.45049 13.09424,-14.54619c0.23145,-3.47842 -0.36182,-5.88779 -2.64404,-8.55937c-1.38574,-1.35513 -2.39355,-2.33101 -4.11621,-3.21211c-7.5791,-3.87729 -15.40576,-1.05967 -21.45264,4.20278c-1.08545,0.94497 -2.97656,2.44995 -4.38135,2.8229c-1.82959,0.55928 -3.69434,0.36152 -5.06396,-1.06216z" fill="#3079fe"/><path d="M224.18701,127.61851c-3.70898,-5.18628 4.82666,-12.00439 8.83447,-14.13721c7.43115,-3.92769 16.11182,-4.76265 24.15527,-2.32324l-0.32666,0.49468c5.98389,1.99849 11.0083,5.68521 13.20264,11.83491c-0.30908,-0.14268 -0.22266,-0.01099 -0.36035,-0.32505c-3.31494,-7.58862 -10.67725,-11.87212 -18.77051,-12.3605c-1.03857,-0.0627 -1.8208,0.23774 -2.84473,-0.0627c-0.37793,0.11001 -0.46729,0.10137 -0.79541,0.31069c0.54199,0.0397 0.36182,-0.0772 0.68555,0.20215c-0.2124,0.33662 -0.21826,0.31553 -0.54492,0.55342l0.17285,0.11499c-0.14062,1.82915 -5.08301,5.93716 -6.64307,6.9353c-1.01807,0.65127 -1.89697,1.9188 -2.90186,2.30552l-0.08496,0.27026c1.0459,-0.2792 2.45508,-1.32173 3.50684,-1.64663c8.23242,-2.54561 18.35449,0.20566 20.99121,9.21152c0.375,1.28086 0.47754,3.10708 0.06152,4.38237c0.00439,-3.3356 -0.33838,-6.11294 -2.61182,-8.64229l0.01758,0.22515l-0.08496,0.08892l-0.64453,-0.18369c-1.38574,-1.35513 -2.39355,-2.33101 -4.11621,-3.21211c-7.5791,-3.87729 -15.40576,-1.05967 -21.45264,4.20278c-1.08545,0.94497 -2.97656,2.44995 -4.38135,2.8229c-1.82959,0.55928 -3.69434,0.36152 -5.06396,-1.06216z" fill="#41b2fe"/><path d="M224.18701,127.61851c-3.70898,-5.18628 4.82666,-12.00439 8.83447,-14.13721c7.43115,-3.92769 16.11182,-4.76265 24.15527,-2.32324l-0.32666,0.49468c-6.06885,-2.00273 -14.96045,-1.50103 -20.67627,1.41855c-3.68848,1.88496 -14.21484,8.68374 -11.71436,13.86504z" fill="#91e3fe"/><path d="M224.45947,126.93633c2.9751,2.55952 3.58887,0.92959 4.7915,1.74434c-1.82959,0.55928 -3.69434,0.36152 -5.06396,-1.06216z" fill="#84d0ff"/><path d="M254.39648,154.5249l0.06006,0.66211c-5.68945,3.84375 -18.53613,10.72852 -20.39062,17.44775c-0.17871,0.64746 -0.05273,1.61279 0.37646,2.16211c0.51123,0.65332 1.28467,1.03857 2.11523,1.07666c2.82861,0.12891 5.8125,0.06885 8.64258,0.06445l16.77539,-0.02637c2.66895,-0.00293 5.41113,-0.12012 8.04492,0.17725c2.52246,0.28418 3.67822,2.44189 3.2959,4.79297c-0.91699,5.64258 -9.64014,4.64648 -13.81494,4.62744l-11.04053,-0.01318l-9.86279,0.03662c-3.90088,0.02197 -9.63135,0.53467 -12.3501,-2.74512l0.24756,-0.62256c1.53662,1.53955 3.271,2.4082 5.46533,2.48877c5.63086,0.20654 11.34082,0.12598 16.97314,0.13037l11.40674,0.00732c2.66895,0 6.77197,0.26221 9.26953,-0.49219c3.54639,-1.1543 4.66113,-6.43506 0.58154,-7.50879c-1.40771,-0.37061 -5.18408,-0.14941 -6.74268,-0.14795l-17.04785,0.00732c-2.59424,0.00879 -9.51709,0.31934 -11.58105,-0.49512l-0.18018,-0.07324c-4.0459,-4.21436 2.90625,-10.02246 6.07471,-12.34277c4.49707,-3.29297 8.97656,-6.23437 13.68164,-9.21387z" fill="url(#color-15)"/><path d="M259.20117,124.86709l0.64453,0.18369l0.08496,-0.08892l-0.01758,-0.22515c2.27344,2.52935 2.61621,5.30669 2.61182,8.64229c-1.36523,6.35493 -2.87549,8.38652 -8.80664,12.26162c-10.08398,6.5874 -25.77393,13.27002 -29.05078,26.12695c-0.82324,3.22705 -0.30322,7.23047 1.5835,10.04443c0.0791,0.11865 0.16113,0.23584 0.24463,0.35303l-0.24756,0.62256c-3.96533,-5.56641 -2.83301,-12.17871 0.75,-17.60889c5.36133,-8.12842 13.66113,-12.35156 21.75293,-17.20605c5.47559,-3.28433 12.62402,-7.45049 13.09424,-14.54619c0.23145,-3.47842 -0.36182,-5.88779 -2.64404,-8.55937z" fill="#84d0ff"/><path d="M257.17676,111.15806c3.10107,1.0749 5.68652,2.25015 8.14453,4.47319c6.49658,5.87534 8.30713,15.23013 5.34668,23.34741c-1.24365,3.40913 -2.80078,5.4813 -5.24121,8.14438l-0.30615,-0.38965c1.58496,-1.53193 3.58301,-4.48433 4.47949,-6.49805c2.34668,-5.30596 2.50928,-11.3228 0.45264,-16.74771c-2.19434,-6.14971 -7.21875,-9.83643 -13.20264,-11.83491z" fill="#84d0ff"/><path d="M265.12061,146.7334l0.30615,0.38965c-2.64258,2.73486 -7.5542,6.10693 -10.97021,8.06396l-0.06006,-0.66211c4.10596,-2.54004 7.34619,-4.27881 10.72412,-7.7915z" fill="#62a0fe"/></g></svg></svg>