<svg id="svg" version="1.1" viewBox="0 0 300 300" width="300" height="300" xmlns="http://www.w3.org/2000/svg"><svg xmlns="http://www.w3.org/2000/svg"><defs><clipPath id="clip-1"><rect x="0" y="0" transform="scale(0.14648,0.14648)" width="2048" height="2048" fill="none"/></clipPath><linearGradient x1="159.23438" y1="109.16968" x2="188.04199" y2="61.10288" gradientUnits="userSpaceOnUse" id="color-1"><stop offset="0" stop-color="#757574"/><stop offset="1" stop-color="#a8a7a7"/></linearGradient><linearGradient x1="174.85693" y1="140.65679" x2="190.49561" y2="100.85728" gradientUnits="userSpaceOnUse" id="color-2"><stop offset="0" stop-color="#424343"/><stop offset="1" stop-color="#838383"/></linearGradient><linearGradient x1="118.27925" y1="161.42432" x2="114.90132" y2="197.83594" gradientUnits="userSpaceOnUse" id="color-3"><stop offset="0" stop-color="#575656"/><stop offset="1" stop-color="#6f6f6f"/></linearGradient><linearGradient x1="162.67236" y1="182.6499" x2="157.68018" y2="197.99561" gradientUnits="userSpaceOnUse" id="color-4"><stop offset="0" stop-color="#302f31"/><stop offset="1" stop-color="#484848"/></linearGradient><linearGradient x1="159.02344" y1="194.90332" x2="152.86523" y2="184.0957" gradientUnits="userSpaceOnUse" id="color-5"><stop offset="0" stop-color="#b6b5b5"/><stop offset="1" stop-color="#e1dfe0"/></linearGradient><linearGradient x1="170.6748" y1="193.29199" x2="166.81055" y2="181.03271" gradientUnits="userSpaceOnUse" id="color-6"><stop offset="0" stop-color="#b6b6b6"/><stop offset="1" stop-color="#f0eced"/></linearGradient><linearGradient x1="151.74609" y1="183.43652" x2="150.16699" y2="172.05908" gradientUnits="userSpaceOnUse" id="color-7"><stop offset="0" stop-color="#000000"/><stop offset="1" stop-color="#241312"/></linearGradient><linearGradient x1="148.25537" y1="195.33984" x2="141.52676" y2="187.04297" gradientUnits="userSpaceOnUse" id="color-8"><stop offset="0" stop-color="#b2b1b1"/><stop offset="1" stop-color="#dcdada"/></linearGradient><linearGradient x1="105.69521" y1="199.84131" x2="114.00864" y2="171.2168" gradientUnits="userSpaceOnUse" id="color-9"><stop offset="0" stop-color="#b2b1b1"/><stop offset="1" stop-color="#efeeef"/></linearGradient><linearGradient x1="121.23765" y1="177.16113" x2="129.40474" y2="169.98633" gradientUnits="userSpaceOnUse" id="color-10"><stop offset="0" stop-color="#bbbaba"/><stop offset="1" stop-color="#ffffff"/></linearGradient><linearGradient x1="114.99346" y1="183.86572" x2="114.22002" y2="165.09668" gradientUnits="userSpaceOnUse" id="color-11"><stop offset="0" stop-color="#d0d0cf"/><stop offset="1" stop-color="#fefcfe"/></linearGradient><linearGradient x1="133.59287" y1="199.0459" x2="129.34731" y2="185.83594" gradientUnits="userSpaceOnUse" id="color-12"><stop offset="0" stop-color="#b7b6b6"/><stop offset="1" stop-color="#ebe9ea"/></linearGradient><linearGradient x1="212.70996" y1="178.9043" x2="216.94922" y2="191.83887" gradientUnits="userSpaceOnUse" id="color-13"><stop offset="0" stop-color="#2a3949"/><stop offset="1" stop-color="#34526b"/></linearGradient><linearGradient x1="215.44189" y1="174.9624" x2="211.8457" y2="180.78369" gradientUnits="userSpaceOnUse" id="color-14"><stop offset="0" stop-color="#b77426"/><stop offset="1" stop-color="#e0b769"/></linearGradient><linearGradient x1="176.55908" y1="167.45068" x2="177.83936" y2="171.25342" gradientUnits="userSpaceOnUse" id="color-15"><stop offset="0" stop-color="#263b55"/><stop offset="1" stop-color="#425a72"/></linearGradient><linearGradient x1="159.33984" y1="246.38086" x2="142.49092" y2="274.14844" gradientUnits="userSpaceOnUse" id="color-16"><stop offset="0" stop-color="#363636"/><stop offset="1" stop-color="#605f60"/></linearGradient><linearGradient x1="222.04102" y1="248.44629" x2="209.65869" y2="263.39063" gradientUnits="userSpaceOnUse" id="color-17"><stop offset="0" stop-color="#494848"/><stop offset="1" stop-color="#6a6a6a"/></linearGradient><linearGradient x1="217.35645" y1="237.82178" x2="228.77783" y2="237.01172" gradientUnits="userSpaceOnUse" id="color-18"><stop offset="0" stop-color="#5c5a59"/><stop offset="1" stop-color="#767778"/></linearGradient><linearGradient x1="221.25" y1="34.37139" x2="214.03418" y2="17.41348" gradientUnits="userSpaceOnUse" id="color-19"><stop offset="0" stop-color="#350e01"/><stop offset="1" stop-color="#bb3102"/></linearGradient><linearGradient x1="196.42236" y1="34.61294" x2="200.53418" y2="34.50513" gradientUnits="userSpaceOnUse" id="color-20"><stop offset="0" stop-color="#414243"/><stop offset="1" stop-color="#5c595a"/></linearGradient><linearGradient x1="246.69727" y1="223.32568" x2="228.15967" y2="222.69727" gradientUnits="userSpaceOnUse" id="color-21"><stop offset="0" stop-color="#4d4d4e"/><stop offset="1" stop-color="#6d6c6c"/></linearGradient><linearGradient x1="236.87402" y1="214.52051" x2="236.76563" y2="223.0415" gradientUnits="userSpaceOnUse" id="color-22"><stop offset="0" stop-color="#515051"/><stop offset="1" stop-color="#7e7e7f"/></linearGradient><linearGradient x1="184.42676" y1="182.27344" x2="181.41504" y2="193.40625" gradientUnits="userSpaceOnUse" id="color-23"><stop offset="0" stop-color="#cc8837"/><stop offset="1" stop-color="#dbb061"/></linearGradient><linearGradient x1="175.06934" y1="181.8501" x2="174.38525" y2="193.73291" gradientUnits="userSpaceOnUse" id="color-24"><stop offset="0" stop-color="#313335"/><stop offset="1" stop-color="#4e4c4c"/></linearGradient><linearGradient x1="177.22559" y1="179.78906" x2="178.73145" y2="183.63867" gradientUnits="userSpaceOnUse" id="color-25"><stop offset="0" stop-color="#574c4c"/><stop offset="1" stop-color="#696868"/></linearGradient><linearGradient x1="106.62378" y1="247.08398" x2="111.17607" y2="237.92578" gradientUnits="userSpaceOnUse" id="color-26"><stop offset="0" stop-color="#262626"/><stop offset="1" stop-color="#403f3f"/></linearGradient></defs><g clip-path="url(#clip-1)" fill="none" fill-rule="nonzero" stroke="none" stroke-width="1" stroke-linecap="butt" stroke-linejoin="miter" stroke-miterlimit="10" stroke-dasharray="" stroke-dashoffset="0" font-family="none" font-weight="none" font-size="none" text-anchor="none" style="mix-blend-mode: normal"><path d="M0,0h300v300h-300z" fill="#0c1b24"/><path d="M164.35693,44.61738c1.60693,1.48462 6.23291,3.17783 8.48877,4.17905c2.58252,1.15752 5.15918,2.32881 7.72852,3.51343c1.83838,0.84785 3.65039,1.76147 5.42871,2.72739c0.7998,0.43374 3.2124,1.33022 3.77783,1.74302c0.96973,0.27583 1.9585,0.78457 2.86084,1.23062c-0.00879,-1.27544 -0.31055,-2.82949 0.07324,-3.96943c0.23145,-0.68921 0.74707,-0.82573 1.39014,-1.11079c1.03564,-0.56704 1.53662,-0.80771 2.63525,-1.2312c0.32813,0.24814 0.21533,0.14121 0.43213,0.51621l0.21533,0.10649c0.07031,1.4395 1.27295,2.19814 2.60303,1.64824l0.18018,-0.31641l0.09814,-1.09995c0.34863,-0.67983 0.27832,-5.92441 0.27979,-7.00591c0.26367,1.50791 0.05859,2.94902 0.18604,4.42632c0.07617,0.88389 0.63867,1.66172 0.72217,2.78276c0.46729,0.20317 1.7915,0.25005 2.41553,0.33164c-0.08643,4.47085 -0.19922,5.86011 0.44092,10.28643c5.85059,3.03823 11.28955,4.86006 17.24121,8.33804c1.31543,0.7188 2.29688,1.46997 3.46582,2.40571c-2.61182,1.63447 -7.19092,3.33779 -10.30664,2.04478c-0.65332,-0.27114 -1.2085,-0.56982 -1.92187,-0.67427c-0.90674,0.98789 -2.79492,4.02056 -3.60645,5.24824l-6.19189,9.31216c0.5083,0.90967 0.69873,8.28618 0.73535,9.95347c0.13623,6.24111 -0.02344,12.50771 -0.03223,18.75103l0.02783,24.17534c1.19971,0.36855 4.81494,2.16914 6.1333,2.77705c4.44873,2.05195 10.63184,4.52021 14.53125,7.46309l0.40723,0.18164l0.06885,0.20947c-0.29297,0.31348 -0.28125,0.29443 -0.66504,0.49365c-0.76318,0.94189 -1.91602,1.58203 -3.04834,1.979c-1.48096,0.52002 -3.4043,0.88477 -4.96289,0.66797c-2.0625,-0.28711 -10.1792,-4.28027 -12.58301,-5.43457c-0.89062,-0.70898 -9.45703,-4.60986 -10.81055,-4.99775c-1.99072,-0.80801 -5.60156,-2.66074 -7.69043,-3.62886c-5.53418,-2.54224 -11.05518,-5.11245 -16.56299,-7.71064c-3.01465,-1.43848 -7.34912,-3.01333 -10.06494,-4.77524c-0.6709,-0.43491 -1.30225,-0.98804 -1.87939,-1.53809c-1.46924,-1.39629 -2.75684,-2.99692 -4.18652,-4.43892c-1.84863,-1.8646 -4.35791,-3.71895 -5.82568,-5.86392c-1.28174,-1.87236 -5.93481,-20.26553 -5.89658,-22.44653c0.03457,-1.97256 0.57144,-3.99683 0.96533,-5.92529c0.52031,-2.48452 1.01514,-4.97432 1.48418,-7.46895c1.24893,-4.22505 1.43643,-9.45688 2.60552,-13.68955c0.84741,-3.06621 4.48462,-7.47803 6.32739,-10.25625c1.604,-2.41802 3.95068,-6.04863 5.78027,-8.23154c0.79541,-0.76187 1.69629,-1.60518 2.53564,-2.31255c1.3125,-1.10464 2.84912,-2.05151 3.96973,-3.36562z" fill="url(#color-1)"/><path d="M143.13838,82.4729c0.36079,0.06313 0.78662,0.07866 0.94644,0.50068c0.98364,2.59585 1.74565,5.30742 2.85806,7.86943c2.63379,6.06636 6.15527,11.99033 11.03467,16.52754c4.09277,3.80625 9.79688,7.51846 15.09375,9.20596c5.78027,1.83911 10.74609,0.43301 15.98584,-2.30259c1.58496,-0.82705 7.94238,-4.39702 8.52979,-6.04922c0.32959,-0.92578 0.27686,-3.41045 1.07813,-4.54658c0.22998,-0.51387 0.58301,-2.41333 0.73535,-3.07705c1.03125,-4.46411 0.82031,-6.81592 3.59326,-10.55112c0.5083,0.90967 0.69873,8.28618 0.73535,9.95347c0.13623,6.24111 -0.02344,12.50771 -0.03223,18.75103l0.02783,24.17534c1.19971,0.36855 4.81494,2.16914 6.1333,2.77705c4.44873,2.05195 10.63184,4.52021 14.53125,7.46309l0.40723,0.18164l0.06885,0.20947c-0.29297,0.31348 -0.28125,0.29443 -0.66504,0.49365c-0.76318,0.94189 -1.91602,1.58203 -3.04834,1.979c-1.48096,0.52002 -3.4043,0.88477 -4.96289,0.66797c-2.0625,-0.28711 -10.1792,-4.28027 -12.58301,-5.43457c-0.89062,-0.70898 -9.45703,-4.60986 -10.81055,-4.99775c-1.99072,-0.80801 -5.60156,-2.66074 -7.69043,-3.62886c-5.53418,-2.54224 -11.05518,-5.11245 -16.56299,-7.71064c-3.01465,-1.43848 -7.34912,-3.01333 -10.06494,-4.77524c-0.6709,-0.43491 -1.30225,-0.98804 -1.87939,-1.53809c-1.46924,-1.39629 -2.75684,-2.99692 -4.18652,-4.43892c-1.84863,-1.8646 -4.35791,-3.71895 -5.82568,-5.86392c-1.28174,-1.87236 -5.93481,-20.26553 -5.89658,-22.44653c0.03457,-1.97256 0.57144,-3.99683 0.96533,-5.92529c0.52031,-2.48452 1.01514,-4.97432 1.48418,-7.46895z" fill="url(#color-2)"/><path d="M198.66504,103.67813c0.22998,-0.51387 0.58301,-2.41333 0.73535,-3.07705c1.03125,-4.46411 0.82031,-6.81592 3.59326,-10.55112c0.5083,0.90967 0.69873,8.28618 0.73535,9.95347c0.13623,6.24111 -0.02344,12.50771 -0.03223,18.75103l0.02783,24.17534c-0.35889,-0.09653 -2.50635,-1.22432 -3.42041,-1.56812c-0.16553,-1.7001 -0.98145,-3.80317 -1.39014,-5.62544c-0.97559,-4.34268 -2.66162,-9.50054 -3.5332,-13.76279c-0.24902,-1.21392 1.08252,-6.45571 1.35352,-7.81582c0.66943,-3.48838 1.31396,-6.98159 1.93066,-10.47949z" fill="#2d4358"/><path d="M200.3042,141.36167c0.91406,0.3438 3.06152,1.47158 3.42041,1.56812c1.19971,0.36855 4.81494,2.16914 6.1333,2.77705c4.44873,2.05195 10.63184,4.52021 14.53125,7.46309c-0.81592,0.7251 -2.3877,0.21387 -3.43359,0.27246c-3.79541,0.2124 -7.99658,-0.6416 -10.81055,-3.39844c-2.07861,-2.03613 -2.51074,-3.85166 -6.03076,-4.37622c-1.60547,-1.08662 -3.93457,-2.17588 -3.81006,-4.30605z" fill="#395671"/><path d="M204.11426,145.66772c3.52002,0.52456 3.95215,2.34009 6.03076,4.37622c2.81396,2.75684 7.01514,3.61084 10.81055,3.39844c1.0459,-0.05859 2.61768,0.45264 3.43359,-0.27246l0.40723,0.18164l0.06885,0.20947c-0.29297,0.31348 -0.28125,0.29443 -0.66504,0.49365c-5.26025,-0.52295 -9.25195,0.3501 -13.92773,-3.35596c-0.375,-0.29883 -1.20117,-0.18604 -1.62158,0.01025c-0.46875,-0.55371 -1.56299,-1.49561 -2.13721,-2.06104c-1.07373,-1.05615 -1.54102,-1.72559 -2.39941,-2.98022z" fill="#2d4358"/><path d="M202.99219,71.0001c2.08887,2.43604 9.19336,1.87617 4.83105,6.9627c-1.66992,1.94751 -3.29883,3.51372 -4.67578,5.72241c-0.59912,0.95903 -2.2998,2.40601 -3.13477,3.43887c-1.05176,1.30078 -2.64697,3.06929 -4.17773,3.74868c-9.33984,2.99473 -19.1499,0.98687 -27.46289,-3.94468c-1.11035,-0.74033 -2.08154,-2.05737 -3.15674,-2.79287c-4.73291,-3.23628 -10.29053,-6.50259 -12.29736,-12.20083c-0.09961,-0.28491 -0.61816,-1.41357 -0.55518,-1.59624c1.00488,-2.88838 3.65625,-5.02515 6.19189,-6.56616c4.53223,-2.14424 9.12891,-4.13174 13.48096,-6.67544c0.3252,-0.18984 3.21533,1.61309 4.21289,1.56431c1.73438,0.58784 6.41309,2.85542 8.32764,3.73579z" fill="#babab9"/><path d="M164.35693,44.61738c1.60693,1.48462 6.23291,3.17783 8.48877,4.17905c2.58252,1.15752 5.15918,2.32881 7.72852,3.51343c1.83838,0.84785 3.65039,1.76147 5.42871,2.72739c0.7998,0.43374 3.2124,1.33022 3.77783,1.74302c0.96973,0.27583 1.9585,0.78457 2.86084,1.23062c-0.00879,-1.27544 -0.31055,-2.82949 0.07324,-3.96943c0.23145,-0.68921 0.74707,-0.82573 1.39014,-1.11079c1.03564,-0.56704 1.53662,-0.80771 2.63525,-1.2312c0.32813,0.24814 0.21533,0.14121 0.43213,0.51621l0.21533,0.10649c0.07031,1.4395 1.27295,2.19814 2.60303,1.64824l0.18018,-0.31641l0.09814,-1.09995c0.34863,-0.67983 0.27832,-5.92441 0.27979,-7.00591c0.26367,1.50791 0.05859,2.94902 0.18604,4.42632c0.07617,0.88389 0.63867,1.66172 0.72217,2.78276c0.46729,0.20317 1.7915,0.25005 2.41553,0.33164c-0.08643,4.47085 -0.19922,5.86011 0.44092,10.28643c5.85059,3.03823 11.28955,4.86006 17.24121,8.33804c1.31543,0.7188 2.29688,1.46997 3.46582,2.40571c-2.61182,1.63447 -7.19092,3.33779 -10.30664,2.04478c-0.65332,-0.27114 -1.2085,-0.56982 -1.92187,-0.67427c-3.23584,-1.35498 -6.59766,-2.99663 -9.7998,-4.48945l-18.41602,-8.60347c-1.91455,-0.88037 -6.59326,-3.14795 -8.32764,-3.73579c-0.61084,-0.42949 -3.53613,-1.70215 -4.32568,-2.05986l-9.47754,-4.2791c-0.87012,-0.39302 -3.8584,-1.99761 -4.59375,-2.02632c0.79541,-0.76187 1.69629,-1.60518 2.53564,-2.31255c1.3125,-1.10464 2.84912,-2.05151 3.96973,-3.36562z" fill="#2d4358"/><path d="M200.54883,45.54814c0.26367,1.50791 0.05859,2.94902 0.18604,4.42632c0.07617,0.88389 0.63867,1.66172 0.72217,2.78276c0.46729,0.20317 1.7915,0.25005 2.41553,0.33164c-0.08643,4.47085 -0.19922,5.86011 0.44092,10.28643c5.85059,3.03823 11.28955,4.86006 17.24121,8.33804c-0.99463,0.43037 -5.9458,1.85889 -6.59326,1.48491c-4.36084,-2.51865 -7.33594,-6.82705 -12.44385,-8.55688c-2.68799,-0.91025 -4.74023,-2.204 -7.09717,-3.73564c-0.30029,-0.19526 -4.11768,0.8061 -4.69922,0.57598c-2.44775,-0.57437 -4.35498,-1.95996 -6.84814,-2.79258l0.11426,-0.17988c0.7251,-0.16421 1.09424,-0.14839 1.32422,-0.92607c0.54199,-1.84424 1.97607,0.32739 3.42627,0.33721c0.43945,-0.33472 0.4541,-0.37236 0.9873,-0.57905l0.1626,0.18354c0.41895,0.04014 0.22705,0.08643 0.58887,-0.17095c-0.37793,-0.24375 -0.40576,-0.24097 -0.6958,-0.57363c0.96973,0.27583 1.9585,0.78457 2.86084,1.23062c-0.00879,-1.27544 -0.31055,-2.82949 0.07324,-3.96943c0.23145,-0.68921 0.74707,-0.82573 1.39014,-1.11079c1.03564,-0.56704 1.53662,-0.80771 2.63525,-1.2312c0.32813,0.24814 0.21533,0.14121 0.43213,0.51621l0.21533,0.10649c0.07031,1.4395 1.27295,2.19814 2.60303,1.64824l0.18018,-0.31641l0.09814,-1.09995c0.34863,-0.67983 0.27832,-5.92441 0.27979,-7.00591z" fill="#395671"/><path d="M200.54883,45.54814c0.26367,1.50791 0.05859,2.94902 0.18604,4.42632c0.07617,0.88389 0.63867,1.66172 0.72217,2.78276c0.46729,0.20317 1.7915,0.25005 2.41553,0.33164c-0.08643,4.47085 -0.19922,5.86011 0.44092,10.28643c-0.95801,-0.42085 -1.86914,-0.8792 -2.80371,-1.34971c-5.36719,-1.48008 -3.77637,-2.76519 -3.75586,-7.73818c-1.37109,-0.70664 -2.15771,-0.93267 -3.64893,-1.35674c1.03564,-0.56704 1.53662,-0.80771 2.63525,-1.2312c0.32813,0.24814 0.21533,0.14121 0.43213,0.51621l0.21533,0.10649c0.07031,1.4395 1.27295,2.19814 2.60303,1.64824l0.18018,-0.31641l0.09814,-1.09995c0.34863,-0.67983 0.27832,-5.92441 0.27979,-7.00591z" fill="#2d4358"/><path d="M200.54883,45.54814c0.26367,1.50791 0.05859,2.94902 0.18604,4.42632c0.07617,0.88389 0.63867,1.66172 0.72217,2.78276c0.46729,0.20317 1.7915,0.25005 2.41553,0.33164c-0.08643,4.47085 -0.19922,5.86011 0.44092,10.28643c-0.95801,-0.42085 -1.86914,-0.8792 -2.80371,-1.34971c-0.44092,-2.90654 -0.00293,-5.15713 -0.10986,-8.04712c-0.48047,0.01963 -0.55664,0.02827 -1.05176,-0.04248l-0.17725,-0.28198l0.09814,-1.09995c0.34863,-0.67983 0.27832,-5.92441 0.27979,-7.00591z" fill="#26384a"/><path d="M163.86035,47.15493c1.53076,-0.17153 1.80762,0.55825 2.88574,1.49326c0.86279,0.74751 1.7124,1.57324 2.52246,2.37759l-0.02637,0.41602c-0.28125,0.37954 -0.22705,0.31948 -0.85547,0.42437l-0.60352,-0.45308c-1.28027,-0.36357 -5.05371,-2.59512 -6.19629,-3.44282c0.16699,-0.16831 0.5127,0.09624 0.7251,0.09272c0.01758,-0.00029 0.70459,-0.67368 0.69287,-0.67046c0.24316,-0.06738 0.61523,-0.1708 0.85547,-0.2376z" fill="#395671"/><path d="M140.99722,147.56104c0.86777,-0.33691 7.50278,-1.26855 8.16343,-1.10962c2.90039,0.698 7.55273,2.57153 10.3623,3.64087c3.2168,1.22461 2.38916,4.08984 6.77051,6.15088c-1.60986,0.9668 -3.47607,1.97021 -4.60107,3.49072c0.33105,2.56494 0.65771,4.8501 0.42773,7.44434l0.10693,0.10254c-0.00879,0.52588 -0.07764,0.35156 0.14063,0.77197l-0.05127,-0.20654l0.28857,-0.09668c0.29443,-0.65918 0.60205,-1.31396 0.92285,-1.96143c0.28271,-1.50879 0.46289,-3.1377 0.65625,-4.66553c0.31055,-2.43604 1.20996,-3.11426 2.99561,-4.57764c0.72949,-0.02783 1.17334,0.08057 1.69775,-0.27979c-2.23682,-1.85596 -2.47998,-1.21436 -3.87305,-4.41064c-0.02783,-0.83789 -0.02344,-1.06055 0.37939,-1.78271c0.99316,0.39404 4.2334,1.63477 5.00391,2.1665c8.73047,3.38086 7.81494,4.41357 7.74902,13.00342c-0.01172,1.00342 -0.03662,2.03613 -0.02344,3.03662c-1.30518,0.10254 -2.79639,0.14355 -4.05029,0.26367l-1.95264,0.09521c-0.01172,0.80859 0.00586,2.05664 -0.11279,2.81982l-0.05566,1.00488l-0.02197,0.82617l-0.21094,1.28174c-0.11133,1.55127 -0.44531,2.39355 0.49512,3.50977c-0.29004,0.34277 -0.66504,0.7251 -0.83057,1.12793c0.59033,0.1626 1.18359,0.31348 1.77979,0.4541c-0.46436,2.37451 -0.90674,4.75342 -1.32568,7.13672c-0.18164,1.0752 -0.43359,3.14063 -0.66943,4.05469c-0.104,0.78516 -0.2168,1.56885 -0.33984,2.35107l-0.19482,1.26563c-0.52295,0.25488 -0.78955,0.30176 -1.36084,0.44678c-0.89062,-0.77344 -2.79346,-0.68994 -4.26709,-1.0166c-0.42773,-0.68408 -0.61816,-1.04004 -1.21289,-1.60986c-0.10693,0.13184 -0.59033,0.7002 -0.65332,0.80566c-0.4292,0.82031 -1.99365,3.68994 -1.53369,4.47949c-0.29883,0.30615 -2.12402,0.76611 -2.60889,0.86865c-3.79541,1.6626 -8.61914,3.26074 -12.54858,4.65381l0.31714,0.17871c-1.49707,0.80566 -9.67222,3.15967 -11.83359,3.82764c-0.25166,0.07764 -2.21763,-0.39404 -2.654,-0.46436c-0.63867,-0.10254 -1.31982,-0.0835 -1.9916,-0.08496c-4.15166,-0.00879 -8.30142,-0.17725 -12.44004,-0.50537c-7.46909,-0.62695 -14.80166,-1.16016 -22.30107,-1.52344c-4.66436,-0.22705 -9.79087,-1.00195 -14.49082,-0.58301c-0.23936,0.29883 -0.21987,0.30469 -0.34585,0.6665c-0.96548,0.35742 -2.79946,0.55078 -3.86206,0.68262c-1.27339,0.15674 -2.56421,-0.23145 -3.83569,-0.51709c-2.11743,-0.47607 -4.60488,-0.96973 -6.65933,-1.61719c-2.43853,-0.77051 -4.74785,-1.62451 -7.27793,-2.17383c-1.99702,-0.43213 -4.27456,-0.59912 -6.25298,-1.02539c-1.9667,-0.42334 -3.90015,-1.22168 -5.95488,-1.54102c-2.33467,-0.36328 -4.71211,-0.61084 -7.05396,-0.89795c-0.27729,-0.03516 -1.81567,-0.71045 -2.26729,-0.82764c-2.14541,-0.55957 -4.3418,-1.04883 -6.45249,-1.7168c-0.87554,-0.27832 -1.86299,-0.19775 -2.6811,-0.47021c0.6457,-0.29883 6.94819,1.28027 7.97373,1.68604c4.39702,1.69189 8.86289,1.44141 13.38706,2.72021c4.71182,1.33154 9.3895,1.7124 14.13633,3.17285c2.71406,-1.51758 5.12329,-3.6709 7.56094,-5.52686c3.10254,-2.36279 6.25093,-4.75195 9.46772,-6.94922c0.92402,-0.62988 3.87349,-2.98535 4.76558,-3.32812c1.85977,-0.71338 4.80103,-1.2876 6.84565,-1.8208c1.98325,-0.46582 3.98672,-1.12207 6.01567,-1.32861c0.35435,-0.03662 0.2877,0.04834 0.69668,-0.12598c-0.38745,-1.39014 -0.61816,-3.3252 -0.79761,-4.77832c-0.18662,-2.4917 -1.51978,-8.57666 -1.99673,-11.44922c1.16587,-0.0293 2.3313,-0.07178 3.49614,-0.12744c0.96196,-0.30176 4.93213,-0.4043 5.94023,-0.35156l1.75693,9.24463c0.30557,1.56006 0.82939,3.64453 1.01396,5.1709c0.62666,-0.02051 1.31309,-0.1377 1.93828,-0.22119c1.19473,-0.16113 1.08047,-1.01807 1.21523,-1.9585c-0.12026,-0.77637 -0.19819,-1.59668 -0.28652,-2.38037c-0.50801,-3.62109 -1.51582,-7.51758 -1.89023,-10.98047c1.05835,-0.09961 2.11816,-0.18311 3.17915,-0.24902c0.68701,-0.16406 4.9248,-0.65771 5.59204,-0.59326c0.56704,0.77344 0.91919,2.43311 1.17686,3.4043l0.20977,0.0542c0.31479,1.23926 0.623,2.51807 0.90088,3.75c0.14971,0.66357 0.53774,3.63867 0.69858,4.01367c0.47124,-0.03516 0.52178,-0.16553 0.94834,-0.29004l0.25591,-0.07324c-0.30088,-1.63477 -0.53306,-3.25781 -0.78779,-4.89697c-0.19189,-1.23633 -0.90498,-2.29541 -0.50874,-3.60645l-0.35479,-2.84766c0.99287,-0.20508 1.8542,-0.32373 2.85981,-0.4585c1.44448,-0.53467 2.69883,-0.23291 4.13174,-0.54639c0.51943,-0.11279 0.60864,-0.48047 0.87319,-0.93457l-2.60068,-1.54541c-0.25107,-2.48584 -0.08628,-8.09912 -0.02681,-10.70654l0.14429,-0.24316c2.20605,-0.63574 12.80098,-2.25439 14.66572,-1.84277z" fill="url(#color-3)"/><path d="M140.99722,147.56104c0.86777,-0.33691 7.50278,-1.26855 8.16343,-1.10962c2.90039,0.698 7.55273,2.57153 10.3623,3.64087c3.2168,1.22461 2.38916,4.08984 6.77051,6.15088c-1.60986,0.9668 -3.47607,1.97021 -4.60107,3.49072c0.33105,2.56494 0.65771,4.8501 0.42773,7.44434l0.10693,0.10254c-0.00879,0.52588 -0.07764,0.35156 0.14063,0.77197l-0.05127,-0.20654l0.28857,-0.09668c0.29443,-0.65918 0.60205,-1.31396 0.92285,-1.96143c0.28271,-1.50879 0.46289,-3.1377 0.65625,-4.66553c0.31055,-2.43604 1.20996,-3.11426 2.99561,-4.57764c0.72949,-0.02783 1.17334,0.08057 1.69775,-0.27979c-2.23682,-1.85596 -2.47998,-1.21436 -3.87305,-4.41064c-0.02783,-0.83789 -0.02344,-1.06055 0.37939,-1.78271c0.99316,0.39404 4.2334,1.63477 5.00391,2.1665c8.73047,3.38086 7.81494,4.41357 7.74902,13.00342c-0.01172,1.00342 -0.03662,2.03613 -0.02344,3.03662c-1.30518,0.10254 -2.79639,0.14355 -4.05029,0.26367l-1.95264,0.09521c-0.01172,0.80859 0.00586,2.05664 -0.11279,2.81982l-0.05566,1.00488l-0.02197,0.82617l-0.21094,1.28174c-0.11133,1.55127 -0.44531,2.39355 0.49512,3.50977c-0.29004,0.34277 -0.66504,0.7251 -0.83057,1.12793c0.59033,0.1626 1.18359,0.31348 1.77979,0.4541c-0.46436,2.37451 -0.90674,4.75342 -1.32568,7.13672c-0.18164,1.0752 -0.43359,3.14063 -0.66943,4.05469c-0.104,0.78516 -0.2168,1.56885 -0.33984,2.35107l-0.19482,1.26563c-0.52295,0.25488 -0.78955,0.30176 -1.36084,0.44678c-0.89062,-0.77344 -2.79346,-0.68994 -4.26709,-1.0166c-0.42773,-0.68408 -0.61816,-1.04004 -1.21289,-1.60986c-0.10693,0.13184 -0.59033,0.7002 -0.65332,0.80566c-0.4292,0.82031 -1.99365,3.68994 -1.53369,4.47949c-0.29883,0.30615 -2.12402,0.76611 -2.60889,0.86865c-0.3252,-1.01074 -3.94775,-0.90088 -5.15479,-1.53809c-1.14551,-0.06152 -1.56592,-0.22266 -2.65137,-0.58887c0.4248,-1.06494 0.95068,-3.93018 1.2041,-5.15918c-0.57129,-1.74316 -0.27979,-0.84082 -0.34424,-2.73486l-0.01172,-0.27246c0.39258,-1.60107 0.30615,-2.89453 1.2041,-4.31836c-0.54492,-0.09814 -0.94629,-0.18896 -1.48096,-0.33105c-1.3125,-0.45264 -1.9248,0.21094 -3.0293,-0.40137c-0.42334,-0.20947 -0.95801,-0.78955 -1.31689,-1.13672l-0.62842,-0.38232c-0.56616,0.5127 -1.34795,1.59521 -2.02881,2.31299l-0.09932,-0.02637l-0.17578,0.13037l-0.08071,0.57861l0.0186,0.52148c0.84346,-0.18604 1.10229,0.91992 1.26475,1.58496l-0.30234,2.1167c-0.04746,-0.49365 -0.02285,-0.51855 -0.25942,-0.97412c-0.39741,-0.30176 -0.66416,-0.23145 -1.17305,-0.21826l-0.49014,0.01904c-0.53789,-0.1333 -2.06953,-0.22412 -2.70527,-0.27393c0.1229,-0.5874 0.18501,-1.1748 0.26016,-1.771c-1.11196,0.68115 -2.69399,-0.23437 -3.76992,-0.68115l-1.51802,1.7666c-0.0126,-0.75439 -0.01421,-1.3916 -0.10737,-2.146l-1.44639,-0.27246c-0.10649,-0.28418 -0.06914,-0.22119 -0.07061,-0.54492c-0.17358,-0.11865 -0.34497,-0.23291 -0.50376,-0.37061c-2.5916,-2.24268 -1.33081,-12.50391 -1.48403,-16.125c0.07192,-1.58203 0.46538,-2.85352 -0.88887,-3.86279c-0.46655,-0.43359 -1.80732,-1.13965 -2.40234,-1.4458l-2.60068,-1.54541c-0.25107,-2.48584 -0.08628,-8.09912 -0.02681,-10.70654l0.14429,-0.24316c2.20605,-0.63574 12.80098,-2.25439 14.66572,-1.84277z" fill="#686767"/><path d="M126.18721,149.64697c0.4519,0.15967 0.9564,0.3208 1.38164,0.5332c1.10259,0.25049 3.05698,1.18066 3.80039,2.00391l0.35054,0.22559c0.44326,-0.26953 0.47666,-0.41162 1.05498,-0.21387c1.39263,0.47461 4.7313,1.88818 5.52861,3.08496c0.26118,0.17578 0.53745,0.375 0.80845,0.53174c0.12261,-0.14941 0.32915,-0.50537 0.5124,-0.46436c1.53384,0.33691 4.94927,2.18408 5.91138,3.33398c4.39702,2.31299 3.97075,3.97852 3.86089,8.53271l0.17139,1.08105c-0.34277,0.09814 -0.28125,0.08057 -0.59619,0.24316c0,0.21826 0.55371,1.27002 0.67822,1.90723c0.39551,-0.72803 0.4248,-5.10205 0.5127,-6.28564c0.2168,1.87354 0.14209,4.99658 0.13184,6.93896c0.59326,0.22705 2.90479,0.03662 3.69141,0.01758c-0.27979,0.36035 -0.67822,0.82617 -0.8584,1.22314c-0.5127,0.49512 -1.70361,2.354 -2.14453,3.01025c-1.40479,2.08301 -2.73193,4.18799 -4.20557,6.22998c-0.56616,0.5127 -1.34795,1.59521 -2.02881,2.31299l-0.09932,-0.02637l-0.17578,0.13037l-0.08071,0.57861l0.0186,0.52148c0.84346,-0.18604 1.10229,0.91992 1.26475,1.58496l-0.30234,2.1167c-0.04746,-0.49365 -0.02285,-0.51855 -0.25942,-0.97412c-0.39741,-0.30176 -0.66416,-0.23145 -1.17305,-0.21826l-0.49014,0.01904c-0.53789,-0.1333 -2.06953,-0.22412 -2.70527,-0.27393c0.1229,-0.5874 0.18501,-1.1748 0.26016,-1.771c-1.11196,0.68115 -2.69399,-0.23437 -3.76992,-0.68115l-1.51802,1.7666c-0.0126,-0.75439 -0.01421,-1.3916 -0.10737,-2.146l-1.44639,-0.27246c-0.10649,-0.28418 -0.06914,-0.22119 -0.07061,-0.54492c-0.17358,-0.11865 -0.34497,-0.23291 -0.50376,-0.37061c-2.5916,-2.24268 -1.33081,-12.50391 -1.48403,-16.125c0.07192,-1.58203 0.46538,-2.85352 -0.88887,-3.86279c-0.46655,-0.43359 -1.80732,-1.13965 -2.40234,-1.4458l-2.60068,-1.54541c-0.25107,-2.48584 -0.08628,-8.09912 -0.02681,-10.70654z" fill="#babab9"/><path d="M127.56885,150.18018c1.10259,0.25049 3.05698,1.18066 3.80039,2.00391l0.35054,0.22559c0.44326,-0.26953 0.47666,-0.41162 1.05498,-0.21387c1.39263,0.47461 4.7313,1.88818 5.52861,3.08496c0.26118,0.17578 0.53745,0.375 0.80845,0.53174c0.12261,-0.14941 0.32915,-0.50537 0.5124,-0.46436c1.53384,0.33691 4.94927,2.18408 5.91138,3.33398c4.39702,2.31299 3.97075,3.97852 3.86089,8.53271c-0.91406,2.80957 -4.98677,0.13916 -5.72549,-1.51172c-0.43638,-0.97412 -0.83906,-1.88232 -1.33286,-2.83301c-0.37969,0.95947 -0.56851,1.46191 -0.82266,2.45801c-4.22695,-0.80713 -4.99863,-1.94678 -6.41162,-5.84033c-1.38237,2.51367 -1.79004,2.85205 -4.4502,1.23486c-0.85708,-0.52148 -1.50571,-0.96826 -2.20811,-1.71387c-1.79121,-1.8999 -1.67607,-5.88428 -1.01353,-8.2207c0.00542,-0.08643 0.11309,-0.5083 0.13682,-0.60791z" fill="#64372c"/><path d="M131.71978,152.40967c0.44326,-0.26953 0.47666,-0.41162 1.05498,-0.21387c1.39263,0.47461 4.7313,1.88818 5.52861,3.08496l-0.14268,0.01758c-1.77964,0.24023 -2.24136,1.22461 -3.2584,2.59131c-0.61362,-2.54297 -1.19004,-3.72803 -3.18252,-5.47998z" fill="#babab9"/><path d="M139.11182,155.8125c0.12261,-0.14941 0.32915,-0.50537 0.5124,-0.46436c1.53384,0.33691 4.94927,2.18408 5.91138,3.33398c-1.57061,0.23291 -2.34009,1.49414 -3.35537,2.70703c-0.49761,-2.87402 -0.7021,-3.61523 -3.06841,-5.57666z" fill="#babab9"/><path d="M127.56885,150.18018c1.10259,0.25049 3.05698,1.18066 3.80039,2.00391c-0.41631,0.01025 -0.70811,0.02197 -1.12764,0.06299c-0.40605,-0.56396 -1.24556,-0.83643 -1.91733,-0.89648l-0.28125,0.24463c-0.17578,-0.43506 -0.27217,-0.45557 -0.61099,-0.80713c0.00542,-0.08643 0.11309,-0.5083 0.13682,-0.60791z" fill="#a5a4a4"/><path d="M128.04302,151.59521l0.28125,-0.24463c0.67178,0.06006 1.51128,0.33252 1.91733,0.89648c-0.55327,0.19043 -1.1168,0.4585 -1.679,0.37646c-0.45923,-0.40283 -0.32241,-0.32812 -0.51958,-1.02832z" fill="#f4f3f3"/><path d="M150.29443,171.09961c0.59326,0.22705 2.90479,0.03662 3.69141,0.01758c-0.27979,0.36035 -0.67822,0.82617 -0.8584,1.22314c-0.5127,0.49512 -1.70361,2.354 -2.14453,3.01025c-1.40479,2.08301 -2.73193,4.18799 -4.20557,6.22998c-0.56616,0.5127 -1.34795,1.59521 -2.02881,2.31299l-0.09932,-0.02637l-0.17578,0.13037l-0.08071,0.57861c-0.19014,-1.65381 -0.10811,-4.71387 -0.10195,-6.43359l0.29268,0.26953c0.14355,-0.15674 1.04341,-1.79004 1.52007,-2.3877c1.31689,-1.65234 2.66895,-3.24316 3.92432,-4.93799z" fill="#686767"/><path d="M144.29077,178.14258c-0.12803,-4.6582 -0.64116,-9.05859 5.73706,-7.05615c-1.25537,1.69482 -2.60742,3.28564 -3.92432,4.93799c-0.47666,0.59766 -1.37651,2.23096 -1.52007,2.3877z" fill="#0c1b24"/><path d="M134.0937,183.70313c0.82061,-0.82324 1.22871,-1.23926 1.87441,-2.18848c2.20781,0.71191 3.98174,1.229 6.21211,1.80908c-0.34863,0.64014 -0.91685,1.60986 -1.17422,2.25732c-1.11196,0.68115 -2.69399,-0.23437 -3.76992,-0.68115l-1.51802,1.7666c-0.0126,-0.75439 -0.01421,-1.3916 -0.10737,-2.146l-1.44639,-0.27246c-0.10649,-0.28418 -0.06914,-0.22119 -0.07061,-0.54492z" fill="#0c1b24"/><path d="M144.41133,185.09766c0.84346,-0.18604 1.10229,0.91992 1.26475,1.58496l-0.30234,2.1167c-0.04746,-0.49365 -0.02285,-0.51855 -0.25942,-0.97412c-0.39741,-0.30176 -0.66416,-0.23145 -1.17305,-0.21826c0.22852,-0.82471 0.33633,-1.6626 0.47007,-2.50928z" fill="#25292f"/><path d="M126.18721,149.64697l0.14429,-0.24316c2.20605,-0.63574 12.80098,-2.25439 14.66572,-1.84277c1.28994,0.59326 2.73589,1.35352 4.04956,1.97607c2.13926,1.01221 6.44297,2.18994 7.60166,4.33301l-0.06445,0.25781c-0.58008,0.28271 -0.9668,0.20508 -1.61279,0.11572c-0.93457,-0.32666 -2.08594,-0.3999 -3.08203,-0.47607c1.6084,1.25098 3.93018,3.53467 5.48145,4.3916c-1.18359,0.7998 -2.3335,1.33154 -3.65918,1.86328c0.46875,1.78711 0.48779,2.28223 0.45117,4.13818c-0.08789,1.18359 -0.11719,5.55762 -0.5127,6.28564c-0.12451,-0.63721 -0.67822,-1.68896 -0.67822,-1.90723c0.31494,-0.1626 0.25342,-0.14502 0.59619,-0.24316l-0.17139,-1.08105c0.10986,-4.5542 0.53613,-6.21973 -3.86089,-8.53271c-0.96211,-1.1499 -4.37754,-2.99707 -5.91138,-3.33398c-0.18325,-0.04102 -0.38979,0.31494 -0.5124,0.46436c-0.271,-0.15674 -0.54727,-0.35596 -0.80845,-0.53174c-0.79731,-1.19678 -4.13599,-2.61035 -5.52861,-3.08496c-0.57832,-0.19775 -0.61172,-0.05566 -1.05498,0.21387l-0.35054,-0.22559c-0.74341,-0.82324 -2.6978,-1.75342 -3.80039,-2.00391c-0.42524,-0.2124 -0.92974,-0.37354 -1.38164,-0.5332z" fill="#f4f3f3"/><path d="M155.08594,190.27441c0.20947,-0.02783 0.42041,-0.05713 0.62988,-0.08936c0.05127,-0.00879 0.71777,-0.14502 0.73389,-0.19922c0.41602,-1.44287 0.24316,-9.03662 2.02002,-9.29004l1.47363,0.4541c0.0791,0.55957 0.05273,0.75586 0.43359,1.1748c0.40576,0.04248 0.47607,0.07764 0.83203,-0.21094c0.50537,-0.31201 1.03418,-0.15967 1.61572,-0.04687c0.77197,0.11572 0.92725,0.28125 1.56299,0.75586c-0.81152,2.11816 -1.77832,8.10498 -1.2583,10.27295c-0.4292,0.82031 -1.99365,3.68994 -1.53369,4.47949c-0.29883,0.30615 -2.12402,0.76611 -2.60889,0.86865c-0.3252,-1.01074 -3.94775,-0.90088 -5.15479,-1.53809c-1.14551,-0.06152 -1.56592,-0.22266 -2.65137,-0.58887c0.4248,-1.06494 0.95068,-3.93018 1.2041,-5.15918l0.08203,-0.00879c0.20068,-1.03711 1.74316,-0.84082 2.61914,-0.87451z" fill="url(#color-4)"/><path d="M155.08594,190.27441c0.20947,-0.02783 0.42041,-0.05713 0.62988,-0.08936c0.05127,-0.00879 0.71777,-0.14502 0.73389,-0.19922c0.41602,-1.44287 0.24316,-9.03662 2.02002,-9.29004l1.47363,0.4541c-0.12891,1.88672 -0.31641,3.49805 -0.75293,5.35254c-0.79248,3.35889 -1.07666,6.64307 -1.94971,10.00781c-1.2832,0.22852 -2.10205,0.30615 -3.40869,0.39551c-1.14551,-0.06152 -1.56592,-0.22266 -2.65137,-0.58887c0.4248,-1.06494 0.95068,-3.93018 1.2041,-5.15918l0.08203,-0.00879c0.20068,-1.03711 1.74316,-0.84082 2.61914,-0.87451z" fill="url(#color-5)"/><path d="M152.4668,191.14893c0.20068,-1.03711 1.74316,-0.84082 2.61914,-0.87451c0.42041,0.00879 1.03125,-0.05566 1.31836,0.14209c0.06885,1.47656 -3.46875,4.93945 -3.9375,0.73242z" fill="#f4f3f3"/><path d="M161.20898,182.11377c0.50537,-0.31201 1.03418,-0.15967 1.61572,-0.04687c0.71191,0.6709 -0.6123,7.88965 -1.99072,8.61035c-1.49707,-0.62842 -0.12158,-7.15283 0.375,-8.56348z" fill="#686767"/><path d="M147.88916,153.76758c0.99609,0.07617 2.14746,0.14941 3.08203,0.47607c1.70654,0.61523 4.32861,2.33789 6.08496,3.2168c-1.4751,1.08545 -2.71729,2.01563 -3.7207,3.58594c0.44092,2.67188 0.81299,5.354 1.11328,8.04492c0.14063,1.16016 0.60645,2.36572 -0.02344,3.34424l-0.17871,-0.0249l0.04395,-0.48926l-0.25195,-0.30176c-0.47754,0.55811 -0.3208,0.54785 -0.91113,0.7207c0.18018,-0.39697 0.57861,-0.86279 0.8584,-1.22314c-0.78662,0.01904 -3.09814,0.20947 -3.69141,-0.01758c0.01025,-1.94238 0.08496,-5.06543 -0.13184,-6.93896c0.03662,-1.85596 0.01758,-2.35107 -0.45117,-4.13818c1.32568,-0.53174 2.47559,-1.06348 3.65918,-1.86328c-1.55127,-0.85693 -3.87305,-3.14062 -5.48145,-4.3916z" fill="#0c1b24"/><path d="M171.37354,179.20752c0.59033,0.1626 1.18359,0.31348 1.77979,0.4541c-0.46436,2.37451 -0.90674,4.75342 -1.32568,7.13672c-0.18164,1.0752 -0.43359,3.14063 -0.66943,4.05469c-0.104,0.78516 -0.2168,1.56885 -0.33984,2.35107l-0.19482,1.26563c-0.52295,0.25488 -0.78955,0.30176 -1.36084,0.44678c-0.89062,-0.77344 -2.79346,-0.68994 -4.26709,-1.0166c-0.42773,-0.68408 -0.61816,-1.04004 -1.21289,-1.60986c0.33252,-0.54053 0.55811,-1.07959 0.82031,-1.65527c0.20947,-0.65479 0.47461,-1.25391 0.73975,-1.88818c0.96533,-0.19336 1.52783,-0.31641 2.51367,-0.37354c0.44385,-0.10693 1.3916,-0.1582 1.88379,-0.19922c0.11133,-2.5415 0.09668,-7.06787 1.6333,-8.96631z" fill="url(#color-6)"/><path d="M165.34277,188.74658c0.96533,-0.19336 1.52783,-0.31641 2.51367,-0.37354l1.59961,0.05713c0.73242,1.97021 -2.87549,3.94775 -4.72705,3.11279c-0.18604,-0.3208 -0.1333,-0.52881 -0.12598,-0.9082c0.20947,-0.65479 0.47461,-1.25391 0.73975,-1.88818z" fill="#f4f3f3"/><path d="M171.1582,190.85303c-0.104,0.78516 -0.2168,1.56885 -0.33984,2.35107l-0.19482,1.26563c-0.47021,-0.17725 -1.21289,-0.33105 -1.51904,-0.61816c0.35742,-0.38086 1.00928,-0.89648 1.22021,-1.31982c0.44238,-0.89209 0.09961,-0.91846 0.8335,-1.67871z" fill="#babab9"/><path d="M165.38379,150.07178c0.99316,0.39404 4.2334,1.63477 5.00391,2.1665c-0.20654,0.35449 -0.29004,0.32373 -0.19775,0.61377c0.29883,0.93457 1.15137,2.05225 1.7168,2.85352c-0.55078,0.23438 -1.82959,0.81445 -2.37891,0.81299c-3.28564,1.12646 -3.00439,4.92627 -3.74707,7.75488c-0.46875,1.78857 -1.11621,3.55371 -1.58789,5.33643c-0.51709,0.06885 -1.14111,0.17725 -1.65088,0.1626c-0.45703,0.07178 -0.55371,0.12158 -1.00781,0.02197l-0.15381,-0.2915c-0.06006,-0.70312 0.45117,-1.55566 0.73975,-2.32471l0.10693,0.10254c-0.00879,0.52588 -0.07764,0.35156 0.14063,0.77197l-0.05127,-0.20654l0.28857,-0.09668c0.29443,-0.65918 0.60205,-1.31396 0.92285,-1.96143c0.28271,-1.50879 0.46289,-3.1377 0.65625,-4.66553c0.31055,-2.43604 1.20996,-3.11426 2.99561,-4.57764c0.72949,-0.02783 1.17334,0.08057 1.69775,-0.27979c-2.23682,-1.85596 -2.47998,-1.21436 -3.87305,-4.41064c-0.02783,-0.83789 -0.02344,-1.06055 0.37939,-1.78271z" fill="#64372c"/><path d="M163.52783,165.78809c-0.12305,0.95215 -0.52002,2.99414 -1.09424,3.73535l0.1084,0.24902c-0.45703,0.07178 -0.55371,0.12158 -1.00781,0.02197l-0.15381,-0.2915c-0.06006,-0.70312 0.45117,-1.55566 0.73975,-2.32471l0.10693,0.10254c-0.00879,0.52588 -0.07764,0.35156 0.14063,0.77197l-0.05127,-0.20654l0.28857,-0.09668c0.29443,-0.65918 0.60205,-1.31396 0.92285,-1.96143z" fill="#352521"/><path d="M153.12744,172.34033c0.59033,-0.17285 0.43359,-0.1626 0.91113,-0.7207l0.25195,0.30176l-0.04395,0.48926l0.17871,0.0249c-1.49561,2.69971 -2.74365,5.15039 -4.67432,7.56885c2.50781,0.53467 2.84619,1.16748 5.46533,1.05029c-0.52881,0.72656 -1.4751,2.22656 -1.9834,2.77734c-0.54492,-0.09814 -0.94629,-0.18896 -1.48096,-0.33105c-1.3125,-0.45264 -1.9248,0.21094 -3.0293,-0.40137c-0.42334,-0.20947 -0.95801,-0.78955 -1.31689,-1.13672l-0.62842,-0.38232c1.47363,-2.04199 2.80078,-4.14697 4.20557,-6.22998c0.44092,-0.65625 1.63184,-2.51514 2.14453,-3.01025z" fill="url(#color-7)"/><path d="M164.50195,169.96289c2.87988,-0.70166 4.52637,-1.13965 7.4707,-1.38867c-0.00586,0.96094 0.00146,1.92188 0.0249,2.88281l-0.05566,1.00488l-0.02197,0.82617l-0.21094,1.28174c-0.96826,-0.69287 -1.37695,-1.37549 -2.67627,-2.16064c-1.53662,-0.92725 -3.0249,-1.53955 -4.53076,-2.44629z" fill="#a5a4a4"/><path d="M158.46973,180.6958c-0.04541,-0.71777 1.18066,-1.72266 1.68018,-2.52686c2.37305,0.98877 3.7002,1.12207 6.22119,1.56885c-0.68408,0.97412 -1.45312,2.02588 -1.9834,3.08496c-0.63574,-0.47461 -0.79102,-0.64014 -1.56299,-0.75586c-0.58154,-0.11279 -1.11035,-0.26514 -1.61572,0.04688c-0.35596,0.28857 -0.42627,0.25342 -0.83203,0.21094c-0.38086,-0.41895 -0.35449,-0.61523 -0.43359,-1.1748z" fill="#0c1b24"/><path d="M158.02002,168.69287c0.5625,0.1875 0.92578,0.44238 0.75146,1.03271c-0.646,0.53467 -1.49561,0.7998 -2.28955,1.11768l-0.36768,0.1582l-0.15674,-0.14648c0.16406,-0.95068 1.31543,-1.64502 2.0625,-2.16211z" fill="#424242"/><path d="M144.39272,184.57617l0.08071,-0.57861l0.17578,-0.13037l0.09932,0.02637c0.68086,-0.71777 1.46265,-1.80029 2.02881,-2.31299l0.62842,0.38232c0.35889,0.34717 0.89355,0.92725 1.31689,1.13672c1.10449,0.6123 1.7168,-0.05127 3.0293,0.40137c0.53467,0.14209 0.93604,0.23291 1.48096,0.33105c-0.89795,1.42383 -0.81152,2.71729 -1.2041,4.31836l0.01172,0.27246c0.06445,1.89404 -0.22705,0.9917 0.34424,2.73486c-0.25342,1.229 -0.7793,4.09424 -1.2041,5.15918c1.08545,0.36621 1.50586,0.52734 2.65137,0.58887c1.20703,0.63721 4.82959,0.52734 5.15479,1.53809c-3.79541,1.6626 -8.61914,3.26074 -12.54858,4.65381l0.31714,0.17871c-1.49707,0.80566 -9.67222,3.15967 -11.83359,3.82764c-0.25166,0.07764 -2.21763,-0.39404 -2.654,-0.46436c-0.63867,-0.10254 -1.31982,-0.0835 -1.9916,-0.08496c-4.15166,-0.00879 -8.30142,-0.17725 -12.44004,-0.50537c-7.46909,-0.62695 -14.80166,-1.16016 -22.30107,-1.52344c-4.66436,-0.22705 -9.79087,-1.00195 -14.49082,-0.58301c-0.23936,0.29883 -0.21987,0.30469 -0.34585,0.6665c-0.96548,0.35742 -2.79946,0.55078 -3.86206,0.68262c-1.27339,0.15674 -2.56421,-0.23145 -3.83569,-0.51709c-2.11743,-0.47607 -4.60488,-0.96973 -6.65933,-1.61719c-2.43853,-0.77051 -4.74785,-1.62451 -7.27793,-2.17383c-1.99702,-0.43213 -4.27456,-0.59912 -6.25298,-1.02539c-1.9667,-0.42334 -3.90015,-1.22168 -5.95488,-1.54102c-2.33467,-0.36328 -4.71211,-0.61084 -7.05396,-0.89795c-0.27729,-0.03516 -1.81567,-0.71045 -2.26729,-0.82764c-2.14541,-0.55957 -4.3418,-1.04883 -6.45249,-1.7168c-0.87554,-0.27832 -1.86299,-0.19775 -2.6811,-0.47021c0.6457,-0.29883 6.94819,1.28027 7.97373,1.68604c4.39702,1.69189 8.86289,1.44141 13.38706,2.72021c4.71182,1.33154 9.3895,1.7124 14.13633,3.17285c2.71406,-1.51758 5.12329,-3.6709 7.56094,-5.52686c3.10254,-2.36279 6.25093,-4.75195 9.46772,-6.94922c0.92402,-0.62988 3.87349,-2.98535 4.76558,-3.32812c1.85977,-0.71338 4.80103,-1.2876 6.84565,-1.8208c1.98325,-0.46582 3.98672,-1.12207 6.01567,-1.32861c0.35435,-0.03662 0.2877,0.04834 0.69668,-0.12598c0.64438,1.35938 2.79551,3.37793 2.89526,4.32715c-1.21655,0.82031 -1.97549,1.08252 -3.0186,2.21191c0.46934,0.01465 0.71895,-0.08936 0.98262,0.25928c0.35596,0.46875 0.27407,1.76953 0.24346,2.37451l0.11309,-0.03369l0.01699,3.11719c0.86528,0.16992 1.60078,0.26807 2.34917,0.76465c1.97593,0.75879 2.38975,2.38916 4.2019,3.88037c0.54536,0.50098 1.15767,0.92285 1.81934,1.25391c1.31191,0.16406 2.0439,0.49072 3.31157,0.83057c1.13804,0.30322 2.41567,0.55225 3.57451,0.78223c2.13604,0.48193 5.09956,1.91016 6.93325,2.07129c0.75483,-0.63281 0.55679,-1.56006 0.54126,-2.47852c0.08965,-0.6416 0.12935,-1.81641 0.18149,-2.51514c0.34937,-1.83691 2.41245,-0.77197 3.81504,-0.85254c0.57129,0.95361 0.96182,1.21143 2.07817,1.28467c0.78193,-0.1333 1.61572,-0.17871 2.40996,-0.2417c0.44604,-0.74121 0.71807,-0.8877 1.46235,-1.31396c0.49395,-1.27881 0.70239,-4.69922 1.00313,-6.15967c0.55664,-2.7041 1.08926,-5.30566 1.44668,-8.04639c0.09316,0.75439 0.09478,1.3916 0.10737,2.146l1.51802,-1.7666c1.07593,0.44678 2.65796,1.3623 3.76992,0.68115c-0.07515,0.59619 -0.13726,1.18359 -0.26016,1.771c0.63574,0.0498 2.16738,0.14063 2.70527,0.27393l0.49014,-0.01904c0.50889,-0.01318 0.77563,-0.0835 1.17305,0.21826c0.23657,0.45557 0.21196,0.48047 0.25942,0.97412l0.30234,-2.1167c-0.16245,-0.66504 -0.42129,-1.771 -1.26475,-1.58496z" fill="#2d4358"/><path d="M144.39272,184.57617l0.08071,-0.57861l0.17578,-0.13037l0.09932,0.02637c0.68086,-0.71777 1.46265,-1.80029 2.02881,-2.31299l0.62842,0.38232c0.35889,0.34717 0.89355,0.92725 1.31689,1.13672c1.10449,0.6123 1.7168,-0.05127 3.0293,0.40137c0.53467,0.14209 0.93604,0.23291 1.48096,0.33105c-0.89795,1.42383 -0.81152,2.71729 -1.2041,4.31836l0.01172,0.27246c0.06445,1.89404 -0.22705,0.9917 0.34424,2.73486c-0.25342,1.229 -0.7793,4.09424 -1.2041,5.15918c-0.70459,1.20557 -1.03271,2.6499 -1.75781,3.93311c-2.10205,-0.01758 -5.55688,-0.30029 -7.40435,-0.06152c-3.23892,0.42041 -7.06802,1.98486 -10.34722,2.79346l-0.35098,-0.08936c-0.78267,-0.82178 -1.70991,-1.50732 -2.03174,-2.61035c0.78193,-0.1333 1.61572,-0.17871 2.40996,-0.2417c0.44604,-0.74121 0.71807,-0.8877 1.46235,-1.31396c0.49395,-1.27881 0.70239,-4.69922 1.00313,-6.15967c0.55664,-2.7041 1.08926,-5.30566 1.44668,-8.04639c0.09316,0.75439 0.09478,1.3916 0.10737,2.146l1.51802,-1.7666c1.07593,0.44678 2.65796,1.3623 3.76992,0.68115c-0.07515,0.59619 -0.13726,1.18359 -0.26016,1.771c0.63574,0.0498 2.16738,0.14063 2.70527,0.27393l0.49014,-0.01904c0.50889,-0.01318 0.77563,-0.0835 1.17305,0.21826c0.23657,0.45557 0.21196,0.48047 0.25942,0.97412l0.30234,-2.1167c-0.16245,-0.66504 -0.42129,-1.771 -1.26475,-1.58496z" fill="#424242"/><path d="M144.39272,184.57617l0.08071,-0.57861l0.17578,-0.13037l0.09932,0.02637c0.68086,-0.71777 1.46265,-1.80029 2.02881,-2.31299l0.62842,0.38232c0.35889,0.34717 0.89355,0.92725 1.31689,1.13672c-0.40576,2.5166 -0.87891,4.93652 -1.34326,7.55713c-0.25488,1.43555 -0.6123,6.04541 -1.48506,7.13232c-0.44077,0.54932 -3.5332,1.02832 -4.22915,0.87891c-0.72671,-0.07617 -1.34663,-0.7749 -1.76865,-1.26855c0.11733,-1.26416 0.25371,-2.68506 0.58857,-3.91553c0.02651,-0.61084 0.06855,-1.07227 0.42158,-1.51904c-0.28022,-1.09717 0.06577,-2.26025 0.31011,-3.35889c0.88623,-0.96387 0.91963,-0.9375 2.23433,-0.97998l0.49014,-0.01904c0.50889,-0.01318 0.77563,-0.0835 1.17305,0.21826c0.23657,0.45557 0.21196,0.48047 0.25942,0.97412l0.30234,-2.1167c-0.16245,-0.66504 -0.42129,-1.771 -1.26475,-1.58496z" fill="url(#color-8)"/><path d="M143.94126,187.60693c0.50889,-0.01318 0.77563,-0.0835 1.17305,0.21826c0.23657,0.45557 0.21196,0.48047 0.25942,0.97412c-0.32944,1.64795 -0.04761,2.51514 -1.85024,2.80078c-0.91978,0.08057 -1.70757,0.21387 -2.6168,0.36475c-0.28022,-1.09717 0.06577,-2.26025 0.31011,-3.35889c0.88623,-0.96387 0.91963,-0.9375 2.23433,-0.97998z" fill="#0c1b24"/><path d="M140.90669,191.96484c0.90923,-0.15088 1.69702,-0.28418 2.6168,-0.36475c0.75234,0.04102 0.72012,-0.08936 1.16294,0.29883c0.81387,2.55908 -4.08853,4.65381 -4.19502,2.27783c-0.0082,-0.22998 -0.01025,-0.46143 -0.0063,-0.69287c0.02651,-0.61084 0.06855,-1.07227 0.42158,-1.51904z" fill="#f4f3f3"/><path d="M144.39272,184.57617l0.08071,-0.57861l0.17578,-0.13037l0.09932,0.02637c0.68086,-0.71777 1.46265,-1.80029 2.02881,-2.31299l0.62842,0.38232c-1.29917,0.71191 -1.51055,3.33105 -1.72969,4.71973c-0.16245,-0.66504 -0.42129,-1.771 -1.26475,-1.58496z" fill="#424242"/><path d="M151.75195,183.50098c0.53467,0.14209 0.93604,0.23291 1.48096,0.33105c-0.89795,1.42383 -0.81152,2.71729 -1.2041,4.31836c-0.5332,-0.72949 -0.2666,-3.46436 -0.27686,-4.64941z" fill="#25292f"/><path d="M131.69854,200.04053c0.44604,-0.74121 0.71807,-0.8877 1.46235,-1.31396c-0.1853,0.67822 -0.09097,0.75146 -0.51328,1.18506c-0.40752,0.08496 -0.53394,0.104 -0.94907,0.12891z" fill="#babab9"/><path d="M102.83203,196.02539c1.97593,0.75879 2.38975,2.38916 4.2019,3.88037c0.54536,0.50098 1.15767,0.92285 1.81934,1.25391c1.31191,0.16406 2.0439,0.49072 3.31157,0.83057c1.13804,0.30322 2.41567,0.55225 3.57451,0.78223c2.13604,0.48193 5.09956,1.91016 6.93325,2.07129c0.75483,-0.63281 0.55679,-1.56006 0.54126,-2.47852c0.08965,-0.6416 0.12935,-1.81641 0.18149,-2.51514c0.34937,-1.83691 2.41245,-0.77197 3.81504,-0.85254c0.57129,0.95361 0.96182,1.21143 2.07817,1.28467c0.32183,1.10303 1.24907,1.78857 2.03174,2.61035l0.35098,0.08936c3.2792,-0.80859 7.1083,-2.37305 10.34722,-2.79346c1.84746,-0.23877 5.30229,0.04395 7.40435,0.06152c0.7251,-1.2832 1.05322,-2.72754 1.75781,-3.93311c1.08545,0.36621 1.50586,0.52734 2.65137,0.58887c1.20703,0.63721 4.82959,0.52734 5.15479,1.53809c-3.79541,1.6626 -8.61914,3.26074 -12.54858,4.65381c-3.25503,1.11035 -6.58389,2.2749 -9.88228,3.26367c-1.13569,0.34131 -2.01064,0.3999 -3.15132,0.06885l-3.48267,-0.11279c-2.56216,-0.06738 -5.2377,-0.10693 -7.78901,-0.26953c-2.75742,-0.17432 -5.74497,-0.67529 -8.49316,-0.79395c-4.26548,-0.18604 -8.51865,-0.43652 -12.77856,-0.7207c-2.97114,-0.19775 -6.43242,-0.20654 -9.32754,-0.72656c0.85576,-0.37354 2.43604,-1.43262 3.21899,-1.74756c2.42549,-0.97852 4.29565,-2.05371 6.45688,-3.54053c0.77168,-0.53174 0.91289,-1.96875 1.62246,-2.49316z" fill="#d39e4e"/><path d="M123.39536,199.8501c0.34937,-1.83691 2.41245,-0.77197 3.81504,-0.85254c0.57129,0.95361 0.96182,1.21143 2.07817,1.28467c0.32183,1.10303 1.24907,1.78857 2.03174,2.61035l0.35098,0.08936c-2.86904,0.96973 -5.96719,1.76221 -8.99868,1.86182c0.75483,-0.63281 0.55679,-1.56006 0.54126,-2.47852c0.08965,-0.6416 0.12935,-1.81641 0.18149,-2.51514z" fill="#686767"/><path d="M108.85327,201.15967c1.31191,0.16406 2.0439,0.49072 3.31157,0.83057c1.13804,0.30322 2.41567,0.55225 3.57451,0.78223c-1.01821,1.34766 -3.98877,1.40918 -5.54546,1.42676c-0.80142,-1.18213 -1.08369,-1.58789 -1.34062,-3.03955z" fill="#e0b45f"/><path d="M129.92197,206.31738c0.10254,-0.68555 0.30703,-1.40039 0.87905,-1.83545c0.90205,-0.17432 2.20957,1.26855 2.60361,1.94824z" fill="#c0812f"/><path d="M99.12671,189.54346c0.46934,0.01465 0.71895,-0.08936 0.98262,0.25928c0.35596,0.46875 0.27407,1.76953 0.24346,2.37451l0.11309,-0.03369l0.01699,3.11719c0.86528,0.16992 1.60078,0.26807 2.34917,0.76465c-0.70957,0.52441 -0.85078,1.96143 -1.62246,2.49316c-2.16123,1.48682 -4.0314,2.56201 -6.45688,3.54053c-0.78296,0.31494 -2.36323,1.37402 -3.21899,1.74756l-0.47095,0.05713c-0.51108,-0.10547 -2.72124,-0.14062 -3.3271,-0.15674l-6.79072,-0.18018c2.78159,-2.53271 4.78652,-3.74854 7.74551,-5.90625c3.57378,-2.56787 7.05469,-5.26172 10.43628,-8.07715z" fill="#d39e4e"/><path d="M100.35278,192.17725l0.11309,-0.03369l0.01699,3.11719c0.86528,0.16992 1.60078,0.26807 2.34917,0.76465c-0.70957,0.52441 -0.85078,1.96143 -1.62246,2.49316c-2.16123,1.48682 -4.0314,2.56201 -6.45688,3.54053c-0.78296,0.31494 -2.36323,1.37402 -3.21899,1.74756l-0.47095,0.05713c-0.18442,-1.68457 2.59541,-2.85791 3.69932,-3.93457c1.73818,-1.69629 3.64482,-3.12451 5.54575,-4.62012c0.0668,-0.9082 0.02666,-2.17383 0.04497,-3.13184z" fill="#e0b45f"/><path d="M99.95186,166.64941c0.10488,0.1333 1.6749,13.604 3.07559,14.96191c1.25918,1.22021 3.70503,2.87988 3.35303,4.02539c-0.23818,1.00781 1.17935,5.86523 1.65483,6.71191l0.24771,-0.07764c2.81177,-0.85107 6.37119,-1.02539 9.00205,-1.75342c1.23208,1.37109 6.06167,7.71387 6.1103,9.33252c-0.05215,0.69873 -0.09185,1.87354 -0.18149,2.51514c0.01553,0.91846 0.21357,1.8457 -0.54126,2.47852c-1.83369,-0.16113 -4.79722,-1.58936 -6.93325,-2.07129c-1.15884,-0.22998 -2.43647,-0.479 -3.57451,-0.78223c-1.26768,-0.33984 -1.99966,-0.6665 -3.31157,-0.83057c-0.66167,-0.33105 -1.27397,-0.75293 -1.81934,-1.25391c-1.81216,-1.49121 -2.22598,-3.12158 -4.2019,-3.88037c-0.74839,-0.49658 -1.48389,-0.59473 -2.34917,-0.76465l-0.01699,-3.11719l-0.11309,0.03369c0.03062,-0.60498 0.1125,-1.90576 -0.24346,-2.37451c-0.26367,-0.34863 -0.51328,-0.24463 -0.98262,-0.25928c1.04312,-1.12939 1.80205,-1.3916 3.0186,-2.21191c-0.09976,-0.94922 -2.25088,-2.96777 -2.89526,-4.32715c-0.38745,-1.39014 -0.61816,-3.3252 -0.79761,-4.77832c-0.18662,-2.4917 -1.51978,-8.57666 -1.99673,-11.44922c1.16587,-0.0293 2.3313,-0.07178 3.49614,-0.12744z" fill="url(#color-9)"/><path d="M98.45244,178.22607c1.0103,1.43848 0.51328,3.78955 1.43774,4.5c0.20947,0.16113 1.32378,0.47607 1.62744,1.13086c2.94023,2.76855 1.60693,2.87695 -0.75015,4.87354c-0.0709,0.06006 -0.13228,2.60303 -0.30161,3.41309l-0.11309,0.03369c0.03062,-0.60498 0.1125,-1.90576 -0.24346,-2.37451c-0.26367,-0.34863 -0.51328,-0.24463 -0.98262,-0.25928c1.04312,-1.12939 1.80205,-1.3916 3.0186,-2.21191c-0.09976,-0.94922 -2.25088,-2.96777 -2.89526,-4.32715c-0.38745,-1.39014 -0.61816,-3.3252 -0.79761,-4.77832z" fill="#babab9"/><path d="M107.03394,199.90576l0.22061,-0.11279l0.89385,0.65625c1.44536,1.06787 7.90679,1.81494 9.97837,2.63379c1.44199,0.56982 3.60981,1.89844 4.77275,0.49805c0.5792,-0.65771 -0.09756,-1.75049 0.06812,-2.31738c0.26265,0.37939 0.22427,0.63721 0.24624,1.10156c0.01553,0.91846 0.21357,1.8457 -0.54126,2.47852c-1.83369,-0.16113 -4.79722,-1.58936 -6.93325,-2.07129c-1.15884,-0.22998 -2.43647,-0.479 -3.57451,-0.78223c-1.26768,-0.33984 -1.99966,-0.6665 -3.31157,-0.83057c-0.66167,-0.33105 -1.27397,-0.75293 -1.81934,-1.25391z" fill="#babab9"/><path d="M123.80977,163.37988l0.46758,0.104c0.22061,0.70898 0.41587,3.16699 0.55415,4.0752c0.50376,3.30322 1.06421,6.56689 2.04976,9.74854c0.77593,2.50488 3.73198,3.37354 4.17261,4.76221c-0.60234,0.85986 -4.83853,0.66064 -5.84663,-0.01465c-2.36719,-2.05078 -2.13267,-6.34131 -2.71069,-9.25928c-0.40137,-2.02588 -0.78398,-4.07959 -1.1918,-6.10986l-0.35479,-2.84766c0.99287,-0.20508 1.8542,-0.32373 2.85981,-0.4585z" fill="url(#color-10)"/><path d="M109.63975,165.17285c1.05835,-0.09961 2.11816,-0.18311 3.17915,-0.24902c0.52983,3.19482 1.0147,6.4541 1.673,9.5874c0.50508,2.40381 0.70825,4.38867 2.29614,6.28564c0.62959,0.75293 3.39199,2.45654 2.88501,3.28711l-0.352,0.00732c-1.40903,0.05273 -3.97588,0.24756 -5.22642,-0.17578c-1.94912,-1.70215 -1.92158,-2.95166 -2.27813,-5.38184c-0.12026,-0.77637 -0.19819,-1.59668 -0.28652,-2.38037c-0.50801,-3.62109 -1.51582,-7.51758 -1.89023,-10.98047z" fill="url(#color-11)"/><path d="M111.52998,176.15332c0.32095,0.12158 0.63735,0.19336 0.9728,0.25928c1.53794,1.38721 1.47261,5.51367 4.34341,6.84668c0.53994,0.25195 0.81152,0.62695 1.57983,0.72217l0.89502,0.10986c-1.40903,0.05273 -3.97588,0.24756 -5.22642,-0.17578c-1.94912,-1.70215 -1.92158,-2.95166 -2.27813,-5.38184c-0.12026,-0.77637 -0.19819,-1.59668 -0.28652,-2.38037z" fill="#babab9"/><path d="M132.15645,193.37695c0.35464,-0.84375 0.48076,-7.80029 1.42075,-9.05273c0.13359,-0.17725 0.27861,-0.09375 0.58711,-0.07617l1.44639,0.27246c-0.35742,2.74072 -0.89004,5.34229 -1.44668,8.04639c-0.30073,1.46045 -0.50918,4.88086 -1.00313,6.15967c-0.74429,0.42627 -1.01631,0.57275 -1.46235,1.31396c-0.79424,0.06299 -1.62803,0.1084 -2.40996,0.2417c-1.11636,-0.07324 -1.50688,-0.33105 -2.07817,-1.28467c-0.16934,-1.0415 -0.22793,-1.27734 -0.10591,-2.33203c2.70073,-0.25049 4.50293,-0.11865 5.05195,-3.28857z" fill="url(#color-12)"/><path d="M121.30474,166.68604c0.40781,2.03027 0.79043,4.08398 1.1918,6.10986c0.57803,2.91797 0.34351,7.2085 2.71069,9.25928c-0.16802,0.5625 -0.01699,0.35156 -0.38481,0.71484c-1.30547,0.08496 -2.1917,-0.68701 -2.55073,-1.92187c-0.78853,-2.71289 -1.14199,-5.57666 -1.70156,-8.35254c-0.29502,-1.46191 -0.8707,-3.31787 -0.98232,-4.76074l0.20977,0.0542c0.31479,1.23926 0.623,2.51807 0.90088,3.75c0.14971,0.66357 0.53774,3.63867 0.69858,4.01367c0.47124,-0.03516 0.52178,-0.16553 0.94834,-0.29004l0.25591,-0.07324c-0.30088,-1.63477 -0.53306,-3.25781 -0.78779,-4.89697c-0.19189,-1.23633 -0.90498,-2.29541 -0.50874,-3.60645z" fill="#424242"/><path d="M111.8165,178.53369c0.35654,2.43018 0.329,3.67969 2.27813,5.38184c-0.77212,0.8833 -4.46763,0.74561 -4.80381,-0.89502c-0.14634,-0.71484 -0.45176,-1.55566 -0.62783,-2.30713c0.62666,-0.02051 1.31309,-0.1377 1.93828,-0.22119c1.19473,-0.16113 1.08047,-1.01807 1.21523,-1.9585z" fill="#26384a"/><path d="M127.10449,196.66553c0.68877,-3.99316 1.26768,-3.40283 5.05195,-3.28857c-0.54902,3.16992 -2.35122,3.03809 -5.05195,3.28857z" fill="#f4f3f3"/><path d="M131.21704,163.34473c1.35425,1.00928 0.96079,2.28076 0.88887,3.86279c-0.13052,0.68555 -0.04834,3.93018 -0.38657,4.15869c-0.42598,-1.08105 -0.95757,-6.79248 -0.50229,-8.02148z" fill="#0c1b24"/><path d="M205.04004,159.29004c1.96875,-0.13916 3.8291,-0.62402 5.7627,-0.94922c1.77979,-0.29883 3.84082,0.30176 5.60889,0.66943c4.83398,1.05615 9.62256,2.30566 14.35693,3.74414c2.1665,0.64746 4.28467,1.27441 6.43799,2.07861c3.52441,1.31836 6.02051,4.61133 8.58838,7.22607c0.3999,0.40723 1.59668,2.04199 1.96289,2.2207c0.24023,1.21582 -1.86475,6.03662 -2.45947,7.16602c-0.57568,0.54199 -0.59619,0.80273 -0.76318,1.59668l-0.26074,0.00146c-2.82275,0.01611 -5.39502,-0.93018 -7.40332,-2.91797l-0.19775,0.18896c-0.84668,0.82324 -0.27393,1.03271 -1.82373,1.05615c-1.4165,2.39063 -4.94971,3.08057 -7.32275,4.19531c-4.51318,2.1167 -9.71484,2.02881 -14.5166,2.99121c-4.19092,0.83936 -8.34375,2.17822 -12.60498,2.72168c-1.20264,0.15527 -2.88574,1.16602 -3.51416,0.83936c0.70605,-0.47461 1.78857,-0.5918 1.99658,-0.98584c-0.64307,-1.12207 -5.28223,-0.5083 -6.34277,-0.19922c-2.04785,0.6665 -4.62598,2.27783 -6.81885,1.96729c-1.13965,-0.1626 -1.53369,-0.18604 -2.68799,0.18018c-0.35596,0.11133 -2.25,-1.32275 -2.42725,-1.6582c-2.29102,0.54932 -6.77197,3.09814 -8.05957,2.79932c-0.4043,-0.90088 -0.47607,-2.20752 -0.5127,-3.19043l0.14355,-0.17725c0.08643,0.52148 0.23438,1.85889 0.4043,2.26465c0.08203,0.48779 -0.00439,0.33105 0.26221,0.7002c0.99463,0.28857 2.50049,-0.44531 3.24902,-1.09131c1.05176,-0.59473 4.0708,-1.54541 5.31445,-1.96729l8.1416,-2.80664c-0.63574,-2.21484 0.74121,-2.3584 0.62402,-3.79834c1.55859,-0.36768 3.84814,-0.59619 5.68945,-0.99756c1.30957,-0.2168 4.37549,-1.33887 5.61182,-1.875c0.54053,-0.5874 1.15283,-1.49561 1.76074,-1.8999c0.4292,-0.20215 1.15576,-0.90674 1.45605,-1.27441c0.89502,-0.49951 3.0249,-1.09863 4.03271,-1.39746l0.44092,-0.20654c0.3999,-0.72656 0.21094,-3.09961 0.46875,-4.27295c0.30469,-1.38281 0.6167,-2.86963 1.20557,-4.18066c0.35303,-0.94629 0.47314,-2.04785 0.62988,-3.05273c-0.78223,-0.10547 -1.55566,-0.2417 -2.31299,-0.46289c-1.40332,-0.40869 -2.53564,0.10254 -4.09424,0.12744l-0.00146,-2.02002c-0.01465,-1.11768 -0.02344,-2.23535 -0.0249,-3.35303z" fill="url(#color-13)"/><path d="M205.04004,159.29004c1.96875,-0.13916 3.8291,-0.62402 5.7627,-0.94922c1.77979,-0.29883 3.84082,0.30176 5.60889,0.66943c4.83398,1.05615 9.62256,2.30566 14.35693,3.74414c2.1665,0.64746 4.28467,1.27441 6.43799,2.07861c3.52441,1.31836 6.02051,4.61133 8.58838,7.22607c0.3999,0.40723 1.59668,2.04199 1.96289,2.2207c-3.13623,1.29639 -7.81348,2.31445 -10.2085,3.53027c-0.7207,-1.29932 -4.22168,-3.67969 -5.57666,-4.53223c-0.57422,0.01465 -1.23779,0.07031 -1.81934,0.104c-0.26807,-0.1582 -0.36475,-0.25488 -0.60791,-0.45264c-1.78857,-1.42383 -3.79248,-3.36621 -5.74072,-4.49561c-1.65088,-1.25977 -4.45312,-4.39453 -6.52148,-3.97852c-2.22949,0.51416 -3.50391,0.66064 -5.80957,0.54346c-0.78223,-0.10547 -1.55566,-0.2417 -2.31299,-0.46289c-1.40332,-0.40869 -2.53564,0.10254 -4.09424,0.12744l-0.00146,-2.02002c-0.01465,-1.11768 -0.02344,-2.23535 -0.0249,-3.35303z" fill="#2d4358"/><path d="M205.06494,162.64307c0.46875,-0.04395 2.43604,-0.57715 2.52539,-0.56543c1.43115,0.18604 8.8667,1.75195 9.69287,2.37744c-2.22949,0.51416 -3.50391,0.66064 -5.80957,0.54346c-0.78223,-0.10547 -1.55566,-0.2417 -2.31299,-0.46289c-1.40332,-0.40869 -2.53564,0.10254 -4.09424,0.12744z" fill="#395671"/><path d="M217.2832,164.45508c2.06836,-0.41602 4.87061,2.71875 6.52148,3.97852c1.94824,1.12939 3.95215,3.07178 5.74072,4.49561c-1.15576,1.0708 -5.70264,2.81543 -7.28613,3.24023c-0.68262,0.57275 -1.63477,0.86279 -2.48437,1.19678c-2.25293,1.28613 -6.53906,2.07129 -9.01465,3.1582c-1.19092,-0.72656 -2.71289,-2.3042 -2.03174,-3.81299l0.44092,-0.20654c0.3999,-0.72656 0.21094,-3.09961 0.46875,-4.27295c0.30469,-1.38281 0.6167,-2.86963 1.20557,-4.18066c0.35303,-0.94629 0.47314,-2.04785 0.62988,-3.05273c2.30566,0.11719 3.58008,-0.0293 5.80957,-0.54346z" fill="#521c11"/><path d="M217.2832,164.45508c2.06836,-0.41602 4.87061,2.71875 6.52148,3.97852c0.4248,2.36133 -0.07324,3.89941 -1.17041,6.02197c-3.28418,0.41455 -8.32031,-1.25391 -10.48096,-3.84521c-0.62549,-0.74854 -0.71191,-2.05957 -1.30957,-2.55908c0.35303,-0.94629 0.47314,-2.04785 0.62988,-3.05273c2.30566,0.11719 3.58008,-0.0293 5.80957,-0.54346z" fill="#64372c"/><path d="M209.16943,176.50488c2.87402,-1.30811 6.35449,0.54932 8.92822,0.09961c0.79688,0.11426 1.10596,0.14355 1.67725,0.76172c-2.25293,1.28613 -6.53906,2.07129 -9.01465,3.1582c-1.19092,-0.72656 -2.71289,-2.3042 -2.03174,-3.81299z" fill="url(#color-14)"/><path d="M218.09766,176.60449c1.45313,-0.30176 2.68945,-0.67822 4.16162,-0.43506c-0.68262,0.57275 -1.63477,0.86279 -2.48437,1.19678c-0.57129,-0.61816 -0.88037,-0.64746 -1.67725,-0.76172z" fill="#a27131"/><path d="M204.6958,178.10889c0.89502,-0.49951 3.0249,-1.09863 4.03271,-1.39746c-0.68115,1.50879 0.84082,3.08643 2.03174,3.81299l-0.95361,0.34863c-4.83691,1.66992 -9.61816,3.43799 -14.47705,5.03613c-0.5376,-1.21143 -0.43359,-1.85156 0.5376,-2.75098c1.30957,-0.2168 4.37549,-1.33887 5.61182,-1.875c0.54053,-0.5874 1.15283,-1.49561 1.76074,-1.8999c0.4292,-0.20215 1.15576,-0.90674 1.45605,-1.27441z" fill="#d39e4e"/><path d="M204.6958,178.10889c0.89502,-0.49951 3.0249,-1.09863 4.03271,-1.39746c-0.68115,1.50879 0.84082,3.08643 2.03174,3.81299l-0.95361,0.34863c-2.59131,-1.37402 -3.71338,-1.6626 -6.56689,-1.48975c0.4292,-0.20215 1.15576,-0.90674 1.45605,-1.27441z" fill="#c0812f"/><path d="M190.17773,184.15576c1.55859,-0.36768 3.84814,-0.59619 5.68945,-0.99756c-0.97119,0.89941 -1.0752,1.53955 -0.5376,2.75098c-2.02441,0.66504 -3.78809,1.31836 -5.77588,2.04492c-0.63574,-2.21484 0.74121,-2.3584 0.62402,-3.79834z" fill="#c0812f"/><path d="M230.15332,173.38184c0.58154,-0.03369 1.24512,-0.08936 1.81934,-0.104c1.35498,0.85254 4.85596,3.23291 5.57666,4.53223c-2.16504,0.84375 -7.16162,-2.15186 -7.396,-4.42822z" fill="#26384a"/><path d="M234.84961,181.37109c0.40283,-0.89355 1.09277,-1.19971 2.02148,-1.24512l-0.19775,0.18896c-0.84668,0.82324 -0.27393,1.03271 -1.82373,1.05615z" fill="#2d4358"/><path d="M192.79541,146.26934c1.35352,0.38789 9.91992,4.28877 10.81055,4.99775c0.21826,3.65625 -0.06006,7.78418 0.10693,11.48291c0.09375,2.06689 -1.10156,10.29639 -0.2915,11.91943c2.43457,-2.13867 1.32275,-6.45264 1.62598,-9.80127l0.01904,-0.20508c1.55859,-0.0249 2.69092,-0.53613 4.09424,-0.12744c0.75732,0.22119 1.53076,0.35742 2.31299,0.46289c-0.15674,1.00488 -0.27686,2.10645 -0.62988,3.05273c-0.58887,1.31104 -0.90088,2.79785 -1.20557,4.18066c-0.25781,1.17334 -0.06885,3.54639 -0.46875,4.27295l-0.44092,0.20654c-1.00781,0.29883 -3.1377,0.89795 -4.03271,1.39746c-0.30029,0.36768 -1.02686,1.07227 -1.45605,1.27441c-0.60791,0.4043 -1.22021,1.3125 -1.76074,1.8999c-1.23633,0.53613 -4.30225,1.6582 -5.61182,1.875c-1.84131,0.40137 -4.13086,0.62988 -5.68945,0.99756c-0.43213,-0.104 -1.91602,-0.94629 -2.44336,-1.21436c-2.2749,-0.67969 -3.68115,0.18604 -5.96924,0.26221c-1.35352,0.04541 -2.04785,-0.1333 -3.36914,-0.39551c0.53467,-1.48535 1.17334,-2.8125 0.61816,-4.33447c-0.57861,-0.47461 -1.26123,-0.68262 -1.95996,-0.95068c-1.06641,-0.26514 -2.68799,-0.55957 -3.58594,-1.03125l-1.26416,1.58789c-0.94043,-1.11621 -0.60645,-1.9585 -0.49512,-3.50977l0.21094,-1.28174l0.02197,-0.82617l0.05566,-1.00488c0.11865,-0.76318 0.10107,-2.01123 0.11279,-2.81982l1.95264,-0.09521c1.25391,-0.12012 2.74512,-0.16113 4.05029,-0.26367c-0.01318,-1.00049 0.01172,-2.0332 0.02344,-3.03662c1.63916,-0.03809 4.1792,-0.24463 5.62939,-0.98584c1.47656,-1.3667 4.69336,-1.69922 6.64893,-1.6377c0.70459,0.00146 1.50146,-0.10693 2.21045,-0.18164c0.05566,-3.29736 -0.07324,-7.10889 0.1333,-10.32861c-0.11426,-0.95654 0.0249,-4.63184 0.03662,-5.83857z" fill="#530a04"/><path d="M192.79541,146.26934c1.35352,0.38789 9.91992,4.28877 10.81055,4.99775c0.21826,3.65625 -0.06006,7.78418 0.10693,11.48291c0.09375,2.06689 -1.10156,10.29639 -0.2915,11.91943c-0.29297,0.35156 -0.67969,0.91113 -0.9624,1.29346c-3.40576,0.04248 -6.32373,0.08789 -9.75439,0.02637l-0.09521,-1.64355c0.03076,-1.02686 0.01465,-2.0376 0.00439,-3.06445l0.07617,-0.18018c0.02051,-1.96143 0.14355,-5.36133 -0.16406,-7.20264c-0.87891,-0.39404 -1.28906,-0.81885 -2.11084,-1.28027c0.70459,0.00146 1.50146,-0.10693 2.21045,-0.18164c0.05566,-3.29736 -0.07324,-7.10889 0.1333,-10.32861c-0.11426,-0.95654 0.0249,-4.63184 0.03662,-5.83857z" fill="#26384a"/><path d="M192.75879,152.10791c0.64746,2.47705 -0.10254,8.44189 0.09668,11.3584c0.09082,1.32568 0.32373,6.65332 -0.16553,7.63477c0.02051,-1.96143 0.14355,-5.36133 -0.16406,-7.20264c-0.87891,-0.39404 -1.28906,-0.81885 -2.11084,-1.28027c0.70459,0.00146 1.50146,-0.10693 2.21045,-0.18164c0.05566,-3.29736 -0.07324,-7.10889 0.1333,-10.32861z" fill="#2d4358"/><path d="M198.95361,150.14648c0.74414,0.00586 2.12549,0.33398 2.79932,0.62842c0.4043,0.17285 0.70898,0.52002 0.83057,0.94336c0.2373,0.85254 -0.3501,1.66992 -0.71924,2.41992c-0.1582,0.24316 -0.29297,0.38379 -0.48193,0.60938c-0.71338,0.35596 -1.88525,0.12451 -2.31885,-0.51709c-0.60498,-0.89648 -0.20508,-3.03516 -0.10986,-4.08398z" fill="#2d4358"/><path d="M183.76611,164.25586c1.47656,-1.3667 4.69336,-1.69922 6.64893,-1.6377c0.82178,0.46143 1.23193,0.88623 2.11084,1.28027c0.30762,1.84131 0.18457,5.24121 0.16406,7.20264l-0.07617,0.18018c0.01025,1.02686 0.02637,2.0376 -0.00439,3.06445c-0.11572,-0.58447 -0.14648,-1.80322 -0.18018,-2.44336c-1.37256,0.13184 -5.51953,-0.30615 -5.98242,1.00928c-0.8291,-0.12305 -1.49707,-0.63281 -2.21777,-0.74707c-2.28662,-0.36182 -4.71826,0.28857 -6.90381,0.90088c-0.20801,1.59961 -0.43652,2.82715 -0.271,4.45752c-1.06641,-0.26514 -2.68799,-0.55957 -3.58594,-1.03125l-1.26416,1.58789c-0.94043,-1.11621 -0.60645,-1.9585 -0.49512,-3.50977l0.21094,-1.28174l0.02197,-0.82617l0.05566,-1.00488c0.11865,-0.76318 0.10107,-2.01123 0.11279,-2.81982l1.95264,-0.09521c1.25391,-0.12012 2.74512,-0.16113 4.05029,-0.26367c-0.01318,-1.00049 0.01172,-2.0332 0.02344,-3.03662c1.63916,-0.03809 4.1792,-0.24463 5.62939,-0.98584z" fill="#521c11"/><path d="M183.76611,164.25586c1.47656,-1.3667 4.69336,-1.69922 6.64893,-1.6377c0.82178,0.46143 1.23193,0.88623 2.11084,1.28027c0.30762,1.84131 0.18457,5.24121 0.16406,7.20264l-0.07617,0.18018c-1.52344,-0.16992 -2.47266,-0.47754 -3.9082,-0.94189c-2.70557,-0.87744 -4.42236,-1.53369 -5.03027,-4.59814c0.07764,-0.5332 0.0791,-0.94482 0.09082,-1.48535z" fill="#64372c"/><path d="M178.13672,165.2417c1.63916,-0.03809 4.1792,-0.24463 5.62939,-0.98584c-0.01172,0.54053 -0.01318,0.95215 -0.09082,1.48535c-0.17285,0.90381 -0.54785,2.53271 -0.40869,3.37207c-0.13916,0.42041 -0.1582,0.78369 -0.62402,0.92285c-2.7041,0.81152 -7.98047,2.27197 -10.70068,2.42578l0.05566,-1.00488c0.11865,-0.76318 0.10107,-2.01123 0.11279,-2.81982l1.95264,-0.09521c1.25391,-0.12012 2.74512,-0.16113 4.05029,-0.26367c-0.01318,-1.00049 0.01172,-2.0332 0.02344,-3.03662z" fill="url(#color-15)"/><path d="M178.13672,165.2417c1.63916,-0.03809 4.1792,-0.24463 5.62939,-0.98584c-0.01172,0.54053 -0.01318,0.95215 -0.09082,1.48535c-0.17285,0.90381 -0.54785,2.53271 -0.40869,3.37207c-0.07324,-0.18896 -0.1084,-0.46729 -0.30029,-0.52148c-3.12012,-0.90527 -6.08643,0.90234 -8.99121,0.91992c0.23291,-0.21094 2.1958,-0.2124 3.09814,-0.73975c-0.59326,-0.27539 -1.56152,0.24023 -3.01025,-0.22998c1.25391,-0.12012 2.74512,-0.16113 4.05029,-0.26367c-0.01318,-1.00049 0.01172,-2.0332 0.02344,-3.03662z" fill="#2d4358"/><path d="M171.91992,173.28809c1.15576,0.0498 1.93506,0.18311 3.0835,0.37354c-0.51123,1.01367 -0.96094,1.85156 -1.53516,2.83008l-1.26416,1.58789c-0.94043,-1.11621 -0.60645,-1.9585 -0.49512,-3.50977z" fill="#c0812f"/><path d="M177.3252,173.06543c2.18555,-0.6123 4.61719,-1.2627 6.90381,-0.90088c0.7207,0.11426 1.38867,0.62402 2.21777,0.74707c1.2876,0.89941 3.80273,3.35156 3.91846,4.9541c0.02344,0.33105 0.03955,0.32373 0.19775,0.52002c0.62402,0.12598 1.31982,0.29297 1.94824,0.33691l0.22412,-0.04541c1.01514,0.20801 1.06055,0.2666 1.69482,1.0708c0.09375,0.53906 0.13184,0.29443 -0.07764,0.76611c-0.30029,0.12598 -0.41162,0.15967 -0.72656,0.24316c-1.11182,0.13184 -2.53711,0.30615 -3.62988,0.54932c-1.09863,0.46729 -1.83545,0.48779 -2.26172,1.63477c-2.2749,-0.67969 -3.68115,0.18604 -5.96924,0.26221c-1.35352,0.04541 -2.04785,-0.1333 -3.36914,-0.39551c0.53467,-1.48535 1.17334,-2.8125 0.61816,-4.33447c-0.57861,-0.47461 -1.26123,-0.68262 -1.95996,-0.95068c-0.16553,-1.63037 0.06299,-2.85791 0.271,-4.45752z" fill="#64372c"/><path d="M192.51123,178.72266l0.22412,-0.04541c1.01514,0.20801 1.06055,0.2666 1.69482,1.0708c0.09375,0.53906 0.13184,0.29443 -0.07764,0.76611c-0.30029,0.12598 -0.41162,0.15967 -0.72656,0.24316c-1.11182,0.13184 -2.53711,0.30615 -3.62988,0.54932c-0.48779,-0.07178 -0.62402,-0.14355 -0.78955,-0.62695c-0.42773,-1.24365 2.44482,-1.70215 3.30469,-1.95703z" fill="#c0812f"/><path d="M193.62598,180.75732c1.57617,0.01025 6.58301,-0.13477 7.85303,0.52588c-1.23633,0.53613 -4.30225,1.6582 -5.61182,1.875c-1.84131,0.40137 -4.13086,0.62988 -5.68945,0.99756c-0.43213,-0.104 -1.91602,-0.94629 -2.44336,-1.21436c0.42627,-1.14697 1.16309,-1.16748 2.26172,-1.63477c1.09277,-0.24316 2.51807,-0.41748 3.62988,-0.54932z" fill="#530a04"/><path d="M192.73535,178.67725c3.72217,-0.56982 8.74658,0.07617 11.96045,-0.56836c-0.30029,0.36768 -1.02686,1.07227 -1.45605,1.27441c-0.60791,0.4043 -1.22021,1.3125 -1.76074,1.8999c-1.27002,-0.66064 -6.27686,-0.51562 -7.85303,-0.52588c0.31494,-0.0835 0.42627,-0.11719 0.72656,-0.24316c0.20947,-0.47168 0.17139,-0.22705 0.07764,-0.76611c-0.63428,-0.8042 -0.67969,-0.86279 -1.69482,-1.0708z" fill="#a27131"/><path d="M150.9668,244.0459c1.16455,-0.2373 9.31348,2.68506 10.44287,3.30908c1.10596,0.61084 4.67578,8.93848 4.58203,10.5498c-0.13477,2.34375 -3.04687,9.98877 -4.52197,12.26807c-2.1665,1.90137 -7.23486,4.604 -9.89795,5.96191c-1.18359,-0.49219 -2.37891,-0.95361 -3.58594,-1.38721c-1.82534,-0.56543 -3.99229,-1.17773 -5.71904,-1.91162c-0.25269,-0.78223 -0.46992,-1.54248 -0.82617,-2.28223l-0.08613,0.08057c0.33179,1.2832 0.2959,1.53223 1.16162,2.57813l0.12861,0.15234c-0.68057,0.07031 -1.92144,0.00439 -2.21997,-0.72363c-1.24497,-3.00293 -2.33408,-6.08643 -3.69961,-9.04102c-0.93867,-2.03174 0.02168,-3.31934 0.70811,-5.25439c0.74048,-2.0874 1.43071,-4.15137 2.20547,-6.23877c1.13555,-3.06006 4.04692,-3.98291 6.60703,-5.53418c1.43101,-0.83496 3.18882,-1.88672 4.72104,-2.52686z" fill="url(#color-16)"/><path d="M146.31665,267.104l0.28198,0.21533c0.2666,1.7168 1.91895,4.87354 0.65186,6.24023c-1.28613,-0.85107 -1.61089,-3.25049 -1.52036,-4.69189c0.03691,-0.58594 0.34746,-1.23047 0.58652,-1.76367z" fill="#797879"/><path d="M213.16406,237.82471c1.6582,-0.95654 3.84814,-2.28369 5.56934,-3.06152c3.49658,1.44287 8.94727,2.10352 10.9292,5.14746c1.09424,1.21436 3.24316,7.52783 3.69287,9.28857c-1.21436,3.50098 -2.60449,8.44336 -4.33594,11.70117c-0.5625,1.05615 -5.00537,3.68262 -6.23437,4.08838c-1.35645,0.79395 -2.50928,1.44141 -3.91406,2.15771c-3.04687,-1.12793 -5.36133,-1.99365 -8.52393,-2.7627c-0.84961,0.03516 -1.48682,0.11133 -2.25586,-0.23437c-1.00049,-1.03857 -3.93164,-9.20215 -4.52344,-11.0127c0.74854,-2.88281 2.03906,-6.13184 2.98975,-8.97656c1.1499,-3.44531 3.39551,-4.89551 6.60645,-6.33545z" fill="#424242"/><path d="M211.74316,247.59668c1.67871,-1.15283 3.0249,-1.93506 4.85596,-2.7832c3.83936,0.97266 3.90234,2.27197 4.9834,5.62207c-1.01807,1.99658 -1.96729,3.06152 -2.79346,4.58496c1.26855,1.64941 2.81689,3.46289 3.97266,5.15332c0.82324,1.20557 0.49219,1.93066 1.70947,3.43652c-0.5376,0.66357 -1.63916,0.91553 -1.68604,1.37842c-1.35645,0.79395 -2.50928,1.44141 -3.91406,2.15771c-3.04687,-1.12793 -5.36133,-1.99365 -8.52393,-2.7627c-1.14844,-0.72217 -1.64795,-2.93555 -2.05371,-4.20703c-0.57275,-1.79443 -1.1792,-3.60791 -1.67285,-5.42432c-0.56836,-2.24414 -0.04834,-5.03906 1.13232,-7.02539c0.68555,-1.12793 1.49414,-1.57471 2.54004,-2.29834c0.51855,0.73975 0.97705,1.39746 1.4502,2.16797z" fill="url(#color-17)"/><path d="M213.16406,237.82471c1.6582,-0.95654 3.84814,-2.28369 5.56934,-3.06152c3.49658,1.44287 8.94727,2.10352 10.9292,5.14746c-0.08203,0.32959 -0.0293,0.21826 -0.2417,0.479c-0.69727,-0.0791 -1.10156,-0.70312 -1.74023,-0.89941c-2.21191,-0.65918 -4.38867,-1.46484 -6.6416,-1.97754c-2.15186,-0.49072 -2.5415,-0.24756 -4.2334,0.82178l-0.10254,-0.08936c0.52441,-0.32227 0.87598,-0.68555 1.32715,-1.1001c-0.1084,-0.47607 -0.65625,-0.81738 -1.09277,-1.21143c-0.63281,0.4541 -3.03076,1.89551 -3.77344,1.89111z" fill="url(#color-18)"/><path d="M196.59814,17.97524c1.09131,-0.78237 2.49902,-1.67769 3.86719,-0.94336c2.98096,0.82427 7.25537,1.23574 10.40771,1.90034l26.11377,4.62554c1.75928,0.31787 3.54785,0.47124 5.19287,0.78223c-2.11816,1.35894 -4.68457,2.4353 -6.98437,3.46655l-7.22168,3.2915l-14.04492,6.39111c-4.46045,2.05488 -8.89014,4.19033 -13.4165,6.10195l0.03662,1.95703c-0.00146,1.08149 0.06885,6.32607 -0.27979,7.00591l-0.09814,1.09995l-0.18018,0.31641c-1.33008,0.5499 -2.53271,-0.20874 -2.60303,-1.64824l-0.21533,-0.10649c-0.2168,-0.375 -0.104,-0.26807 -0.43213,-0.51621c-0.31201,-0.73799 -0.12158,-2.77441 -0.07178,-3.66401c0.13916,-4.61235 0.35156,-9.19629 0.60498,-13.80278c0.09229,-1.68955 -0.44678,-3.64248 -0.39697,-5.43838c-0.26953,-3.59956 -0.36328,-7.21025 -0.27832,-10.81904z" fill="url(#color-19)"/><path d="M196.59814,17.97524c1.09131,-0.78237 2.49902,-1.67769 3.86719,-0.94336c0.04688,1.92949 0.13477,4.07813 0.11279,5.99268c0.19189,7.06143 -0.22998,13.53032 -0.06592,20.56655l0.03662,1.95703c-0.00146,1.08149 0.06885,6.32607 -0.27979,7.00591l-0.09814,1.09995l-0.18018,0.31641c-1.33008,0.5499 -2.53271,-0.20874 -2.60303,-1.64824l-0.21533,-0.10649c-0.2168,-0.375 -0.104,-0.26807 -0.43213,-0.51621c-0.31201,-0.73799 -0.12158,-2.77441 -0.07178,-3.66401c0.13916,-4.61235 0.35156,-9.19629 0.60498,-13.80278c0.09229,-1.68955 -0.44678,-3.64248 -0.39697,-5.43838c-0.26953,-3.59956 -0.36328,-7.21025 -0.27832,-10.81904z" fill="url(#color-20)"/><path d="M196.87646,28.79429c1.13379,3.7812 1.61719,11.18584 1.59668,15.26104c-0.00586,1.02217 -1.21582,3.05903 -1.80469,3.98013c0.13916,-4.61235 0.35156,-9.19629 0.60498,-13.80278c0.09229,-1.68955 -0.44678,-3.64248 -0.39697,-5.43838z" fill="#25292f"/><path d="M197.3877,52.32217c0.51563,-0.77256 1.40039,-2.25176 2.19141,-2.70615c0.94189,0.34775 0.60938,2.17207 0.68994,2.93804l-0.09814,1.09995l-0.18018,0.31641c-1.33008,0.5499 -2.53271,-0.20874 -2.60303,-1.64824z" fill="#797879"/><path d="M200.46533,17.03188c2.98096,0.82427 7.25537,1.23574 10.40771,1.90034c-0.97559,0.18193 -2.16943,1.69102 -3.02197,2.18101c-1.09277,0.62783 -5.6543,3.80464 -6.62988,3.54683c-0.05859,-1.07124 -0.36768,-0.8187 -0.64307,-1.6355c0.02197,-1.91455 -0.06592,-4.06318 -0.11279,-5.99268z" fill="#ad1e00"/><path d="M163.78271,192.29004c0.59473,0.56982 0.78516,0.92578 1.21289,1.60986c1.47363,0.32666 3.37646,0.24316 4.26709,1.0166c0.57129,-0.14502 0.83789,-0.19189 1.36084,-0.44678l0.19482,-1.26562l0.18018,0.12891l0.03076,0.64893c0.38818,0.03223 0.47314,-0.05713 0.86426,-0.20361c-0.08496,0.3501 -0.02051,0.38086 -0.48926,0.60791c-1.60254,0.77783 -5.12549,2.16211 -6.76025,2.41846l-0.06592,0.18457l0.45264,0.24756c-0.09668,0.3457 -0.04102,0.2124 -0.32666,0.49219c0.26953,1.74316 2.40234,1.62012 3.73975,1.4458l0.16699,-0.15967c-0.12451,-0.30469 -0.16992,-0.40869 -0.33691,-0.69141c1.94531,-0.04102 2.70264,0.86719 5.24707,0.2959c2.03467,-0.45557 9.2915,-3.44531 10.98486,-3.03516l-0.07031,0.16846c-0.73096,0.2124 -1.65527,0.22119 -2.06543,0.57568c0.26074,0.76758 0.47461,-0.14795 0.30176,0.80566c-1.0752,0.09375 -2.94873,0.17285 -2.96631,1.54395l0.104,0.12158c0.42041,-0.27539 0.63574,-0.22998 0.95068,-0.56982c2.17969,0.04688 2.23242,-0.07764 4.25098,-0.39551c1.75049,-0.27539 7.40918,-2.25439 8.75098,-1.33887c-0.44385,0.24023 -1.34619,-0.08936 -1.93066,0.06006c-1.50879,0.38525 -13.10889,3.20947 -13.7168,2.66016l0.0249,-0.17725c0.18604,-0.12744 0.46582,-0.33838 0.65479,-0.43945c-0.10107,-0.29297 -0.0498,-0.15381 -0.15674,-0.42041l0.38086,-0.38379l-0.04395,-0.05127c-0.59326,0.37646 -0.95654,0.68115 -1.64648,0.79102c-0.46289,-0.11426 -0.43506,-0.12451 -0.81299,-0.42627l-2.19141,0.76318l-0.08496,0.20947l-0.00879,-0.17871l-0.28711,0.15381l0.46436,0.08936l0.09521,0.2124l-0.20508,0.3501c-0.62988,-0.02344 -0.83057,0.22852 -1.29346,0.66211c0.09521,0.66357 0.78516,0.44824 0.17432,1.20996c-1.25684,1.56738 -2.24561,1.85596 -2.85205,3.95215c0.46436,0.15967 10.06055,-1.26709 11.2002,-1.37842c0.56689,-0.05566 1.75342,-0.54053 2.41406,-0.50537c-0.5376,1.05762 -9.88184,1.57324 -11.3833,1.85449c-2.83008,0.52881 -5.54004,1.29346 -8.35107,1.91895c-3.49365,0.52588 -6.87891,0.78223 -10.39453,1.43848c-4.85303,0.90674 -10.1083,2.74365 -15.00469,3.19775c-3.75308,0.34717 -8.18057,-0.66943 -11.9606,-0.76904c-2.99707,-0.26367 -6.20977,0.16992 -9.18179,-0.02783c-2.59937,-0.17285 -5.19888,-1.08838 -7.89785,-1.13818c-6.85708,-0.12744 -13.95161,-1.22021 -20.75581,-1.4165c-10.34531,-0.29883 -20.11714,-1.38721 -30.19585,-3.75586c-3.91084,-0.91113 -7.68691,-1.86621 -11.64932,-2.64844c-3.45996,-0.68408 -7.4562,-2.40967 -10.86357,-3.40137c-2.00273,-0.76172 -5.34185,-2.55322 -7.23105,-3.5625c0.65405,0.00293 1.59111,0.51709 2.1501,0.86572c1.35908,0.84961 2.94609,1.24219 4.41079,1.90283c3.58052,1.61426 7.58013,2.61621 11.35708,3.75439c2.05269,0.6167 4.39819,0.77637 6.47988,1.34033c2.22261,0.53174 4.41885,1.229 6.67676,1.61426c0.62505,0.10693 1.06274,-0.1333 1.44258,-0.59912l0.08936,-0.39697c-0.65669,-0.44092 -1.45767,0.16846 -2.02441,-0.1377l0.12026,-0.22412c1.50308,-0.2124 4.38721,-0.41162 5.88867,-0.05127c1.88687,0.4541 3.86396,1.86621 5.80488,2.31006c1.17671,0.26807 2.43384,-0.00293 3.53188,0.30615c-0.84199,0.80127 -2.89438,-0.18018 -3.70825,0.01904c-0.22324,0.49365 -0.19629,0.24902 -0.1166,0.75879l0.12393,-0.03516l0.104,0.37793l0.16846,-0.32227c0.81006,0.14795 1.43057,0.5376 2.31299,0.64453c5.15815,0.62842 10.3897,0.80127 15.55708,1.0708l21.19028,1.26416c2.95532,0.18164 5.17222,1.05762 8.03276,1.17334c1.39175,0.05713 2.34521,-0.73828 3.69844,-0.74561c0.09023,-0.08936 0.18047,-0.18018 0.27085,-0.271c-0.3542,-0.31055 -2.86567,-0.71631 -4.38091,-1.81641l0.05083,-0.16699c0.95039,0.03223 1.73496,0.91553 2.50737,1.11914c1.21655,0.32227 2.98433,0.27979 4.15093,0.70313c-0.2584,0.14502 -0.29238,0.10547 -0.61787,0.14648c1.93184,1.54248 11.0707,1.71533 13.81553,1.72998c0.21943,0.00146 0.58521,-0.31348 0.77329,-0.46729c0.24141,0.16992 0.48047,0.32813 0.74341,0.46289c0.57964,-0.11572 0.46025,0.0293 0.69932,-0.2915c-0.23203,-0.44238 -0.20713,-0.44238 -0.71558,-0.59912c0.26045,-1.42529 10.52109,-4.30957 12.23789,-4.84131c2.85791,-0.90674 5.70996,-1.83252 8.55615,-2.77295c1.01953,-0.33398 3.55371,-1.03125 4.24951,-1.65381c-0.30176,-0.38086 -4.66846,-1.32129 -5.49609,-1.5498c-0.03809,-0.26367 0.16113,-0.72656 0.15234,-0.73242c-0.87012,-0.55811 -3.58447,0.81592 -4.4502,1.14697c-1.93799,0.72803 -3.88477,1.43115 -5.84033,2.11084c-0.36182,0.12744 -2.01123,0.75439 -2.31299,0.79102l-0.31714,-0.17871c3.92944,-1.39307 8.75317,-2.99121 12.54858,-4.65381c0.48486,-0.10254 2.31006,-0.5625 2.60889,-0.86865c-0.45996,-0.78955 1.10449,-3.65918 1.53369,-4.47949c0.06299,-0.10547 0.54639,-0.67383 0.65332,-0.80566z" fill="#2d4358"/><path d="M163.78271,192.29004c0.59473,0.56982 0.78516,0.92578 1.21289,1.60986c1.47363,0.32666 3.37646,0.24316 4.26709,1.0166c-2.52246,1.10889 -5.07422,1.77979 -7.66699,2.65869c-0.45996,-0.78955 1.10449,-3.65918 1.53369,-4.47949c0.06299,-0.10547 0.54639,-0.67383 0.65332,-0.80566z" fill="#d39e4e"/><path d="M183.01904,221.79199c0.73535,-2.36865 1.53955,-4.69629 2.33203,-7.04443c0.75732,-2.24121 1.95996,-6.62842 4.87646,-6.79102c0.46875,0.20068 0.63867,0.35156 0.82178,0.83643c1.38135,3.65479 1.48242,18.23291 -0.18896,21.7207c-0.44238,0.92432 -1.19385,1.93652 -2.24268,2.21777c-0.2168,0.05713 -0.24902,0.04688 -0.44531,0.04834c-0.28418,-0.25049 -0.38525,-0.36914 -0.39111,-0.85107c-0.0498,-3.83203 0.1875,-8.06836 0.479,-11.87256l-0.10986,-0.91699l-0.20215,-0.10547c-0.50098,2.85498 -1.42529,6.41016 -3.92871,8.13428c-3.00586,2.06836 -4.39893,-3.1333 -5.01709,-4.86768c-0.05127,2.64551 0.41455,4.98926 -0.90674,7.43994c-1.03271,1.91455 -2.20166,2.92529 -4.01807,4.07666c-0.25195,-2.61621 -0.03369,-4.50879 0.58154,-7.06787c0.9624,-4.00342 0.85547,-8.14307 1.49561,-12.17725c0.22412,-1.41504 2.03027,-2.73486 3.12451,-3.58154c1.29346,2.19287 2.91064,5.26758 3.3999,7.78711c0.17725,0.91846 0.20801,2.07861 0.33984,3.01465z" fill="#f4f3f3"/><path d="M187.94824,219.03369c-0.00146,-0.92725 0.22119,-1.96582 0.46289,-2.8623c0,1.19238 0.03809,2.73779 -0.15088,3.88477l-0.10986,-0.91699z" fill="#686767"/><path d="M168.32373,221.26904c0.375,-3.23584 0.87744,-7.94238 2.96924,-10.54395c0.82324,-1.02393 2.05957,-0.20068 2.01123,1.08838c-0.1626,4.24658 -0.94629,8.46387 -1.12939,12.71777c-0.09229,2.10791 -0.24463,4.18506 -0.48486,6.27686c-0.19189,1.66992 -0.74561,1.88379 -2.02441,2.83301c0.44678,0.14941 0.44092,0.16553 0.8335,0.43945c-1.26709,0.49219 -2.15625,0.80859 -3.2666,1.62891c-0.4541,0.03662 -0.60791,0.20508 -0.99609,0.26514c-1.56299,0.23877 -3.27539,-0.31934 -4.55273,-1.21436c-0.89795,0.67969 -2.41113,-0.29736 -3.30176,-0.73096c0.96533,-3.97412 0.65771,-9.23877 0.84668,-13.3623c0.21387,-4.69482 -1.12061,-5.8623 2.97217,-8.84766c1.29053,3.18311 1.59229,7.16895 0.98438,10.55859c1.4751,-0.5332 3.55371,-0.83496 5.13867,-1.10889z" fill="#f4f3f3"/><path d="M168.22998,225.6416c-0.48926,1.37695 -0.83057,5.62061 -0.50684,7.16016c0.10986,0.52295 0.29297,0.75439 0.74121,1.03125c0.55664,0.1084 0.67676,0.01318 1.20117,-0.19189c0.44678,0.14941 0.44092,0.16553 0.8335,0.43945c-1.26709,0.49219 -2.15625,0.80859 -3.2666,1.62891c-0.4541,0.03662 -0.60791,0.20508 -0.99609,0.26514c-1.56299,0.23877 -3.27539,-0.31934 -4.55273,-1.21436c1.61133,-2.38916 1.37402,-4.70508 1.42969,-7.52197c1.95703,-0.34717 3.39844,-0.60937 5.1167,-1.59668z" fill="#25292f"/><path d="M230.96484,217.2627c1.10742,-0.41162 3.62695,-0.83936 4.94678,-1.17773c2.48291,-0.63574 5.01855,-1.42969 7.53369,-1.83252c0.39258,1.39453 1.21875,3.4834 1.73584,4.8999c0.89795,1.604 0.95654,3.10254 2.02881,4.77686c-0.47754,0.39697 -0.75879,0.60205 -1.14404,1.08105c-0.36182,0.84814 -2.43311,4.32129 -3.21387,4.52197c-3.37646,0.86572 -9.13623,-0.71484 -12.01758,-2.68652c-1.02393,-0.38232 -2.04932,-0.75439 -3.08057,-1.11768c0.24463,-0.98145 0.49072,-1.79736 0.79834,-2.7627c0.7793,-1.77832 1.875,-3.88477 2.4126,-5.70264z" fill="url(#color-21)"/><path d="M230.96484,217.2627c1.10742,-0.41162 3.62695,-0.83936 4.94678,-1.17773c2.48291,-0.63574 5.01855,-1.42969 7.53369,-1.83252c0.39258,1.39453 1.21875,3.4834 1.73584,4.8999c-0.98877,1.2583 -8.72021,3.58008 -10.67725,3.8877c-1.28027,0.20068 -4.70801,0.43213 -5.95166,-0.07471c0.7793,-1.77832 1.875,-3.88477 2.4126,-5.70264z" fill="url(#color-22)"/><path d="M230.83447,226.8457c0.78955,-0.50537 13.1001,-1.50439 15.23145,-1.83545c-0.36182,0.84814 -2.43311,4.32129 -3.21387,4.52197c-3.37646,0.86572 -9.13623,-0.71484 -12.01758,-2.68652z" fill="#424242"/><path d="M173.46826,176.4917c0.89795,0.47168 2.51953,0.76611 3.58594,1.03125c0.69873,0.26807 1.38135,0.47607 1.95996,0.95068c0.55518,1.52197 -0.0835,2.84912 -0.61816,4.33447c1.32129,0.26221 2.01563,0.44092 3.36914,0.39551c2.28809,-0.07617 3.69434,-0.94189 5.96924,-0.26221c0.52734,0.26807 2.01123,1.11035 2.44336,1.21436c0.11719,1.43994 -1.25977,1.5835 -0.62402,3.79834l-8.1416,2.80664c-1.24365,0.42188 -4.2627,1.37256 -5.31445,1.96729c-0.74854,0.646 -2.25439,1.37988 -3.24902,1.09131c-0.2666,-0.36914 -0.18018,-0.2124 -0.26221,-0.7002c1.13672,-0.76172 1.39453,-0.95215 2.24268,-2.04053l0.35303,0.18457c0.21387,-0.48926 0.20215,-1.4502 -0.43652,-1.64941c-0.73096,0.15674 -0.61816,0.24609 -1.2334,0.04834c-1.19238,-1.29492 -0.35156,-6.15234 -0.11719,-7.979l-0.33691,0.12598c-0.42773,1.26563 -0.30908,1.99658 -0.42041,3.20508l-0.24316,-0.05273c-0.104,0.50684 -0.1582,0.76025 -0.12305,1.28174c0.0542,0.79688 -0.3457,1.54541 -0.46582,2.34814c-0.24316,1.63916 -0.37793,3.1333 -0.80713,4.7417l-0.18018,-0.12891c0.12305,-0.78223 0.23584,-1.56592 0.33984,-2.35107c0.23584,-0.91406 0.48779,-2.97949 0.66943,-4.05469c0.41895,-2.3833 0.86133,-4.76221 1.32568,-7.13672c-0.59619,-0.14062 -1.18945,-0.2915 -1.77979,-0.4541c0.16553,-0.40283 0.54053,-0.78516 0.83057,-1.12793z" fill="url(#color-23)"/><path d="M173.46826,176.4917c0.89795,0.47168 2.51953,0.76611 3.58594,1.03125c0.69873,0.26807 1.38135,0.47607 1.95996,0.95068c0.55518,1.52197 -0.0835,2.84912 -0.61816,4.33447c-0.44238,0.97852 -1.14551,2.41553 -1.45898,3.3999c-0.18164,1.05029 -1.11621,5.83887 -0.83936,6.52002c-0.74854,0.646 -2.25439,1.37988 -3.24902,1.09131c-0.2666,-0.36914 -0.18018,-0.2124 -0.26221,-0.7002c1.13672,-0.76172 1.39453,-0.95215 2.24268,-2.04053l0.35303,0.18457c0.21387,-0.48926 0.20215,-1.4502 -0.43652,-1.64941c-0.73096,0.15674 -0.61816,0.24609 -1.2334,0.04834c-1.19238,-1.29492 -0.35156,-6.15234 -0.11719,-7.979l-0.33691,0.12598c-0.42773,1.26563 -0.30908,1.99658 -0.42041,3.20508l-0.24316,-0.05273c-0.104,0.50684 -0.1582,0.76025 -0.12305,1.28174c0.0542,0.79688 -0.3457,1.54541 -0.46582,2.34814c-0.24316,1.63916 -0.37793,3.1333 -0.80713,4.7417l-0.18018,-0.12891c0.12305,-0.78223 0.23584,-1.56592 0.33984,-2.35107c0.23584,-0.91406 0.48779,-2.97949 0.66943,-4.05469c0.41895,-2.3833 0.86133,-4.76221 1.32568,-7.13672c-0.59619,-0.14062 -1.18945,-0.2915 -1.77979,-0.4541c0.16553,-0.40283 0.54053,-0.78516 0.83057,-1.12793z" fill="url(#color-24)"/><path d="M173.46826,176.4917c0.89795,0.47168 2.51953,0.76611 3.58594,1.03125c0.69873,0.26807 1.38135,0.47607 1.95996,0.95068c-0.54492,0.84961 -1.59521,2.1958 -1.96729,2.97803c-0.37939,0.07031 -0.36182,0.09229 -0.7207,-0.03516l-0.29004,-0.62402c-0.31934,-0.42041 -0.53906,-0.66357 -1.04004,-0.8291c-0.5874,0.13477 -0.37354,0.02783 -0.81006,0.57715c-0.75586,-0.42334 -0.6416,-0.22266 -1.03271,-0.87891c-0.59619,-0.14062 -1.18945,-0.2915 -1.77979,-0.4541c0.16553,-0.40283 0.54053,-0.78516 0.83057,-1.12793z" fill="#0c1b24"/><path d="M174.18604,180.54053c0.43652,-0.54932 0.22266,-0.44238 0.81006,-0.57715c0.50098,0.16553 0.7207,0.40869 1.04004,0.8291c-0.02783,1.70361 -0.16699,6.74854 -2.16943,7.38281c-1.40186,-0.77051 -0.13623,-6.28125 0.31934,-7.63477z" fill="#686767"/><path d="M179.01416,178.47363c0.55518,1.52197 -0.0835,2.84912 -0.61816,4.33447c-0.44238,0.97852 -1.14551,2.41553 -1.45898,3.3999c-0.04541,-2.3877 -0.40137,-2.1123 0.10986,-4.75635c0.37207,-0.78223 1.42236,-2.12842 1.96729,-2.97803z" fill="url(#color-25)"/><path d="M92.52979,239.55176c1.70522,-0.11279 3.3873,0.83057 5.1917,1.33008c6.79395,1.88086 13.95659,4.12939 21.06973,4.20117c1.20278,0.01172 4.41182,-0.77344 5.76899,-0.97998c-0.81533,2.39941 -1.48608,4.38867 -2.3915,6.8042c-0.38979,1.06348 -0.80186,2.11963 -1.23589,3.16553c-2.63877,-2.50781 -7.4168,-3.5918 -10.29287,-5.26904c-2.70981,-1.5791 -17.41772,-7.24512 -18.11016,-9.25195z" fill="url(#color-26)"/><path d="M178.08984,233.72754c0.7002,-0.56836 1.50586,-1.06787 2.40234,-1.229l0.26514,0.11133c0.34131,1.17773 -0.23437,6.87598 -0.84521,8.20459c-0.35303,0.76465 -1.88818,1.51025 -2.70264,1.91309c0.00439,-1.0708 0.00293,-1.71533 -0.12598,-2.77295c-1.04736,0 -1.49414,-0.0293 -2.5166,0.19922c-0.33984,-0.46143 -0.08936,-2.66309 -0.06152,-3.43799c0.2124,-1.66553 0.98877,-2.15332 2.47559,-2.7334c0.40723,0.01172 0.71777,-0.12598 1.10889,-0.25488z" fill="#ad1e00"/><path d="M178.08984,233.72754c0.00732,0.71338 0.11279,2.17822 -0.36914,2.69971c-0.71631,-0.76758 -0.24316,-1.8501 -0.73975,-2.44482c0.40723,0.01172 0.71777,-0.12598 1.10889,-0.25488z" fill="#530a04"/><path d="M170.49902,234.08057c0.62109,-0.07617 0.48486,-0.1582 0.89941,0.10693c0.04541,0.99316 -1.57178,2.5459 -2.31152,3.21973l0.31641,0.1875c1.91455,-0.06006 3.2666,0.11133 5.10205,-0.87891c-0.02783,0.7749 -0.27832,2.97656 0.06152,3.43799c-0.96826,0.52588 -1.29785,-0.24756 -2.08594,-0.51709c-0.39404,0.9126 -1.53662,2.15186 -2.21045,3.09082c-0.36768,-1.32568 -0.854,-2.86084 -1.48828,-4.08105c-0.36475,-0.69727 -0.42627,-0.66797 -1.06641,-0.85547c-0.70459,-0.10547 -1.14844,-0.0249 -1.36084,-0.74854c0.13623,-0.55225 0.50684,-0.89795 0.87744,-1.33301c1.11035,-0.82031 1.99951,-1.13672 3.2666,-1.62891z" fill="#ad1e00"/><path d="M169.40332,237.59473c1.91455,-0.06006 3.2666,0.11133 5.10205,-0.87891c-0.02783,0.7749 -0.27832,2.97656 0.06152,3.43799c-0.96826,0.52588 -1.29785,-0.24756 -2.08594,-0.51709c-0.04102,-0.62695 -0.00879,-0.98145 -0.28271,-1.5293c-0.73535,-0.61377 -1.74609,-0.19629 -2.79492,-0.5127z" fill="#352521"/><path d="M244.53516,183.04248c0.16699,-0.79395 0.1875,-1.05469 0.76318,-1.59668c-0.97119,3.16553 -2.5708,6.61816 -3.83936,9.69434c-0.4541,1.10156 -0.62402,1.89404 -1.15869,2.9707l-0.09229,-0.15967l0.26807,-0.75586c-2.7085,0.31934 -6.62402,1.36523 -9.3501,2.0127c-0.91406,0.21826 -4.14111,0.65918 -4.7666,0.97705l-0.13477,-0.14648c1.91162,-1.07373 2.77002,-0.60791 5.02002,-1.23926c2.52686,-0.70898 6.8291,-1.48535 9.38672,-2.17236c0.18164,-0.0498 0.54053,-1.79443 1.01221,-2.39941l-0.1582,-0.2417l0.10693,0.0542l0.05273,0.18457c-0.46729,-0.69727 -2.13135,-1.27295 -2.43604,-1.85449l0.0542,-1.00635c-0.56836,-0.33984 -1.79004,-0.73828 -2.04199,-1.37842c3.1377,-0.27686 3.50391,-0.4585 6.48047,-0.99756c0.42773,-0.8042 0.54346,-1.10742 0.8335,-1.94531z" fill="#2d4358"/><path d="M152.18115,146.38286c4.0752,-1.3689 4.87207,-0.58564 8.61035,1.38325c1.46924,0.77344 3.09229,1.57324 4.59229,2.30566c-0.40283,0.72217 -0.40723,0.94482 -0.37939,1.78271c-0.05273,-0.15381 -0.07764,-0.25049 -0.1582,-0.39844c-0.44092,-0.80859 -11.17969,-4.68896 -12.66504,-5.07319z" fill="#352521"/><path d="M62.19141,208.82227l0.21826,0.1333l0.15264,-0.0293c0.87495,0.63574 0.3123,1.2832 0.89194,1.94092c0.25562,-0.2373 0.12129,-0.11865 0.404,-0.35596c0.24683,0.18896 0.12964,0.0791 0.34937,0.33252c1.18374,-0.05273 2.4832,-0.89062 2.91621,-0.82471c0.66914,0.10254 4.33462,2.91943 4.68721,3.40137c0.25269,1.61133 -3.23774,2.0376 -4.00254,1.64209c0.86953,-0.61963 2.93174,0.05713 3.71221,-1.23193c-0.08408,-0.56396 -0.05142,-0.38232 -0.51064,-0.87891c-1.27573,-0.72949 -2.34185,-1.69189 -3.4979,-2.33057c-1.26738,-0.69873 -7.88613,3.4585 -8.82173,1.75342c0.32432,-0.09375 0.41118,-0.12891 0.7396,-0.04248c-0.00381,-0.39111 0.03721,-0.25342 -0.11484,-0.59619c-0.49819,-0.21094 -1.21362,-0.39404 -1.2627,-0.98877c1.57778,-1.57031 2.28047,-1.26123 4.13892,-1.9248z" fill="#2d4358"/><path d="M227.47998,201.81592c0.04541,0.45703 0.36328,0.78955 0.64307,1.1792c0.24316,-0.33545 0.28125,-0.31641 0.62402,-0.58154c0.5874,0.15088 1.17627,0.76465 1.11768,1.39893c-0.38525,0.29004 -1.61426,0.24463 -2.07715,0.10254l-0.18311,-0.10107c-0.03662,-0.65625 0.01758,-0.74707 -0.38379,-1.13672c0.08203,0.54053 0.2915,1.18652 0.07617,1.62158c-0.36475,0.08936 -0.18164,0.09521 -0.55518,-0.10693c-0.32812,-0.76172 0.28857,-1.79443 0.73828,-2.37598z" fill="#2d4358"/><path d="M174.89941,199.01807c0.14355,0.01758 0.46582,0.00293 0.62402,0l0.07178,0.13477l-0.48486,0.34131c-0.14941,-0.05713 -0.33838,-0.09961 -0.49658,-0.14062l-0.02783,-0.22119z" fill="#2d4358"/></g></svg></svg>