<svg id="svg" version="1.1" viewBox="0 0 300 300" width="300" height="300" xmlns="http://www.w3.org/2000/svg"><svg xmlns="http://www.w3.org/2000/svg"><defs><clipPath id="clip-1"><rect x="0" y="0" transform="scale(0.14648,0.14648)" width="2048" height="2048" fill="none"/></clipPath></defs><g clip-path="url(#clip-1)" fill="none" fill-rule="nonzero" stroke="none" stroke-width="1" stroke-linecap="butt" stroke-linejoin="miter" stroke-miterlimit="10" stroke-dasharray="" stroke-dashoffset="0" font-family="none" font-weight="none" font-size="none" text-anchor="none" style="mix-blend-mode: normal"><path d="M0,0h300v300h-300z" fill="#000000"/><path d="M130.97329,18.6813c0.09536,0.01685 0.35786,0.05493 0.43037,0.07617c17.4772,4.93916 33.30483,21.64014 33.59927,40.33564c0.16846,10.6875 -2.45068,13.80688 4.08545,23.78687c-0.79248,-5.44204 -0.97705,-12.36343 1.19238,-17.49229c1.92334,-4.55083 6.36182,-9.28521 10.96143,-11.1457c-4.81787,11.71509 3.05713,20.25791 6.65479,30.61802c5.45801,15.72202 -2.05225,32.15845 -17.21191,38.83843c-1.97168,0.86821 -3.81738,1.43262 -5.85937,2.12007c2.8623,-7.10244 5.05225,-13.1354 1.92188,-20.72197c-1.3125,-3.18281 -2.69531,-5.23975 -5.18848,-7.64106c-3.5918,-3.4585 -6.4043,-5.82041 -8.38184,-10.57778c-2.04932,-4.92905 -2.22363,-13.44434 -0.18018,-18.28315c-2.66162,2.65122 -5.25439,5.17705 -7.75005,7.99292c-3.91729,4.30928 -7.02539,8.16577 -7.65161,14.13633c-0.85825,8.18452 1.41973,13.73335 6.46113,20.0291c-4.47114,0.01304 -8.51382,-0.59312 -11.9499,-3.74634c-2.46636,-2.26318 -3.71382,-5.2144 -3.86104,-8.53096c-2.28779,3.49893 -4.32085,4.85479 -5.00142,9.58066c-1.027,7.13101 3.38716,12.7793 7.43555,18.15249c-2.40454,-0.43301 -5.01211,-0.94395 -7.28086,-1.88364c-8.03496,-3.32827 -14.99297,-8.76211 -18.49014,-16.88423c-3.49702,-7.82856 -3.04321,-17.50195 0.2228,-25.36582c3.98145,-9.58623 8.90786,-15.95112 4.19897,-26.52173c3.84097,1.59082 7.10376,4.31821 9.35054,7.81626c3.23672,5.09165 3.72129,10.78784 2.45171,16.59272c1.07344,-1.87764 1.93081,-4.15576 2.9001,-6.12979c4.39043,-8.94185 9.23979,-17.58442 12.24272,-27.1147c3.15264,-10.00503 -0.49087,-19.31792 -5.30229,-28.03652z" fill="#effe0e"/><path d="M127.57939,179.58838c5.24707,-0.11719 10.75371,-0.03662 16.01602,-0.03662l24.16289,0.03076c-1.28174,3.42773 -2.01855,4.29346 -4.49854,6.91992c-0.54053,2.20605 -0.66211,5.85938 -0.84961,8.25439l-1.08252,13.98779l-1.76514,23.08447c-0.50244,6.21973 -1.08838,12.39844 -1.39307,18.63574c-0.34277,2.82129 -0.41016,6.4248 -0.68408,9.3999l-20.2459,-0.01172c-0.46187,-5.25293 -0.7207,-10.83398 -1.09541,-16.13379l-2.59468,-36.33691c-0.46582,-6.50391 -0.82324,-14.4917 -1.59609,-20.91064c-2.55293,-2.72461 -3.13887,-3.38232 -4.37388,-6.8833z" fill="#effe0e"/><path d="M104.69268,132.33413c4.3626,-0.16216 9.58667,-0.03003 14.01387,-0.03047l26.56465,-0.00146l28.88115,0.00029c2.44482,0 16.36523,-0.30278 17.54004,0.51445c0.35156,0.66064 0.41162,1.41519 0.36621,2.18613c-0.14062,2.38579 -0.20068,5.68828 -1.26855,7.82227c-0.50244,1.0062 -1.9248,2.37817 -2.69092,3.11689c-3.2373,2.64565 -10.23779,1.96597 -14.35547,1.96157l-16.43848,-0.01318l-28.88452,0.00146c-4.94414,0.00146 -9.88916,0.03223 -14.8333,0c-1.7272,-0.03516 -3.60688,-0.2124 -5.22656,-0.87305c-2.92778,-1.19531 -5.26406,-4.59902 -5.48833,-7.73613c-0.14531,-2.03057 -0.06855,-4.17715 0.00513,-6.19014c0.71558,-0.39478 0.99565,-0.58521 1.81509,-0.75864z" fill="#effe0e"/><path d="M114.51035,153.33252c21.93369,0.08203 44.07803,-0.21094 65.98184,0.03955c0.00293,0.60352 -0.00293,1.20703 -0.01758,1.81055c-0.13477,4.20996 -5.16211,8.04199 -8.18994,10.85742c-2.63965,2.55176 -4.10156,4.75928 -5.40381,8.13428c-4.6582,-0.14502 -9.68408,-0.06299 -14.37158,-0.06299l-24.5146,0.00732c-1.90459,-7.06055 -7.44478,-9.90381 -11.86187,-15.02197c-1.46484,-1.69775 -1.5731,-3.61963 -1.62246,-5.76416z" fill="#effe0e"/><path d="M135.35962,264.52734c7.56665,-0.22705 16.83179,-0.0542 24.44019,0.00439c-0.48926,4.57031 0.41016,6.50244 -3.22852,10.27734c-5.02734,4.6333 -13.46265,4.57031 -18.37075,-0.27393c-3.09976,-3.05859 -2.84971,-5.9707 -2.84092,-10.00781z" fill="#effe0e"/></g></svg></svg>