<svg id="svg" version="1.1" viewBox="0 0 300 300" width="300" height="300" xmlns="http://www.w3.org/2000/svg"><rect x="0" y="0" width="300" height="300" fill="#000"/><svg xmlns="http://www.w3.org/2000/svg"><defs><clipPath id="clip-1"><rect x="0" y="0" transform="scale(0.14648,0.14648)" width="2048" height="2048" fill="none"/></clipPath><linearGradient x1="82.22622" y1="184.84863" x2="81.14927" y2="225.78223" gradientUnits="userSpaceOnUse" id="color-1"><stop offset="0" stop-color="#3c8004"/><stop offset="1" stop-color="#71d307"/></linearGradient><linearGradient x1="78.32417" y1="157.88965" x2="83.60244" y2="227.17969" gradientUnits="userSpaceOnUse" id="color-2"><stop offset="0" stop-color="#88f152"/><stop offset="1" stop-color="#d4ff67"/></linearGradient><linearGradient x1="151.85449" y1="184.49121" x2="151.13672" y2="225.3999" gradientUnits="userSpaceOnUse" id="color-3"><stop offset="0" stop-color="#367605"/><stop offset="1" stop-color="#6fcf07"/></linearGradient><linearGradient x1="165.06885" y1="194.4873" x2="155.7876" y2="197.67773" gradientUnits="userSpaceOnUse" id="color-4"><stop offset="0" stop-color="#d9ff4e"/><stop offset="1" stop-color="#faf97c"/></linearGradient><linearGradient x1="191.10498" y1="87.72891" x2="187.05615" y2="130.08735" gradientUnits="userSpaceOnUse" id="color-5"><stop offset="0" stop-color="#2f6f05"/><stop offset="1" stop-color="#6fcf06"/></linearGradient><linearGradient x1="125.88545" y1="88.25771" x2="126.58477" y2="130.09614" gradientUnits="userSpaceOnUse" id="color-6"><stop offset="0" stop-color="#3b7b05"/><stop offset="1" stop-color="#6ece06"/></linearGradient><linearGradient x1="216.97412" y1="184.80176" x2="218.4668" y2="226.33887" gradientUnits="userSpaceOnUse" id="color-7"><stop offset="0" stop-color="#3c7d04"/><stop offset="1" stop-color="#70d107"/></linearGradient><linearGradient x1="227.5957" y1="214.34912" x2="221.70117" y2="215.90625" gradientUnits="userSpaceOnUse" id="color-8"><stop offset="0" stop-color="#cffe54"/><stop offset="1" stop-color="#feffa9"/></linearGradient></defs><g clip-path="url(#clip-1)" fill="none" fill-rule="nonzero" stroke="none" stroke-width="1" stroke-linecap="butt" stroke-linejoin="miter" stroke-miterlimit="10" stroke-dasharray="" stroke-dashoffset="0" font-family="none" font-weight="none" font-size="none" text-anchor="none" style="mix-blend-mode: normal"><path d="M48.95859,164.0083c-0.08335,-2.51953 -0.29692,-18.56807 0.20493,-20.23623c1.35439,-1.04546 4.61792,-0.73813 6.35376,-0.74385c2.0584,-0.00674 4.33198,-0.03999 6.38101,0.07998l22.84014,0.02534c2.59687,-0.00776 9.43447,-0.20757 11.82627,0.07031c3.4894,0.32329 7.97871,2.09385 10.62598,4.39087c3.84331,2.39795 6.98862,8.56494 6.64351,13.0166c0.22749,2.74072 0.07192,6.00293 0.03267,8.80518c-0.09653,6.8877 -4.18286,11.71143 -10.00181,14.68506c4.01572,1.61865 7.53926,4.78711 9.22456,8.80811c0.56646,1.3374 0.95859,2.74219 1.16719,4.1792c0.49629,3.63428 0.44253,16.64648 -1.80527,19.25391c-2.23374,4.87354 -7.14082,8.56934 -12.38789,9.58594c-2.13984,0.95215 -10.70977,0.86719 -13.29478,0.69141c-0.66606,0.08936 -3.03267,0.03662 -3.87642,0.03662l-7.97168,-0.00293c-3.47549,-0.00146 -23.91841,0.25342 -25.35762,-0.29004c-0.3167,-0.39404 -0.47153,-0.4585 -0.48223,-0.97705c-0.05713,-2.7832 -0.03794,-5.60889 -0.03706,-8.39062l0.01436,-16.40039c0.00513,-12.02783 -0.33135,-24.6416 -0.09961,-36.5874zM72.66226,164.47412c0.0791,1.76807 0.22017,3.32666 0.22544,5.12256c0.00425,1.40039 -0.05918,3.44385 0.11675,4.76953c0.202,0.25488 0.16025,0.29883 0.59443,0.33105c2.44131,0.18018 5.02368,0.00732 7.48052,0.01172c2.09092,-0.08496 4.21846,0.13916 6.30381,-0.03809c2.50371,-0.28711 3.91187,-0.75146 3.94468,-3.59326c0.05347,-4.64795 0.19893,-7.15137 -5.09399,-7.34619c-2.82539,0.06299 -5.65166,0.07764 -8.47749,0.04102c-1.39966,-0.00439 -2.83579,-0.07764 -4.22329,0.08057c-0.4043,0.04688 -0.62637,0.33691 -0.87085,0.62109zM72.67061,206.64111c0.84009,0.3252 1.03389,0.35303 1.93652,0.30176c1.24775,-0.43945 7.34663,-0.09521 9.20259,-0.17432c3.10049,-0.1333 3.91128,0.375 6.85562,-1.27734c0.19233,-0.33691 0.61509,-1.13232 0.57231,-1.51172c-0.46655,-3.98584 1.58335,-9.95068 -4.52842,-10.09424c-1.98237,-0.04687 -12.71367,-0.53027 -13.85493,0.34277c0.16626,1.91895 0.15835,10.85889 -0.18369,12.41309z" fill="url(#color-1)"/><path d="M48.95859,164.0083c-0.08335,-2.51953 -0.29692,-18.56807 0.20493,-20.23623c1.35439,-1.04546 4.61792,-0.73813 6.35376,-0.74385c2.0584,-0.00674 4.33198,-0.03999 6.38101,0.07998l22.84014,0.02534c2.59687,-0.00776 9.43447,-0.20757 11.82627,0.07031c3.4894,0.32329 7.97871,2.09385 10.62598,4.39087c3.84331,2.39795 6.98862,8.56494 6.64351,13.0166l-0.17944,0.17578c-0.23994,4.72998 1.41035,13.45313 -5.13179,14.50195l-0.25356,-0.07764c-0.25107,-0.50244 -0.07178,-0.39111 -0.45557,-0.55811l-0.59224,0.23584c-0.25005,-0.1875 -0.78618,-0.82324 -0.90015,-0.87744c-1.28115,-0.61377 -3.00557,-2.00391 -1.28511,-3.31641c0.29502,-0.22559 0.68335,-1.604 0.62651,-2.02441l-0.50347,-0.33691c0.00688,-0.27979 0.02358,-0.20947 0.17607,-0.49072c-0.10957,-0.52588 -0.52749,-1.11182 -0.96812,-1.32568c-1.25581,-0.60937 -2.89263,-1.10596 -4.223,-1.54687c-1.18081,-0.39258 -2.77866,0.35303 -4.00356,-0.2373c-0.91699,-0.44238 -2.76797,-0.46582 -3.73491,-0.68262c-1.05322,-0.23437 -2.40425,-1.08838 -3.50991,-1.08252c-0.8666,0.00293 -1.29126,0.64453 -2.25967,0.5332c-0.09888,-0.01172 -0.81914,-0.04102 -0.91743,0.04248c0.40605,0.0542 0.2625,-0.04248 0.51504,0.1875c-2.82539,0.06299 -5.65166,0.07764 -8.47749,0.04102c-1.39966,-0.00439 -2.83579,-0.07764 -4.22329,0.08057c-0.4043,0.04688 -0.62637,0.33691 -0.87085,0.62109c-0.02197,-0.07471 0.00176,-0.02051 -0.1229,-0.19043c-0.64409,3.26367 -1.01616,5.85938 -0.7333,9.15967c0.06123,0.71484 0.45469,1.62598 0.06357,2.19727l-0.22852,-0.40283c-0.21401,0.30908 -0.18691,0.3252 -0.52793,0.46436c-5.57593,-0.18604 -3.08877,-4.92773 -7.2895,-6.61816c-0.74253,-0.29883 -1.21406,-0.60498 -1.41387,-1.33887c-0.47153,-0.25049 -0.71733,-0.32812 -1.17275,-0.50977c-1.6314,-0.76758 -2.77617,-0.4585 -4.39072,-0.34277c-1.21245,0.08789 -1.40728,0.33398 -2.35474,0.49805c-1.46294,-1.19531 -3.19321,-0.8877 -4.02407,-3.16699c-0.35889,-0.98437 -0.72407,-3.24756 -1.03491,-4.00781c-0.39316,0.29736 -0.23335,2.99268 -0.47402,3.79248z" fill="#93ea49"/><path d="M61.89829,143.1082l22.84014,0.02534c2.59687,-0.00776 9.43447,-0.20757 11.82627,0.07031c-0.52676,0.01978 -2.12739,-0.00176 -2.41919,0.22236l0.03691,0.10913c-1.00957,0.06724 -2.98755,-0.04629 -4.08896,-0.04453l-9.88916,0.07983c-3.56382,0.0022 -15.97148,0.38027 -18.30601,-0.46245z" fill="#d9fc66"/><path d="M96.5647,143.20386c3.4894,0.32329 7.97871,2.09385 10.62598,4.39087c-0.51958,0.04248 -2.09619,-1.02979 -2.64243,-1.33916c-3.41177,-1.93066 -6.4752,-2.65825 -10.36582,-2.72021l-0.03691,-0.10913c0.2918,-0.22412 1.89243,-0.20259 2.41919,-0.22236z" fill="#fafbb0"/><path d="M48.95859,164.0083c0.24067,-0.7998 0.08086,-3.49512 0.47402,-3.79248c0.31084,0.76025 0.67603,3.02344 1.03491,4.00781c0.83086,2.2793 2.56113,1.97168 4.02407,3.16699c0.94746,-0.16406 1.14229,-0.41016 2.35474,-0.49805c1.61455,-0.11572 2.75933,-0.4248 4.39072,0.34277c0.45542,0.18164 0.70122,0.25928 1.17275,0.50977c0.1998,0.73389 0.67134,1.04004 1.41387,1.33887c4.20073,1.69043 1.71357,6.43213 7.2895,6.61816c0.34102,-0.13916 0.31392,-0.15527 0.52793,-0.46436l0.22852,0.40283c0.39111,-0.57129 -0.00234,-1.48242 -0.06357,-2.19727c-0.28286,-3.30029 0.08921,-5.896 0.7333,-9.15967c0.12466,0.16992 0.10093,0.11572 0.1229,0.19043c0.0791,1.76807 0.22017,3.32666 0.22544,5.12256c0.00425,1.40039 -0.05918,3.44385 0.11675,4.76953c0.202,0.25488 0.16025,0.29883 0.59443,0.33105c2.44131,0.18018 5.02368,0.00732 7.48052,0.01172c2.09092,-0.08496 4.21846,0.13916 6.30381,-0.03809c2.50371,-0.28711 3.91187,-0.75146 3.94468,-3.59326c0.05347,-4.64795 0.19893,-7.15137 -5.09399,-7.34619c-0.25254,-0.22998 -0.10898,-0.1333 -0.51504,-0.1875c0.09829,-0.0835 0.81855,-0.0542 0.91743,-0.04248c0.96841,0.11133 1.39307,-0.53027 2.25967,-0.5332c1.10566,-0.00586 2.45669,0.84814 3.50991,1.08252c0.96694,0.2168 2.81792,0.24023 3.73491,0.68262c1.2249,0.59033 2.82275,-0.15527 4.00356,0.2373c1.33037,0.44092 2.96719,0.9375 4.223,1.54688c0.44062,0.21387 0.85854,0.7998 0.96812,1.32568c-0.15249,0.28125 -0.16919,0.21094 -0.17607,0.49072l0.50347,0.33691c0.05684,0.42041 -0.33149,1.79883 -0.62651,2.02441c-1.72046,1.3125 0.00396,2.70264 1.28511,3.31641c0.11396,0.0542 0.6501,0.68994 0.90015,0.87744l0.59224,-0.23584c0.38379,0.16699 0.20449,0.05566 0.45557,0.55811l0.25356,0.07764c6.54214,-1.04883 4.89185,-9.77197 5.13179,-14.50195l0.17944,-0.17578c0.22749,2.74072 0.07192,6.00293 0.03267,8.80518c-0.09653,6.8877 -4.18286,11.71143 -10.00181,14.68506c4.01572,1.61865 7.53926,4.78711 9.22456,8.80811c0.56646,1.3374 0.95859,2.74219 1.16719,4.1792c0.49629,3.63428 0.44253,16.64648 -1.80527,19.25391c-0.42642,0.06885 -0.40737,0.03223 -0.78867,0.19775c1.58496,-6.58447 1.90591,-13.68604 1.00312,-20.48584c-0.2376,-1.78857 -1.98149,-5.51953 -3.52954,-6.54053c-0.49526,-0.22412 -1.30093,-0.84961 -1.74946,-1.20264c-1.97666,-1.55273 -4.60459,-3.04541 -7.19883,-3.0791c-8.62456,-0.11426 -17.27739,0.19336 -25.89917,-0.17432c-0.90234,-0.03955 -1.59419,0.01025 -2.44834,-0.33252c-0.95581,-0.12158 -8.60581,-0.08496 -9.65581,-0.01172c-3.29634,0.61377 -7.44463,0.09961 -10.84175,0.34131c-0.08394,0.45557 -0.18794,1.2085 -0.37295,1.60693c-0.3624,1.41797 -0.18955,8.06982 -0.29341,9.94336c-0.18677,3.7207 -0.09053,7.41504 -0.18281,11.13721c-0.11777,4.7417 -0.27949,9.52734 -0.26382,14.27344c0.00293,0.89063 0.01187,3.11133 1.18916,3.18604c11.6209,0.73535 23.43516,-0.06152 35.08564,0.24609l0.18164,0.05127c2.32061,0.62109 9.19775,-0.09082 10.10581,0.79102c-2.5623,0.10254 -7.93521,-0.36768 -10.02349,0.32959c-0.66606,0.08936 -3.03267,0.03662 -3.87642,0.03662l-7.97168,-0.00293c-3.47549,-0.00146 -23.91841,0.25342 -25.35762,-0.29004c-0.3167,-0.39404 -0.47153,-0.4585 -0.48223,-0.97705c-0.05713,-2.7832 -0.03794,-5.60889 -0.03706,-8.39062l0.01436,-16.40039c0.00513,-12.02783 -0.33135,-24.6416 -0.09961,-36.5874z" fill="url(#color-2)"/><path d="M71.84063,184.72559l16.11694,0.11426l7.97065,-0.01758c1.80718,-0.00293 4.19092,-0.11719 5.91562,0.26074c2.36382,0.52002 5.77939,2.52979 7.29258,4.43115c-0.49526,-0.22412 -1.30093,-0.84961 -1.74946,-1.20264c-1.97666,-1.55273 -4.60459,-3.04541 -7.19883,-3.0791c-8.62456,-0.11426 -17.27739,0.19336 -25.89917,-0.17432c-0.90234,-0.03955 -1.59419,0.01025 -2.44834,-0.33252z" fill="#175202"/><path d="M50.91138,184.67139c2.93438,-0.16553 8.19858,0.0249 11.27344,0.04248c-3.29634,0.61377 -7.44463,0.09961 -10.84175,0.34131c-0.08394,0.45557 -0.18794,1.2085 -0.37295,1.60693c0.00659,-0.64453 -0.03398,-1.34326 -0.05874,-1.99072z" fill="#175202"/><path d="M79.05469,176.39209c0.93472,0.0542 5.28135,0.68701 5.82349,1.25244l-0.11572,0.23145c-0.41118,0.07471 -0.20229,0.06445 -0.7166,-0.28564c-0.33413,0.33838 -0.65127,0.48779 -1.06069,0.72363c-0.39478,-0.12012 -0.36768,-0.11279 -0.7793,-0.06885l-0.09946,0.22559c0.57803,0.14795 0.7645,0.09521 1.01177,0.60791c-0.20933,0.87598 -2.80547,1.08838 -3.45425,0.89941l-0.05552,0.1875l-0.24507,-0.08789c0.55151,-0.61084 0.93062,-0.82324 1.25947,-1.57178c-0.32607,0.38232 -0.46157,0.57275 -0.946,0.53027l-0.21753,-0.28418c-0.09463,0.69727 -0.04849,1.11621 -0.70649,1.43555c-0.59136,-0.08643 -0.85518,-0.24902 -1.38691,-0.46729c-0.4979,-0.20508 0.02344,0.45117 -0.73433,-0.03076c-0.05479,-0.5376 -0.09932,-0.6958 0.02725,-1.23193c0.38408,-0.01611 0.26733,0.00439 0.61963,-0.10547l-0.44004,-0.03516c-0.50522,-0.36475 -0.64658,-0.43652 -1.02905,-0.9126c0.18911,-0.48926 0.04614,-0.2666 0.53394,-0.62402c0.74414,-0.04102 1.93506,-0.26367 2.71143,-0.38818z" fill="#9ef351"/><path d="M80.07847,181.79004c1.14316,-0.25635 2.69048,0.24316 3.79878,0.62988l0.09346,0.27539c-0.37339,0.40137 -0.80786,0.17871 -1.37681,0.46582c-1.05322,-0.02344 -3.68408,0.66504 -4.47319,-0.10693l0.05112,-0.31201c0.6665,-0.82471 0.80918,-0.75879 1.90664,-0.95215z" fill="#9ef351"/><path d="M86.50488,225.44824c3.44253,-0.09521 7.61572,0.22119 10.8958,-0.05273c1.47627,-0.12451 4.95601,-1.29932 6.92637,-1.63477c-0.82383,0.50537 -4.16074,1.60254 -4.26343,2.16797c-2.13984,0.95215 -10.70977,0.86719 -13.29478,0.69141c2.08828,-0.69727 7.46118,-0.22705 10.02349,-0.32959c-0.90806,-0.88184 -7.78521,-0.16992 -10.10581,-0.79102z" fill="#9ef351"/><path d="M111.66284,216.54053c0.3813,-0.16553 0.36226,-0.12891 0.78867,-0.19775c-2.23374,4.87354 -7.14082,8.56934 -12.38789,9.58594c0.10269,-0.56543 3.4396,-1.6626 4.26343,-2.16797c2.98301,-1.67725 5.94038,-3.9917 7.33579,-7.22021z" fill="#fafbb0"/><path d="M71.44849,193.24365c0.21445,-0.20068 0.496,-0.45996 0.80493,-0.48633c4.10625,-0.35449 8.87007,-0.10547 12.9334,-0.1377c8.75508,-0.07178 7.32349,5.19434 7.20645,11.72021c-0.19351,3.13916 -3.35259,4.00342 -6.00439,3.57861c-2.56245,-0.41016 -5.14424,-0.25195 -7.72617,-0.2168c-1.39614,0.01904 -2.42988,-0.20508 -3.82808,0.09814c-1.53076,0.36475 -3.4749,0.57715 -3.49658,-1.56592c0.25869,-3.84961 0.22529,-9.0835 0.11045,-12.99023zM72.67061,206.64111c0.84009,0.3252 1.03389,0.35303 1.93652,0.30176c1.24775,-0.43945 7.34663,-0.09521 9.20259,-0.17432c3.10049,-0.1333 3.91128,0.375 6.85562,-1.27734c0.19233,-0.33691 0.61509,-1.13232 0.57231,-1.51172c-0.46655,-3.98584 1.58335,-9.95068 -4.52842,-10.09424c-1.98237,-0.04687 -12.71367,-0.53027 -13.85493,0.34277c0.16626,1.91895 0.15835,10.85889 -0.18369,12.41309z" fill="#d9fc66"/><path d="M71.33804,206.23389c0.25869,-3.84961 0.22529,-9.0835 0.11045,-12.99023c0.26235,0.71924 0.32827,0.94922 1.16792,1.13379l0.23789,-0.14941c0.16626,1.91895 0.15835,10.85889 -0.18369,12.41309c0.84009,0.3252 1.03389,0.35303 1.93652,0.30176l0.2502,0.14209l-0.07939,0.11572l0.05669,0.59912c-1.53076,0.36475 -3.4749,0.57715 -3.49658,-1.56592z" fill="#d9fc66"/><path d="M71.33804,206.23389l0.29502,0.02637c0.05947,0.61963 0.0939,0.71631 0.42378,1.24219l0.28433,0.11426l0.34512,-0.24902l0.01538,-0.19629c-0.4043,-0.17578 -0.4752,-0.19482 -0.90615,-0.2959l0.19307,-0.30615l0.30337,0.19922l0.17417,-0.13477c0.00352,-0.40723 -0.03735,-0.57422 0.0917,-0.94775l-0.01992,0.00439c0.18091,0.50977 0.05171,0.50244 0.13271,0.95068c0.84009,0.3252 1.03389,0.35303 1.93652,0.30176l0.2502,0.14209l-0.07939,0.11572l0.05669,0.59912c-1.53076,0.36475 -3.4749,0.57715 -3.49658,-1.56592z" fill="#e9f780"/><path d="M145.07754,143.15625c2.33555,-0.03076 4.87705,-0.06284 7.20615,-0.00205c4.64795,-0.01963 9.93164,-0.13857 14.5459,0.03369c3.19922,0.37324 7.52783,2.04521 10.0166,4.10361c2.68213,1.56299 5.07129,4.77979 6.1582,7.70068c0.46729,1.1543 0.78223,1.76074 0.93311,3.00439c0.4248,3.50244 0.15967,6.8833 0.22119,10.34033c0.07324,4.05469 0.05127,8.07422 0.08496,12.11719c0.0293,3.50977 0.37646,7.23193 0.2124,10.81201c-0.03955,0.84229 0.04688,2.92676 -0.08496,3.66504c0.0791,2.25732 0.03809,4.52637 0.05273,6.78369c0.03076,4.83398 0.12158,10.29639 -2.39795,14.60449c-3.14209,5.0332 -6.45557,8.1123 -12.44238,9.64893c-2.04785,1.01953 -12.94189,0.68262 -15.67969,0.7002c-3.62842,0.05566 -7.25684,0.06152 -10.88452,0.01758c-3.25649,-0.0249 -7.246,0.13916 -10.304,-1.03125c-3.51372,-0.67383 -7.50103,-3.43213 -9.81577,-6.26807c-1.66831,-2.28662 -3.42876,-5.50342 -3.83672,-8.29395c0.02915,0.19922 0.06621,-0.71924 0.06606,-0.6665c-0.29487,-0.58887 -0.45073,-1.03125 -0.46641,-1.70068c-0.08276,-3.54785 -0.05581,-7.16162 -0.05947,-10.70801l0.17798,-23.98096c0.05889,-5.37891 -0.87964,-11.6748 0.25693,-16.96289c0.38979,-3.00146 3.29854,-7.125 5.68125,-8.88867c5.75024,-5.4939 13.14038,-5.09692 20.3584,-5.02881zM146.10088,206.729c3.68232,-0.02051 8.89131,0.24023 12.31318,-0.52148c3.27979,-1.30078 2.51367,-4.22168 2.6543,-7.18506c0.06592,-1.41064 -0.00146,-2.84766 0.04102,-4.27002c-0.16113,-1.77686 -0.05713,-5.00391 -0.06592,-6.88477c-0.04834,-4.51465 -0.03662,-9.03076 0.03809,-13.54541c0.05566,-2.30566 0.46582,-4.76221 0.19922,-7.05322c-0.09814,-0.84668 -0.33105,-1.61719 -0.85986,-2.29687c-0.84668,-1.08984 -2.18848,-1.396 -3.49658,-1.54248c-2.33643,-0.26221 -12.4437,-0.31494 -13.99028,1.06494c-0.61758,0.55078 -0.81299,1.74023 -0.90996,2.51514c-0.26177,2.0918 -0.06768,4.40332 -0.06665,6.52441l-0.02578,13.31982c0.08687,3.01025 0.10298,6.02344 0.04834,9.03369c-0.03677,2.56201 -0.20698,5.33936 0.08584,7.86035c0.18765,1.61572 2.55879,2.91064 4.03506,2.98096z" fill="#9ef351"/><path d="M120.26748,184.53955c1.78975,0.08936 3.58096,0.14502 5.3729,0.16699c2.4479,-0.17432 6.03311,0.03809 8.58135,-0.00732c1.39893,-0.0249 4.98486,-0.1084 6.12817,0.02051c0.18691,0.3999 0.13784,0.7002 0.13081,1.14551c0.27729,-0.375 0.25869,-0.44824 0.68657,-0.57422c0.77183,0.32959 0.57832,0.84814 0.76436,1.56299c0.08687,3.01025 0.10298,6.02344 0.04834,9.03369c-0.03677,2.56201 -0.20698,5.33936 0.08584,7.86035c0.18765,1.61572 2.55879,2.91064 4.03506,2.98096c3.68232,-0.02051 8.89131,0.24023 12.31318,-0.52148c3.27979,-1.30078 2.51367,-4.22168 2.6543,-7.18506c0.06592,-1.41064 -0.00146,-2.84766 0.04102,-4.27002c0.24756,-2.02002 -0.37939,-9.24756 0.58447,-10.29492c0.66211,0.60645 0.62256,1.22607 0.72656,2.09766l-0.00439,-2.00537l4.55859,0.18896c1.11768,0.53174 13.37549,0.27686 15.35596,0.26367c0.06738,1.13086 0.16113,4.28467 0.49219,5.17969l0.19629,0.53174c-0.13623,1.56885 -0.01904,3.47021 -0.05713,5.06982c-0.17285,7.27148 0.71484,12.75293 -1.28613,19.83398l0.3501,0.70166c-3.14209,5.0332 -6.45557,8.1123 -12.44238,9.64893c-2.04785,1.01953 -12.94189,0.68262 -15.67969,0.7002c-3.62842,0.05566 -7.25684,0.06152 -10.88452,0.01758c-3.25649,-0.0249 -7.246,0.13916 -10.304,-1.03125l0.03325,-0.11865c-0.41528,-0.69141 -4.56562,-1.14697 -4.4064,-2.53125c-0.11323,-0.08057 -0.22456,-0.1626 -0.33413,-0.24756c-1.18125,-0.90527 -2.29819,-2.17529 -3.39976,-3.19336c-3.00835,-2.78027 -3.91069,-6.62402 -4.41724,-10.57471c0.13271,-0.56982 0.0854,-4.00195 0.08438,-4.7417c-0.02241,-3.50537 -0.01597,-7.00928 0.01904,-10.51465c-0.03428,-2.74951 0.20068,-6.6167 -0.02695,-9.19336z" fill="url(#color-3)"/><path d="M128.34214,223.00488c2.49844,1.31689 5.70264,2.62207 8.58911,2.45508c0.79365,0.09668 1.48931,0.09814 2.28325,0.11426c4.55903,0.08789 9.10093,-0.14795 13.66099,-0.15527c4.45605,0.39697 9.18896,-0.04248 13.67578,0.26514c1.04443,0.07178 2.66016,-0.25928 3.72363,-0.45117l-0.8291,0.41602l-0.05713,0.19482l0.19482,0.12451c-2.04785,1.01953 -12.94189,0.68262 -15.67969,0.7002c-3.62842,0.05566 -7.25684,0.06152 -10.88452,0.01758c-3.25649,-0.0249 -7.246,0.13916 -10.304,-1.03125l0.03325,-0.11865c-0.41528,-0.69141 -4.56562,-1.14697 -4.4064,-2.53125z" fill="#d9fc66"/><path d="M140.48071,185.86523c0.27729,-0.375 0.25869,-0.44824 0.68657,-0.57422c0.77183,0.32959 0.57832,0.84814 0.76436,1.56299c0.08687,3.01025 0.10298,6.02344 0.04834,9.03369c-0.03677,2.56201 -0.20698,5.33936 0.08584,7.86035c0.18765,1.61572 2.55879,2.91064 4.03506,2.98096c1.11592,0.43652 3.15937,0.20508 4.48506,0.39844c-1.00928,0.02783 -2.20898,0.0498 -3.19775,0.14941c-1.04297,0.104 -1.76851,0.30615 -2.86362,0.33105c-4.00869,-0.90967 -3.94233,-3.01318 -3.94526,-6.49219c-0.00425,-5.04346 0.10942,-10.22314 -0.09858,-15.25049z" fill="#d9fc66"/><path d="M161.10938,194.75244c0.24756,-2.02002 -0.37939,-9.24756 0.58447,-10.29492c0.66211,0.60645 0.62256,1.22607 0.72656,2.09766l0.01465,9.88184c-0.00293,3.90381 0.90381,9.21973 -3.37207,10.96289c-0.4541,-0.34717 -0.47754,-0.64014 -0.64893,-1.19238c3.27979,-1.30078 2.51367,-4.22168 2.6543,-7.18506c0.06592,-1.41064 -0.00146,-2.84766 0.04102,-4.27002z" fill="url(#color-4)"/><path d="M146.10088,206.729c3.68232,-0.02051 8.89131,0.24023 12.31318,-0.52148c0.17139,0.55225 0.19482,0.84521 0.64893,1.19238c-2.11084,0.65332 -4.84131,0.29883 -7.08398,0.26074c-2.21924,-0.03809 -5.30273,0.2915 -7.45444,-0.05273c1.09512,-0.0249 1.82065,-0.22705 2.86362,-0.33105c0.98877,-0.09961 2.18848,-0.12158 3.19775,-0.14941c-1.32568,-0.19336 -3.36914,0.03809 -4.48506,-0.39844z" fill="#e9f780"/><path d="M181.67578,215.61768l0.3501,0.70166c-3.14209,5.0332 -6.45557,8.1123 -12.44238,9.64893l-0.19482,-0.12451l0.05713,-0.19482l0.8291,-0.41602c5.55615,-1.99512 8.57373,-4.49414 11.40088,-9.61523z" fill="#fafbb0"/><path d="M120.26748,184.53955c1.78975,0.08936 3.58096,0.14502 5.3729,0.16699c-1.00518,0.38818 -4.71489,0.16992 -4.79692,0.63428c-0.52354,2.95605 0.31758,7.69482 -0.24771,10.55859l-0.02124,0.00586l0.0334,-0.22705l-0.16392,-0.18896c-0.03823,-0.60059 -0.06724,-1.15723 -0.14956,-1.75635c-0.03428,-2.74951 0.20068,-6.6167 -0.02695,-9.19336z" fill="#175202"/><path d="M136.93125,225.45996c2.29248,-0.15527 4.41782,0.03223 6.74839,-0.32227c1.82666,-0.27686 7.54351,-0.32812 9.19585,0.28125c-4.56006,0.00732 -9.10195,0.24316 -13.66099,0.15527c-0.79395,-0.01611 -1.4896,-0.01758 -2.28325,-0.11426z" fill="#93ea49"/><path d="M145.07754,143.15625c2.33555,-0.03076 4.87705,-0.06284 7.20615,-0.00205c4.64795,-0.01963 9.93164,-0.13857 14.5459,0.03369c3.19922,0.37324 7.52783,2.04521 10.0166,4.10361c2.68213,1.56299 5.07129,4.77979 6.1582,7.70068l-0.25635,0.09521c-0.04248,0.49072 0.02344,0.45703 0.12744,0.88916c0.39404,1.62598 0.04834,3.15967 -0.84961,4.51172c-3.60791,1.30225 -9.3501,-1.89111 -13.54834,-2.05811c-0.61523,-0.02344 -7.85889,1.24658 -8.67773,1.47803c-1.13525,0.32373 -2.1958,1.03418 -3.35742,1.24512c-3.3999,0.6167 -8.15332,-0.29297 -11.87739,0.07031c-1.47407,0.14355 -3.86909,1.56299 -5.23184,0.93896c-0.48765,-0.22266 -0.97148,-0.50098 -1.42749,-0.78223c-0.91729,-0.56543 -9.43711,-1.46631 -10.89624,-1.48242c-1.12046,-0.01172 -2.18906,0.40576 -3.28184,0.41162c-0.66167,0.00293 -1.32378,-0.26367 -1.98911,-0.30762c-1.08501,-1.08984 -1.39219,-3.65918 -1.95645,-4.19385c-0.32476,0.48779 -0.29619,0.85693 -0.74414,1.26563c0.38979,-3.00146 3.29854,-7.125 5.68125,-8.88867c5.75024,-5.4939 13.14038,-5.09692 20.3584,-5.02881z" fill="#93ea49"/><path d="M124.71914,148.18506c5.75024,-5.4939 13.14038,-5.09692 20.3584,-5.02881c0.84873,0.21577 1.55771,0.19731 2.41172,0.29077c-1.64795,-0.00952 -3.39126,0.15293 -4.99526,0.11206c-4.75884,-0.12085 -8.64507,-0.07617 -13.04502,2.07158c-1.34399,0.6561 -3.16978,1.75605 -4.48652,2.64668c-0.08101,-0.03076 -0.16216,-0.06152 -0.24331,-0.09229z" fill="#e9f780"/><path d="M152.28369,143.1542c4.64795,-0.01963 9.93164,-0.13857 14.5459,0.03369c-0.59473,-0.01069 -1.57178,-0.07764 -2.10791,0.07705l-0.12891,0.28389c-1.50146,0.12554 -5.39355,0.02944 -7.01074,0.01436c-2.2251,-0.02095 -6.31787,0.10313 -8.41113,-0.12437c0.1377,-0.08569 2.4917,-0.12041 3.11279,-0.28462z" fill="#d9fc66"/><path d="M164.59277,143.54883l0.12891,-0.28389c0.53613,-0.15469 1.51318,-0.08774 2.10791,-0.07705c3.19922,0.37324 7.52783,2.04521 10.0166,4.10361l-0.03662,0.03662c-0.76025,-0.06152 -2.26904,-1.19106 -3.07764,-1.56592c-3.29004,-1.52637 -5.57373,-2.13999 -9.13916,-2.21338z" fill="#e9f780"/><path d="M119.12886,210.42627c0.02695,-0.72949 0.00439,-1.59375 0.0019,-2.3335c0.04204,0.04688 1.17188,7.76953 2.87271,9.48486l0.21929,-0.09229c0.08716,-0.56689 -2.41509,-5.62646 -2.054,-8.354c0.0063,-0.04834 0.01479,-0.09521 0.02227,-0.14209c0.50654,3.95068 1.40889,7.79443 4.41724,10.57471c1.10156,1.01807 2.21851,2.28809 3.39976,3.19336c0.10957,0.08496 0.2209,0.16699 0.33413,0.24756c-0.15923,1.38428 3.99111,1.83984 4.4064,2.53125l-0.03325,0.11865c-3.51372,-0.67383 -7.50103,-3.43213 -9.81577,-6.26807c-1.66831,-2.28662 -3.42876,-5.50342 -3.83672,-8.29395c0.02915,0.19922 0.06621,-0.71924 0.06606,-0.6665z" fill="#e9f780"/><path d="M183.01904,190.71387l0.03662,0.27686c0.62549,4.99365 -0.03223,10.78125 0.16992,15.8584c0.04102,1.021 -0.23291,2.31445 -0.24463,3.36475c-0.01025,0.92578 0.12891,0.6416 0.4248,1.42383l0.12012,-0.12451c-0.01904,-0.08936 -0.04102,-0.17871 -0.05713,-0.26953c-0.0498,-0.27393 -0.02051,-0.40869 0.08643,-0.65918c1.02832,-2.39941 0.54053,-16.07959 0.61377,-19.78271c0.01172,0.62256 -0.00439,3.81445 0.20215,4.12939c0.0791,2.25732 0.03809,4.52637 0.05273,6.78369c0.03076,4.83398 0.12158,10.29639 -2.39795,14.60449l-0.3501,-0.70166c2.00098,-7.08105 1.11328,-12.5625 1.28613,-19.83398c0.03809,-1.59961 -0.0791,-3.50098 0.05713,-5.06982z" fill="#d9fc66"/><path d="M166.97461,184.73877c5.2251,0 10.60986,-0.1377 15.76611,-0.11865c-0.1084,1.90576 0.06738,3.66797 0.08203,5.56201c-0.33105,-0.89502 -0.4248,-4.04883 -0.49219,-5.17969c-1.98047,0.01318 -14.23828,0.26807 -15.35596,-0.26367z" fill="#0a2e01"/><path d="M181.65967,46.46396c1.12207,-0.32153 6.60645,-0.21753 8.01855,-0.19775c3.08203,0.04292 6.56396,-0.06519 9.62549,0.05713c0.65039,-0.01055 0.92432,-0.03604 1.52344,0.24038c0.23438,0.13799 0.64746,0.33574 0.63574,0.67163c-0.50391,13.59814 0,27.42012 -0.28564,41.00508l0.00293,27.40005l-0.00146,8.80503c-0.00146,1.87998 -0.08203,4.00884 0.11719,5.85586c-0.00732,0.38247 -0.00293,0.27363 -0.11719,0.65068c-0.17725,0.196 -0.39404,0.42627 -0.67529,0.43916c-3.90967,0.179 -8.11377,0.22471 -12.00732,0.06519c-1.65674,-0.06797 -10.75488,0.36182 -11.70117,-0.36694c-0.22266,-0.48896 -0.13623,-1.09702 -0.11572,-1.65132c-0.15234,-2.14351 -0.05566,-3.88784 -0.04834,-6.02241c-0.01465,-2.87271 0.00293,-5.74556 0.05273,-8.61782c-0.08643,-1.00869 -0.04687,-2.78965 -0.07764,-3.86455c-0.14795,-3.99917 -0.12305,-8.00288 0.07471,-11.99985l0.06592,-17.2188c-0.00439,-3.51577 -0.2915,-9.16377 0.41309,-12.42832c-2.13574,0.96855 -10.77686,6.24097 -12.59473,5.95869c-0.09814,-0.12173 -0.12451,-0.1415 -0.19629,-0.3063c-0.7207,-1.63901 -0.54785,-16.43701 0.05566,-18.33003c0.19775,-0.61611 0.55371,-1.13511 1.12646,-1.448c1.29785,-1.11636 7.19971,-3.77549 9.09375,-4.84863c1.24365,-0.7043 5.99414,-3.48018 7.01514,-3.84814z" fill="#93ea49"/><path d="M178.52051,88.91045l0.16406,-0.30483c0.33398,-0.21372 0.7002,-0.2644 1.08838,-0.25181c3.23291,0.10503 6.73389,0.07749 9.92432,0.098c1.82959,0.01172 8.18994,-0.33867 9.58008,-0.05317l0.19922,0.1125c0.77051,-0.00293 0.93604,-0.0709 1.70068,-0.2707l0.00293,27.40005l-0.00146,8.80503c-0.00146,1.87998 -0.08203,4.00884 0.11719,5.85586c-0.00732,0.38247 -0.00293,0.27363 -0.11719,0.65068c-0.17725,0.196 -0.39404,0.42627 -0.67529,0.43916c-3.90967,0.179 -8.11377,0.22471 -12.00732,0.06519c-1.65674,-0.06797 -10.75488,0.36182 -11.70117,-0.36694c-0.22266,-0.48896 -0.13623,-1.09702 -0.11572,-1.65132c-0.15234,-2.14351 -0.05566,-3.88784 -0.04834,-6.02241c-0.01465,-2.87271 0.00293,-5.74556 0.05273,-8.61782c-0.08643,-1.00869 -0.04687,-2.78965 -0.07764,-3.86455c-0.14795,-3.99917 -0.12305,-8.00288 0.07471,-11.99985l0.17578,-0.04072c0.00439,-2.58164 -0.26221,-7.41431 1.08398,-9.58594l0.27393,-0.03911c-0.02783,-0.24858 -0.04248,-0.37397 -0.04834,-0.62534l0.25781,0.2751z" fill="url(#color-5)"/><path d="M199.47656,88.51113c0.77051,-0.00293 0.93604,-0.0709 1.70068,-0.2707l0.00293,27.40005l-0.00146,8.80503c-0.00146,1.87998 -0.08203,4.00884 0.11719,5.85586c-0.00732,0.38247 -0.00293,0.27363 -0.11719,0.65068c-0.17725,0.196 -0.39404,0.42627 -0.67529,0.43916c-3.90967,0.179 -8.11377,0.22471 -12.00732,0.06519c-1.65674,-0.06797 -10.75488,0.36182 -11.70117,-0.36694c-0.22266,-0.48896 -0.13623,-1.09702 -0.11572,-1.65132c-0.15234,-2.14351 -0.05566,-3.88784 -0.04834,-6.02241c-0.01465,-2.87271 0.00293,-5.74556 0.05273,-8.61782c-0.08643,-1.00869 -0.04687,-2.78965 -0.07764,-3.86455c-0.14795,-3.99917 -0.12305,-8.00288 0.07471,-11.99985l0.17578,-0.04072c0.00439,-2.58164 -0.26221,-7.41431 1.08398,-9.58594l0.27393,-0.03911c-0.02783,-0.24858 -0.04248,-0.37397 -0.04834,-0.62534l0.25781,0.2751c-0.02197,9.07676 -0.12744,18.15308 -0.31641,27.22793c-0.04102,3.55884 -0.33545,7.154 -0.17578,10.7083c0.02637,0.56748 0.09375,2.24165 0.54639,2.56934c1.33594,0.96665 18.67822,0.60557 21.26514,0.35669c0.13477,-1.8835 -0.02197,-4.3437 -0.04395,-6.30542c-0.03076,-4.13203 -0.0835,-8.26392 -0.15674,-12.39551c-0.12158,-7.50835 0.07617,-15.07778 -0.06592,-22.56768z" fill="#d9fc66"/><path d="M176.6792,129.43813c0.06152,0.55986 0.03809,1.04678 0.40576,1.44771c0.9873,0.58594 20.89307,-0.06372 23.43896,0.16567c0.20801,0.0189 0.64453,-0.54653 0.77197,-0.75015c-0.00732,0.38247 -0.00293,0.27363 -0.11719,0.65068c-0.17725,0.196 -0.39404,0.42627 -0.67529,0.43916c-3.90967,0.179 -8.11377,0.22471 -12.00732,0.06519c-1.65674,-0.06797 -10.75488,0.36182 -11.70117,-0.36694c-0.22266,-0.48896 -0.13623,-1.09702 -0.11572,-1.65132z" fill="#000000"/><path d="M176.68066,98.9335l0.17578,-0.04072l0.00293,0.16816c0.01904,0.67837 0.05859,0.64072 0.14502,1.20864c0.66797,4.37637 0.10107,9.86499 -0.16113,14.33599l-0.15967,0.19233c-0.08643,-1.00869 -0.04687,-2.78965 -0.07764,-3.86455c-0.14795,-3.99917 -0.12305,-8.00288 0.07471,-11.99985z" fill="#9ef351"/><path d="M178.52051,88.91045l0.16406,-0.30483c0.33398,-0.21372 0.7002,-0.2644 1.08838,-0.25181c3.23291,0.10503 6.73389,0.07749 9.92432,0.098c1.82959,0.01172 8.18994,-0.33867 9.58008,-0.05317c-1.53369,0.92593 -13.13379,0.20889 -15.35889,0.42964c-1.30518,0.12935 -3.3208,0.14502 -4.70801,0.30586c-0.375,0.04351 -0.45703,0.78003 -0.50977,1.04678l-0.08789,-0.06797z" fill="#175202"/><path d="M181.65967,46.46396l0.34863,0.08921l-0.02197,0.18296l-0.26221,0.12539c-4.66113,2.27344 -9.21533,5.49272 -14.09912,7.51816c-0.60205,0.24961 -1.52637,0.96313 -2.07422,0.78105c1.29785,-1.11636 7.19971,-3.77549 9.09375,-4.84863c1.24365,-0.7043 5.99414,-3.48018 7.01514,-3.84814z" fill="#fafbb0"/><path d="M199.30371,46.32334c0.65039,-0.01055 0.92432,-0.03604 1.52344,0.24038c-0.11719,0.14238 -0.03369,0.0583 -0.28857,0.20962c-1.16748,0.04775 -6.72949,0.30894 -7.59082,-0.16963l0.14795,0.04204c0.61963,-0.34336 4.89111,-0.029 6.20801,-0.32241z" fill="#e9f780"/><path d="M110.25469,87.6082c0.96401,0.70122 0.96343,0.20918 1.77202,0.44048c0.04775,-0.01157 27.9854,-0.07485 28.9188,0.06987c0.46919,0.29619 0.49951,0.37983 0.80859,0.82046l1.59668,-0.75029c2.4126,3.99053 4.83867,8.43911 7.14873,12.51606c2.729,4.71519 5.42578,9.44795 8.09326,14.19785c2.39941,4.29155 5.07568,9.24668 7.64063,13.39438c0.48486,0.72979 0.71777,1.19004 1.10156,1.95864c0.04395,0.41895 -0.14355,0.67896 -0.37207,0.97705c-0.40576,0.22969 -0.84521,0.26089 -1.31104,0.25664c-4.46191,0.09814 -9.15674,-0.1541 -13.59814,0.07236c-4.85889,0.24756 -8.02207,0.49058 -12.92593,-0.24009c-0.5146,-0.45088 -1.4417,-1.38896 -1.76396,-1.97974c-1.64941,-3.02373 -6.31143,-11.19404 -7.15005,-14.06104l0.00088,-0.21504c-0.93647,-1.40962 -1.71812,-3.20391 -2.50386,-4.71196c-0.39419,-0.75659 -0.57891,-2.26743 -1.22021,-2.66001c-0.23218,1.27588 -1.22886,3.67471 -2.03174,4.67563c-0.69902,1.70054 -2.04653,3.97075 -2.97173,5.59146l-4.02964,7.11665c-0.45044,0.79878 -1.85229,3.16655 -2.08945,3.80098c-0.21958,0.59619 -1.13057,2.23008 -1.78418,2.35532c-4.49077,0.85942 -8.95225,0.58433 -13.4874,0.33809c-4.45737,-0.24214 -9.05215,0.42173 -13.46704,-0.27231c-0.65742,-0.10342 -0.53906,-1.65894 -0.24771,-2.16006c1.48301,-2.66938 3.04893,-5.50151 4.61807,-8.11216c2.32617,-3.95273 4.50835,-7.62876 6.7043,-11.67861c0.94717,-1.8085 1.95322,-3.5855 3.0167,-5.32822c0.09419,-0.3646 1.63008,-2.89482 1.91089,-3.36826c0.42495,-0.58828 1.37593,-2.3458 1.84438,-3.1144c1.31997,-2.59233 4.19443,-7.25889 5.77866,-9.92974z" fill="url(#color-6)"/><path d="M126.21694,106.98193c0.28667,-0.43623 0.19043,-0.44883 0.59209,-0.6022c0.52148,0.60234 3.01831,5.13823 3.35244,5.95283c0.952,1.29653 1.5438,2.91079 2.38477,4.26504c1.11021,1.78755 2.09912,3.65815 3.13286,5.4769c1.10962,1.95249 2.91577,7.51626 5.4145,7.80073c2.96851,0.33794 6.36196,-0.00322 9.33706,0.18955c2.14893,0.1752 4.80908,0.18047 6.83057,0.67412c-0.49219,0.00308 -2.43311,-0.11294 -2.64844,0.23291c2.01563,0.34731 9.48779,-0.19438 12.00439,0.06548c0.3208,0.03325 0.49512,-0.42905 0.71777,-0.78164c0.04395,0.41895 -0.14355,0.67896 -0.37207,0.97705c-0.40576,0.22969 -0.84521,0.26089 -1.31104,0.25664c-4.46191,0.09814 -9.15674,-0.1541 -13.59814,0.07236c-4.85889,0.24756 -8.02207,0.49058 -12.92593,-0.24009c-0.5146,-0.45088 -1.4417,-1.38896 -1.76396,-1.97974c-1.64941,-3.02373 -6.31143,-11.19404 -7.15005,-14.06104l0.00088,-0.21504c-0.93647,-1.40962 -1.71812,-3.20391 -2.50386,-4.71196c-0.39419,-0.75659 -0.57891,-2.26743 -1.22021,-2.66001z" fill="#d9fc66"/><path d="M130.21377,115.28086c0.83232,1.02393 1.89756,3.23716 2.55146,4.46543l3.8272,7.10435c0.73271,1.38076 1.82212,4.18945 3.46245,4.14932c4.62729,-0.11309 9.99346,0.28242 14.55791,-0.02812c2.01563,0.34731 9.48779,-0.19438 12.00439,0.06548c0.3208,0.03325 0.49512,-0.42905 0.71777,-0.78164c0.04395,0.41895 -0.14355,0.67896 -0.37207,0.97705c-0.40576,0.22969 -0.84521,0.26089 -1.31104,0.25664c-4.46191,0.09814 -9.15674,-0.1541 -13.59814,0.07236c-4.85889,0.24756 -8.02207,0.49058 -12.92593,-0.24009c-0.5146,-0.45088 -1.4417,-1.38896 -1.76396,-1.97974c-1.64941,-3.02373 -6.31143,-11.19404 -7.15005,-14.06104z" fill="#000000"/><path d="M126.21694,106.98193c0.28667,-0.43623 0.19043,-0.44883 0.59209,-0.6022c0.52148,0.60234 3.01831,5.13823 3.35244,5.95283c0.12495,0.42231 0.32256,0.92563 0.29854,1.3374c-0.62769,-0.99067 -1.89478,-4.12441 -2.54004,-4.6585l-0.22544,0.14414c-0.15615,1.31514 3.09038,5.45596 2.52012,5.91021c-0.93647,-1.40962 -1.71812,-3.20391 -2.50386,-4.71196c-0.39419,-0.75659 -0.57891,-2.26743 -1.22021,-2.66001z" fill="#e9f780"/><path d="M110.25469,87.6082c0.96401,0.70122 0.96343,0.20918 1.77202,0.44048c-0.329,0.50112 -1.12793,1.66113 -1.36553,2.13691c-0.82148,1.06436 -1.6207,2.47031 -2.2894,3.64819c-4.38809,7.72778 -8.91592,15.37705 -13.3604,23.07305c-0.52485,0.90864 -1.11709,1.9147 -1.73159,2.76255l-0.07427,0.1563c-0.88037,1.8189 -4.99673,8.08213 -4.9916,9.37163c0.50698,0.55386 1.46646,0.53525 2.22422,0.60454c-0.60718,0.12041 -1.26284,0.25605 -1.87734,0.30571c-1.29565,0.10474 -1.33052,-0.10723 -1.64209,-1.1436c-0.04043,0.19702 -0.08394,0.3936 -0.13052,0.58931l-0.35361,-0.12891l-0.05288,-0.28477c1.48301,-2.66938 3.04893,-5.50151 4.61807,-8.11216c2.32617,-3.95273 4.50835,-7.62876 6.7043,-11.67861c0.94717,-1.8085 1.95322,-3.5855 3.0167,-5.32822c0.09419,-0.3646 1.63008,-2.89482 1.91089,-3.36826c0.42495,-0.58828 1.37593,-2.3458 1.84438,-3.1144c1.31997,-2.59233 4.19443,-7.25889 5.77866,-9.92974z" fill="#d9fc66"/><path d="M90.99976,121.02744c0.11104,0.19189 0.03325,0.12173 0.23115,0.21299c1.05308,-1.14961 3.271,-5.6228 3.82397,-5.95679c-0.02168,0.61582 -2.39443,4.41035 -2.83652,5.53755c0.15161,-0.08774 0.69434,-0.85239 1.06143,-1.15181l-0.07427,0.1563c-0.88037,1.8189 -4.99673,8.08213 -4.9916,9.37163c0.50698,0.55386 1.46646,0.53525 2.22422,0.60454c-0.60718,0.12041 -1.26284,0.25605 -1.87734,0.30571c-1.29565,0.10474 -1.33052,-0.10723 -1.64209,-1.1436c-0.04043,0.19702 -0.08394,0.3936 -0.13052,0.58931l-0.35361,-0.12891l-0.05288,-0.28477c1.48301,-2.66938 3.04893,-5.50151 4.61807,-8.11216z" fill="#9ef351"/><path d="M100.72075,104.02061c0.09419,-0.3646 1.63008,-2.89482 1.91089,-3.36826c-0.00234,0.64072 -0.03252,1.49077 0.01685,2.11113c-1.30664,1.22637 -5.14775,8.73208 -5.3272,8.85088c-0.0394,-0.81621 0.17798,-1.04692 0.59136,-1.7751l-0.20859,-0.49043c0.94717,-1.8085 1.95322,-3.5855 3.0167,-5.32822z" fill="#9ef351"/><path d="M100.72075,104.02061c0.17593,0.41909 0.20962,0.28418 -0.02256,0.78325c-0.79146,1.70259 -1.92979,3.38628 -2.78555,5.0354l-0.20859,-0.49043c0.94717,-1.8085 1.95322,-3.5855 3.0167,-5.32822z" fill="#fafbb0"/><path d="M104.47603,97.53794c0.2584,0.05654 0.32739,0.07134 0.58242,0.1563c-0.17314,1.05996 -1.75928,4.14009 -2.40996,5.06924c-0.04937,-0.62036 -0.01919,-1.47041 -0.01685,-2.11113c0.42495,-0.58828 1.37593,-2.3458 1.84438,-3.1144z" fill="#e9f780"/><path d="M141.7541,88.93901l1.59668,-0.75029c2.4126,3.99053 4.83867,8.43911 7.14873,12.51606c2.729,4.71519 5.42578,9.44795 8.09326,14.19785c2.39941,4.29155 5.07568,9.24668 7.64063,13.39438l-0.33838,0.28286l-0.48486,-0.77095c-0.30029,0.20435 -0.28418,0.21431 -0.63428,0.29502c-0.86426,-0.51973 -3.39258,-5.62764 -3.9624,-6.72539c-0.5874,-1.19224 -1.93066,-3.29897 -2.66309,-4.56841c-1.83838,-3.23481 -3.69873,-6.45659 -5.58398,-9.66489l-6.87949,-11.58384c-1.15708,-1.93931 -2.44658,-4.23149 -3.67002,-6.09932z" fill="#d9fc66"/><path d="M160.81348,121.37856l0.34277,-0.2042c0.01025,-0.83921 -0.74121,-1.28276 -0.87012,-2.16182c0.58887,0.704 4.83691,7.93096 5.12402,8.79639c-0.30029,0.20435 -0.28418,0.21431 -0.63428,0.29502c-0.86426,-0.51973 -3.39258,-5.62764 -3.9624,-6.72539z" fill="#9ef351"/><path d="M86.43457,129.42437l0.35361,0.12891c0.04658,-0.1957 0.09009,-0.39229 0.13052,-0.58931c0.31157,1.03638 0.34644,1.24834 1.64209,1.1436c0.6145,-0.04966 1.27017,-0.1853 1.87734,-0.30571l6.42773,0.18765c1.07798,0.65625 5.99824,0.30322 6.4793,0.96123c1.304,0.10078 9.54331,0.31157 10.36904,-0.17358c0.64644,-0.42231 1.15796,-1.25098 1.65381,-1.89858c-0.21958,0.59619 -1.13057,2.23008 -1.78418,2.35532c-4.49077,0.85942 -8.95225,0.58433 -13.4874,0.33809c-4.45737,-0.24214 -9.05215,0.42173 -13.46704,-0.27231c-0.65742,-0.10342 -0.53906,-1.65894 -0.24771,-2.16006z" fill="#000000"/><path d="M86.43457,129.42437l0.35361,0.12891c0.04658,-0.1957 0.09009,-0.39229 0.13052,-0.58931c0.31157,1.03638 0.34644,1.24834 1.64209,1.1436c0.6145,-0.04966 1.27017,-0.1853 1.87734,-0.30571l6.42773,0.18765c1.07798,0.65625 5.99824,0.30322 6.4793,0.96123c-0.7415,0.07251 -1.68076,0.02681 -2.43589,0.02212c-4.63447,-0.02959 -9.26807,0.0186 -13.90195,0.04468c-0.75322,0.00425 -0.70972,-1.08369 -0.57275,-1.59316z" fill="#d9fc66"/><path d="M126.21694,106.98193l0.27363,0.71191c-0.23218,1.27588 -1.22886,3.67471 -2.03174,4.67563c-0.69902,1.70054 -2.04653,3.97075 -2.97173,5.59146l-4.02964,7.11665c-0.45044,0.79878 -1.85229,3.16655 -2.08945,3.80098c-0.49585,0.64761 -1.00737,1.47627 -1.65381,1.89858c0.02827,-0.3709 0.12744,-0.47329 0.29575,-0.82354c1.60195,-2.62588 2.71743,-5.48584 4.15503,-8.18657c1.85566,-3.48604 3.61699,-7.29697 5.65649,-10.66025c0.81768,-1.36362 1.61631,-2.73867 2.39546,-4.12485z" fill="#fafbb0"/><path d="M166.2334,128.29702c0.48486,0.72979 0.71777,1.19004 1.10156,1.95864c-0.22266,0.35259 -0.39697,0.81489 -0.71777,0.78164c-2.5166,-0.25986 -9.98877,0.28184 -12.00439,-0.06548c0.21533,-0.34585 2.15625,-0.22983 2.64844,-0.23291c-2.02148,-0.49365 -4.68164,-0.49893 -6.83057,-0.67412c0.63721,-0.10063 3.32666,-0.12393 4.0708,-0.14048c3.93164,-0.08774 8.24268,-0.33896 12.14063,0.07134l-0.74707,-1.41577z" fill="#9ef351"/><path d="M96.86587,129.9895c5.7041,0.07969 11.51455,-0.20669 17.14409,-0.03589c-0.16831,0.35024 -0.26748,0.45264 -0.29575,0.82354c-0.82573,0.48516 -9.06504,0.27437 -10.36904,0.17358c-0.48105,-0.65801 -5.40132,-0.30498 -6.4793,-0.96123z" fill="#9ef351"/><path d="M112.02671,88.04868c0.04775,-0.01157 27.9854,-0.07485 28.9188,0.06987c0.46919,0.29619 0.49951,0.37983 0.80859,0.82046l0.26279,0.5231c-0.46348,-0.20771 -0.73271,-0.61128 -1.07314,-1.00664c-2.59292,-0.08687 -5.0896,0.06328 -7.64282,0.03267c-6.91216,-0.08306 -14.07803,0.17813 -20.95986,-0.15659c-0.37046,0.46436 -1.24878,1.69175 -1.67988,1.85405c0.2376,-0.47578 1.03652,-1.63579 1.36553,-2.13691z" fill="#0a2e01"/><path d="M145.4729,46.28057c1.85229,-0.04014 8.01929,-0.06841 9.72144,0.13125c1.77832,-0.01875 8.58545,-0.27554 9.74268,0.30439c0.19775,0.22559 0.38965,0.3769 0.3252,0.73638c-0.15527,0.87202 -2.95312,5.23022 -3.33398,5.59937c-3.39844,6.02886 -6.84229,12.65845 -10.38867,18.53877c-1.00928,2.26641 -8.61064,15.3498 -8.52173,16.20249l0.33296,0.39551l-1.59668,0.75029c-0.30908,-0.44063 -0.3394,-0.52427 -0.80859,-0.82046c-0.9334,-0.14473 -28.87104,-0.08145 -28.9188,-0.06987c-0.80859,-0.2313 -0.80801,0.26074 -1.77202,-0.44048c-1.44375,-2.39326 -3.29692,-6.03706 -4.69863,-8.5979l-9.75688,-17.81338c-2.5229,-4.60312 -5.47837,-8.88882 -8.04331,-13.73862c-0.00703,-0.38511 -0.02256,-0.24565 0.10679,-0.6145c0.62681,-0.57568 1.22886,-0.44912 2.07334,-0.42144c1.81392,-0.30952 23.89365,-0.2896 25.01953,0.0416c0.64409,0.1894 1.1231,0.81489 1.50044,1.33843c1.64224,2.27812 2.93906,5.17119 4.24365,7.66772c2.08887,3.90469 4.13115,7.83398 6.12656,11.7873c1.06289,-1.44814 2.0502,-3.88755 2.92822,-5.54077c2.52451,-4.75269 5.0146,-9.55767 7.60957,-14.27095c0.46963,-0.85298 0.8814,-0.93208 1.77319,-1.10977c1.72354,-0.12979 4.53853,-0.09492 6.33574,-0.05537z" fill="#93ea49"/><path d="M151.53955,71.59072l-0.09375,-0.19014c0.08496,-0.72187 9.27979,-17.23594 10.2085,-18.40898l0.27393,0.06035c-3.39844,6.02886 -6.84229,12.65845 -10.38867,18.53877z" fill="#e9f780"/><path d="M155.19434,46.41182c1.77832,-0.01875 8.58545,-0.27554 9.74268,0.30439l-0.15674,0.18691c-4.08398,-0.12568 -8.29248,0.15454 -12.36914,-0.20698l-0.05713,-0.08423c0.53467,-0.13228 2.15039,-0.16157 2.84033,-0.2001z" fill="#e9f780"/><path d="M87.75586,47.4583c-0.00703,-0.38511 -0.02256,-0.24565 0.10679,-0.6145c0.62681,-0.57568 1.22886,-0.44912 2.07334,-0.42144l0.16377,0.01128c2.33027,0.14399 5.46108,0.01304 7.89492,0.06328c-2.03188,0.4103 -3.95273,0.35977 -6.01069,0.34658c-1.47554,-0.00952 -3.00234,-0.31611 -4.22812,0.61479z" fill="#9ef351"/><path d="M139.13716,46.33594c1.72354,-0.12979 4.53853,-0.09492 6.33574,-0.05537l0.04629,0.27876c-0.65317,0.28477 -2.62515,0.22178 -3.45762,0.20522c-0.95054,-0.0189 -2.17134,0.11294 -2.92441,-0.42861z" fill="#9ef351"/><path d="M206.80664,185.17822c0.85107,-0.56396 4.71973,-0.271 6.0542,-0.27246l10.54248,-0.04687c2.1416,0.00146 4.27441,-0.00586 6.41455,-0.06592c0.44092,-0.01318 0.88623,0.62842 1.10156,0.96387c1.19092,-0.41016 0.76025,-0.71191 1.83398,-0.49805l16.27881,28.90283c1.4165,2.4873 2.96924,4.93652 4.41357,7.40625c0.57129,0.97705 1.71973,2.72461 2.12256,3.6958c0.25781,0.30469 0.28125,0.30762 0.44092,0.66797c-0.33838,1.12939 -3.75732,0.7207 -4.87646,0.68408c-1.87646,0.12891 -5.05664,0.03076 -7.01367,0.0293l-13.47217,-0.00293c-0.6709,-0.60059 -0.87158,-0.77051 -1.34473,-1.52637c-2.08594,-3.9082 -4.21729,-7.79297 -6.39258,-11.65137c-1.32129,-2.33643 -4.16309,-6.46875 -4.27148,-9.00439c-0.44238,1.19238 -0.95654,2.35547 -1.53955,3.48486c-1.1748,2.31445 -9.50537,17.47705 -10.67871,18.46289c-0.08789,0.10693 -0.13477,0.20215 -0.26807,0.20361c-7.50586,0.10254 -15.08643,0.04688 -22.60547,0.02197c-0.68262,-0.00293 -1.39014,-0.17725 -1.88525,-0.40869l-0.0835,-0.24902c0.24463,-1.26855 1.32861,-2.82715 2.0332,-3.96387c0.24902,-0.78223 3.60645,-6.2959 4.25098,-7.37109c1.71973,-2.85937 3.38818,-5.75098 5.00244,-8.67041c0.17432,-0.50537 1.49414,-2.65283 1.81787,-3.10693l0.01904,-0.07031c1.30078,-2.63379 3.76172,-6.82031 5.28076,-9.31201c0.59033,-1.10889 1.45752,-2.51807 2.09033,-3.63428c0.8042,-1.4165 1.94385,-3.9375 2.92822,-5.05957c1.03418,0.68555 1.08691,0.09814 1.80615,0.39111z" fill="url(#color-7)"/><path d="M230.91943,185.75684c1.19092,-0.41016 0.76025,-0.71191 1.83398,-0.49805l16.27881,28.90283c1.4165,2.4873 2.96924,4.93652 4.41357,7.40625c0.57129,0.97705 1.71973,2.72461 2.12256,3.6958c0.25781,0.30469 0.28125,0.30762 0.44092,0.66797c-0.33838,1.12939 -3.75732,0.7207 -4.87646,0.68408l0.91992,-0.2124c0.57129,0.03369 1.28906,0.14941 1.72559,-0.20654c-0.30469,-0.42773 -0.27686,-0.31787 -0.82471,-0.57422c0.42773,-0.03662 0.4248,-0.01465 0.8042,-0.19922c-0.33545,-1.875 -4.80176,-8.16211 -5.24268,-9.98584c-0.94775,-1.32275 -2.50781,-4.17334 -3.41162,-5.68652c-2.75537,-4.62891 -5.46973,-9.28564 -8.13867,-13.96582c-1.62305,-2.80371 -3.44385,-6.1333 -5.27783,-8.76416c-0.19922,-0.38232 -0.53467,-0.8877 -0.76758,-1.26416z" fill="#d9fc66"/><path d="M248.51514,215.4375c-0.03809,-0.32959 -0.01318,-0.33838 -0.17578,-0.62549l0.01172,-0.16553c1.35791,0.5376 6.01172,10.15576 7.21729,10.61719c0.25781,0.30469 0.28125,0.30762 0.44092,0.66797c-0.33838,1.12939 -3.75732,0.7207 -4.87646,0.68408l0.91992,-0.2124c0.57129,0.03369 1.28906,0.14941 1.72559,-0.20654c-0.30469,-0.42773 -0.27686,-0.31787 -0.82471,-0.57422c0.42773,-0.03662 0.4248,-0.01465 0.8042,-0.19922c-0.33545,-1.875 -4.80176,-8.16211 -5.24268,-9.98584z" fill="#9ef351"/><path d="M194.70117,202.79297c1.30078,-2.63379 3.76172,-6.82031 5.28076,-9.31201c0.15234,0.20068 0.20508,0.27686 0.40576,0.43359c-0.00732,1.88672 -2.66162,4.25391 -2.69385,5.75391l0.75146,-0.58447c-2.03174,3.74414 -4.15723,7.43994 -6.37061,11.08008c-2.27051,3.67822 -4.64648,7.14111 -6.58008,11.0332c-0.74121,1.48975 -1.51172,2.58545 -2.05371,4.22168c1.66846,0.01025 5.16064,-0.05127 6.76318,0.12891c-1.91895,0.11572 -4.06787,-0.20361 -5.95605,0.13916c-0.53174,0.09668 -0.40283,0.11719 -0.99463,0.11865c-0.24463,-0.12305 -0.37354,-0.19189 -0.62988,-0.2915l-0.27539,0.55371l-0.14648,-0.04834c-0.25049,-1.13818 1.55713,-2.69092 1.40918,-4.00781c0.24902,-0.78223 3.60645,-6.2959 4.25098,-7.37109c1.71973,-2.85937 3.38818,-5.75098 5.00244,-8.67041c0.17432,-0.50537 1.49414,-2.65283 1.81787,-3.10693z" fill="#9ef351"/><path d="M210.71631,217.17773c0.19922,0.38672 0.30469,0.375 0.17139,0.68848c-1.21143,2.85352 -3.25049,5.4873 -4.57324,8.27344c0.03516,0.08936 0.07031,0.17871 0.10547,0.26807c-0.08789,0.10693 -0.13477,0.20215 -0.26807,0.20361c-7.50586,0.10254 -15.08643,0.04688 -22.60547,0.02197c-0.68262,-0.00293 -1.39014,-0.17725 -1.88525,-0.40869l-0.0835,-0.24902c0.24463,-1.26855 1.32861,-2.82715 2.0332,-3.96387c0.14795,1.31689 -1.65967,2.86963 -1.40918,4.00781l0.14648,0.04834l0.27539,-0.55371c0.25635,0.09961 0.38525,0.16846 0.62988,0.2915c0.5918,-0.00146 0.46289,-0.02197 0.99463,-0.11865c1.88818,-0.34277 4.03711,-0.02344 5.95605,-0.13916c4.91748,0.10107 11.05371,0.09082 15.95068,-0.09521c1.49854,-2.77588 3.09961,-5.54736 4.56152,-8.2749z" fill="#d9fc66"/><path d="M218.75684,203.48291c2.44336,3.42773 5.0083,8.84473 7.15137,12.55811c0.75146,1.30225 2.1665,4.30078 2.9707,5.39648c0.27686,0.51709 0.5625,1.02979 0.85547,1.53809c-0.28711,1.20996 1.29639,1.98633 0.90527,3.12891c-0.46875,-0.46875 -0.70605,-0.79834 -1.3374,-0.98877c-2.08594,-3.9082 -4.21729,-7.79297 -6.39258,-11.65137c-1.32129,-2.33643 -4.16309,-6.46875 -4.27148,-9.00439c-0.16553,-0.33838 -0.01611,-0.49219 0.11865,-0.97705z" fill="url(#color-8)"/><path d="M229.73438,222.97559c0.71777,1.18213 1.2832,2.05811 2.79053,2.3291c1.49121,0.26807 3.73389,0.13623 5.31006,0.1084c4.69482,0.18018 9.37354,-0.12305 14.10938,0.12891l1.00928,0.08057c0.54785,0.25635 0.52002,0.14648 0.82471,0.57422c-0.43652,0.35596 -1.1543,0.24023 -1.72559,0.20654l-0.91992,0.2124c-1.87646,0.12891 -5.05664,0.03076 -7.01367,0.0293l-13.47217,-0.00293c-0.6709,-0.60059 -0.87158,-0.77051 -1.34473,-1.52637c0.63135,0.19043 0.86865,0.52002 1.3374,0.98877c0.39111,-1.14258 -1.19238,-1.91895 -0.90527,-3.12891z" fill="#d9fc66"/><path d="M210.71631,217.17773c0.61816,-1.20557 1.90723,-3.24023 2.55615,-4.48975c0.89502,-1.72412 3.97412,-8.30859 5.29248,-9.31494l0.19189,0.10986c-0.13477,0.48486 -0.28418,0.63867 -0.11865,0.97705c-0.44238,1.19238 -0.95654,2.35547 -1.53955,3.48486c-1.1748,2.31445 -9.50537,17.47705 -10.67871,18.46289c-0.03516,-0.08936 -0.07031,-0.17871 -0.10547,-0.26807c1.32275,-2.78613 3.36182,-5.41992 4.57324,-8.27344c0.1333,-0.31348 0.02783,-0.30176 -0.17139,-0.68848z" fill="#fafbb0"/><path d="M205.00049,184.78711c1.03418,0.68555 1.08691,0.09814 1.80615,0.39111c-0.70166,0.92432 -1.59375,2.12109 -2.13135,3.15967c-0.62256,0.76611 -1.38281,2.28369 -1.91309,3.17432c-1.42529,2.39209 -2.80371,5.26758 -4.31689,7.57178l-0.75146,0.58447c0.03223,-1.5 2.68652,-3.86719 2.69385,-5.75391c-0.20068,-0.15674 -0.25342,-0.23291 -0.40576,-0.43359c0.59033,-1.10889 1.45752,-2.51807 2.09033,-3.63428c0.8042,-1.4165 1.94385,-3.9375 2.92822,-5.05957z" fill="#d9fc66"/><path d="M206.80664,185.17822c0.85107,-0.56396 4.71973,-0.271 6.0542,-0.27246l10.54248,-0.04687c2.1416,0.00146 4.27441,-0.00586 6.41455,-0.06592c0.44092,-0.01318 0.88623,0.62842 1.10156,0.96387c0.23291,0.37646 0.56836,0.88184 0.76758,1.26416c-0.66797,-0.29883 -0.95508,-1.1543 -1.61426,-1.83398c-5.31445,0.07324 -10.63037,0.10693 -15.94629,0.10254c-2.10205,-0.00146 -5.10059,-0.19775 -7.06348,-0.0498c-0.48047,0.70605 -1.75928,2.79639 -2.3877,3.09814c0.5376,-1.03857 1.42969,-2.23535 2.13135,-3.15967z" fill="#175202"/><path d="M228.87891,221.4375c0.18311,0.12012 0.64893,0.47314 0.72217,0.68115c0.43359,1.22754 3.36475,1.16748 3.77051,1.64355c1.84717,2.16943 2.28516,0.99316 4.46338,1.65088c-1.57617,0.02783 -3.81885,0.15967 -5.31006,-0.1084c-1.50732,-0.271 -2.07275,-1.14697 -2.79053,-2.3291c-0.29297,-0.5083 -0.57861,-1.021 -0.85547,-1.53809z" fill="#93ea49"/><path d="M232.39746,143.06851c6.84668,-0.38159 14.24268,-0.02871 21.13037,0.0123c0.59033,0.00352 1.15283,0.46392 1.27881,1.0582c-0.04687,0.17036 -0.07617,0.33955 -0.1582,0.48589c-0.26074,0.88198 -0.99756,2.06748 -1.4707,2.90098c-2.21045,2.40234 -2.78613,4.80029 -4.35645,6.87891c-2.75537,5.05811 -5.82715,10.71533 -8.72168,15.65771c-0.77783,1.68164 -8.08447,13.77539 -7.82812,14.45361c0.09375,0.24609 0.33105,0.52295 0.48193,0.74268c-1.07373,-0.21387 -0.64307,0.08789 -1.83398,0.49805c-0.21533,-0.33545 -0.66064,-0.97705 -1.10156,-0.96387c-2.14014,0.06006 -4.27295,0.06738 -6.41455,0.06592l-10.54248,0.04688c-1.33447,0.00146 -5.20312,-0.2915 -6.0542,0.27246c-0.71924,-0.29297 -0.77197,0.29443 -1.80615,-0.39111c-0.22998,-0.61084 -1.34766,-2.55469 -1.70654,-3.20947l-3.30908,-6.03662c-5.3335,-9.78369 -10.89258,-19.44141 -16.67432,-28.96582c-0.37793,-0.6208 -1.34912,-2.11567 -1.18799,-2.78071c0.59619,-0.54199 1.23486,-0.60659 2.02588,-0.6832l0.34717,-0.02666c0.95947,-0.19731 3.48486,-0.14341 4.54688,-0.13857l8.01416,0.0375c2.94434,0.00249 5.98096,-0.21035 8.91357,-0.03354c0.53174,0.03193 1.18945,0.06123 1.64502,0.36973c2.00537,1.3582 8.83887,16.75547 11.14453,19.99717c3.43066,-6.43213 6.55225,-13.16162 10.49707,-19.30986c0.2168,-0.33853 0.74854,-0.67207 1.08545,-0.88008c0.66943,-0.02241 1.38867,-0.0605 2.05518,-0.05845z" fill="#93ea49"/><path d="M232.39746,143.06851c6.84668,-0.38159 14.24268,-0.02871 21.13037,0.0123c0.59033,0.00352 1.15283,0.46392 1.27881,1.0582c-0.04687,0.17036 -0.07617,0.33955 -0.1582,0.48589c-0.26074,0.88198 -0.99756,2.06748 -1.4707,2.90098l-0.30322,-0.13623l-0.1377,0.03223c-0.19189,-1.2293 1.55566,-2.61196 1.43115,-3.25825c-0.42334,0.1377 -0.25928,0.1314 -0.68555,0.08145c-0.05127,-0.13315 -0.16553,-0.53159 -0.2915,-0.53569c-5.45654,-0.1793 -11.63525,-0.03706 -17.04199,-0.06431c-1.9248,-0.00981 -3.53174,0.10532 -4.0166,-0.07734c0.30029,-0.2458 0.19336,-0.09434 0.26514,-0.49922z" fill="#9ef351"/><path d="M252.87451,147.38965c0.46875,-0.73828 1.02686,-1.90195 1.5835,-2.80151l0.19043,0.03677c-0.26074,0.88198 -0.99756,2.06748 -1.4707,2.90098z" fill="#e4e7d0"/><path d="M240.09961,170.0625l-0.18164,-0.35303c1.13965,-2.11377 2.354,-4.15869 3.48926,-6.26074c1.59229,-2.94727 3.17139,-6.34717 5.10938,-9.07471l0.30469,0.03076c-2.75537,5.05811 -5.82715,10.71533 -8.72168,15.65771z" fill="#e9f780"/><path d="M184.49561,143.08462c1.50293,0.21035 5.42725,-0.3208 6.63281,0.18237c-0.17139,0.10313 -1.85449,0.1604 -2.12695,0.14297c-0.98877,-0.06284 -4.27734,0.33721 -4.85303,-0.29868z" fill="#9ef351"/></g></svg></svg>